%TF.GenerationSoftware,Altium Limited,Altium Designer,18.1.6 (161)*%
G04 Layer_Physical_Order=1*
G04 Layer_Color=255*
%FSLAX44Y44*%
%MOMM*%
%TF.FileFunction,Copper,L1,Top,Signal*%
%TF.Part,Single*%
G01*
G75*
%TA.AperFunction,Conductor*%
%ADD10C,0.7620*%
%TA.AperFunction,ComponentPad*%
%ADD11C,2.0000*%
%ADD12R,2.0000X2.0000*%
%ADD13O,2.0000X3.0000*%
%ADD14R,2.0000X3.0000*%
%ADD15R,3.8100X6.3500*%
%ADD16O,3.0000X2.0000*%
%ADD17R,2.0000X2.0000*%
%ADD18R,3.0000X2.0000*%
%ADD19O,2.0000X3.0000*%
%TA.AperFunction,ViaPad*%
%ADD20C,2.0000*%
G36*
X1142487Y1172201D02*
X1142001Y1171028D01*
X761840D01*
Y1196252D01*
X1118435D01*
X1142487Y1172201D01*
D02*
G37*
G36*
X397032Y1148507D02*
X396333Y1147364D01*
X395716Y1146172D01*
X395181Y1144931D01*
X394729Y1143642D01*
X394358Y1142302D01*
X394070Y1140914D01*
X393865Y1139477D01*
X393741Y1137990D01*
X393700Y1136454D01*
X386080D01*
X386039Y1137990D01*
X385915Y1139477D01*
X385710Y1140914D01*
X385422Y1142302D01*
X385051Y1143642D01*
X384599Y1144931D01*
X384064Y1146172D01*
X383447Y1147364D01*
X382748Y1148507D01*
X381966Y1149600D01*
X397814D01*
X397032Y1148507D01*
D02*
G37*
G36*
X649727Y1149359D02*
X620853Y1120485D01*
X619679Y1120971D01*
Y1126410D01*
X619364Y1129615D01*
X618428Y1132697D01*
X616910Y1135537D01*
X614867Y1138027D01*
X612378Y1140070D01*
X609537Y1141589D01*
X606455Y1142523D01*
X603250Y1142839D01*
X600045Y1142523D01*
X598175Y1141956D01*
X597501Y1143079D01*
X604955Y1150532D01*
X649240D01*
X649727Y1149359D01*
D02*
G37*
G36*
X1060700Y1112216D02*
X1059607Y1112998D01*
X1058464Y1113697D01*
X1057272Y1114314D01*
X1056031Y1114849D01*
X1054742Y1115302D01*
X1053402Y1115672D01*
X1052014Y1115960D01*
X1050577Y1116165D01*
X1049090Y1116289D01*
X1047554Y1116330D01*
Y1123950D01*
X1049090Y1123991D01*
X1050577Y1124115D01*
X1052014Y1124320D01*
X1053402Y1124608D01*
X1054742Y1124978D01*
X1056031Y1125431D01*
X1057272Y1125966D01*
X1058464Y1126583D01*
X1059607Y1127282D01*
X1060700Y1128064D01*
Y1112216D01*
D02*
G37*
G36*
X478810Y1117843D02*
X477484Y1117623D01*
X476181Y1117310D01*
X474902Y1116903D01*
X473647Y1116404D01*
X472415Y1115812D01*
X471206Y1115127D01*
X470021Y1114349D01*
X468859Y1113478D01*
X467720Y1112514D01*
X466605Y1111457D01*
X461217Y1116845D01*
X462274Y1117960D01*
X463238Y1119099D01*
X464109Y1120261D01*
X464887Y1121446D01*
X465572Y1122655D01*
X466164Y1123887D01*
X466663Y1125142D01*
X467070Y1126421D01*
X467383Y1127724D01*
X467603Y1129050D01*
X478810Y1117843D01*
D02*
G37*
G36*
X662028Y1110996D02*
X661809Y1111800D01*
X661463Y1112369D01*
X660989Y1112703D01*
X660387Y1112801D01*
X659658Y1112664D01*
X658801Y1112292D01*
X657817Y1111684D01*
X656705Y1110841D01*
X655465Y1109763D01*
X654098Y1108449D01*
X650094Y1115222D01*
X659771Y1124436D01*
X662028Y1110996D01*
D02*
G37*
G36*
X580431Y1113720D02*
X580555Y1112233D01*
X580760Y1110796D01*
X581048Y1109408D01*
X581418Y1108068D01*
X581871Y1106778D01*
X582406Y1105538D01*
X583023Y1104346D01*
X583722Y1103203D01*
X584504Y1102110D01*
X568656D01*
X569438Y1103203D01*
X570137Y1104346D01*
X570754Y1105538D01*
X571289Y1106778D01*
X571741Y1108068D01*
X572112Y1109408D01*
X572400Y1110796D01*
X572605Y1112233D01*
X572729Y1113720D01*
X572770Y1115256D01*
X580390D01*
X580431Y1113720D01*
D02*
G37*
G36*
X853305Y1108762D02*
X853302Y1108622D01*
X851274Y1107066D01*
X836921Y1092713D01*
X835748Y1093199D01*
Y1109892D01*
X852524D01*
X853305Y1108762D01*
D02*
G37*
G36*
X884170Y1091896D02*
X883077Y1092678D01*
X881934Y1093377D01*
X880742Y1093994D01*
X879501Y1094529D01*
X878212Y1094982D01*
X876872Y1095352D01*
X875484Y1095640D01*
X874047Y1095845D01*
X872560Y1095969D01*
X871024Y1096010D01*
Y1103630D01*
X872560Y1103671D01*
X874047Y1103795D01*
X875484Y1104000D01*
X876872Y1104288D01*
X878212Y1104659D01*
X879501Y1105111D01*
X880742Y1105646D01*
X881934Y1106263D01*
X883077Y1106962D01*
X884170Y1107744D01*
Y1091896D01*
D02*
G37*
G36*
X393741Y1101020D02*
X393865Y1099533D01*
X394070Y1098096D01*
X394358Y1096708D01*
X394729Y1095368D01*
X395181Y1094079D01*
X395716Y1092838D01*
X396333Y1091646D01*
X397032Y1090503D01*
X397814Y1089410D01*
X381966D01*
X382748Y1090503D01*
X383447Y1091646D01*
X384064Y1092838D01*
X384599Y1094079D01*
X385051Y1095368D01*
X385422Y1096708D01*
X385710Y1098096D01*
X385915Y1099533D01*
X386039Y1101020D01*
X386080Y1102556D01*
X393700D01*
X393741Y1101020D01*
D02*
G37*
G36*
X662028Y1085596D02*
X661809Y1086400D01*
X661463Y1086969D01*
X660989Y1087303D01*
X660387Y1087401D01*
X659658Y1087264D01*
X658801Y1086892D01*
X657817Y1086284D01*
X656705Y1085441D01*
X655465Y1084363D01*
X654098Y1083049D01*
X650094Y1089822D01*
X659771Y1099036D01*
X662028Y1085596D01*
D02*
G37*
G36*
X373540Y1194318D02*
Y1168560D01*
X377902D01*
X378203Y1167721D01*
X378251Y1167290D01*
X376230Y1164827D01*
X374711Y1161987D01*
X373777Y1158905D01*
X373461Y1155700D01*
X373777Y1152495D01*
X374711Y1149413D01*
X376230Y1146572D01*
X376532Y1146204D01*
X376699Y1145835D01*
X377346Y1144929D01*
X377804Y1144182D01*
X378209Y1143399D01*
X378564Y1142576D01*
X378870Y1141705D01*
X379125Y1140781D01*
X379329Y1139797D01*
X379479Y1138749D01*
X379572Y1137635D01*
X379608Y1136281D01*
X379642Y1136129D01*
Y1102881D01*
X379608Y1102729D01*
X379572Y1101375D01*
X379479Y1100261D01*
X379329Y1099213D01*
X379125Y1098229D01*
X378870Y1097305D01*
X378564Y1096434D01*
X378209Y1095611D01*
X377804Y1094828D01*
X377346Y1094081D01*
X376699Y1093175D01*
X376532Y1092806D01*
X376230Y1092438D01*
X374711Y1089597D01*
X373777Y1086515D01*
X373461Y1083310D01*
X373777Y1080105D01*
X374711Y1077023D01*
X376230Y1074183D01*
X378273Y1071693D01*
X379485Y1070698D01*
X379031Y1069428D01*
X376355D01*
X359498Y1086285D01*
Y1181935D01*
X372367Y1194804D01*
X373540Y1194318D01*
D02*
G37*
G36*
X684615Y1074947D02*
X684930Y1074303D01*
X685453Y1073735D01*
X686186Y1073243D01*
X687129Y1072827D01*
X688280Y1072486D01*
X689642Y1072221D01*
X691213Y1072031D01*
X692993Y1071918D01*
X694982Y1071880D01*
Y1064260D01*
X692993Y1064222D01*
X689642Y1063919D01*
X688280Y1063654D01*
X687129Y1063313D01*
X686186Y1062897D01*
X685453Y1062405D01*
X684930Y1061837D01*
X684615Y1061193D01*
X684511Y1060474D01*
Y1075666D01*
X684615Y1074947D01*
D02*
G37*
G36*
X815252Y1115895D02*
Y1056506D01*
X813982Y1055980D01*
X794646Y1075316D01*
X792524Y1076945D01*
X790052Y1077969D01*
X787400Y1078318D01*
X787400Y1078318D01*
X695268D01*
X695106Y1078353D01*
X693261Y1078388D01*
X691806Y1078481D01*
X690649Y1078621D01*
X690582Y1078634D01*
X689717Y1079687D01*
X689399Y1079949D01*
X689217Y1080964D01*
X689295Y1081404D01*
X689379Y1081576D01*
X689717Y1081853D01*
X691760Y1084342D01*
X693279Y1087183D01*
X694213Y1090265D01*
X694529Y1093470D01*
X694213Y1096675D01*
X693279Y1099757D01*
X691760Y1102598D01*
X689717Y1105087D01*
X689171Y1105535D01*
Y1106805D01*
X689717Y1107253D01*
X691760Y1109743D01*
X693279Y1112583D01*
X694213Y1115665D01*
X694529Y1118870D01*
X694213Y1122075D01*
X693279Y1125157D01*
X691760Y1127998D01*
X689717Y1130487D01*
X687227Y1132530D01*
X686741Y1132790D01*
X687050Y1134022D01*
X797125D01*
X815252Y1115895D01*
D02*
G37*
G36*
X884170Y1055066D02*
X883077Y1055848D01*
X881934Y1056547D01*
X880742Y1057164D01*
X879501Y1057699D01*
X878212Y1058151D01*
X876872Y1058522D01*
X875484Y1058810D01*
X874047Y1059015D01*
X872560Y1059139D01*
X871024Y1059180D01*
Y1066800D01*
X872560Y1066841D01*
X874047Y1066965D01*
X875484Y1067170D01*
X876872Y1067458D01*
X878212Y1067829D01*
X879501Y1068281D01*
X880742Y1068816D01*
X881934Y1069433D01*
X883077Y1070132D01*
X884170Y1070914D01*
Y1055066D01*
D02*
G37*
G36*
X651851Y1069903D02*
X651671Y1068070D01*
X651987Y1064865D01*
X652922Y1061783D01*
X654440Y1058942D01*
X656483Y1056453D01*
X657029Y1056005D01*
Y1054735D01*
X656483Y1054287D01*
X655003Y1052484D01*
X652736Y1051545D01*
X650614Y1049916D01*
X650614Y1049916D01*
X643881Y1043183D01*
X642708Y1043670D01*
Y1062555D01*
X650632Y1070480D01*
X651851Y1069903D01*
D02*
G37*
G36*
X797472Y1043505D02*
Y1036452D01*
X796228Y1036177D01*
X794710Y1039017D01*
X792667Y1041507D01*
X790178Y1043550D01*
X787337Y1045069D01*
X784255Y1046003D01*
X781050Y1046319D01*
X777845Y1046003D01*
X774763Y1045069D01*
X771923Y1043550D01*
X769433Y1041507D01*
X767390Y1039017D01*
X765872Y1036177D01*
X764937Y1033095D01*
X764621Y1029890D01*
Y1019890D01*
X764937Y1016685D01*
X765872Y1013603D01*
X767390Y1010762D01*
X769433Y1008273D01*
X771923Y1006230D01*
X774763Y1004712D01*
X777845Y1003777D01*
X781050Y1003461D01*
X784255Y1003777D01*
X787337Y1004712D01*
X790178Y1006230D01*
X792667Y1008273D01*
X794710Y1010762D01*
X796228Y1013603D01*
X797472Y1013328D01*
Y959285D01*
X790182Y951995D01*
X790051Y951912D01*
X789068Y950980D01*
X788214Y950257D01*
X787368Y949623D01*
X786528Y949072D01*
X785693Y948599D01*
X784862Y948199D01*
X784029Y947868D01*
X783189Y947601D01*
X782336Y947396D01*
X781238Y947213D01*
X780860Y947070D01*
X780385Y947023D01*
X777303Y946088D01*
X774463Y944570D01*
X771973Y942527D01*
X769930Y940038D01*
X768411Y937197D01*
X767477Y934115D01*
X767161Y930910D01*
X767477Y927705D01*
X768411Y924623D01*
X769930Y921783D01*
X771973Y919293D01*
X774463Y917250D01*
X777303Y915732D01*
X780385Y914797D01*
X783590Y914481D01*
X786795Y914797D01*
X789877Y915732D01*
X792718Y917250D01*
X795207Y919293D01*
X797250Y921783D01*
X798768Y924623D01*
X799704Y927705D01*
X799750Y928180D01*
X799893Y928558D01*
X800076Y929656D01*
X800281Y930509D01*
X800548Y931349D01*
X800879Y932182D01*
X801279Y933013D01*
X801752Y933848D01*
X802303Y934688D01*
X802937Y935534D01*
X803660Y936387D01*
X804592Y937371D01*
X804675Y937502D01*
X813982Y946810D01*
X815252Y946284D01*
Y799265D01*
X767915Y751928D01*
X715531D01*
X715379Y751962D01*
X714025Y751998D01*
X712911Y752091D01*
X711863Y752241D01*
X710879Y752445D01*
X709955Y752700D01*
X709084Y753006D01*
X708261Y753361D01*
X707478Y753766D01*
X706731Y754224D01*
X705825Y754871D01*
X705456Y755038D01*
X705088Y755340D01*
X702247Y756859D01*
X699165Y757794D01*
X695960Y758109D01*
X692755Y757794D01*
X689673Y756859D01*
X686833Y755340D01*
X684343Y753297D01*
X682300Y750807D01*
X680781Y747967D01*
X680680Y747633D01*
X679410D01*
X679308Y747967D01*
X677790Y750807D01*
X675747Y753297D01*
X675201Y753745D01*
Y755015D01*
X675747Y755463D01*
X677790Y757952D01*
X679308Y760793D01*
X680243Y763875D01*
X680559Y767080D01*
X680243Y770285D01*
X679308Y773367D01*
X677790Y776208D01*
X675747Y778697D01*
X675201Y779145D01*
Y780415D01*
X675747Y780863D01*
X677790Y783353D01*
X679308Y786193D01*
X680243Y789275D01*
X680559Y792480D01*
X680243Y795685D01*
X679308Y798767D01*
X677790Y801608D01*
X675747Y804097D01*
X675201Y804545D01*
Y805815D01*
X675747Y806263D01*
X677790Y808753D01*
X679308Y811593D01*
X680243Y814675D01*
X680559Y817880D01*
X680243Y821085D01*
X679308Y824167D01*
X677790Y827008D01*
X675747Y829497D01*
X675201Y829945D01*
Y831215D01*
X675747Y831663D01*
X677790Y834153D01*
X679308Y836993D01*
X680243Y840075D01*
X680559Y843280D01*
X680243Y846485D01*
X679308Y849567D01*
X677790Y852408D01*
X675747Y854897D01*
X673258Y856940D01*
X670417Y858458D01*
X667335Y859393D01*
X664130Y859709D01*
X654130D01*
X650925Y859393D01*
X647843Y858458D01*
X645003Y856940D01*
X642513Y854897D01*
X640470Y852408D01*
X638951Y849567D01*
X638017Y846485D01*
X637701Y843280D01*
X638017Y840075D01*
X638951Y836993D01*
X640470Y834153D01*
X642513Y831663D01*
X643059Y831215D01*
Y829945D01*
X642513Y829497D01*
X640470Y827008D01*
X638951Y824167D01*
X638017Y821085D01*
X637701Y817880D01*
X638017Y814675D01*
X638951Y811593D01*
X640470Y808753D01*
X642513Y806263D01*
X643059Y805815D01*
Y804545D01*
X642513Y804097D01*
X640470Y801608D01*
X638951Y798767D01*
X638017Y795685D01*
X637701Y792480D01*
X638017Y789275D01*
X638951Y786193D01*
X640470Y783353D01*
X642513Y780863D01*
X643059Y780415D01*
Y779145D01*
X642513Y778697D01*
X640470Y776208D01*
X638951Y773367D01*
X638017Y770285D01*
X637701Y767080D01*
X638017Y763875D01*
X638951Y760793D01*
X640470Y757952D01*
X642513Y755463D01*
X643059Y755015D01*
Y753745D01*
X642513Y753297D01*
X640470Y750807D01*
X638951Y747967D01*
X638017Y744885D01*
X637701Y741680D01*
X638017Y738475D01*
X638951Y735393D01*
X640470Y732552D01*
X642513Y730063D01*
X645003Y728020D01*
X647843Y726501D01*
X650925Y725566D01*
X654130Y725251D01*
X664130D01*
X667335Y725566D01*
X670417Y726501D01*
X673258Y728020D01*
X675747Y730063D01*
X677790Y732552D01*
X679308Y735393D01*
X679410Y735727D01*
X680680D01*
X680781Y735393D01*
X682300Y732552D01*
X684343Y730063D01*
X686833Y728020D01*
X689673Y726501D01*
X690158Y726354D01*
X690386Y725105D01*
X689984Y724796D01*
X665045Y699858D01*
X628650D01*
X625998Y699509D01*
X623526Y698485D01*
X621404Y696856D01*
X605355Y680808D01*
X533835D01*
X501738Y712905D01*
Y882129D01*
X501772Y882281D01*
X501808Y883635D01*
X501901Y884749D01*
X502051Y885797D01*
X502255Y886781D01*
X502510Y887705D01*
X502816Y888576D01*
X503171Y889399D01*
X503576Y890182D01*
X504034Y890929D01*
X504681Y891835D01*
X504848Y892204D01*
X505150Y892572D01*
X506669Y895413D01*
X507603Y898495D01*
X507919Y901700D01*
X507603Y904905D01*
X506669Y907987D01*
X505150Y910827D01*
X503129Y913290D01*
X503177Y913721D01*
X503478Y914560D01*
X543002D01*
X543302Y913721D01*
X543351Y913290D01*
X541330Y910827D01*
X539812Y907987D01*
X538876Y904905D01*
X538561Y901700D01*
X538876Y898495D01*
X539812Y895413D01*
X541330Y892572D01*
X543373Y890083D01*
X545863Y888040D01*
X548703Y886522D01*
X551785Y885586D01*
X554990Y885271D01*
X558195Y885586D01*
X561277Y886522D01*
X564118Y888040D01*
X566607Y890083D01*
X568155Y891969D01*
X568272Y892033D01*
X569648D01*
X569765Y891969D01*
X571313Y890083D01*
X573802Y888040D01*
X576643Y886522D01*
X579725Y885586D01*
X582930Y885271D01*
X586135Y885586D01*
X589217Y886522D01*
X592057Y888040D01*
X594547Y890083D01*
X596095Y891969D01*
X596212Y892033D01*
X597588D01*
X597705Y891969D01*
X599253Y890083D01*
X601743Y888040D01*
X604583Y886522D01*
X607665Y885586D01*
X610870Y885271D01*
X614075Y885586D01*
X617157Y886522D01*
X619997Y888040D01*
X622487Y890083D01*
X624530Y892572D01*
X626049Y895413D01*
X626983Y898495D01*
X627285Y901552D01*
X627365Y901656D01*
X628388Y904128D01*
X628738Y906780D01*
X628738Y906780D01*
Y912998D01*
X628772Y913150D01*
X628805Y914398D01*
X628819Y914560D01*
X761840D01*
Y947260D01*
X631434D01*
X630948Y948433D01*
X656216Y973702D01*
X656216Y973702D01*
X657845Y975824D01*
X658868Y978296D01*
X659218Y980948D01*
Y1002243D01*
X660307Y1002896D01*
X661813Y1002092D01*
X664895Y1001156D01*
X668100Y1000841D01*
X678100D01*
X681305Y1001156D01*
X684387Y1002092D01*
X687227Y1003610D01*
X688170Y1004383D01*
X688382Y1004484D01*
X688635Y1004764D01*
X688815Y1004913D01*
X689089Y1005096D01*
X689150Y1005188D01*
X689717Y1005653D01*
X690579Y1006703D01*
X691162Y1006756D01*
X691487Y1006709D01*
X692471Y1006505D01*
X693395Y1006250D01*
X694266Y1005944D01*
X695089Y1005589D01*
X695872Y1005184D01*
X696619Y1004726D01*
X697525Y1004079D01*
X697894Y1003912D01*
X698262Y1003610D01*
X701103Y1002092D01*
X704185Y1001156D01*
X707390Y1000841D01*
X710595Y1001156D01*
X713677Y1002092D01*
X716517Y1003610D01*
X719007Y1005653D01*
X721050Y1008142D01*
X722569Y1010983D01*
X723503Y1014065D01*
X723819Y1017270D01*
X723503Y1020475D01*
X722569Y1023557D01*
X721050Y1026397D01*
X719007Y1028887D01*
X716517Y1030930D01*
X713677Y1032449D01*
X710595Y1033383D01*
X707390Y1033699D01*
X704185Y1033383D01*
X701103Y1032449D01*
X698262Y1030930D01*
X697894Y1030628D01*
X697525Y1030461D01*
X696619Y1029814D01*
X695872Y1029356D01*
X695089Y1028951D01*
X694266Y1028596D01*
X693395Y1028290D01*
X692471Y1028035D01*
X691487Y1027831D01*
X691065Y1027770D01*
X690649Y1027821D01*
X690582Y1027834D01*
X689717Y1028887D01*
X689399Y1029148D01*
X689217Y1030164D01*
X689295Y1030604D01*
X689379Y1030776D01*
X689717Y1031053D01*
X691760Y1033542D01*
X693279Y1036383D01*
X694213Y1039465D01*
X694529Y1042670D01*
X694213Y1045875D01*
X693279Y1048957D01*
X691760Y1051797D01*
X689717Y1054287D01*
X689379Y1054564D01*
X689295Y1054736D01*
X689217Y1055176D01*
X689399Y1056191D01*
X689717Y1056453D01*
X690579Y1057503D01*
X693346Y1057753D01*
X695106Y1057787D01*
X695268Y1057822D01*
X783155D01*
X797472Y1043505D01*
D02*
G37*
G36*
X701290Y1009346D02*
X700197Y1010128D01*
X699054Y1010827D01*
X697862Y1011444D01*
X696621Y1011979D01*
X695331Y1012431D01*
X693992Y1012802D01*
X692604Y1013090D01*
X691331Y1013272D01*
X689642Y1013119D01*
X688280Y1012854D01*
X687129Y1012513D01*
X686186Y1012097D01*
X685453Y1011605D01*
X684930Y1011037D01*
X684615Y1010393D01*
X684511Y1009674D01*
Y1024866D01*
X684615Y1024147D01*
X684930Y1023503D01*
X685453Y1022935D01*
X686186Y1022443D01*
X687129Y1022027D01*
X688280Y1021686D01*
X689642Y1021421D01*
X691129Y1021242D01*
X691167Y1021245D01*
X692604Y1021450D01*
X693992Y1021738D01*
X695331Y1022109D01*
X696621Y1022561D01*
X697862Y1023096D01*
X699054Y1023713D01*
X700197Y1024412D01*
X701290Y1025194D01*
Y1009346D01*
D02*
G37*
G36*
X398353Y1024412D02*
X399496Y1023713D01*
X400688Y1023096D01*
X401928Y1022561D01*
X403218Y1022109D01*
X404558Y1021738D01*
X405946Y1021450D01*
X407383Y1021245D01*
X408870Y1021121D01*
X410406Y1021080D01*
Y1013460D01*
X408870Y1013419D01*
X407383Y1013295D01*
X405946Y1013090D01*
X404558Y1012802D01*
X403218Y1012431D01*
X401928Y1011979D01*
X400688Y1011444D01*
X399496Y1010827D01*
X398353Y1010128D01*
X397260Y1009346D01*
Y1025194D01*
X398353Y1024412D01*
D02*
G37*
G36*
X897412Y1020237D02*
X896713Y1019094D01*
X896096Y1017902D01*
X895561Y1016662D01*
X895108Y1015371D01*
X894738Y1014032D01*
X894450Y1012644D01*
X894245Y1011207D01*
X894121Y1009720D01*
X894080Y1008184D01*
X886460D01*
X886419Y1009720D01*
X886295Y1011207D01*
X886090Y1012644D01*
X885802Y1014032D01*
X885432Y1015371D01*
X884979Y1016662D01*
X884444Y1017902D01*
X883827Y1019094D01*
X883128Y1020237D01*
X882346Y1021330D01*
X898194D01*
X897412Y1020237D01*
D02*
G37*
G36*
X622212Y1065664D02*
Y994845D01*
X620853Y993485D01*
X619679Y993971D01*
Y999410D01*
X619364Y1002615D01*
X618428Y1005697D01*
X616910Y1008538D01*
X614867Y1011027D01*
X612378Y1013070D01*
X609537Y1014588D01*
X606455Y1015523D01*
X603250Y1015839D01*
X600045Y1015523D01*
X596963Y1014588D01*
X594123Y1013070D01*
X591633Y1011027D01*
X589590Y1008538D01*
X589330Y1008051D01*
X588098Y1008360D01*
Y1033345D01*
X620942Y1066190D01*
X622212Y1065664D01*
D02*
G37*
G36*
X440940Y963626D02*
X439847Y964408D01*
X438704Y965107D01*
X437512Y965724D01*
X436272Y966259D01*
X434981Y966712D01*
X433642Y967082D01*
X432254Y967370D01*
X430817Y967575D01*
X429330Y967699D01*
X427794Y967740D01*
Y975360D01*
X429330Y975401D01*
X430817Y975525D01*
X432254Y975730D01*
X433642Y976018D01*
X434981Y976388D01*
X436272Y976841D01*
X437512Y977376D01*
X438704Y977993D01*
X439847Y978692D01*
X440940Y979474D01*
Y963626D01*
D02*
G37*
G36*
X921542Y954197D02*
X920843Y953054D01*
X920226Y951862D01*
X919691Y950621D01*
X919239Y949332D01*
X918868Y947992D01*
X918580Y946604D01*
X918375Y945167D01*
X918251Y943680D01*
X918210Y942144D01*
X910590D01*
X910549Y943680D01*
X910425Y945167D01*
X910220Y946604D01*
X909932Y947992D01*
X909561Y949332D01*
X909109Y950621D01*
X908574Y951862D01*
X907957Y953054D01*
X907258Y954197D01*
X906476Y955290D01*
X922324D01*
X921542Y954197D01*
D02*
G37*
G36*
X622338Y947046D02*
X622452Y945745D01*
X622643Y944598D01*
X622910Y943603D01*
X623252Y942762D01*
X623672Y942073D01*
X624167Y941538D01*
X624738Y941155D01*
X625386Y940926D01*
X626110Y940849D01*
X610870D01*
X611594Y940926D01*
X612242Y941155D01*
X612813Y941538D01*
X613308Y942073D01*
X613727Y942762D01*
X614070Y943603D01*
X614337Y944598D01*
X614528Y945745D01*
X614642Y947046D01*
X614680Y948500D01*
X622300D01*
X622338Y947046D01*
D02*
G37*
G36*
X596938D02*
X597052Y945745D01*
X597243Y944598D01*
X597510Y943603D01*
X597853Y942762D01*
X598272Y942073D01*
X598767Y941538D01*
X599338Y941155D01*
X599986Y940926D01*
X600710Y940849D01*
X585470D01*
X586194Y940926D01*
X586842Y941155D01*
X587413Y941538D01*
X587908Y942073D01*
X588327Y942762D01*
X588670Y943603D01*
X588937Y944598D01*
X589128Y945745D01*
X589242Y947046D01*
X589280Y948500D01*
X596900D01*
X596938Y947046D01*
D02*
G37*
G36*
X571538D02*
X571652Y945745D01*
X571843Y944598D01*
X572110Y943603D01*
X572453Y942762D01*
X572872Y942073D01*
X573367Y941538D01*
X573938Y941155D01*
X574586Y940926D01*
X575310Y940849D01*
X560070D01*
X560794Y940926D01*
X561442Y941155D01*
X562013Y941538D01*
X562508Y942073D01*
X562928Y942762D01*
X563270Y943603D01*
X563537Y944598D01*
X563728Y945745D01*
X563842Y947046D01*
X563880Y948500D01*
X571500D01*
X571538Y947046D01*
D02*
G37*
G36*
X799893Y941825D02*
X798836Y940710D01*
X797872Y939571D01*
X797001Y938409D01*
X796223Y937224D01*
X795538Y936015D01*
X794946Y934783D01*
X794447Y933528D01*
X794040Y932249D01*
X793727Y930946D01*
X793506Y929620D01*
X782300Y940826D01*
X783626Y941047D01*
X784929Y941360D01*
X786208Y941767D01*
X787463Y942266D01*
X788695Y942858D01*
X789904Y943543D01*
X791089Y944321D01*
X792251Y945192D01*
X793390Y946156D01*
X794505Y947213D01*
X799893Y941825D01*
D02*
G37*
G36*
X599986Y920864D02*
X599338Y920636D01*
X598767Y920255D01*
X598272Y919721D01*
X597853Y919035D01*
X597510Y918197D01*
X597243Y917207D01*
X597052Y916064D01*
X596938Y914768D01*
X596900Y913320D01*
X591629D01*
X595784Y909166D01*
X595101Y908475D01*
X592601Y905596D01*
X592451Y905327D01*
X592377Y905119D01*
X592380Y904972D01*
X586202Y911150D01*
X586349Y911147D01*
X586557Y911221D01*
X586826Y911371D01*
X587154Y911597D01*
X587544Y911899D01*
X588503Y912732D01*
X589276Y913476D01*
X589242Y914768D01*
X589128Y916064D01*
X588937Y917207D01*
X588670Y918197D01*
X588327Y919035D01*
X587908Y919721D01*
X587413Y920255D01*
X586842Y920636D01*
X586194Y920864D01*
X585470Y920940D01*
X600710D01*
X599986Y920864D01*
D02*
G37*
G36*
X614695Y920940D02*
X626110D01*
X625386Y920864D01*
X624738Y920636D01*
X624167Y920255D01*
X623672Y919721D01*
X623252Y919035D01*
X622910Y918197D01*
X622643Y917207D01*
X622452Y916064D01*
X622338Y914768D01*
X622300Y913320D01*
X621740D01*
X620644Y903814D01*
X606152Y910517D01*
X607772Y911443D01*
X609222Y912394D01*
X610501Y913372D01*
X611610Y914376D01*
X612548Y915406D01*
X613316Y916462D01*
X613913Y917544D01*
X614109Y918054D01*
X614070Y918197D01*
X613727Y919035D01*
X613308Y919721D01*
X612813Y920255D01*
X612242Y920636D01*
X611594Y920864D01*
X610870Y920940D01*
X614680D01*
X614680Y920946D01*
X614695Y920940D01*
D02*
G37*
G36*
X571654Y920900D02*
X571622Y920780D01*
X571593Y920580D01*
X571569Y920300D01*
X571508Y918380D01*
X571500Y916940D01*
X566396D01*
X570384Y914246D01*
X569414Y913200D01*
X568539Y912100D01*
X567760Y910944D01*
X567077Y909732D01*
X566489Y908465D01*
X565997Y907143D01*
X565600Y905766D01*
X565298Y904333D01*
X565092Y902846D01*
X564982Y901302D01*
X552797Y911457D01*
X553842Y911738D01*
X554903Y912115D01*
X555980Y912588D01*
X557072Y913158D01*
X558180Y913823D01*
X559303Y914585D01*
X561596Y916395D01*
X562767Y917445D01*
X563808Y918451D01*
X563689Y920940D01*
X571690D01*
X571654Y920900D01*
D02*
G37*
G36*
X498632Y894507D02*
X497933Y893364D01*
X497316Y892172D01*
X496781Y890931D01*
X496329Y889641D01*
X495958Y888302D01*
X495670Y886914D01*
X495465Y885477D01*
X495341Y883990D01*
X495300Y882454D01*
X487680D01*
X487639Y883990D01*
X487515Y885477D01*
X487310Y886914D01*
X487022Y888302D01*
X486651Y889641D01*
X486199Y890931D01*
X485664Y892172D01*
X485047Y893364D01*
X484348Y894507D01*
X483566Y895600D01*
X499414D01*
X498632Y894507D01*
D02*
G37*
G36*
X901856Y950619D02*
X902314Y949872D01*
X902719Y949089D01*
X903074Y948266D01*
X903380Y947395D01*
X903635Y946471D01*
X903839Y945487D01*
X903989Y944439D01*
X904082Y943325D01*
X904118Y941971D01*
X904152Y941819D01*
Y848881D01*
X904118Y848729D01*
X904082Y847375D01*
X903989Y846261D01*
X903839Y845213D01*
X903635Y844229D01*
X903380Y843305D01*
X903074Y842434D01*
X902719Y841611D01*
X902314Y840828D01*
X901856Y840081D01*
X901788Y839985D01*
X900518Y840392D01*
Y950308D01*
X901788Y950715D01*
X901856Y950619D01*
D02*
G37*
G36*
X1216594Y1199506D02*
X1216594Y842076D01*
X1131570D01*
X1129581Y841814D01*
X1127727Y841046D01*
X1126135Y839825D01*
X1124914Y838233D01*
X1124146Y836379D01*
X1123884Y834390D01*
Y715010D01*
X1124146Y713021D01*
X1124914Y711167D01*
X1126135Y709575D01*
X1127727Y708354D01*
X1129581Y707586D01*
X1131570Y707324D01*
X1216594D01*
Y629294D01*
X1198236Y610936D01*
X832828D01*
X832342Y612109D01*
X850658Y630425D01*
X850789Y630508D01*
X851772Y631440D01*
X852626Y632163D01*
X853472Y632797D01*
X854312Y633349D01*
X855147Y633821D01*
X855978Y634221D01*
X856811Y634552D01*
X857651Y634819D01*
X858504Y635024D01*
X859602Y635207D01*
X859980Y635350D01*
X860455Y635396D01*
X863537Y636331D01*
X866377Y637850D01*
X868867Y639893D01*
X870910Y642383D01*
X871770Y643991D01*
X873210D01*
X874070Y642383D01*
X876113Y639893D01*
X878603Y637850D01*
X881443Y636331D01*
X884525Y635396D01*
X887730Y635081D01*
X890935Y635396D01*
X894017Y636331D01*
X896858Y637850D01*
X899347Y639893D01*
X901390Y642383D01*
X902908Y645223D01*
X903844Y648305D01*
X904159Y651510D01*
X903844Y654715D01*
X902908Y657797D01*
X901390Y660638D01*
X899347Y663127D01*
X896858Y665170D01*
X894017Y666689D01*
X890935Y667624D01*
X887730Y667939D01*
X884525Y667624D01*
X881443Y666689D01*
X878603Y665170D01*
X876113Y663127D01*
X874070Y660638D01*
X873210Y659029D01*
X871770D01*
X870910Y660638D01*
X868867Y663127D01*
X866377Y665170D01*
X863537Y666689D01*
X860455Y667624D01*
X857250Y667939D01*
X854097Y667629D01*
X854015Y667702D01*
X853522Y668850D01*
X865766Y681094D01*
X867395Y683216D01*
X868419Y685688D01*
X868768Y688340D01*
X868768Y1047315D01*
X873942Y1052490D01*
X874367Y1052429D01*
X875351Y1052225D01*
X876275Y1051970D01*
X877146Y1051664D01*
X877969Y1051309D01*
X878752Y1050904D01*
X879499Y1050446D01*
X880405Y1049799D01*
X880773Y1049632D01*
X881143Y1049330D01*
X883983Y1047812D01*
X887065Y1046877D01*
X890270Y1046561D01*
X893475Y1046877D01*
X896557Y1047812D01*
X899398Y1049330D01*
X901887Y1051373D01*
X903930Y1053863D01*
X905449Y1056703D01*
X906384Y1059785D01*
X906699Y1062990D01*
X906384Y1066195D01*
X905449Y1069277D01*
X903930Y1072117D01*
X901887Y1074607D01*
X899398Y1076650D01*
X896557Y1078168D01*
X893475Y1079103D01*
X890270Y1079419D01*
X887065Y1079103D01*
X883983Y1078168D01*
X881143Y1076650D01*
X880774Y1076348D01*
X880405Y1076181D01*
X879499Y1075534D01*
X878752Y1075076D01*
X877969Y1074671D01*
X877146Y1074316D01*
X876275Y1074010D01*
X875351Y1073755D01*
X874367Y1073551D01*
X873319Y1073401D01*
X872205Y1073308D01*
X870851Y1073272D01*
X870699Y1073238D01*
X869950D01*
X867298Y1072888D01*
X864826Y1071865D01*
X862704Y1070236D01*
X853431Y1060963D01*
X852258Y1061450D01*
Y1079065D01*
X862765Y1089572D01*
X870699D01*
X870851Y1089538D01*
X872205Y1089502D01*
X873319Y1089409D01*
X874367Y1089259D01*
X875351Y1089055D01*
X876275Y1088800D01*
X877146Y1088494D01*
X877969Y1088139D01*
X878752Y1087734D01*
X879499Y1087276D01*
X880405Y1086629D01*
X880773Y1086462D01*
X881143Y1086160D01*
X883983Y1084641D01*
X887065Y1083707D01*
X890270Y1083391D01*
X893475Y1083707D01*
X896557Y1084641D01*
X899398Y1086160D01*
X901887Y1088203D01*
X903930Y1090693D01*
X905449Y1093533D01*
X906384Y1096615D01*
X906699Y1099820D01*
X906384Y1103025D01*
X905449Y1106107D01*
X904104Y1108622D01*
X904629Y1109892D01*
X929580D01*
X929889Y1108660D01*
X929402Y1108400D01*
X926913Y1106357D01*
X924870Y1103867D01*
X923352Y1101027D01*
X922417Y1097945D01*
X922101Y1094740D01*
X922417Y1091535D01*
X923352Y1088453D01*
X924870Y1085612D01*
X926913Y1083123D01*
X927458Y1082675D01*
Y1081405D01*
X926913Y1080957D01*
X924870Y1078467D01*
X923352Y1075627D01*
X922417Y1072545D01*
X922101Y1069340D01*
X922417Y1066135D01*
X923352Y1063053D01*
X924870Y1060212D01*
X926913Y1057723D01*
X929402Y1055680D01*
X932243Y1054162D01*
X935325Y1053226D01*
X938530Y1052911D01*
X941735Y1053226D01*
X944817Y1054162D01*
X947657Y1055680D01*
X950147Y1057723D01*
X952190Y1060212D01*
X953708Y1063053D01*
X954643Y1066135D01*
X954959Y1069340D01*
X954643Y1072545D01*
X953708Y1075627D01*
X952190Y1078467D01*
X950147Y1080957D01*
X949602Y1081405D01*
Y1082675D01*
X950147Y1083123D01*
X952190Y1085612D01*
X953708Y1088453D01*
X954643Y1091535D01*
X954959Y1094740D01*
X954643Y1097945D01*
X953708Y1101027D01*
X952190Y1103867D01*
X950147Y1106357D01*
X947657Y1108400D01*
X947171Y1108660D01*
X947480Y1109892D01*
X1047229D01*
X1047381Y1109858D01*
X1048735Y1109822D01*
X1049849Y1109729D01*
X1050897Y1109579D01*
X1051881Y1109375D01*
X1052805Y1109120D01*
X1053676Y1108814D01*
X1054499Y1108459D01*
X1055282Y1108054D01*
X1056029Y1107596D01*
X1056935Y1106949D01*
X1057303Y1106782D01*
X1057673Y1106480D01*
X1060513Y1104961D01*
X1063595Y1104026D01*
X1066800Y1103711D01*
X1070005Y1104026D01*
X1073087Y1104961D01*
X1075928Y1106480D01*
X1078417Y1108523D01*
X1080460Y1111012D01*
X1081979Y1113853D01*
X1082914Y1116935D01*
X1083229Y1120140D01*
X1082914Y1123345D01*
X1081979Y1126427D01*
X1080460Y1129268D01*
X1078417Y1131757D01*
X1075928Y1133800D01*
X1073087Y1135319D01*
X1070005Y1136254D01*
X1066800Y1136569D01*
X1063595Y1136254D01*
X1060513Y1135319D01*
X1057673Y1133800D01*
X1057304Y1133498D01*
X1056935Y1133331D01*
X1056029Y1132684D01*
X1055282Y1132226D01*
X1054499Y1131821D01*
X1053676Y1131466D01*
X1052805Y1131160D01*
X1051881Y1130905D01*
X1050897Y1130701D01*
X1049849Y1130551D01*
X1048735Y1130458D01*
X1047381Y1130422D01*
X1047229Y1130388D01*
X829745D01*
X810773Y1149359D01*
X811260Y1150532D01*
X1141295D01*
X1167042Y1124785D01*
Y952935D01*
X1053665Y839558D01*
X959371D01*
X959219Y839592D01*
X957865Y839628D01*
X956751Y839721D01*
X955703Y839871D01*
X954719Y840075D01*
X953795Y840330D01*
X952924Y840636D01*
X952101Y840991D01*
X951319Y841396D01*
X950571Y841854D01*
X949665Y842501D01*
X949296Y842668D01*
X948928Y842970D01*
X946087Y844489D01*
X943005Y845424D01*
X939800Y845739D01*
X936595Y845424D01*
X933513Y844489D01*
X930673Y842970D01*
X928183Y840927D01*
X928028Y840738D01*
X926486Y840828D01*
X926081Y841611D01*
X925726Y842434D01*
X925420Y843305D01*
X925165Y844229D01*
X924961Y845213D01*
X924811Y846261D01*
X924718Y847375D01*
X924682Y848729D01*
X924648Y848881D01*
Y941819D01*
X924682Y941971D01*
X924718Y943325D01*
X924811Y944439D01*
X924961Y945487D01*
X925165Y946471D01*
X925420Y947395D01*
X925726Y948266D01*
X926081Y949089D01*
X926486Y949872D01*
X926944Y950619D01*
X927591Y951525D01*
X927758Y951893D01*
X928060Y952262D01*
X929578Y955103D01*
X930514Y958185D01*
X930829Y961390D01*
X930514Y964595D01*
X929578Y967677D01*
X928060Y970518D01*
X926017Y973007D01*
X923528Y975050D01*
X920687Y976569D01*
X917605Y977504D01*
X914400Y977819D01*
X911195Y977504D01*
X908113Y976569D01*
X905273Y975050D01*
X902783Y973007D01*
X901788Y971795D01*
X900518Y972249D01*
Y1007859D01*
X900552Y1008011D01*
X900588Y1009365D01*
X900681Y1010479D01*
X900831Y1011527D01*
X901035Y1012511D01*
X901290Y1013435D01*
X901596Y1014306D01*
X901951Y1015129D01*
X902356Y1015911D01*
X902814Y1016659D01*
X903461Y1017565D01*
X903628Y1017934D01*
X903930Y1018303D01*
X905449Y1021143D01*
X906384Y1024225D01*
X906699Y1027430D01*
X906384Y1030635D01*
X905449Y1033717D01*
X903930Y1036557D01*
X901887Y1039047D01*
X899398Y1041090D01*
X896557Y1042608D01*
X893475Y1043543D01*
X890270Y1043859D01*
X887065Y1043543D01*
X883983Y1042608D01*
X881143Y1041090D01*
X878653Y1039047D01*
X876610Y1036557D01*
X875091Y1033717D01*
X874156Y1030635D01*
X873841Y1027430D01*
X874156Y1024225D01*
X875091Y1021143D01*
X876610Y1018303D01*
X876912Y1017934D01*
X877079Y1017565D01*
X877726Y1016659D01*
X878184Y1015911D01*
X878589Y1015129D01*
X878944Y1014306D01*
X879250Y1013435D01*
X879505Y1012511D01*
X879709Y1011527D01*
X879859Y1010480D01*
X879952Y1009365D01*
X879988Y1008011D01*
X880022Y1007859D01*
Y787400D01*
X880022Y787400D01*
X880371Y784748D01*
X881395Y782276D01*
X883024Y780154D01*
X895724Y767454D01*
X895724Y767454D01*
X897846Y765825D01*
X900318Y764801D01*
X902970Y764452D01*
X902970Y764452D01*
X910069D01*
X910221Y764418D01*
X911575Y764382D01*
X912689Y764289D01*
X913737Y764139D01*
X914721Y763935D01*
X915645Y763680D01*
X916516Y763374D01*
X917339Y763019D01*
X918121Y762614D01*
X918869Y762156D01*
X919775Y761509D01*
X920144Y761342D01*
X920512Y761040D01*
X923353Y759521D01*
X923556Y759460D01*
Y758190D01*
X923353Y758129D01*
X920512Y756610D01*
X918023Y754567D01*
X917575Y754022D01*
X916305D01*
X915857Y754567D01*
X913367Y756610D01*
X910527Y758129D01*
X907445Y759063D01*
X904240Y759379D01*
X901035Y759063D01*
X897953Y758129D01*
X895113Y756610D01*
X892623Y754567D01*
X890580Y752077D01*
X889062Y749237D01*
X888127Y746155D01*
X887811Y742950D01*
X888127Y739745D01*
X889062Y736663D01*
X890580Y733822D01*
X892623Y731333D01*
X895113Y729290D01*
X897953Y727772D01*
X901035Y726836D01*
X904240Y726521D01*
X907445Y726836D01*
X910527Y727772D01*
X913367Y729290D01*
X915857Y731333D01*
X916305Y731879D01*
X917575D01*
X918023Y731333D01*
X920512Y729290D01*
X923353Y727772D01*
X926435Y726836D01*
X929640Y726521D01*
X932845Y726836D01*
X935927Y727772D01*
X938767Y729290D01*
X941257Y731333D01*
X943300Y733822D01*
X944818Y736663D01*
X945753Y739745D01*
X946069Y742950D01*
X945753Y746155D01*
X944818Y749237D01*
X943300Y752077D01*
X941257Y754567D01*
X938767Y756610D01*
X935927Y758129D01*
X935724Y758190D01*
Y759460D01*
X935927Y759521D01*
X938767Y761040D01*
X939136Y761342D01*
X939505Y761509D01*
X940411Y762156D01*
X941159Y762614D01*
X941941Y763019D01*
X942764Y763374D01*
X943635Y763680D01*
X944559Y763935D01*
X945543Y764139D01*
X946590Y764289D01*
X947705Y764382D01*
X949059Y764418D01*
X949211Y764452D01*
X1011669D01*
X1011821Y764418D01*
X1013175Y764382D01*
X1014289Y764289D01*
X1015337Y764139D01*
X1016321Y763935D01*
X1017245Y763680D01*
X1018116Y763374D01*
X1018939Y763019D01*
X1019722Y762614D01*
X1020469Y762156D01*
X1021375Y761509D01*
X1021743Y761342D01*
X1022113Y761040D01*
X1024953Y759521D01*
X1028035Y758587D01*
X1031240Y758271D01*
X1034445Y758587D01*
X1037527Y759521D01*
X1040368Y761040D01*
X1042857Y763083D01*
X1044900Y765573D01*
X1046419Y768413D01*
X1047354Y771495D01*
X1047669Y774700D01*
X1047354Y777905D01*
X1046419Y780987D01*
X1044900Y783828D01*
X1042857Y786317D01*
X1040368Y788360D01*
X1037527Y789878D01*
X1034445Y790814D01*
X1031240Y791129D01*
X1028035Y790814D01*
X1024953Y789878D01*
X1022113Y788360D01*
X1021744Y788058D01*
X1021375Y787891D01*
X1020469Y787244D01*
X1019722Y786786D01*
X1018939Y786381D01*
X1018116Y786026D01*
X1017245Y785720D01*
X1016321Y785465D01*
X1015337Y785261D01*
X1014289Y785111D01*
X1013175Y785018D01*
X1011821Y784982D01*
X1011669Y784948D01*
X949211D01*
X949059Y784982D01*
X947705Y785018D01*
X946591Y785111D01*
X945543Y785261D01*
X944559Y785465D01*
X943635Y785720D01*
X942764Y786026D01*
X941941Y786381D01*
X941159Y786786D01*
X940411Y787244D01*
X939505Y787891D01*
X939137Y788058D01*
X938767Y788360D01*
X935927Y789878D01*
X932845Y790814D01*
X929640Y791129D01*
X926435Y790814D01*
X923353Y789878D01*
X920512Y788360D01*
X920144Y788058D01*
X919775Y787891D01*
X918869Y787244D01*
X918121Y786786D01*
X917339Y786381D01*
X916516Y786026D01*
X915645Y785720D01*
X914721Y785465D01*
X913737Y785261D01*
X912690Y785111D01*
X911575Y785018D01*
X910221Y784982D01*
X910069Y784948D01*
X907215D01*
X900518Y791645D01*
Y818451D01*
X901788Y818905D01*
X902783Y817693D01*
X905273Y815650D01*
X908113Y814131D01*
X911195Y813196D01*
X914400Y812881D01*
X917605Y813196D01*
X920687Y814131D01*
X923528Y815650D01*
X926017Y817693D01*
X926465Y818239D01*
X927735D01*
X928183Y817693D01*
X930673Y815650D01*
X933513Y814131D01*
X936595Y813196D01*
X939800Y812881D01*
X943005Y813196D01*
X946087Y814131D01*
X948928Y815650D01*
X949296Y815952D01*
X949665Y816119D01*
X950571Y816766D01*
X951319Y817224D01*
X952101Y817629D01*
X952924Y817984D01*
X953795Y818290D01*
X954719Y818545D01*
X955703Y818749D01*
X956750Y818899D01*
X957865Y818992D01*
X959219Y819028D01*
X959371Y819062D01*
X1057910D01*
X1057910Y819062D01*
X1060562Y819411D01*
X1063034Y820435D01*
X1065156Y822064D01*
X1070522Y827430D01*
X1071792Y826904D01*
Y814362D01*
X1071758Y814209D01*
X1071725Y812955D01*
X1071711Y812800D01*
X1056640D01*
Y736600D01*
X1107440D01*
Y812800D01*
X1092369D01*
X1092355Y812955D01*
X1092322Y814209D01*
X1092288Y814362D01*
Y823795D01*
X1201046Y932554D01*
X1201046Y932554D01*
X1202675Y934676D01*
X1203699Y937148D01*
X1204048Y939800D01*
X1204048Y939800D01*
Y1135380D01*
X1204048Y1135380D01*
X1203699Y1138032D01*
X1202675Y1140504D01*
X1201046Y1142626D01*
X1129926Y1213746D01*
X1127804Y1215375D01*
X1125332Y1216398D01*
X1122680Y1216748D01*
X1122680Y1216748D01*
X369570D01*
X369570Y1216748D01*
X366918Y1216398D01*
X364446Y1215375D01*
X362324Y1213746D01*
X342004Y1193426D01*
X340375Y1191304D01*
X339352Y1188832D01*
X339002Y1186180D01*
X339002Y1186180D01*
Y1082040D01*
X339002Y1082040D01*
X339352Y1079388D01*
X340375Y1076916D01*
X342004Y1074794D01*
X364864Y1051934D01*
X364864Y1051934D01*
X366986Y1050305D01*
X369458Y1049281D01*
X372110Y1048932D01*
X408940D01*
X408940Y1048932D01*
X411592Y1049281D01*
X414064Y1050305D01*
X416186Y1051934D01*
X470928Y1106675D01*
X471059Y1106758D01*
X472042Y1107690D01*
X472896Y1108413D01*
X473742Y1109047D01*
X474582Y1109598D01*
X475417Y1110071D01*
X476248Y1110471D01*
X477081Y1110802D01*
X477921Y1111069D01*
X478774Y1111274D01*
X479872Y1111457D01*
X480250Y1111600D01*
X480725Y1111646D01*
X483807Y1112581D01*
X486647Y1114100D01*
X489137Y1116143D01*
X491180Y1118633D01*
X492699Y1121473D01*
X493633Y1124555D01*
X493949Y1127760D01*
X493633Y1130965D01*
X492699Y1134047D01*
X491180Y1136888D01*
X489137Y1139377D01*
X486647Y1141420D01*
X483807Y1142939D01*
X480725Y1143874D01*
X477520Y1144189D01*
X474315Y1143874D01*
X471233Y1142939D01*
X468392Y1141420D01*
X465903Y1139377D01*
X463860Y1136888D01*
X462341Y1134047D01*
X461407Y1130965D01*
X461360Y1130490D01*
X461217Y1130112D01*
X461034Y1129014D01*
X460829Y1128161D01*
X460562Y1127321D01*
X460231Y1126488D01*
X459831Y1125657D01*
X459358Y1124822D01*
X458807Y1123982D01*
X458172Y1123136D01*
X457450Y1122282D01*
X456518Y1121299D01*
X456435Y1121168D01*
X404695Y1069428D01*
X400749D01*
X400295Y1070698D01*
X401507Y1071693D01*
X403550Y1074183D01*
X405069Y1077023D01*
X406003Y1080105D01*
X406319Y1083310D01*
X406003Y1086515D01*
X405069Y1089597D01*
X403550Y1092438D01*
X403248Y1092806D01*
X403081Y1093175D01*
X402434Y1094081D01*
X401976Y1094828D01*
X401571Y1095611D01*
X401216Y1096434D01*
X400910Y1097305D01*
X400655Y1098229D01*
X400451Y1099213D01*
X400301Y1100260D01*
X400208Y1101375D01*
X400172Y1102729D01*
X400138Y1102881D01*
Y1136129D01*
X400172Y1136281D01*
X400208Y1137635D01*
X400301Y1138749D01*
X400451Y1139797D01*
X400655Y1140781D01*
X400910Y1141705D01*
X401216Y1142576D01*
X401571Y1143399D01*
X401976Y1144182D01*
X402434Y1144929D01*
X403081Y1145835D01*
X403248Y1146204D01*
X403550Y1146572D01*
X405069Y1149413D01*
X406003Y1152495D01*
X406319Y1155700D01*
X406003Y1158905D01*
X405069Y1161987D01*
X403550Y1164827D01*
X401529Y1167290D01*
X401577Y1167721D01*
X401878Y1168560D01*
X406240D01*
Y1196252D01*
X424340D01*
Y1168560D01*
X592201D01*
X592728Y1167290D01*
X569334Y1143896D01*
X567705Y1141774D01*
X566682Y1139302D01*
X566332Y1136650D01*
X566332Y1136650D01*
Y1115581D01*
X566298Y1115429D01*
X566262Y1114075D01*
X566169Y1112961D01*
X566019Y1111913D01*
X565815Y1110929D01*
X565560Y1110005D01*
X565254Y1109134D01*
X564899Y1108311D01*
X564494Y1107529D01*
X564036Y1106781D01*
X563389Y1105875D01*
X563330Y1105745D01*
X563068Y1105601D01*
X562802Y1105537D01*
X561953Y1105598D01*
X561772Y1105684D01*
X560177Y1107627D01*
X557687Y1109670D01*
X554847Y1111189D01*
X554645Y1111250D01*
Y1112520D01*
X554847Y1112581D01*
X557687Y1114100D01*
X560177Y1116143D01*
X562220Y1118633D01*
X563739Y1121473D01*
X564673Y1124555D01*
X564989Y1127760D01*
X564673Y1130965D01*
X563739Y1134047D01*
X562220Y1136888D01*
X560177Y1139377D01*
X557687Y1141420D01*
X554847Y1142939D01*
X551765Y1143874D01*
X548560Y1144189D01*
X538560D01*
X535355Y1143874D01*
X532273Y1142939D01*
X529432Y1141420D01*
X526943Y1139377D01*
X524900Y1136888D01*
X523382Y1134047D01*
X522447Y1130965D01*
X522131Y1127760D01*
X522447Y1124555D01*
X523382Y1121473D01*
X524900Y1118633D01*
X526943Y1116143D01*
X529432Y1114100D01*
X532273Y1112581D01*
X532476Y1112520D01*
Y1111250D01*
X532273Y1111189D01*
X529432Y1109670D01*
X526943Y1107627D01*
X524900Y1105137D01*
X523382Y1102297D01*
X522447Y1099215D01*
X522131Y1096010D01*
X522447Y1092805D01*
X523382Y1089723D01*
X524900Y1086882D01*
X526943Y1084393D01*
X529432Y1082350D01*
X532273Y1080832D01*
X535355Y1079896D01*
X538560Y1079581D01*
X548560D01*
X551765Y1079896D01*
X554847Y1080832D01*
X557687Y1082350D01*
X560177Y1084393D01*
X561772Y1086336D01*
X561935Y1086414D01*
X563205D01*
X563368Y1086336D01*
X564963Y1084393D01*
X567453Y1082350D01*
X570293Y1080832D01*
X573375Y1079896D01*
X576580Y1079581D01*
X578324Y1079753D01*
X578901Y1078533D01*
X568525Y1068158D01*
X508000D01*
X508000Y1068158D01*
X505348Y1067809D01*
X502876Y1066785D01*
X500754Y1065156D01*
X500754Y1065156D01*
X463115Y1027518D01*
X410731D01*
X410579Y1027552D01*
X409225Y1027588D01*
X408111Y1027681D01*
X407063Y1027831D01*
X406079Y1028035D01*
X405155Y1028290D01*
X404284Y1028596D01*
X403461Y1028951D01*
X402678Y1029356D01*
X401931Y1029814D01*
X401025Y1030461D01*
X400657Y1030628D01*
X400288Y1030930D01*
X397447Y1032449D01*
X394365Y1033383D01*
X391160Y1033699D01*
X387955Y1033383D01*
X384873Y1032449D01*
X382033Y1030930D01*
X379543Y1028887D01*
X377500Y1026397D01*
X375981Y1023557D01*
X375047Y1020475D01*
X374731Y1017270D01*
X375047Y1014065D01*
X375981Y1010983D01*
X377500Y1008142D01*
X379543Y1005653D01*
X382033Y1003610D01*
X384873Y1002092D01*
X387955Y1001156D01*
X391160Y1000841D01*
X394365Y1001156D01*
X397447Y1002092D01*
X400288Y1003610D01*
X400656Y1003912D01*
X401025Y1004079D01*
X401931Y1004726D01*
X402678Y1005184D01*
X403461Y1005589D01*
X404284Y1005944D01*
X405155Y1006250D01*
X406079Y1006505D01*
X407063Y1006709D01*
X408111Y1006859D01*
X409225Y1006952D01*
X410579Y1006988D01*
X410731Y1007022D01*
X467360D01*
X467360Y1007022D01*
X470012Y1007372D01*
X472484Y1008395D01*
X474606Y1010024D01*
X512245Y1047662D01*
X571634D01*
X572160Y1046392D01*
X570604Y1044836D01*
X568975Y1042714D01*
X567952Y1040242D01*
X567602Y1037590D01*
X567602Y1037590D01*
Y968810D01*
X560444Y961651D01*
X558815Y959529D01*
X557791Y957057D01*
X557442Y954405D01*
X557442Y954405D01*
Y948822D01*
X557408Y948669D01*
X557375Y947415D01*
X557361Y947260D01*
X424340D01*
Y914560D01*
X430133D01*
X430587Y913290D01*
X429073Y912047D01*
X427030Y909557D01*
X425512Y906717D01*
X424576Y903635D01*
X424261Y900430D01*
X424576Y897225D01*
X425512Y894143D01*
X427030Y891302D01*
X429073Y888813D01*
X431562Y886770D01*
X434403Y885251D01*
X437485Y884316D01*
X440690Y884001D01*
X443895Y884316D01*
X446977Y885251D01*
X449818Y886770D01*
X452307Y888813D01*
X454350Y891302D01*
X455868Y894143D01*
X456804Y897225D01*
X457119Y900430D01*
X456804Y903635D01*
X455868Y906717D01*
X454350Y909557D01*
X452307Y912047D01*
X450793Y913290D01*
X451247Y914560D01*
X479502D01*
X479803Y913721D01*
X479851Y913290D01*
X477830Y910827D01*
X476311Y907987D01*
X475377Y904905D01*
X475061Y901700D01*
X475377Y898495D01*
X476311Y895413D01*
X477830Y892572D01*
X478132Y892204D01*
X478299Y891835D01*
X478946Y890929D01*
X479404Y890182D01*
X479809Y889399D01*
X480164Y888576D01*
X480470Y887705D01*
X480725Y886781D01*
X480929Y885797D01*
X481079Y884750D01*
X481172Y883635D01*
X481208Y882281D01*
X481242Y882129D01*
Y708660D01*
X481242Y708660D01*
X481591Y706008D01*
X482615Y703536D01*
X484244Y701414D01*
X522344Y663314D01*
X522344Y663314D01*
X524466Y661685D01*
X526938Y660661D01*
X529590Y660312D01*
X609600D01*
X609600Y660312D01*
X612252Y660661D01*
X614724Y661685D01*
X616846Y663314D01*
X618009Y664477D01*
X619040Y663712D01*
X618551Y662797D01*
X617617Y659715D01*
X617301Y656510D01*
Y646510D01*
X617617Y643305D01*
X618551Y640223D01*
X620070Y637383D01*
X622113Y634893D01*
X624603Y632850D01*
X627443Y631331D01*
X630525Y630397D01*
X633730Y630081D01*
X636935Y630397D01*
X640017Y631331D01*
X642858Y632850D01*
X645347Y634893D01*
X645795Y635439D01*
X647065D01*
X647513Y634893D01*
X650003Y632850D01*
X652843Y631331D01*
X655925Y630397D01*
X659130Y630081D01*
X662335Y630397D01*
X665417Y631331D01*
X668258Y632850D01*
X670747Y634893D01*
X672790Y637383D01*
X674308Y640223D01*
X674576Y641105D01*
X674646Y641116D01*
X675589Y641194D01*
X676929Y641228D01*
X677083Y641262D01*
X821690D01*
X821690Y641262D01*
X824342Y641611D01*
X826814Y642635D01*
X828936Y644264D01*
X839910Y655238D01*
X841058Y654745D01*
X841131Y654663D01*
X841090Y654240D01*
X840947Y653861D01*
X840764Y652764D01*
X840559Y651911D01*
X840292Y651071D01*
X839961Y650238D01*
X839561Y649407D01*
X839088Y648572D01*
X838537Y647732D01*
X837903Y646886D01*
X837180Y646032D01*
X836248Y645049D01*
X836165Y644918D01*
X813635Y622388D01*
X417560D01*
X417073Y623561D01*
X437776Y644264D01*
X437776Y644264D01*
X439405Y646386D01*
X440429Y648858D01*
X440778Y651510D01*
Y781742D01*
X440813Y781904D01*
X440848Y783749D01*
X440941Y785204D01*
X441081Y786361D01*
X441094Y786428D01*
X442147Y787293D01*
X442612Y787859D01*
X442705Y787921D01*
X442887Y788195D01*
X443035Y788375D01*
X443316Y788628D01*
X443417Y788840D01*
X444190Y789782D01*
X445709Y792623D01*
X446643Y795705D01*
X446959Y798910D01*
Y808910D01*
X446643Y812115D01*
X445709Y815197D01*
X444190Y818037D01*
X443417Y818980D01*
X443316Y819192D01*
X443036Y819445D01*
X442887Y819625D01*
X442705Y819899D01*
X442612Y819960D01*
X442147Y820527D01*
X441097Y821389D01*
X440847Y824156D01*
X440813Y825916D01*
X440778Y826078D01*
Y831329D01*
X440812Y831481D01*
X440848Y832835D01*
X440941Y833949D01*
X441091Y834997D01*
X441295Y835981D01*
X441550Y836905D01*
X441856Y837776D01*
X442211Y838599D01*
X442616Y839381D01*
X443074Y840129D01*
X443721Y841035D01*
X443888Y841404D01*
X444190Y841773D01*
X445709Y844613D01*
X446643Y847695D01*
X446959Y850900D01*
X446643Y854105D01*
X445709Y857187D01*
X444190Y860027D01*
X442147Y862517D01*
X439658Y864560D01*
X436817Y866078D01*
X433735Y867013D01*
X430530Y867329D01*
X427325Y867013D01*
X424243Y866078D01*
X421403Y864560D01*
X418913Y862517D01*
X416870Y860027D01*
X415351Y857187D01*
X414417Y854105D01*
X414101Y850900D01*
X414417Y847695D01*
X415351Y844613D01*
X416870Y841773D01*
X417172Y841404D01*
X417339Y841035D01*
X417986Y840129D01*
X418444Y839381D01*
X418849Y838599D01*
X419204Y837776D01*
X419510Y836905D01*
X419765Y835981D01*
X419969Y834997D01*
X420119Y833950D01*
X420212Y832835D01*
X420248Y831481D01*
X420282Y831329D01*
Y826078D01*
X420247Y825916D01*
X420212Y824071D01*
X420119Y822616D01*
X419979Y821459D01*
X419966Y821392D01*
X418913Y820527D01*
X418448Y819960D01*
X418355Y819899D01*
X418173Y819625D01*
X418025Y819445D01*
X417744Y819192D01*
X417643Y818980D01*
X416870Y818037D01*
X415351Y815197D01*
X414417Y812115D01*
X414101Y808910D01*
Y798910D01*
X414417Y795705D01*
X415351Y792623D01*
X416870Y789782D01*
X417643Y788840D01*
X417744Y788628D01*
X418024Y788375D01*
X418173Y788195D01*
X418355Y787921D01*
X418448Y787859D01*
X418913Y787293D01*
X419963Y786431D01*
X420213Y783664D01*
X420247Y781904D01*
X420282Y781742D01*
Y655755D01*
X403425Y638898D01*
X370035D01*
X369383Y639987D01*
X369509Y640223D01*
X370443Y643305D01*
X370759Y646510D01*
Y656510D01*
X370443Y659715D01*
X369509Y662797D01*
X367990Y665638D01*
X365947Y668127D01*
X363457Y670170D01*
X360617Y671689D01*
X357535Y672623D01*
X354330Y672939D01*
X351125Y672623D01*
X348043Y671689D01*
X346369Y670794D01*
X345280Y671447D01*
Y672860D01*
X312580D01*
Y630160D01*
X319938D01*
X320055Y629876D01*
X321684Y627754D01*
X337328Y612109D01*
X336842Y610936D01*
X309254D01*
X293436Y626754D01*
Y823316D01*
X294706Y823735D01*
X295014Y823334D01*
X308754Y809594D01*
X308827Y809476D01*
X308872Y809443D01*
X308902Y809396D01*
X310085Y808163D01*
X310990Y807129D01*
X311701Y806218D01*
X312220Y805453D01*
X312553Y804863D01*
X312580Y804802D01*
Y803198D01*
X312523Y802826D01*
X312580Y802590D01*
Y782560D01*
X345280D01*
Y783973D01*
X346369Y784626D01*
X348043Y783732D01*
X351125Y782797D01*
X354330Y782481D01*
X357535Y782797D01*
X360617Y783732D01*
X363457Y785250D01*
X365947Y787293D01*
X366395Y787839D01*
X367665D01*
X368113Y787293D01*
X370602Y785250D01*
X373443Y783732D01*
X376525Y782797D01*
X379730Y782481D01*
X382935Y782797D01*
X386017Y783732D01*
X388857Y785250D01*
X391347Y787293D01*
X393390Y789782D01*
X394908Y792623D01*
X395844Y795705D01*
X396159Y798910D01*
Y808910D01*
X395844Y812115D01*
X394908Y815197D01*
X393390Y818037D01*
X391347Y820527D01*
X388857Y822570D01*
X386017Y824089D01*
X382935Y825023D01*
X379730Y825339D01*
X376525Y825023D01*
X373443Y824089D01*
X370602Y822570D01*
X368113Y820527D01*
X367665Y819981D01*
X366395D01*
X365947Y820527D01*
X363457Y822570D01*
X360617Y824089D01*
X357535Y825023D01*
X354330Y825339D01*
X351125Y825023D01*
X348043Y824089D01*
X346369Y823194D01*
X345280Y823847D01*
Y825260D01*
X325556D01*
X325500Y825278D01*
X325265Y825260D01*
X324831D01*
X324460Y825318D01*
X324224Y825260D01*
X322501D01*
X320122Y827311D01*
X318468Y828915D01*
X318325Y829008D01*
X312508Y834825D01*
Y919045D01*
X354765Y961302D01*
X427469D01*
X427621Y961268D01*
X428975Y961232D01*
X430089Y961139D01*
X431137Y960989D01*
X432121Y960785D01*
X433045Y960530D01*
X433916Y960224D01*
X434739Y959869D01*
X435522Y959464D01*
X436269Y959006D01*
X437175Y958359D01*
X437543Y958192D01*
X437912Y957890D01*
X440753Y956372D01*
X443835Y955436D01*
X447040Y955121D01*
X450245Y955436D01*
X453327Y956372D01*
X456167Y957890D01*
X458657Y959933D01*
X460700Y962422D01*
X462219Y965263D01*
X463153Y968345D01*
X463469Y971550D01*
X463153Y974755D01*
X462219Y977837D01*
X460700Y980677D01*
X458657Y983167D01*
X456167Y985210D01*
X453327Y986729D01*
X450245Y987663D01*
X447040Y987979D01*
X443835Y987663D01*
X440753Y986729D01*
X437912Y985210D01*
X437544Y984908D01*
X437175Y984741D01*
X436269Y984094D01*
X435522Y983636D01*
X434739Y983231D01*
X433916Y982876D01*
X433045Y982570D01*
X432121Y982315D01*
X431137Y982111D01*
X430089Y981961D01*
X428975Y981868D01*
X427621Y981832D01*
X427469Y981798D01*
X350520D01*
X350520Y981798D01*
X347868Y981449D01*
X345396Y980425D01*
X343274Y978796D01*
X343274Y978796D01*
X295014Y930536D01*
X294638Y930047D01*
X293436Y930455D01*
Y1204586D01*
X311793Y1222944D01*
X1193156D01*
X1216594Y1199506D01*
D02*
G37*
G36*
X918251Y847020D02*
X918375Y845533D01*
X918580Y844096D01*
X918868Y842708D01*
X919239Y841368D01*
X919691Y840079D01*
X920226Y838838D01*
X920843Y837646D01*
X921542Y836503D01*
X922324Y835410D01*
X906476D01*
X907258Y836503D01*
X907957Y837646D01*
X908574Y838838D01*
X909109Y840079D01*
X909561Y841368D01*
X909932Y842708D01*
X910220Y844096D01*
X910425Y845533D01*
X910549Y847020D01*
X910590Y848556D01*
X918210D01*
X918251Y847020D01*
D02*
G37*
G36*
X437672Y843707D02*
X436973Y842564D01*
X436356Y841372D01*
X435821Y840132D01*
X435368Y838841D01*
X434998Y837502D01*
X434710Y836114D01*
X434505Y834677D01*
X434381Y833190D01*
X434340Y831654D01*
X426720D01*
X426679Y833190D01*
X426555Y834677D01*
X426350Y836114D01*
X426062Y837502D01*
X425691Y838841D01*
X425239Y840132D01*
X424704Y841372D01*
X424087Y842564D01*
X423388Y843707D01*
X422606Y844800D01*
X438454D01*
X437672Y843707D01*
D02*
G37*
G36*
X946993Y836452D02*
X948136Y835753D01*
X949328Y835136D01*
X950568Y834601D01*
X951859Y834148D01*
X953198Y833778D01*
X954586Y833490D01*
X956023Y833285D01*
X957510Y833161D01*
X959046Y833120D01*
Y825500D01*
X957510Y825459D01*
X956023Y825335D01*
X954586Y825130D01*
X953198Y824842D01*
X951859Y824472D01*
X950568Y824019D01*
X949328Y823484D01*
X948136Y822867D01*
X946993Y822168D01*
X945900Y821386D01*
Y837234D01*
X946993Y836452D01*
D02*
G37*
G36*
X434378Y823803D02*
X434681Y820452D01*
X434946Y819090D01*
X435287Y817939D01*
X435703Y816996D01*
X436195Y816263D01*
X436763Y815740D01*
X437407Y815425D01*
X438126Y815321D01*
X422934D01*
X423653Y815425D01*
X424297Y815740D01*
X424865Y816263D01*
X425357Y816996D01*
X425773Y817939D01*
X426114Y819090D01*
X426379Y820452D01*
X426568Y822023D01*
X426682Y823803D01*
X426720Y825792D01*
X434340D01*
X434378Y823803D01*
D02*
G37*
G36*
X1085888Y812586D02*
X1086002Y811285D01*
X1086193Y810138D01*
X1086460Y809143D01*
X1086803Y808302D01*
X1087222Y807613D01*
X1087717Y807078D01*
X1088288Y806695D01*
X1088936Y806466D01*
X1089660Y806389D01*
X1074420D01*
X1075144Y806466D01*
X1075792Y806695D01*
X1076363Y807078D01*
X1076858Y807613D01*
X1077278Y808302D01*
X1077620Y809143D01*
X1077887Y810138D01*
X1078078Y811285D01*
X1078192Y812586D01*
X1078230Y814040D01*
X1085850D01*
X1085888Y812586D01*
D02*
G37*
G36*
X315750Y822532D02*
X318855Y819855D01*
X320170Y818916D01*
X321326Y818241D01*
X322325Y817832D01*
X323165Y817688D01*
X323847Y817810D01*
X324371Y818197D01*
X324737Y818849D01*
X318991Y803103D01*
X319195Y803917D01*
X319233Y804790D01*
X319105Y805722D01*
X318811Y806712D01*
X318353Y807760D01*
X317728Y808867D01*
X316937Y810032D01*
X315981Y811256D01*
X314860Y812539D01*
X313572Y813879D01*
X313960Y824268D01*
X315750Y822532D01*
D02*
G37*
G36*
X437407Y792395D02*
X436763Y792080D01*
X436195Y791557D01*
X435703Y790824D01*
X435287Y789881D01*
X434946Y788729D01*
X434681Y787368D01*
X434492Y785797D01*
X434378Y784017D01*
X434340Y782028D01*
X426720D01*
X426682Y784017D01*
X426379Y787368D01*
X426114Y788729D01*
X425773Y789881D01*
X425357Y790824D01*
X424865Y791557D01*
X424297Y792080D01*
X423653Y792395D01*
X422934Y792499D01*
X438126D01*
X437407Y792395D01*
D02*
G37*
G36*
X1025140Y766776D02*
X1024047Y767558D01*
X1022904Y768257D01*
X1021712Y768874D01*
X1020471Y769409D01*
X1019182Y769862D01*
X1017842Y770232D01*
X1016454Y770520D01*
X1015017Y770725D01*
X1013530Y770849D01*
X1011994Y770890D01*
Y778510D01*
X1013530Y778551D01*
X1015017Y778675D01*
X1016454Y778880D01*
X1017842Y779168D01*
X1019182Y779538D01*
X1020471Y779991D01*
X1021712Y780526D01*
X1022904Y781143D01*
X1024047Y781842D01*
X1025140Y782624D01*
Y766776D01*
D02*
G37*
G36*
X936833Y781842D02*
X937976Y781143D01*
X939168Y780526D01*
X940408Y779991D01*
X941699Y779538D01*
X943038Y779168D01*
X944426Y778880D01*
X945863Y778675D01*
X947350Y778551D01*
X948886Y778510D01*
Y770890D01*
X947350Y770849D01*
X945863Y770725D01*
X944426Y770520D01*
X943038Y770232D01*
X941699Y769862D01*
X940408Y769409D01*
X939168Y768874D01*
X937976Y768257D01*
X936833Y767558D01*
X935740Y766776D01*
Y782624D01*
X936833Y781842D01*
D02*
G37*
G36*
X923540Y766776D02*
X922447Y767558D01*
X921304Y768257D01*
X920112Y768874D01*
X918872Y769409D01*
X917581Y769862D01*
X916242Y770232D01*
X914854Y770520D01*
X913417Y770725D01*
X911930Y770849D01*
X910394Y770890D01*
Y778510D01*
X911930Y778551D01*
X913417Y778675D01*
X914854Y778880D01*
X916242Y779168D01*
X917581Y779538D01*
X918872Y779991D01*
X920112Y780526D01*
X921304Y781143D01*
X922447Y781842D01*
X923540Y782624D01*
Y766776D01*
D02*
G37*
G36*
X703153Y748822D02*
X704296Y748123D01*
X705488Y747506D01*
X706729Y746971D01*
X708018Y746518D01*
X709358Y746148D01*
X710746Y745860D01*
X712183Y745655D01*
X713670Y745531D01*
X715206Y745490D01*
Y737870D01*
X713670Y737829D01*
X712183Y737705D01*
X710746Y737500D01*
X709358Y737212D01*
X708018Y736842D01*
X706729Y736389D01*
X705488Y735854D01*
X704296Y735237D01*
X703153Y734538D01*
X702060Y733756D01*
Y749604D01*
X703153Y748822D01*
D02*
G37*
G36*
X831762Y785131D02*
Y767515D01*
X778070Y713822D01*
X776922Y714315D01*
X776849Y714397D01*
X777159Y717550D01*
X776843Y720755D01*
X775909Y723837D01*
X774390Y726677D01*
X772347Y729167D01*
X771135Y730162D01*
X771589Y731432D01*
X772160D01*
X772160Y731432D01*
X774812Y731781D01*
X777284Y732805D01*
X779406Y734434D01*
X830589Y785617D01*
X831762Y785131D01*
D02*
G37*
G36*
X754630Y709626D02*
X753537Y710408D01*
X752394Y711107D01*
X751202Y711724D01*
X749961Y712259D01*
X748671Y712711D01*
X747332Y713082D01*
X745944Y713370D01*
X744507Y713575D01*
X743020Y713699D01*
X741484Y713740D01*
Y721360D01*
X743020Y721401D01*
X744507Y721525D01*
X745944Y721730D01*
X747332Y722018D01*
X748671Y722389D01*
X749961Y722841D01*
X751202Y723376D01*
X752394Y723993D01*
X753537Y724692D01*
X754630Y725474D01*
Y709626D01*
D02*
G37*
G36*
X723487Y684442D02*
X721670Y682227D01*
X720152Y679387D01*
X719217Y676305D01*
X718901Y673100D01*
X719217Y669895D01*
X720152Y666813D01*
X721670Y663972D01*
X722545Y662906D01*
X722002Y661758D01*
X677083D01*
X676929Y661792D01*
X675589Y661826D01*
X674646Y661904D01*
X674576Y661915D01*
X674308Y662797D01*
X674183Y663033D01*
X674835Y664122D01*
X678180D01*
X678180Y664122D01*
X680832Y664472D01*
X683304Y665495D01*
X685426Y667124D01*
X704015Y685712D01*
X723086D01*
X723487Y684442D01*
D02*
G37*
G36*
X644151Y670512D02*
X642837Y669145D01*
X640916Y666793D01*
X640308Y665809D01*
X639936Y664952D01*
X639799Y664223D01*
X639897Y663621D01*
X640231Y663147D01*
X640800Y662801D01*
X641604Y662582D01*
X628164Y664839D01*
X628078Y664840D01*
X628215Y665056D01*
X628576Y665487D01*
X631004Y668068D01*
X637378Y674516D01*
X644151Y670512D01*
D02*
G37*
G36*
X848272Y753381D02*
Y692585D01*
X817445Y661758D01*
X799458D01*
X798915Y662906D01*
X799790Y663972D01*
X801309Y666813D01*
X802243Y669895D01*
X802559Y673100D01*
X802243Y676305D01*
X801309Y679387D01*
X799790Y682227D01*
X797747Y684717D01*
X795257Y686760D01*
X792417Y688279D01*
X789335Y689213D01*
X786130Y689529D01*
X784386Y689357D01*
X783809Y690577D01*
X847099Y753867D01*
X848272Y753381D01*
D02*
G37*
G36*
X668805Y658399D02*
X669046Y657753D01*
X669448Y657183D01*
X670011Y656688D01*
X670735Y656270D01*
X671620Y655928D01*
X672665Y655662D01*
X673872Y655472D01*
X675239Y655358D01*
X676768Y655320D01*
Y647700D01*
X675239Y647662D01*
X673872Y647548D01*
X672665Y647358D01*
X671620Y647092D01*
X670735Y646750D01*
X670011Y646332D01*
X669448Y645837D01*
X669046Y645267D01*
X668805Y644621D01*
X668724Y643899D01*
Y659121D01*
X668805Y658399D01*
D02*
G37*
G36*
X858540Y641593D02*
X857214Y641373D01*
X855911Y641060D01*
X854632Y640653D01*
X853377Y640154D01*
X852145Y639562D01*
X850936Y638877D01*
X849751Y638099D01*
X848589Y637228D01*
X847450Y636264D01*
X846335Y635207D01*
X840947Y640595D01*
X842004Y641710D01*
X842968Y642849D01*
X843839Y644011D01*
X844617Y645196D01*
X845302Y646405D01*
X845894Y647637D01*
X846393Y648892D01*
X846800Y650171D01*
X847113Y651474D01*
X847334Y652800D01*
X858540Y641593D01*
D02*
G37*
G36*
X361400Y640219D02*
X360831Y639873D01*
X360497Y639399D01*
X360399Y638797D01*
X360536Y638068D01*
X360908Y637211D01*
X361516Y636227D01*
X362359Y635115D01*
X363437Y633875D01*
X364751Y632508D01*
X357978Y628504D01*
X348764Y638181D01*
X362204Y640438D01*
X361400Y640219D01*
D02*
G37*
%LPC*%
G36*
X733900Y829150D02*
X701200D01*
Y796450D01*
X733900D01*
Y829150D01*
D02*
G37*
G36*
X314960Y1144189D02*
X311755Y1143874D01*
X308673Y1142939D01*
X305833Y1141420D01*
X303343Y1139377D01*
X301300Y1136888D01*
X299781Y1134047D01*
X298846Y1130965D01*
X298531Y1127760D01*
X298846Y1124555D01*
X299781Y1121473D01*
X301300Y1118633D01*
X303343Y1116143D01*
X305833Y1114100D01*
X308673Y1112581D01*
X311755Y1111646D01*
X314960Y1111331D01*
X318165Y1111646D01*
X321247Y1112581D01*
X324087Y1114100D01*
X326577Y1116143D01*
X328620Y1118633D01*
X330139Y1121473D01*
X331073Y1124555D01*
X331389Y1127760D01*
X331073Y1130965D01*
X330139Y1134047D01*
X328620Y1136888D01*
X326577Y1139377D01*
X324087Y1141420D01*
X321247Y1142939D01*
X318165Y1143874D01*
X314960Y1144189D01*
D02*
G37*
G36*
X1123790Y1136490D02*
X1091090D01*
Y1103790D01*
X1123790D01*
Y1136490D01*
D02*
G37*
G36*
X1107440Y1085769D02*
X1104235Y1085453D01*
X1101153Y1084519D01*
X1098313Y1083000D01*
X1095823Y1080957D01*
X1093780Y1078467D01*
X1092262Y1075627D01*
X1091327Y1072545D01*
X1091011Y1069340D01*
X1091327Y1066135D01*
X1092262Y1063053D01*
X1093780Y1060212D01*
X1095823Y1057723D01*
X1096368Y1057275D01*
Y1056005D01*
X1095823Y1055557D01*
X1093780Y1053067D01*
X1092262Y1050227D01*
X1091327Y1047145D01*
X1091011Y1043940D01*
X1091327Y1040735D01*
X1092262Y1037653D01*
X1093780Y1034812D01*
X1095823Y1032323D01*
X1098313Y1030280D01*
X1101153Y1028762D01*
X1104235Y1027827D01*
X1107440Y1027511D01*
X1110645Y1027827D01*
X1113727Y1028762D01*
X1116568Y1030280D01*
X1119057Y1032323D01*
X1121100Y1034812D01*
X1122618Y1037653D01*
X1123553Y1040735D01*
X1123869Y1043940D01*
X1123553Y1047145D01*
X1122618Y1050227D01*
X1121100Y1053067D01*
X1119057Y1055557D01*
X1118512Y1056005D01*
Y1057275D01*
X1119057Y1057723D01*
X1121100Y1060212D01*
X1122618Y1063053D01*
X1123553Y1066135D01*
X1123869Y1069340D01*
X1123553Y1072545D01*
X1122618Y1075627D01*
X1121100Y1078467D01*
X1119057Y1080957D01*
X1116568Y1083000D01*
X1113727Y1084519D01*
X1110645Y1085453D01*
X1107440Y1085769D01*
D02*
G37*
G36*
X548560Y1036239D02*
X538560D01*
X535355Y1035923D01*
X532273Y1034988D01*
X529432Y1033470D01*
X526943Y1031427D01*
X524900Y1028938D01*
X523382Y1026097D01*
X522447Y1023015D01*
X522131Y1019810D01*
X522447Y1016605D01*
X523382Y1013523D01*
X524900Y1010683D01*
X526943Y1008193D01*
X529432Y1006150D01*
X532273Y1004632D01*
X532476Y1004570D01*
Y1003300D01*
X532273Y1003239D01*
X529432Y1001720D01*
X526943Y999677D01*
X524900Y997188D01*
X523382Y994347D01*
X522447Y991265D01*
X522131Y988060D01*
X522447Y984855D01*
X523382Y981773D01*
X524900Y978932D01*
X526943Y976443D01*
X529432Y974400D01*
X532273Y972881D01*
X535355Y971946D01*
X538560Y971631D01*
X548560D01*
X551765Y971946D01*
X554847Y972881D01*
X557687Y974400D01*
X560177Y976443D01*
X562220Y978932D01*
X563739Y981773D01*
X564673Y984855D01*
X564989Y988060D01*
X564673Y991265D01*
X563739Y994347D01*
X562220Y997188D01*
X560177Y999677D01*
X557687Y1001720D01*
X554847Y1003239D01*
X554645Y1003300D01*
Y1004570D01*
X554847Y1004632D01*
X557687Y1006150D01*
X560177Y1008193D01*
X562220Y1010683D01*
X563739Y1013523D01*
X564673Y1016605D01*
X564989Y1019810D01*
X564673Y1023015D01*
X563739Y1026097D01*
X562220Y1028938D01*
X560177Y1031427D01*
X557687Y1033470D01*
X554847Y1034988D01*
X551765Y1035923D01*
X548560Y1036239D01*
D02*
G37*
G36*
X314960Y1004489D02*
X311755Y1004174D01*
X308673Y1003239D01*
X305833Y1001720D01*
X303343Y999677D01*
X301300Y997188D01*
X299781Y994347D01*
X298846Y991265D01*
X298531Y988060D01*
X298846Y984855D01*
X299781Y981773D01*
X301300Y978932D01*
X303343Y976443D01*
X305833Y974400D01*
X308673Y972881D01*
X311755Y971946D01*
X314960Y971631D01*
X318165Y971946D01*
X321247Y972881D01*
X324087Y974400D01*
X326577Y976443D01*
X328620Y978932D01*
X330139Y981773D01*
X331073Y984855D01*
X331389Y988060D01*
X331073Y991265D01*
X330139Y994347D01*
X328620Y997188D01*
X326577Y999677D01*
X324087Y1001720D01*
X321247Y1003239D01*
X318165Y1004174D01*
X314960Y1004489D01*
D02*
G37*
G36*
X406240Y947260D02*
X373540D01*
Y914560D01*
X406240D01*
Y947260D01*
D02*
G37*
G36*
X963930Y697149D02*
X960725Y696833D01*
X957643Y695899D01*
X954802Y694380D01*
X952313Y692337D01*
X950270Y689847D01*
X948752Y687007D01*
X947816Y683925D01*
X947501Y680720D01*
X947816Y677515D01*
X948752Y674433D01*
X950270Y671592D01*
X952313Y669103D01*
X954802Y667060D01*
X955382Y666750D01*
Y665480D01*
X954802Y665170D01*
X952313Y663127D01*
X950270Y660638D01*
X948752Y657797D01*
X947816Y654715D01*
X947501Y651510D01*
X947816Y648305D01*
X948752Y645223D01*
X950270Y642383D01*
X952313Y639893D01*
X954802Y637850D01*
X957643Y636331D01*
X960725Y635396D01*
X963930Y635081D01*
X967135Y635396D01*
X970217Y636331D01*
X973057Y637850D01*
X975547Y639893D01*
X977590Y642383D01*
X979109Y645223D01*
X980043Y648305D01*
X980359Y651510D01*
X980043Y654715D01*
X979109Y657797D01*
X977590Y660638D01*
X975547Y663127D01*
X973057Y665170D01*
X972478Y665480D01*
Y666750D01*
X973057Y667060D01*
X975547Y669103D01*
X977590Y671592D01*
X979109Y674433D01*
X980043Y677515D01*
X980359Y680720D01*
X980043Y683925D01*
X979109Y687007D01*
X977590Y689847D01*
X975547Y692337D01*
X973057Y694380D01*
X970217Y695899D01*
X967135Y696833D01*
X963930Y697149D01*
D02*
G37*
%LPD*%
D10*
X869950Y1062990D02*
X890270D01*
X858520Y1051560D02*
X869950Y1062990D01*
X858520Y1051560D02*
X858520Y688340D01*
X302260Y923290D02*
X350520Y971550D01*
X302260Y830580D02*
Y923290D01*
Y830580D02*
X328930Y803910D01*
X801370Y1144270D02*
X825500Y1120140D01*
X659130Y1144270D02*
X801370D01*
X572770Y1057910D02*
X659130Y1144270D01*
X821690Y651510D02*
X858520Y688340D01*
X659130Y651510D02*
X821690D01*
X673100Y1017270D02*
X707390D01*
X350520Y971550D02*
X447040D01*
X508000Y1057910D02*
X572770D01*
X467360Y1017270D02*
X508000Y1057910D01*
X391160Y1017270D02*
X467360D01*
X372110Y1059180D02*
X408940D01*
X349250Y1082040D02*
X372110Y1059180D01*
X349250Y1082040D02*
Y1186180D01*
X408940Y1059180D02*
X477520Y1127760D01*
X429260Y805180D02*
X431800Y807720D01*
X388620Y1183640D02*
X389890Y1182370D01*
X807720Y955040D02*
Y1047750D01*
X787400Y1068070D02*
X807720Y1047750D01*
X673100Y1068070D02*
X787400D01*
X783590Y930910D02*
X807720Y955040D01*
X642620Y674370D02*
X678180D01*
X633730Y665480D02*
X642620Y674370D01*
X633730Y651510D02*
Y665480D01*
X430530Y808990D02*
Y850900D01*
Y808990D02*
X431800Y807720D01*
X817880Y612140D02*
X857250Y651510D01*
X351790Y612140D02*
X817880D01*
X328930Y635000D02*
X351790Y612140D01*
X407670Y628650D02*
X430530Y651510D01*
X363220Y628650D02*
X407670D01*
X354330Y637540D02*
X363220Y628650D01*
X697230Y717550D02*
X760730D01*
X669290Y689610D02*
X697230Y717550D01*
X628650Y689610D02*
X669290D01*
X678180Y674370D02*
X699770Y695960D01*
X609600Y670560D02*
X628650Y689610D01*
X529590Y670560D02*
X609600D01*
X491490Y708660D02*
X529590Y670560D01*
X491490Y708660D02*
Y901700D01*
X1082040Y774700D02*
Y828040D01*
X828040Y1120140D02*
X1066800D01*
X858520Y1099820D02*
X890270D01*
X842010Y1083310D02*
X858520Y1099820D01*
X842010Y763270D02*
Y1083310D01*
X914400Y829310D02*
Y961390D01*
X774700Y695960D02*
X842010Y763270D01*
X699770Y695960D02*
X774700D01*
X825500Y1120140D02*
X825500Y795020D01*
X825500Y1120140D02*
X825500D01*
X772160Y741680D02*
X825500Y795020D01*
X618490Y906780D02*
Y930910D01*
X613410Y901700D02*
X618490Y906780D01*
X610870Y901700D02*
X613410D01*
X567690Y916940D02*
Y930910D01*
X554990Y904240D02*
X567690Y916940D01*
X554990Y901700D02*
Y904240D01*
X593090Y911860D02*
Y930910D01*
X582930Y901700D02*
X593090Y911860D01*
X328930Y635000D02*
Y651510D01*
X657860Y1042670D02*
X673100D01*
X648970Y1033780D02*
X657860Y1042670D01*
X648970Y980948D02*
Y1033780D01*
X659130Y1118870D02*
X673100D01*
X577850Y1037590D02*
X659130Y1118870D01*
X577850Y964565D02*
Y1037590D01*
X567690Y954405D02*
X577850Y964565D01*
X567690Y930910D02*
Y954405D01*
X593090Y930910D02*
Y951230D01*
X632460Y1066800D02*
X659130Y1093470D01*
X632460Y990600D02*
Y1066800D01*
X593090Y951230D02*
X632460Y990600D01*
X618490Y950468D02*
X648970Y980948D01*
X890270Y787400D02*
Y1027430D01*
Y787400D02*
X902970Y774700D01*
X600710Y1160780D02*
X1145540D01*
X576580Y1136650D02*
X600710Y1160780D01*
X576580Y1096010D02*
Y1136650D01*
X695960Y741680D02*
X772160D01*
X1057910Y829310D02*
X1177290Y948690D01*
X939800Y829310D02*
X1057910D01*
X1145540Y1160780D02*
X1177290Y1129030D01*
X369570Y1206500D02*
X1122680D01*
X349250Y1186180D02*
X369570Y1206500D01*
X389890Y1083310D02*
Y1155700D01*
X1122680Y1206500D02*
X1193800Y1135380D01*
Y939800D02*
Y1135380D01*
X1082040Y828040D02*
X1193800Y939800D01*
X1177290Y948690D02*
Y1129030D01*
X388620Y1183640D02*
X389890Y1184910D01*
X429260Y805180D02*
X430530Y803910D01*
X902970Y774700D02*
X929640D01*
X1031240D01*
X659130Y1093470D02*
X673100D01*
X430530Y651510D02*
Y803910D01*
X354330Y637540D02*
Y651510D01*
X618490Y930910D02*
Y950468D01*
D11*
X938530Y1094740D02*
D03*
Y1069340D02*
D03*
X1107440Y1043940D02*
D03*
Y1069340D02*
D03*
Y1094740D02*
D03*
X904240Y742950D02*
D03*
X929640D02*
D03*
X963930Y651510D02*
D03*
X887730D02*
D03*
Y680720D02*
D03*
X963930D02*
D03*
X415290Y900430D02*
D03*
X440690D02*
D03*
X1031240Y774700D02*
D03*
X914400Y829310D02*
D03*
X939800D02*
D03*
X793750Y812800D02*
D03*
X811530Y673100D02*
D03*
X786130D02*
D03*
X760730D02*
D03*
X735330D02*
D03*
X314960Y1127760D02*
D03*
Y988060D02*
D03*
D12*
X1107440Y1120140D02*
D03*
X745490Y1184910D02*
D03*
X720090D02*
D03*
X694690D02*
D03*
X669290D02*
D03*
X643890D02*
D03*
X618490D02*
D03*
X593090D02*
D03*
X567690D02*
D03*
X542290D02*
D03*
X516890D02*
D03*
X491490D02*
D03*
X466090D02*
D03*
X440690D02*
D03*
X415290D02*
D03*
X389890D02*
D03*
X745490Y930910D02*
D03*
X720090D02*
D03*
X694690D02*
D03*
X669290D02*
D03*
X643890D02*
D03*
X618490D02*
D03*
X593090D02*
D03*
X567690D02*
D03*
X542290D02*
D03*
X516890D02*
D03*
X491490D02*
D03*
X466090D02*
D03*
X440690D02*
D03*
X415290D02*
D03*
X389890D02*
D03*
D13*
X659130Y651510D02*
D03*
X633730D02*
D03*
X379730D02*
D03*
X354330D02*
D03*
Y803910D02*
D03*
X379730D02*
D03*
X405130D02*
D03*
X430530D02*
D03*
D14*
X328930Y651510D02*
D03*
Y803910D02*
D03*
D15*
X1082040Y774700D02*
D03*
D16*
X659130Y843280D02*
D03*
Y817880D02*
D03*
Y792480D02*
D03*
Y767080D02*
D03*
Y741680D02*
D03*
Y716280D02*
D03*
X673100Y1118870D02*
D03*
Y1093470D02*
D03*
Y1068070D02*
D03*
Y1042670D02*
D03*
Y1017270D02*
D03*
X543560Y1019810D02*
D03*
Y1096010D02*
D03*
Y1127760D02*
D03*
Y988060D02*
D03*
D17*
X717550Y812800D02*
D03*
D18*
X673100Y991870D02*
D03*
D19*
X603250Y1121410D02*
D03*
Y994410D02*
D03*
X781050Y1093470D02*
D03*
Y1024890D02*
D03*
D20*
X456167Y722630D02*
D03*
X316230Y721360D02*
D03*
X347980Y843280D02*
D03*
X522447Y901700D02*
D03*
X514350Y854105D02*
D03*
X603250Y740410D02*
D03*
X543147D02*
D03*
X822960Y708422D02*
D03*
X1130300Y683925D02*
D03*
X1167042Y864870D02*
D03*
X1037590Y690805D02*
D03*
X1191260Y1197610D02*
D03*
X1019810Y1021080D02*
D03*
X713740Y1104576D02*
D03*
X721360Y1045874D02*
D03*
X431800Y1148924D02*
D03*
X311150Y1195070D02*
D03*
X353060Y748030D02*
D03*
X967975Y962660D02*
D03*
X999490Y1084061D02*
D03*
X1197610Y900430D02*
D03*
X1181100Y667596D02*
D03*
X707390Y1017270D02*
D03*
X447040Y971550D02*
D03*
X391160Y1017270D02*
D03*
X477520Y1127760D02*
D03*
X430530Y850900D02*
D03*
X1066800Y1120140D02*
D03*
X890270Y1062990D02*
D03*
Y1099820D02*
D03*
X914400Y961390D02*
D03*
X857250Y651510D02*
D03*
X760730Y717550D02*
D03*
X554990Y901700D02*
D03*
X582930D02*
D03*
X610870D02*
D03*
X890270Y1027430D02*
D03*
X576580Y1096010D02*
D03*
X695960Y741680D02*
D03*
X491490Y901700D02*
D03*
X783590Y930910D02*
D03*
X389890Y1155700D02*
D03*
Y1083310D02*
D03*
X929640Y774700D02*
D03*
%TF.MD5,b1fa5946af131fa2fc6b16478d7e882e*%
M02*
