%TF.GenerationSoftware,Altium Limited,Altium Designer,18.1.6 (161)*%
G04 Layer_Color=65535*
%FSLAX44Y44*%
%MOMM*%
%TF.FileFunction,Legend,Top*%
%TF.Part,Single*%
G01*
G75*
%TA.AperFunction,NonConductor*%
%ADD21C,0.2540*%
G36*
X1003488Y924746D02*
X1000599D01*
Y926461D01*
X1000575Y926414D01*
X1000481Y926296D01*
X1000316Y926108D01*
X1000105Y925897D01*
X999870Y925662D01*
X999565Y925404D01*
X999236Y925169D01*
X998883Y924957D01*
X998836Y924934D01*
X998719Y924887D01*
X998507Y924816D01*
X998272Y924722D01*
X997967Y924628D01*
X997615Y924558D01*
X997262Y924511D01*
X996886Y924487D01*
X996698D01*
X996557Y924511D01*
X996369Y924534D01*
X996181Y924581D01*
X995946Y924628D01*
X995688Y924699D01*
X995430Y924769D01*
X995148Y924887D01*
X994866Y925004D01*
X994560Y925169D01*
X994278Y925357D01*
X993973Y925568D01*
X993691Y925827D01*
X993409Y926108D01*
X993385Y926132D01*
X993338Y926179D01*
X993268Y926273D01*
X993197Y926414D01*
X993080Y926578D01*
X992963Y926790D01*
X992822Y927025D01*
X992704Y927307D01*
X992563Y927612D01*
X992422Y927941D01*
X992305Y928317D01*
X992211Y928717D01*
X992117Y929163D01*
X992046Y929633D01*
X991999Y930126D01*
X991976Y930667D01*
Y930690D01*
Y930807D01*
Y930948D01*
X991999Y931160D01*
X992023Y931418D01*
X992046Y931700D01*
X992093Y932029D01*
X992140Y932358D01*
X992305Y933110D01*
X992422Y933486D01*
X992563Y933862D01*
X992728Y934238D01*
X992916Y934590D01*
X993127Y934919D01*
X993362Y935225D01*
X993385Y935248D01*
X993432Y935295D01*
X993503Y935366D01*
X993620Y935483D01*
X993761Y935601D01*
X993926Y935718D01*
X994114Y935859D01*
X994349Y936023D01*
X994584Y936164D01*
X994866Y936305D01*
X995453Y936564D01*
X995806Y936658D01*
X996158Y936728D01*
X996534Y936775D01*
X996933Y936799D01*
X997121D01*
X997262Y936775D01*
X997427Y936752D01*
X997638Y936705D01*
X997850Y936658D01*
X998108Y936587D01*
X998366Y936517D01*
X998648Y936399D01*
X998930Y936258D01*
X999212Y936117D01*
X999518Y935906D01*
X999800Y935695D01*
X1000082Y935436D01*
X1000363Y935154D01*
Y941004D01*
X1003488D01*
Y924746D01*
D02*
G37*
G36*
X1026302Y936775D02*
X1026560Y936752D01*
X1026842Y936705D01*
X1027148Y936634D01*
X1027477Y936540D01*
X1027806Y936423D01*
X1027853Y936399D01*
X1027947Y936352D01*
X1028111Y936282D01*
X1028299Y936164D01*
X1028511Y936023D01*
X1028722Y935859D01*
X1028933Y935671D01*
X1029121Y935460D01*
X1029145Y935436D01*
X1029192Y935366D01*
X1029262Y935248D01*
X1029356Y935084D01*
X1029474Y934896D01*
X1029568Y934661D01*
X1029662Y934426D01*
X1029732Y934144D01*
Y934120D01*
X1029756Y934003D01*
X1029803Y933838D01*
X1029826Y933603D01*
X1029873Y933322D01*
X1029897Y932946D01*
X1029920Y932546D01*
Y932053D01*
Y924746D01*
X1026795D01*
Y930737D01*
Y930760D01*
Y930831D01*
Y930925D01*
Y931042D01*
Y931207D01*
Y931371D01*
X1026772Y931771D01*
X1026748Y932170D01*
X1026701Y932593D01*
X1026654Y932946D01*
X1026631Y933086D01*
X1026584Y933204D01*
Y933227D01*
X1026537Y933298D01*
X1026490Y933392D01*
X1026420Y933533D01*
X1026208Y933815D01*
X1026090Y933956D01*
X1025926Y934073D01*
X1025903Y934097D01*
X1025856Y934120D01*
X1025762Y934167D01*
X1025621Y934238D01*
X1025456Y934308D01*
X1025292Y934355D01*
X1025080Y934379D01*
X1024845Y934402D01*
X1024704D01*
X1024563Y934379D01*
X1024375Y934355D01*
X1024140Y934285D01*
X1023905Y934214D01*
X1023647Y934097D01*
X1023389Y933956D01*
X1023365Y933932D01*
X1023295Y933885D01*
X1023177Y933768D01*
X1023036Y933650D01*
X1022895Y933462D01*
X1022754Y933275D01*
X1022613Y933016D01*
X1022519Y932758D01*
Y932734D01*
X1022472Y932617D01*
X1022449Y932429D01*
X1022402Y932147D01*
X1022378Y931982D01*
X1022355Y931771D01*
X1022331Y931559D01*
Y931301D01*
X1022308Y931042D01*
X1022284Y930737D01*
Y930408D01*
Y930056D01*
Y924746D01*
X1019159D01*
Y936540D01*
X1022049D01*
Y934802D01*
X1022073Y934825D01*
X1022120Y934896D01*
X1022214Y934990D01*
X1022331Y935107D01*
X1022472Y935272D01*
X1022660Y935436D01*
X1022872Y935624D01*
X1023107Y935812D01*
X1023365Y935976D01*
X1023671Y936164D01*
X1023976Y936329D01*
X1024328Y936493D01*
X1024704Y936611D01*
X1025080Y936705D01*
X1025503Y936775D01*
X1025926Y936799D01*
X1026090D01*
X1026302Y936775D01*
D02*
G37*
G36*
X985891D02*
X986149Y936752D01*
X986431Y936705D01*
X986736Y936634D01*
X987065Y936540D01*
X987394Y936423D01*
X987441Y936399D01*
X987535Y936352D01*
X987700Y936282D01*
X987888Y936164D01*
X988099Y936023D01*
X988311Y935859D01*
X988522Y935671D01*
X988710Y935460D01*
X988734Y935436D01*
X988781Y935366D01*
X988851Y935248D01*
X988945Y935084D01*
X989062Y934896D01*
X989156Y934661D01*
X989250Y934426D01*
X989321Y934144D01*
Y934120D01*
X989344Y934003D01*
X989391Y933838D01*
X989415Y933603D01*
X989462Y933322D01*
X989485Y932946D01*
X989509Y932546D01*
Y932053D01*
Y924746D01*
X986384D01*
Y930737D01*
Y930760D01*
Y930831D01*
Y930925D01*
Y931042D01*
Y931207D01*
Y931371D01*
X986360Y931771D01*
X986337Y932170D01*
X986290Y932593D01*
X986243Y932946D01*
X986219Y933086D01*
X986172Y933204D01*
Y933227D01*
X986125Y933298D01*
X986078Y933392D01*
X986008Y933533D01*
X985797Y933815D01*
X985679Y933956D01*
X985515Y934073D01*
X985491Y934097D01*
X985444Y934120D01*
X985350Y934167D01*
X985209Y934238D01*
X985045Y934308D01*
X984880Y934355D01*
X984669Y934379D01*
X984434Y934402D01*
X984293D01*
X984152Y934379D01*
X983964Y934355D01*
X983729Y934285D01*
X983494Y934214D01*
X983236Y934097D01*
X982977Y933956D01*
X982954Y933932D01*
X982883Y933885D01*
X982766Y933768D01*
X982625Y933650D01*
X982484Y933462D01*
X982343Y933275D01*
X982202Y933016D01*
X982108Y932758D01*
Y932734D01*
X982061Y932617D01*
X982037Y932429D01*
X981990Y932147D01*
X981967Y931982D01*
X981943Y931771D01*
X981920Y931559D01*
Y931301D01*
X981896Y931042D01*
X981873Y930737D01*
Y930408D01*
Y930056D01*
Y924746D01*
X978748D01*
Y936540D01*
X981638D01*
Y934802D01*
X981662Y934825D01*
X981709Y934896D01*
X981803Y934990D01*
X981920Y935107D01*
X982061Y935272D01*
X982249Y935436D01*
X982460Y935624D01*
X982695Y935812D01*
X982954Y935976D01*
X983259Y936164D01*
X983565Y936329D01*
X983917Y936493D01*
X984293Y936611D01*
X984669Y936705D01*
X985092Y936775D01*
X985515Y936799D01*
X985679D01*
X985891Y936775D01*
D02*
G37*
G36*
X1038425D02*
X1038613D01*
X1038825Y936752D01*
X1039060Y936728D01*
X1039318Y936681D01*
X1039859Y936564D01*
X1040423Y936399D01*
X1040986Y936164D01*
X1041503Y935859D01*
X1041527D01*
X1041550Y935812D01*
X1041621Y935765D01*
X1041715Y935695D01*
X1041926Y935483D01*
X1042208Y935178D01*
X1042514Y934778D01*
X1042819Y934308D01*
X1043101Y933744D01*
X1043336Y933086D01*
X1040258Y932523D01*
Y932570D01*
X1040235Y932664D01*
X1040188Y932828D01*
X1040117Y933039D01*
X1040000Y933251D01*
X1039882Y933486D01*
X1039718Y933697D01*
X1039530Y933885D01*
X1039506Y933909D01*
X1039436Y933956D01*
X1039318Y934026D01*
X1039154Y934120D01*
X1038942Y934214D01*
X1038707Y934285D01*
X1038425Y934332D01*
X1038120Y934355D01*
X1038073D01*
X1037932Y934332D01*
X1037721Y934308D01*
X1037439Y934261D01*
X1037157Y934144D01*
X1036851Y934003D01*
X1036546Y933815D01*
X1036264Y933533D01*
X1036240Y933486D01*
X1036170Y933369D01*
X1036052Y933180D01*
X1035935Y932899D01*
X1035794Y932523D01*
X1035747Y932311D01*
X1035700Y932076D01*
X1035653Y931794D01*
X1035606Y931512D01*
X1035583Y931183D01*
Y930854D01*
Y930831D01*
Y930760D01*
Y930643D01*
X1035606Y930502D01*
Y930338D01*
X1035630Y930150D01*
X1035676Y929680D01*
X1035747Y929186D01*
X1035888Y928693D01*
X1036052Y928247D01*
X1036170Y928059D01*
X1036287Y927871D01*
X1036311Y927824D01*
X1036428Y927730D01*
X1036569Y927612D01*
X1036781Y927448D01*
X1037063Y927283D01*
X1037368Y927166D01*
X1037744Y927072D01*
X1038167Y927025D01*
X1038308D01*
X1038472Y927048D01*
X1038684Y927095D01*
X1038919Y927142D01*
X1039154Y927236D01*
X1039389Y927354D01*
X1039624Y927518D01*
X1039647Y927542D01*
X1039718Y927612D01*
X1039812Y927730D01*
X1039953Y927918D01*
X1040094Y928153D01*
X1040211Y928458D01*
X1040352Y928834D01*
X1040446Y929257D01*
X1043500Y928740D01*
Y928717D01*
X1043477Y928646D01*
X1043453Y928529D01*
X1043406Y928388D01*
X1043336Y928223D01*
X1043265Y928012D01*
X1043077Y927542D01*
X1042842Y927025D01*
X1042514Y926508D01*
X1042114Y925991D01*
X1041879Y925756D01*
X1041644Y925545D01*
X1041621D01*
X1041574Y925498D01*
X1041503Y925451D01*
X1041409Y925380D01*
X1041268Y925310D01*
X1041104Y925216D01*
X1040916Y925122D01*
X1040681Y925028D01*
X1040446Y924910D01*
X1040164Y924816D01*
X1039882Y924722D01*
X1039553Y924652D01*
X1039201Y924581D01*
X1038825Y924534D01*
X1038449Y924511D01*
X1038026Y924487D01*
X1037767D01*
X1037603Y924511D01*
X1037392Y924534D01*
X1037133Y924581D01*
X1036851Y924628D01*
X1036546Y924699D01*
X1036217Y924769D01*
X1035888Y924887D01*
X1035536Y925004D01*
X1035207Y925169D01*
X1034854Y925357D01*
X1034525Y925568D01*
X1034220Y925827D01*
X1033914Y926108D01*
X1033891Y926132D01*
X1033844Y926179D01*
X1033773Y926273D01*
X1033679Y926414D01*
X1033562Y926578D01*
X1033421Y926766D01*
X1033304Y927001D01*
X1033163Y927283D01*
X1032998Y927589D01*
X1032881Y927918D01*
X1032740Y928294D01*
X1032622Y928693D01*
X1032528Y929139D01*
X1032458Y929586D01*
X1032411Y930103D01*
X1032387Y930620D01*
Y930643D01*
Y930737D01*
Y930901D01*
X1032411Y931089D01*
X1032434Y931348D01*
X1032458Y931630D01*
X1032505Y931935D01*
X1032575Y932288D01*
X1032763Y933016D01*
X1032881Y933392D01*
X1033022Y933768D01*
X1033210Y934144D01*
X1033421Y934496D01*
X1033656Y934825D01*
X1033914Y935154D01*
X1033938Y935178D01*
X1033985Y935225D01*
X1034079Y935295D01*
X1034196Y935413D01*
X1034361Y935530D01*
X1034549Y935671D01*
X1034760Y935835D01*
X1035019Y935976D01*
X1035301Y936141D01*
X1035606Y936282D01*
X1035958Y936423D01*
X1036334Y936540D01*
X1036710Y936658D01*
X1037157Y936728D01*
X1037603Y936775D01*
X1038073Y936799D01*
X1038284D01*
X1038425Y936775D01*
D02*
G37*
G36*
X1011665D02*
X1011853D01*
X1012322Y936728D01*
X1012816Y936681D01*
X1013333Y936587D01*
X1013826Y936446D01*
X1014038Y936376D01*
X1014249Y936282D01*
X1014273D01*
X1014296Y936258D01*
X1014414Y936188D01*
X1014602Y936094D01*
X1014813Y935953D01*
X1015071Y935765D01*
X1015306Y935554D01*
X1015518Y935295D01*
X1015706Y935037D01*
X1015729Y934990D01*
X1015776Y934896D01*
X1015847Y934684D01*
X1015870Y934567D01*
X1015917Y934402D01*
X1015964Y934238D01*
X1015988Y934026D01*
X1016035Y933791D01*
X1016058Y933533D01*
X1016082Y933251D01*
X1016105Y932946D01*
X1016129Y932617D01*
Y932241D01*
X1016082Y928599D01*
Y928576D01*
Y928529D01*
Y928458D01*
Y928341D01*
Y928059D01*
X1016105Y927730D01*
Y927354D01*
X1016152Y926978D01*
X1016176Y926602D01*
X1016223Y926296D01*
Y926273D01*
X1016246Y926179D01*
X1016293Y926014D01*
X1016340Y925827D01*
X1016434Y925592D01*
X1016528Y925333D01*
X1016646Y925051D01*
X1016786Y924746D01*
X1013709D01*
Y924769D01*
X1013685Y924793D01*
X1013662Y924887D01*
X1013615Y924981D01*
X1013568Y925098D01*
X1013521Y925263D01*
X1013474Y925451D01*
X1013403Y925662D01*
Y925686D01*
X1013380Y925709D01*
X1013356Y925803D01*
X1013309Y925921D01*
X1013286Y926014D01*
X1013239Y925991D01*
X1013145Y925897D01*
X1012980Y925756D01*
X1012769Y925592D01*
X1012510Y925404D01*
X1012228Y925192D01*
X1011900Y925028D01*
X1011571Y924863D01*
X1011524Y924840D01*
X1011406Y924816D01*
X1011218Y924746D01*
X1010983Y924675D01*
X1010701Y924605D01*
X1010372Y924558D01*
X1009996Y924511D01*
X1009621Y924487D01*
X1009456D01*
X1009315Y924511D01*
X1009174D01*
X1008986Y924534D01*
X1008587Y924605D01*
X1008117Y924722D01*
X1007647Y924887D01*
X1007177Y925122D01*
X1006754Y925451D01*
Y925474D01*
X1006707Y925498D01*
X1006590Y925639D01*
X1006425Y925850D01*
X1006237Y926132D01*
X1006049Y926484D01*
X1005885Y926907D01*
X1005767Y927401D01*
X1005744Y927659D01*
X1005720Y927941D01*
Y927988D01*
Y928106D01*
X1005744Y928294D01*
X1005791Y928529D01*
X1005838Y928810D01*
X1005908Y929092D01*
X1006026Y929398D01*
X1006190Y929703D01*
X1006214Y929750D01*
X1006284Y929844D01*
X1006378Y929985D01*
X1006543Y930150D01*
X1006707Y930338D01*
X1006942Y930549D01*
X1007201Y930737D01*
X1007506Y930901D01*
X1007553Y930925D01*
X1007671Y930972D01*
X1007858Y931042D01*
X1008140Y931160D01*
X1008493Y931277D01*
X1008916Y931395D01*
X1009433Y931512D01*
X1009996Y931630D01*
X1010020D01*
X1010090Y931653D01*
X1010208Y931677D01*
X1010349Y931700D01*
X1010537Y931724D01*
X1010748Y931771D01*
X1011218Y931888D01*
X1011712Y932006D01*
X1012228Y932123D01*
X1012675Y932264D01*
X1012886Y932335D01*
X1013051Y932405D01*
Y932711D01*
Y932758D01*
Y932852D01*
X1013027Y933016D01*
X1013004Y933227D01*
X1012933Y933439D01*
X1012863Y933650D01*
X1012745Y933838D01*
X1012581Y934003D01*
X1012557Y934026D01*
X1012487Y934073D01*
X1012370Y934120D01*
X1012205Y934214D01*
X1011970Y934285D01*
X1011688Y934332D01*
X1011336Y934379D01*
X1010913Y934402D01*
X1010772D01*
X1010631Y934379D01*
X1010443Y934355D01*
X1010231Y934308D01*
X1009996Y934261D01*
X1009785Y934167D01*
X1009597Y934050D01*
X1009574Y934026D01*
X1009527Y933979D01*
X1009433Y933909D01*
X1009339Y933791D01*
X1009198Y933627D01*
X1009080Y933416D01*
X1008963Y933180D01*
X1008845Y932899D01*
X1006049Y933416D01*
Y933439D01*
X1006073Y933486D01*
X1006096Y933580D01*
X1006143Y933697D01*
X1006190Y933838D01*
X1006261Y934003D01*
X1006425Y934379D01*
X1006660Y934778D01*
X1006942Y935201D01*
X1007271Y935601D01*
X1007671Y935953D01*
X1007694D01*
X1007717Y936000D01*
X1007788Y936023D01*
X1007882Y936094D01*
X1008023Y936141D01*
X1008164Y936211D01*
X1008352Y936305D01*
X1008540Y936376D01*
X1008775Y936446D01*
X1009033Y936540D01*
X1009315Y936611D01*
X1009644Y936658D01*
X1009973Y936728D01*
X1010349Y936752D01*
X1010725Y936799D01*
X1011500D01*
X1011665Y936775D01*
D02*
G37*
G36*
X949285Y924746D02*
X945738D01*
X944328Y928435D01*
X937796D01*
X936457Y924746D01*
X932980D01*
X939277Y941004D01*
X942754D01*
X949285Y924746D01*
D02*
G37*
G36*
X1050643Y936775D02*
X1050854Y936752D01*
X1051113Y936705D01*
X1051395Y936658D01*
X1051700Y936587D01*
X1052029Y936493D01*
X1052358Y936376D01*
X1052710Y936235D01*
X1053063Y936047D01*
X1053392Y935859D01*
X1053721Y935624D01*
X1054050Y935342D01*
X1054332Y935037D01*
X1054355Y935013D01*
X1054402Y934966D01*
X1054473Y934849D01*
X1054566Y934708D01*
X1054684Y934520D01*
X1054801Y934308D01*
X1054942Y934026D01*
X1055083Y933721D01*
X1055224Y933369D01*
X1055365Y932969D01*
X1055483Y932546D01*
X1055600Y932053D01*
X1055694Y931536D01*
X1055765Y930972D01*
X1055812Y930385D01*
Y929727D01*
X1048011D01*
Y929703D01*
Y929656D01*
Y929586D01*
X1048035Y929492D01*
X1048058Y929257D01*
X1048105Y928928D01*
X1048199Y928599D01*
X1048340Y928223D01*
X1048505Y927871D01*
X1048740Y927565D01*
X1048763Y927542D01*
X1048881Y927448D01*
X1049022Y927330D01*
X1049233Y927189D01*
X1049492Y927048D01*
X1049820Y926931D01*
X1050173Y926837D01*
X1050549Y926813D01*
X1050666D01*
X1050807Y926837D01*
X1050972Y926860D01*
X1051160Y926907D01*
X1051371Y926978D01*
X1051583Y927072D01*
X1051771Y927213D01*
X1051794Y927236D01*
X1051864Y927283D01*
X1051958Y927377D01*
X1052053Y927518D01*
X1052194Y927706D01*
X1052311Y927918D01*
X1052428Y928200D01*
X1052546Y928505D01*
X1055647Y927988D01*
Y927965D01*
X1055624Y927918D01*
X1055577Y927824D01*
X1055530Y927706D01*
X1055459Y927565D01*
X1055389Y927401D01*
X1055177Y927025D01*
X1054919Y926602D01*
X1054590Y926155D01*
X1054191Y925756D01*
X1053744Y925380D01*
X1053721D01*
X1053697Y925333D01*
X1053603Y925310D01*
X1053509Y925239D01*
X1053392Y925169D01*
X1053227Y925098D01*
X1053063Y925028D01*
X1052851Y924934D01*
X1052381Y924769D01*
X1051841Y924628D01*
X1051207Y924534D01*
X1050525Y924487D01*
X1050384D01*
X1050243Y924511D01*
X1050032D01*
X1049773Y924558D01*
X1049468Y924605D01*
X1049139Y924652D01*
X1048810Y924746D01*
X1048434Y924840D01*
X1048058Y924981D01*
X1047682Y925145D01*
X1047307Y925333D01*
X1046931Y925568D01*
X1046578Y925827D01*
X1046273Y926132D01*
X1045967Y926484D01*
X1045944Y926508D01*
X1045920Y926555D01*
X1045873Y926649D01*
X1045779Y926766D01*
X1045709Y926931D01*
X1045615Y927119D01*
X1045497Y927330D01*
X1045403Y927589D01*
X1045286Y927871D01*
X1045192Y928176D01*
X1045074Y928505D01*
X1045004Y928881D01*
X1044933Y929257D01*
X1044863Y929656D01*
X1044839Y930103D01*
X1044816Y930549D01*
Y930573D01*
Y930667D01*
Y930831D01*
X1044839Y931042D01*
X1044863Y931277D01*
X1044886Y931559D01*
X1044933Y931865D01*
X1045004Y932217D01*
X1045192Y932946D01*
X1045309Y933322D01*
X1045450Y933721D01*
X1045638Y934097D01*
X1045850Y934449D01*
X1046085Y934802D01*
X1046343Y935131D01*
X1046367Y935154D01*
X1046414Y935201D01*
X1046508Y935295D01*
X1046625Y935389D01*
X1046766Y935507D01*
X1046954Y935648D01*
X1047166Y935812D01*
X1047401Y935976D01*
X1047659Y936117D01*
X1047964Y936282D01*
X1048270Y936423D01*
X1048622Y936540D01*
X1048975Y936634D01*
X1049374Y936728D01*
X1049773Y936775D01*
X1050196Y936799D01*
X1050455D01*
X1050643Y936775D01*
D02*
G37*
G36*
X971065D02*
X971277Y936752D01*
X971535Y936705D01*
X971817Y936658D01*
X972122Y936587D01*
X972451Y936493D01*
X972780Y936376D01*
X973133Y936235D01*
X973485Y936047D01*
X973814Y935859D01*
X974143Y935624D01*
X974472Y935342D01*
X974754Y935037D01*
X974778Y935013D01*
X974824Y934966D01*
X974895Y934849D01*
X974989Y934708D01*
X975106Y934520D01*
X975224Y934308D01*
X975365Y934026D01*
X975506Y933721D01*
X975647Y933369D01*
X975788Y932969D01*
X975905Y932546D01*
X976023Y932053D01*
X976117Y931536D01*
X976187Y930972D01*
X976234Y930385D01*
Y929727D01*
X968434D01*
Y929703D01*
Y929656D01*
Y929586D01*
X968457Y929492D01*
X968481Y929257D01*
X968528Y928928D01*
X968622Y928599D01*
X968763Y928223D01*
X968927Y927871D01*
X969162Y927565D01*
X969186Y927542D01*
X969303Y927448D01*
X969444Y927330D01*
X969656Y927189D01*
X969914Y927048D01*
X970243Y926931D01*
X970595Y926837D01*
X970971Y926813D01*
X971089D01*
X971230Y926837D01*
X971394Y926860D01*
X971582Y926907D01*
X971794Y926978D01*
X972005Y927072D01*
X972193Y927213D01*
X972216Y927236D01*
X972287Y927283D01*
X972381Y927377D01*
X972475Y927518D01*
X972616Y927706D01*
X972733Y927918D01*
X972851Y928200D01*
X972968Y928505D01*
X976070Y927988D01*
Y927965D01*
X976046Y927918D01*
X975999Y927824D01*
X975952Y927706D01*
X975882Y927565D01*
X975811Y927401D01*
X975600Y927025D01*
X975341Y926602D01*
X975012Y926155D01*
X974613Y925756D01*
X974167Y925380D01*
X974143D01*
X974120Y925333D01*
X974026Y925310D01*
X973932Y925239D01*
X973814Y925169D01*
X973650Y925098D01*
X973485Y925028D01*
X973274Y924934D01*
X972804Y924769D01*
X972263Y924628D01*
X971629Y924534D01*
X970948Y924487D01*
X970807D01*
X970666Y924511D01*
X970454D01*
X970196Y924558D01*
X969891Y924605D01*
X969562Y924652D01*
X969233Y924746D01*
X968857Y924840D01*
X968481Y924981D01*
X968105Y925145D01*
X967729Y925333D01*
X967353Y925568D01*
X967001Y925827D01*
X966695Y926132D01*
X966390Y926484D01*
X966366Y926508D01*
X966343Y926555D01*
X966296Y926649D01*
X966202Y926766D01*
X966131Y926931D01*
X966037Y927119D01*
X965920Y927330D01*
X965826Y927589D01*
X965708Y927871D01*
X965614Y928176D01*
X965497Y928505D01*
X965426Y928881D01*
X965356Y929257D01*
X965285Y929656D01*
X965262Y930103D01*
X965238Y930549D01*
Y930573D01*
Y930667D01*
Y930831D01*
X965262Y931042D01*
X965285Y931277D01*
X965309Y931559D01*
X965356Y931865D01*
X965426Y932217D01*
X965614Y932946D01*
X965732Y933322D01*
X965873Y933721D01*
X966061Y934097D01*
X966272Y934449D01*
X966507Y934802D01*
X966766Y935131D01*
X966789Y935154D01*
X966836Y935201D01*
X966930Y935295D01*
X967048Y935389D01*
X967189Y935507D01*
X967376Y935648D01*
X967588Y935812D01*
X967823Y935976D01*
X968081Y936117D01*
X968387Y936282D01*
X968692Y936423D01*
X969045Y936540D01*
X969397Y936634D01*
X969797Y936728D01*
X970196Y936775D01*
X970619Y936799D01*
X970877D01*
X971065Y936775D01*
D02*
G37*
G36*
X961855Y936540D02*
X963993D01*
Y934050D01*
X961855D01*
Y929280D01*
Y929257D01*
Y929210D01*
Y929139D01*
Y929045D01*
Y928810D01*
Y928529D01*
X961879Y928247D01*
Y927965D01*
Y927753D01*
X961902Y927659D01*
Y927612D01*
X961926Y927565D01*
X961973Y927471D01*
X962043Y927354D01*
X962184Y927213D01*
X962231Y927189D01*
X962325Y927142D01*
X962490Y927095D01*
X962701Y927072D01*
X962795D01*
X962889Y927095D01*
X963030Y927119D01*
X963218Y927142D01*
X963429Y927189D01*
X963688Y927260D01*
X963970Y927354D01*
X964252Y924934D01*
X964228D01*
X964205Y924910D01*
X964064Y924863D01*
X963829Y924793D01*
X963523Y924722D01*
X963171Y924628D01*
X962748Y924558D01*
X962278Y924511D01*
X961785Y924487D01*
X961644D01*
X961479Y924511D01*
X961268Y924534D01*
X961033Y924558D01*
X960774Y924605D01*
X960516Y924675D01*
X960257Y924769D01*
X960234Y924793D01*
X960140Y924816D01*
X960023Y924887D01*
X959882Y924957D01*
X959553Y925192D01*
X959388Y925333D01*
X959247Y925498D01*
X959224Y925521D01*
X959200Y925592D01*
X959153Y925686D01*
X959083Y925827D01*
X959012Y925991D01*
X958942Y926202D01*
X958871Y926437D01*
X958824Y926696D01*
Y926719D01*
X958801Y926813D01*
Y926954D01*
X958777Y927189D01*
X958754Y927495D01*
Y927871D01*
X958730Y928082D01*
Y928341D01*
Y928599D01*
Y928904D01*
Y934050D01*
X957297D01*
Y936540D01*
X958730D01*
Y938890D01*
X961855Y940722D01*
Y936540D01*
D02*
G37*
G36*
X954290D02*
X956428D01*
Y934050D01*
X954290D01*
Y929280D01*
Y929257D01*
Y929210D01*
Y929139D01*
Y929045D01*
Y928810D01*
Y928529D01*
X954313Y928247D01*
Y927965D01*
Y927753D01*
X954337Y927659D01*
Y927612D01*
X954360Y927565D01*
X954407Y927471D01*
X954478Y927354D01*
X954619Y927213D01*
X954666Y927189D01*
X954760Y927142D01*
X954924Y927095D01*
X955136Y927072D01*
X955230D01*
X955324Y927095D01*
X955465Y927119D01*
X955652Y927142D01*
X955864Y927189D01*
X956122Y927260D01*
X956404Y927354D01*
X956686Y924934D01*
X956663D01*
X956639Y924910D01*
X956498Y924863D01*
X956263Y924793D01*
X955958Y924722D01*
X955605Y924628D01*
X955183Y924558D01*
X954713Y924511D01*
X954219Y924487D01*
X954078D01*
X953914Y924511D01*
X953702Y924534D01*
X953467Y924558D01*
X953209Y924605D01*
X952951Y924675D01*
X952692Y924769D01*
X952669Y924793D01*
X952575Y924816D01*
X952457Y924887D01*
X952316Y924957D01*
X951987Y925192D01*
X951823Y925333D01*
X951682Y925498D01*
X951658Y925521D01*
X951635Y925592D01*
X951588Y925686D01*
X951517Y925827D01*
X951447Y925991D01*
X951376Y926202D01*
X951306Y926437D01*
X951259Y926696D01*
Y926719D01*
X951236Y926813D01*
Y926954D01*
X951212Y927189D01*
X951189Y927495D01*
Y927871D01*
X951165Y928082D01*
Y928341D01*
Y928599D01*
Y928904D01*
Y934050D01*
X949732D01*
Y936540D01*
X951165D01*
Y938890D01*
X954290Y940722D01*
Y936540D01*
D02*
G37*
G36*
X1027923Y918040D02*
X1024798D01*
Y920930D01*
X1027923D01*
Y918040D01*
D02*
G37*
G36*
X964134Y921212D02*
X964393Y921189D01*
X964675Y921142D01*
X965004Y921095D01*
X965356Y921024D01*
X965732Y920930D01*
X966131Y920813D01*
X966531Y920672D01*
X966954Y920484D01*
X967353Y920296D01*
X967729Y920061D01*
X968128Y919779D01*
X968481Y919473D01*
X968504D01*
X968528Y919426D01*
X968598Y919356D01*
X968669Y919286D01*
X968763Y919168D01*
X968857Y919027D01*
X969115Y918698D01*
X969374Y918275D01*
X969656Y917758D01*
X969914Y917171D01*
X970149Y916490D01*
X966907Y915714D01*
Y915738D01*
X966883Y915761D01*
Y915832D01*
X966836Y915926D01*
X966766Y916137D01*
X966648Y916419D01*
X966484Y916748D01*
X966272Y917077D01*
X965990Y917406D01*
X965685Y917688D01*
X965638Y917711D01*
X965520Y917805D01*
X965332Y917923D01*
X965074Y918064D01*
X964745Y918205D01*
X964369Y918322D01*
X963946Y918416D01*
X963476Y918440D01*
X963312D01*
X963171Y918416D01*
X963030Y918393D01*
X962842Y918369D01*
X962443Y918275D01*
X961973Y918111D01*
X961479Y917876D01*
X961221Y917735D01*
X960986Y917570D01*
X960751Y917359D01*
X960539Y917124D01*
Y917101D01*
X960492Y917054D01*
X960445Y916983D01*
X960375Y916866D01*
X960281Y916725D01*
X960187Y916560D01*
X960093Y916349D01*
X959999Y916114D01*
X959882Y915832D01*
X959788Y915526D01*
X959694Y915174D01*
X959600Y914798D01*
X959529Y914375D01*
X959482Y913929D01*
X959459Y913435D01*
X959435Y912895D01*
Y912871D01*
Y912754D01*
Y912589D01*
X959459Y912402D01*
Y912143D01*
X959506Y911838D01*
X959529Y911532D01*
X959576Y911180D01*
X959717Y910451D01*
X959905Y909723D01*
X960023Y909371D01*
X960187Y909042D01*
X960351Y908736D01*
X960539Y908478D01*
X960563Y908454D01*
X960586Y908431D01*
X960657Y908360D01*
X960751Y908266D01*
X960986Y908078D01*
X961315Y907843D01*
X961714Y907585D01*
X962208Y907397D01*
X962772Y907233D01*
X963077Y907209D01*
X963406Y907186D01*
X963523D01*
X963617Y907209D01*
X963876Y907233D01*
X964181Y907280D01*
X964510Y907397D01*
X964886Y907538D01*
X965262Y907726D01*
X965638Y908008D01*
X965685Y908055D01*
X965802Y908172D01*
X965967Y908360D01*
X966155Y908642D01*
X966390Y909018D01*
X966601Y909465D01*
X966813Y910005D01*
X967001Y910639D01*
X970196Y909653D01*
Y909629D01*
X970172Y909535D01*
X970125Y909394D01*
X970055Y909206D01*
X969961Y908995D01*
X969867Y908736D01*
X969750Y908454D01*
X969609Y908149D01*
X969280Y907515D01*
X968857Y906857D01*
X968340Y906222D01*
X968058Y905940D01*
X967752Y905682D01*
X967729Y905658D01*
X967682Y905635D01*
X967588Y905564D01*
X967447Y905471D01*
X967282Y905377D01*
X967071Y905283D01*
X966836Y905165D01*
X966578Y905048D01*
X966272Y904907D01*
X965943Y904789D01*
X965591Y904695D01*
X965215Y904601D01*
X964816Y904507D01*
X964369Y904437D01*
X963923Y904413D01*
X963429Y904390D01*
X963288D01*
X963124Y904413D01*
X962889Y904437D01*
X962630Y904460D01*
X962302Y904507D01*
X961949Y904578D01*
X961550Y904672D01*
X961150Y904789D01*
X960727Y904930D01*
X960281Y905118D01*
X959835Y905330D01*
X959388Y905564D01*
X958942Y905870D01*
X958519Y906199D01*
X958120Y906598D01*
X958096Y906622D01*
X958026Y906692D01*
X957932Y906833D01*
X957791Y906998D01*
X957650Y907233D01*
X957462Y907491D01*
X957274Y907820D01*
X957086Y908196D01*
X956898Y908595D01*
X956710Y909042D01*
X956522Y909559D01*
X956381Y910099D01*
X956240Y910663D01*
X956146Y911297D01*
X956075Y911955D01*
X956052Y912660D01*
Y912683D01*
Y912707D01*
Y912848D01*
X956075Y913059D01*
Y913341D01*
X956122Y913670D01*
X956169Y914070D01*
X956216Y914493D01*
X956310Y914986D01*
X956428Y915479D01*
X956569Y915996D01*
X956733Y916513D01*
X956945Y917054D01*
X957180Y917570D01*
X957462Y918064D01*
X957767Y918534D01*
X958143Y918980D01*
X958167Y919004D01*
X958237Y919074D01*
X958354Y919192D01*
X958519Y919333D01*
X958730Y919497D01*
X958989Y919685D01*
X959271Y919896D01*
X959623Y920108D01*
X959999Y920319D01*
X960398Y920531D01*
X960868Y920719D01*
X961338Y920883D01*
X961879Y921024D01*
X962419Y921142D01*
X963030Y921212D01*
X963641Y921236D01*
X963923D01*
X964134Y921212D01*
D02*
G37*
G36*
X1038237Y916701D02*
X1038496Y916678D01*
X1038778Y916631D01*
X1039083Y916560D01*
X1039412Y916466D01*
X1039741Y916349D01*
X1039788Y916325D01*
X1039882Y916278D01*
X1040047Y916208D01*
X1040235Y916090D01*
X1040446Y915949D01*
X1040657Y915785D01*
X1040869Y915597D01*
X1041057Y915385D01*
X1041080Y915362D01*
X1041127Y915291D01*
X1041198Y915174D01*
X1041292Y915010D01*
X1041409Y914821D01*
X1041503Y914587D01*
X1041597Y914352D01*
X1041668Y914070D01*
Y914046D01*
X1041691Y913929D01*
X1041738Y913764D01*
X1041762Y913529D01*
X1041809Y913247D01*
X1041832Y912871D01*
X1041856Y912472D01*
Y911979D01*
Y904672D01*
X1038731D01*
Y910663D01*
Y910686D01*
Y910757D01*
Y910851D01*
Y910968D01*
Y911133D01*
Y911297D01*
X1038707Y911697D01*
X1038684Y912096D01*
X1038637Y912519D01*
X1038590Y912871D01*
X1038566Y913012D01*
X1038519Y913130D01*
Y913153D01*
X1038472Y913224D01*
X1038425Y913318D01*
X1038355Y913459D01*
X1038143Y913741D01*
X1038026Y913882D01*
X1037861Y913999D01*
X1037838Y914023D01*
X1037791Y914046D01*
X1037697Y914093D01*
X1037556Y914164D01*
X1037392Y914234D01*
X1037227Y914281D01*
X1037016Y914305D01*
X1036781Y914328D01*
X1036640D01*
X1036499Y914305D01*
X1036311Y914281D01*
X1036076Y914211D01*
X1035841Y914140D01*
X1035583Y914023D01*
X1035324Y913882D01*
X1035301Y913858D01*
X1035230Y913811D01*
X1035113Y913694D01*
X1034972Y913576D01*
X1034831Y913388D01*
X1034690Y913200D01*
X1034549Y912942D01*
X1034455Y912683D01*
Y912660D01*
X1034408Y912542D01*
X1034384Y912355D01*
X1034337Y912073D01*
X1034314Y911908D01*
X1034290Y911697D01*
X1034267Y911485D01*
Y911227D01*
X1034243Y910968D01*
X1034220Y910663D01*
Y910334D01*
Y909982D01*
Y904672D01*
X1031095D01*
Y916466D01*
X1033985D01*
Y914727D01*
X1034008Y914751D01*
X1034055Y914821D01*
X1034149Y914915D01*
X1034267Y915033D01*
X1034408Y915197D01*
X1034596Y915362D01*
X1034807Y915550D01*
X1035042Y915738D01*
X1035301Y915902D01*
X1035606Y916090D01*
X1035911Y916255D01*
X1036264Y916419D01*
X1036640Y916537D01*
X1037016Y916631D01*
X1037439Y916701D01*
X1037861Y916725D01*
X1038026D01*
X1038237Y916701D01*
D02*
G37*
G36*
X1004874D02*
X1005062D01*
X1005274Y916678D01*
X1005509Y916654D01*
X1005767Y916607D01*
X1006308Y916490D01*
X1006872Y916325D01*
X1007436Y916090D01*
X1007952Y915785D01*
X1007976D01*
X1007999Y915738D01*
X1008070Y915691D01*
X1008164Y915620D01*
X1008375Y915409D01*
X1008657Y915104D01*
X1008963Y914704D01*
X1009268Y914234D01*
X1009550Y913670D01*
X1009785Y913012D01*
X1006707Y912449D01*
Y912495D01*
X1006684Y912589D01*
X1006637Y912754D01*
X1006566Y912965D01*
X1006449Y913177D01*
X1006331Y913412D01*
X1006167Y913623D01*
X1005979Y913811D01*
X1005955Y913835D01*
X1005885Y913882D01*
X1005767Y913952D01*
X1005603Y914046D01*
X1005391Y914140D01*
X1005156Y914211D01*
X1004874Y914258D01*
X1004569Y914281D01*
X1004522D01*
X1004381Y914258D01*
X1004170Y914234D01*
X1003888Y914187D01*
X1003606Y914070D01*
X1003300Y913929D01*
X1002995Y913741D01*
X1002713Y913459D01*
X1002690Y913412D01*
X1002619Y913294D01*
X1002502Y913106D01*
X1002384Y912824D01*
X1002243Y912449D01*
X1002196Y912237D01*
X1002149Y912002D01*
X1002102Y911720D01*
X1002055Y911438D01*
X1002032Y911109D01*
Y910780D01*
Y910757D01*
Y910686D01*
Y910569D01*
X1002055Y910428D01*
Y910264D01*
X1002079Y910076D01*
X1002126Y909606D01*
X1002196Y909112D01*
X1002337Y908619D01*
X1002502Y908172D01*
X1002619Y907984D01*
X1002737Y907796D01*
X1002760Y907749D01*
X1002878Y907655D01*
X1003018Y907538D01*
X1003230Y907374D01*
X1003512Y907209D01*
X1003817Y907092D01*
X1004193Y906998D01*
X1004616Y906951D01*
X1004757D01*
X1004921Y906974D01*
X1005133Y907021D01*
X1005368Y907068D01*
X1005603Y907162D01*
X1005838Y907280D01*
X1006073Y907444D01*
X1006096Y907468D01*
X1006167Y907538D01*
X1006261Y907655D01*
X1006402Y907843D01*
X1006543Y908078D01*
X1006660Y908384D01*
X1006801Y908760D01*
X1006895Y909183D01*
X1009949Y908666D01*
Y908642D01*
X1009926Y908572D01*
X1009902Y908454D01*
X1009855Y908313D01*
X1009785Y908149D01*
X1009715Y907937D01*
X1009527Y907468D01*
X1009292Y906951D01*
X1008963Y906434D01*
X1008563Y905917D01*
X1008328Y905682D01*
X1008093Y905471D01*
X1008070D01*
X1008023Y905424D01*
X1007952Y905377D01*
X1007858Y905306D01*
X1007717Y905236D01*
X1007553Y905142D01*
X1007365Y905048D01*
X1007130Y904954D01*
X1006895Y904836D01*
X1006613Y904742D01*
X1006331Y904648D01*
X1006002Y904578D01*
X1005650Y904507D01*
X1005274Y904460D01*
X1004898Y904437D01*
X1004475Y904413D01*
X1004217D01*
X1004052Y904437D01*
X1003841Y904460D01*
X1003582Y904507D01*
X1003300Y904554D01*
X1002995Y904625D01*
X1002666Y904695D01*
X1002337Y904813D01*
X1001985Y904930D01*
X1001656Y905095D01*
X1001303Y905283D01*
X1000974Y905494D01*
X1000669Y905752D01*
X1000363Y906034D01*
X1000340Y906058D01*
X1000293Y906105D01*
X1000222Y906199D01*
X1000129Y906340D01*
X1000011Y906504D01*
X999870Y906692D01*
X999753Y906927D01*
X999612Y907209D01*
X999447Y907515D01*
X999330Y907843D01*
X999189Y908219D01*
X999071Y908619D01*
X998977Y909065D01*
X998907Y909512D01*
X998860Y910029D01*
X998836Y910545D01*
Y910569D01*
Y910663D01*
Y910827D01*
X998860Y911015D01*
X998883Y911274D01*
X998907Y911556D01*
X998954Y911861D01*
X999024Y912214D01*
X999212Y912942D01*
X999330Y913318D01*
X999471Y913694D01*
X999659Y914070D01*
X999870Y914422D01*
X1000105Y914751D01*
X1000363Y915080D01*
X1000387Y915104D01*
X1000434Y915150D01*
X1000528Y915221D01*
X1000645Y915338D01*
X1000810Y915456D01*
X1000998Y915597D01*
X1001209Y915761D01*
X1001468Y915902D01*
X1001750Y916067D01*
X1002055Y916208D01*
X1002408Y916349D01*
X1002784Y916466D01*
X1003159Y916584D01*
X1003606Y916654D01*
X1004052Y916701D01*
X1004522Y916725D01*
X1004734D01*
X1004874Y916701D01*
D02*
G37*
G36*
X1027923Y904672D02*
X1024798D01*
Y916466D01*
X1027923D01*
Y904672D01*
D02*
G37*
G36*
X1015189Y912308D02*
X1018831Y916466D01*
X1022660D01*
X1018619Y912143D01*
X1022942Y904672D01*
X1019582D01*
X1016599Y909958D01*
X1015189Y908431D01*
Y904672D01*
X1012064D01*
Y920930D01*
X1015189D01*
Y912308D01*
D02*
G37*
G36*
X976093Y914915D02*
X976117Y914939D01*
X976164Y914986D01*
X976258Y915080D01*
X976352Y915197D01*
X976516Y915338D01*
X976681Y915479D01*
X976892Y915644D01*
X977104Y915832D01*
X977362Y915996D01*
X977644Y916161D01*
X978255Y916443D01*
X978584Y916560D01*
X978936Y916654D01*
X979312Y916701D01*
X979688Y916725D01*
X979876D01*
X980087Y916701D01*
X980346Y916678D01*
X980651Y916631D01*
X980957Y916537D01*
X981309Y916443D01*
X981638Y916302D01*
X981685Y916278D01*
X981779Y916231D01*
X981943Y916137D01*
X982131Y916020D01*
X982343Y915879D01*
X982554Y915714D01*
X982766Y915503D01*
X982954Y915291D01*
X982977Y915268D01*
X983024Y915174D01*
X983095Y915057D01*
X983189Y914892D01*
X983306Y914680D01*
X983400Y914446D01*
X983494Y914187D01*
X983565Y913905D01*
Y913882D01*
X983588Y913764D01*
X983612Y913576D01*
X983659Y913341D01*
X983682Y913012D01*
X983706Y912613D01*
X983729Y912143D01*
Y911579D01*
Y904672D01*
X980604D01*
Y910874D01*
Y910898D01*
Y910945D01*
Y911039D01*
Y911180D01*
Y911321D01*
Y911485D01*
X980581Y911861D01*
X980557Y912261D01*
X980534Y912660D01*
X980487Y912989D01*
X980440Y913106D01*
X980416Y913224D01*
Y913247D01*
X980369Y913318D01*
X980322Y913388D01*
X980275Y913506D01*
X980064Y913764D01*
X979946Y913905D01*
X979782Y914023D01*
X979758Y914046D01*
X979711Y914070D01*
X979594Y914117D01*
X979476Y914187D01*
X979312Y914234D01*
X979124Y914281D01*
X978889Y914305D01*
X978654Y914328D01*
X978513D01*
X978372Y914305D01*
X978184Y914281D01*
X977973Y914234D01*
X977738Y914164D01*
X977503Y914070D01*
X977268Y913929D01*
X977244Y913905D01*
X977174Y913858D01*
X977057Y913764D01*
X976939Y913647D01*
X976775Y913482D01*
X976634Y913294D01*
X976493Y913059D01*
X976375Y912801D01*
Y912777D01*
X976328Y912660D01*
X976281Y912495D01*
X976234Y912237D01*
X976187Y911932D01*
X976140Y911532D01*
X976117Y911086D01*
X976093Y910569D01*
Y904672D01*
X972968D01*
Y920930D01*
X976093D01*
Y914915D01*
D02*
G37*
G36*
X991811Y916701D02*
X992023Y916678D01*
X992281Y916631D01*
X992563Y916584D01*
X992869Y916513D01*
X993197Y916419D01*
X993527Y916302D01*
X993879Y916161D01*
X994231Y915973D01*
X994560Y915785D01*
X994889Y915550D01*
X995218Y915268D01*
X995500Y914962D01*
X995524Y914939D01*
X995571Y914892D01*
X995641Y914774D01*
X995735Y914634D01*
X995853Y914446D01*
X995970Y914234D01*
X996111Y913952D01*
X996252Y913647D01*
X996393Y913294D01*
X996534Y912895D01*
X996651Y912472D01*
X996769Y911979D01*
X996863Y911462D01*
X996933Y910898D01*
X996980Y910311D01*
Y909653D01*
X989180D01*
Y909629D01*
Y909582D01*
Y909512D01*
X989203Y909418D01*
X989227Y909183D01*
X989274Y908854D01*
X989368Y908525D01*
X989509Y908149D01*
X989673Y907796D01*
X989908Y907491D01*
X989932Y907468D01*
X990049Y907374D01*
X990190Y907256D01*
X990402Y907115D01*
X990660Y906974D01*
X990989Y906857D01*
X991341Y906763D01*
X991717Y906739D01*
X991835D01*
X991976Y906763D01*
X992140Y906786D01*
X992328Y906833D01*
X992540Y906904D01*
X992751Y906998D01*
X992939Y907139D01*
X992963Y907162D01*
X993033Y907209D01*
X993127Y907303D01*
X993221Y907444D01*
X993362Y907632D01*
X993480Y907843D01*
X993597Y908125D01*
X993714Y908431D01*
X996816Y907914D01*
Y907890D01*
X996792Y907843D01*
X996745Y907749D01*
X996698Y907632D01*
X996628Y907491D01*
X996557Y907327D01*
X996346Y906951D01*
X996087Y906528D01*
X995759Y906081D01*
X995359Y905682D01*
X994913Y905306D01*
X994889D01*
X994866Y905259D01*
X994772Y905236D01*
X994678Y905165D01*
X994560Y905095D01*
X994396Y905024D01*
X994231Y904954D01*
X994020Y904860D01*
X993550Y904695D01*
X993010Y904554D01*
X992375Y904460D01*
X991694Y904413D01*
X991553D01*
X991412Y904437D01*
X991200D01*
X990942Y904484D01*
X990637Y904531D01*
X990308Y904578D01*
X989979Y904672D01*
X989603Y904766D01*
X989227Y904907D01*
X988851Y905071D01*
X988475Y905259D01*
X988099Y905494D01*
X987747Y905752D01*
X987441Y906058D01*
X987136Y906410D01*
X987112Y906434D01*
X987089Y906481D01*
X987042Y906575D01*
X986948Y906692D01*
X986877Y906857D01*
X986783Y907045D01*
X986666Y907256D01*
X986572Y907515D01*
X986454Y907796D01*
X986360Y908102D01*
X986243Y908431D01*
X986172Y908807D01*
X986102Y909183D01*
X986032Y909582D01*
X986008Y910029D01*
X985985Y910475D01*
Y910498D01*
Y910592D01*
Y910757D01*
X986008Y910968D01*
X986032Y911203D01*
X986055Y911485D01*
X986102Y911791D01*
X986172Y912143D01*
X986360Y912871D01*
X986478Y913247D01*
X986619Y913647D01*
X986807Y914023D01*
X987018Y914375D01*
X987253Y914727D01*
X987512Y915057D01*
X987535Y915080D01*
X987582Y915127D01*
X987676Y915221D01*
X987794Y915315D01*
X987935Y915432D01*
X988123Y915573D01*
X988334Y915738D01*
X988569Y915902D01*
X988828Y916043D01*
X989133Y916208D01*
X989438Y916349D01*
X989791Y916466D01*
X990143Y916560D01*
X990543Y916654D01*
X990942Y916701D01*
X991365Y916725D01*
X991623D01*
X991811Y916701D01*
D02*
G37*
G36*
X1049492D02*
X1049656D01*
X1049820Y916654D01*
X1050055Y916631D01*
X1050290Y916560D01*
X1050549Y916490D01*
X1050831Y916372D01*
X1051113Y916255D01*
X1051418Y916090D01*
X1051724Y915902D01*
X1052029Y915691D01*
X1052334Y915409D01*
X1052616Y915127D01*
X1052898Y914774D01*
Y916466D01*
X1055812D01*
Y905870D01*
Y905846D01*
Y905776D01*
Y905682D01*
Y905541D01*
Y905353D01*
X1055788Y905165D01*
X1055765Y904719D01*
X1055718Y904202D01*
X1055671Y903685D01*
X1055577Y903192D01*
X1055530Y902980D01*
X1055459Y902769D01*
X1055436Y902722D01*
X1055389Y902604D01*
X1055318Y902416D01*
X1055201Y902181D01*
X1055060Y901923D01*
X1054895Y901641D01*
X1054707Y901382D01*
X1054473Y901147D01*
X1054449Y901124D01*
X1054355Y901053D01*
X1054214Y900936D01*
X1054050Y900818D01*
X1053815Y900677D01*
X1053533Y900513D01*
X1053204Y900372D01*
X1052828Y900231D01*
X1052781Y900208D01*
X1052640Y900184D01*
X1052428Y900114D01*
X1052123Y900067D01*
X1051724Y899996D01*
X1051277Y899926D01*
X1050760Y899902D01*
X1050196Y899879D01*
X1049914D01*
X1049703Y899902D01*
X1049468D01*
X1049186Y899926D01*
X1048881Y899973D01*
X1048552Y900020D01*
X1047847Y900137D01*
X1047142Y900325D01*
X1046813Y900443D01*
X1046484Y900583D01*
X1046202Y900724D01*
X1045944Y900912D01*
X1045920Y900936D01*
X1045897Y900959D01*
X1045756Y901100D01*
X1045544Y901312D01*
X1045333Y901617D01*
X1045098Y901993D01*
X1044886Y902440D01*
X1044746Y902956D01*
X1044722Y903239D01*
X1044699Y903520D01*
Y903544D01*
Y903638D01*
Y903755D01*
X1044722Y903896D01*
X1048293Y903473D01*
Y903450D01*
X1048317Y903379D01*
X1048340Y903262D01*
X1048364Y903145D01*
X1048481Y902863D01*
X1048575Y902722D01*
X1048693Y902628D01*
X1048716Y902604D01*
X1048787Y902581D01*
X1048881Y902510D01*
X1049045Y902463D01*
X1049233Y902393D01*
X1049468Y902322D01*
X1049750Y902299D01*
X1050079Y902275D01*
X1050290D01*
X1050502Y902299D01*
X1050760Y902322D01*
X1051066Y902369D01*
X1051371Y902440D01*
X1051653Y902534D01*
X1051911Y902651D01*
X1051935Y902675D01*
X1051982Y902698D01*
X1052053Y902745D01*
X1052147Y902839D01*
X1052241Y902956D01*
X1052334Y903098D01*
X1052428Y903262D01*
X1052522Y903450D01*
Y903473D01*
X1052546Y903520D01*
X1052569Y903614D01*
X1052616Y903779D01*
X1052640Y903967D01*
X1052663Y904202D01*
X1052687Y904507D01*
Y904860D01*
Y906575D01*
X1052663Y906551D01*
X1052616Y906504D01*
X1052546Y906410D01*
X1052428Y906269D01*
X1052311Y906128D01*
X1052147Y905964D01*
X1051935Y905799D01*
X1051724Y905635D01*
X1051489Y905447D01*
X1051207Y905283D01*
X1050619Y904977D01*
X1050290Y904860D01*
X1049938Y904766D01*
X1049562Y904695D01*
X1049163Y904672D01*
X1049069D01*
X1048928Y904695D01*
X1048763D01*
X1048575Y904742D01*
X1048340Y904789D01*
X1048082Y904836D01*
X1047800Y904930D01*
X1047518Y905024D01*
X1047213Y905165D01*
X1046884Y905330D01*
X1046578Y905518D01*
X1046273Y905752D01*
X1045967Y906011D01*
X1045685Y906316D01*
X1045403Y906669D01*
Y906692D01*
X1045356Y906739D01*
X1045309Y906833D01*
X1045239Y906951D01*
X1045145Y907115D01*
X1045051Y907303D01*
X1044957Y907515D01*
X1044863Y907773D01*
X1044769Y908031D01*
X1044675Y908337D01*
X1044581Y908666D01*
X1044487Y909018D01*
X1044370Y909770D01*
X1044346Y910193D01*
X1044323Y910616D01*
Y910639D01*
Y910757D01*
Y910898D01*
X1044346Y911109D01*
X1044370Y911344D01*
X1044393Y911626D01*
X1044440Y911955D01*
X1044511Y912284D01*
X1044675Y913036D01*
X1044793Y913412D01*
X1044910Y913788D01*
X1045074Y914140D01*
X1045263Y914516D01*
X1045474Y914845D01*
X1045732Y915150D01*
X1045756Y915174D01*
X1045803Y915221D01*
X1045873Y915291D01*
X1045991Y915409D01*
X1046132Y915526D01*
X1046296Y915644D01*
X1046484Y915785D01*
X1046719Y915949D01*
X1046954Y916090D01*
X1047236Y916231D01*
X1047823Y916490D01*
X1048176Y916584D01*
X1048528Y916654D01*
X1048904Y916701D01*
X1049280Y916725D01*
X1049374D01*
X1049492Y916701D01*
D02*
G37*
G36*
X1055812Y880368D02*
X1052922D01*
Y882084D01*
X1052898Y882037D01*
X1052804Y881919D01*
X1052640Y881731D01*
X1052428Y881520D01*
X1052194Y881285D01*
X1051888Y881026D01*
X1051559Y880791D01*
X1051207Y880580D01*
X1051160Y880556D01*
X1051042Y880509D01*
X1050831Y880439D01*
X1050596Y880345D01*
X1050290Y880251D01*
X1049938Y880181D01*
X1049585Y880134D01*
X1049210Y880110D01*
X1049022D01*
X1048881Y880134D01*
X1048693Y880157D01*
X1048505Y880204D01*
X1048270Y880251D01*
X1048011Y880322D01*
X1047753Y880392D01*
X1047471Y880509D01*
X1047189Y880627D01*
X1046884Y880791D01*
X1046602Y880979D01*
X1046296Y881191D01*
X1046014Y881449D01*
X1045732Y881731D01*
X1045709Y881755D01*
X1045662Y881802D01*
X1045591Y881896D01*
X1045521Y882037D01*
X1045403Y882201D01*
X1045286Y882412D01*
X1045145Y882647D01*
X1045027Y882929D01*
X1044886Y883235D01*
X1044746Y883564D01*
X1044628Y883940D01*
X1044534Y884339D01*
X1044440Y884786D01*
X1044370Y885255D01*
X1044323Y885749D01*
X1044299Y886289D01*
Y886313D01*
Y886430D01*
Y886571D01*
X1044323Y886783D01*
X1044346Y887041D01*
X1044370Y887323D01*
X1044417Y887652D01*
X1044464Y887981D01*
X1044628Y888733D01*
X1044746Y889109D01*
X1044886Y889484D01*
X1045051Y889860D01*
X1045239Y890213D01*
X1045450Y890542D01*
X1045685Y890847D01*
X1045709Y890871D01*
X1045756Y890918D01*
X1045826Y890988D01*
X1045944Y891106D01*
X1046085Y891223D01*
X1046249Y891341D01*
X1046437Y891482D01*
X1046672Y891646D01*
X1046907Y891787D01*
X1047189Y891928D01*
X1047776Y892186D01*
X1048129Y892280D01*
X1048481Y892351D01*
X1048857Y892398D01*
X1049257Y892421D01*
X1049445D01*
X1049585Y892398D01*
X1049750Y892374D01*
X1049961Y892327D01*
X1050173Y892280D01*
X1050431Y892210D01*
X1050690Y892139D01*
X1050972Y892022D01*
X1051254Y891881D01*
X1051536Y891740D01*
X1051841Y891529D01*
X1052123Y891317D01*
X1052405Y891059D01*
X1052687Y890777D01*
Y896627D01*
X1055812D01*
Y880368D01*
D02*
G37*
G36*
X1041973Y892398D02*
X1042232Y892351D01*
X1042561Y892280D01*
X1042913Y892163D01*
X1043265Y892022D01*
X1043641Y891811D01*
X1042654Y889109D01*
X1042631Y889132D01*
X1042514Y889179D01*
X1042373Y889273D01*
X1042185Y889367D01*
X1041950Y889461D01*
X1041715Y889555D01*
X1041456Y889602D01*
X1041198Y889625D01*
X1041104D01*
X1040963Y889602D01*
X1040822Y889578D01*
X1040657Y889531D01*
X1040470Y889461D01*
X1040282Y889367D01*
X1040094Y889250D01*
X1040070Y889226D01*
X1040023Y889179D01*
X1039929Y889085D01*
X1039835Y888944D01*
X1039718Y888780D01*
X1039600Y888545D01*
X1039483Y888263D01*
X1039389Y887934D01*
Y887887D01*
X1039365Y887816D01*
X1039342Y887746D01*
Y887628D01*
X1039318Y887487D01*
X1039295Y887299D01*
X1039271Y887088D01*
X1039248Y886853D01*
X1039224Y886548D01*
X1039201Y886242D01*
Y885866D01*
X1039177Y885467D01*
X1039154Y885021D01*
Y884527D01*
Y883987D01*
Y880368D01*
X1036029D01*
Y892163D01*
X1038919D01*
Y890495D01*
X1038942Y890518D01*
X1039036Y890659D01*
X1039177Y890871D01*
X1039365Y891129D01*
X1039553Y891388D01*
X1039788Y891646D01*
X1040000Y891881D01*
X1040235Y892046D01*
X1040258Y892069D01*
X1040329Y892116D01*
X1040470Y892163D01*
X1040634Y892233D01*
X1040822Y892304D01*
X1041057Y892374D01*
X1041292Y892398D01*
X1041574Y892421D01*
X1041762D01*
X1041973Y892398D01*
D02*
G37*
G36*
X1028628D02*
X1028816D01*
X1029286Y892351D01*
X1029779Y892304D01*
X1030296Y892210D01*
X1030789Y892069D01*
X1031001Y891999D01*
X1031212Y891905D01*
X1031236D01*
X1031259Y891881D01*
X1031377Y891811D01*
X1031565Y891717D01*
X1031776Y891576D01*
X1032035Y891388D01*
X1032270Y891176D01*
X1032481Y890918D01*
X1032669Y890659D01*
X1032693Y890612D01*
X1032740Y890518D01*
X1032810Y890307D01*
X1032834Y890189D01*
X1032881Y890025D01*
X1032928Y889860D01*
X1032951Y889649D01*
X1032998Y889414D01*
X1033022Y889156D01*
X1033045Y888874D01*
X1033068Y888568D01*
X1033092Y888239D01*
Y887863D01*
X1033045Y884222D01*
Y884198D01*
Y884151D01*
Y884081D01*
Y883963D01*
Y883681D01*
X1033068Y883352D01*
Y882976D01*
X1033115Y882600D01*
X1033139Y882225D01*
X1033186Y881919D01*
Y881896D01*
X1033210Y881802D01*
X1033257Y881637D01*
X1033304Y881449D01*
X1033398Y881214D01*
X1033492Y880956D01*
X1033609Y880674D01*
X1033750Y880368D01*
X1030672D01*
Y880392D01*
X1030649Y880415D01*
X1030625Y880509D01*
X1030578Y880603D01*
X1030531Y880721D01*
X1030484Y880885D01*
X1030437Y881073D01*
X1030367Y881285D01*
Y881308D01*
X1030343Y881332D01*
X1030320Y881426D01*
X1030273Y881543D01*
X1030249Y881637D01*
X1030202Y881614D01*
X1030108Y881520D01*
X1029944Y881379D01*
X1029732Y881214D01*
X1029474Y881026D01*
X1029192Y880815D01*
X1028863Y880650D01*
X1028534Y880486D01*
X1028487Y880462D01*
X1028370Y880439D01*
X1028182Y880368D01*
X1027947Y880298D01*
X1027665Y880228D01*
X1027336Y880181D01*
X1026960Y880134D01*
X1026584Y880110D01*
X1026420D01*
X1026279Y880134D01*
X1026137D01*
X1025950Y880157D01*
X1025550Y880228D01*
X1025080Y880345D01*
X1024610Y880509D01*
X1024140Y880744D01*
X1023717Y881073D01*
Y881097D01*
X1023671Y881120D01*
X1023553Y881261D01*
X1023389Y881473D01*
X1023201Y881755D01*
X1023013Y882107D01*
X1022848Y882530D01*
X1022731Y883023D01*
X1022707Y883282D01*
X1022684Y883564D01*
Y883611D01*
Y883728D01*
X1022707Y883916D01*
X1022754Y884151D01*
X1022801Y884433D01*
X1022872Y884715D01*
X1022989Y885021D01*
X1023154Y885326D01*
X1023177Y885373D01*
X1023248Y885467D01*
X1023342Y885608D01*
X1023506Y885772D01*
X1023671Y885960D01*
X1023905Y886172D01*
X1024164Y886360D01*
X1024469Y886524D01*
X1024516Y886548D01*
X1024634Y886595D01*
X1024822Y886665D01*
X1025104Y886783D01*
X1025456Y886900D01*
X1025879Y887018D01*
X1026396Y887135D01*
X1026960Y887253D01*
X1026983D01*
X1027054Y887276D01*
X1027171Y887299D01*
X1027312Y887323D01*
X1027500Y887346D01*
X1027712Y887393D01*
X1028182Y887511D01*
X1028675Y887628D01*
X1029192Y887746D01*
X1029638Y887887D01*
X1029850Y887957D01*
X1030014Y888028D01*
Y888333D01*
Y888380D01*
Y888474D01*
X1029991Y888639D01*
X1029967Y888850D01*
X1029897Y889062D01*
X1029826Y889273D01*
X1029709Y889461D01*
X1029544Y889625D01*
X1029521Y889649D01*
X1029450Y889696D01*
X1029333Y889743D01*
X1029168Y889837D01*
X1028933Y889907D01*
X1028652Y889954D01*
X1028299Y890001D01*
X1027876Y890025D01*
X1027735D01*
X1027594Y890001D01*
X1027406Y889978D01*
X1027195Y889931D01*
X1026960Y889884D01*
X1026748Y889790D01*
X1026560Y889672D01*
X1026537Y889649D01*
X1026490Y889602D01*
X1026396Y889531D01*
X1026302Y889414D01*
X1026161Y889250D01*
X1026043Y889038D01*
X1025926Y888803D01*
X1025809Y888521D01*
X1023013Y889038D01*
Y889062D01*
X1023036Y889109D01*
X1023060Y889203D01*
X1023107Y889320D01*
X1023154Y889461D01*
X1023224Y889625D01*
X1023389Y890001D01*
X1023624Y890401D01*
X1023905Y890824D01*
X1024234Y891223D01*
X1024634Y891576D01*
X1024657D01*
X1024681Y891622D01*
X1024751Y891646D01*
X1024845Y891717D01*
X1024986Y891764D01*
X1025127Y891834D01*
X1025315Y891928D01*
X1025503Y891999D01*
X1025738Y892069D01*
X1025997Y892163D01*
X1026279Y892233D01*
X1026607Y892280D01*
X1026936Y892351D01*
X1027312Y892374D01*
X1027688Y892421D01*
X1028464D01*
X1028628Y892398D01*
D02*
G37*
G36*
X1000833Y896603D02*
X1001303Y896580D01*
X1001773Y896556D01*
X1002220Y896509D01*
X1002619Y896462D01*
X1002666D01*
X1002784Y896439D01*
X1002948Y896392D01*
X1003183Y896321D01*
X1003441Y896228D01*
X1003723Y896110D01*
X1004029Y895969D01*
X1004311Y895781D01*
X1004334Y895758D01*
X1004428Y895687D01*
X1004569Y895570D01*
X1004757Y895429D01*
X1004945Y895217D01*
X1005156Y894982D01*
X1005368Y894724D01*
X1005556Y894418D01*
X1005579Y894371D01*
X1005626Y894277D01*
X1005720Y894090D01*
X1005814Y893855D01*
X1005908Y893573D01*
X1006002Y893267D01*
X1006049Y892891D01*
X1006073Y892515D01*
Y892492D01*
Y892468D01*
Y892327D01*
X1006049Y892116D01*
X1006002Y891834D01*
X1005908Y891505D01*
X1005814Y891153D01*
X1005650Y890800D01*
X1005438Y890424D01*
X1005415Y890377D01*
X1005321Y890260D01*
X1005180Y890095D01*
X1005015Y889884D01*
X1004781Y889672D01*
X1004499Y889414D01*
X1004170Y889203D01*
X1003794Y888991D01*
X1003817D01*
X1003864Y888968D01*
X1003935Y888944D01*
X1004029Y888921D01*
X1004311Y888803D01*
X1004640Y888639D01*
X1004992Y888451D01*
X1005391Y888192D01*
X1005744Y887887D01*
X1006073Y887511D01*
X1006096Y887464D01*
X1006190Y887323D01*
X1006331Y887112D01*
X1006472Y886830D01*
X1006613Y886454D01*
X1006754Y886054D01*
X1006848Y885584D01*
X1006872Y885067D01*
Y885044D01*
Y885021D01*
Y884880D01*
X1006848Y884668D01*
X1006801Y884386D01*
X1006754Y884057D01*
X1006660Y883681D01*
X1006519Y883305D01*
X1006355Y882906D01*
X1006331Y882859D01*
X1006261Y882741D01*
X1006143Y882553D01*
X1005979Y882318D01*
X1005791Y882037D01*
X1005532Y881778D01*
X1005274Y881496D01*
X1004945Y881238D01*
X1004898Y881214D01*
X1004781Y881144D01*
X1004593Y881026D01*
X1004334Y880909D01*
X1004005Y880768D01*
X1003629Y880650D01*
X1003206Y880533D01*
X1002737Y880462D01*
X1002643D01*
X1002549Y880439D01*
X1002314D01*
X1002149Y880415D01*
X1001703D01*
X1001421Y880392D01*
X1000716D01*
X1000316Y880368D01*
X993268D01*
Y896627D01*
X1000411D01*
X1000833Y896603D01*
D02*
G37*
G36*
X1015424Y892398D02*
X1015659Y892374D01*
X1015917Y892327D01*
X1016223Y892280D01*
X1016528Y892210D01*
X1016880Y892116D01*
X1017233Y891999D01*
X1017585Y891858D01*
X1017961Y891693D01*
X1018337Y891482D01*
X1018690Y891247D01*
X1019042Y890988D01*
X1019371Y890683D01*
X1019395Y890659D01*
X1019441Y890612D01*
X1019535Y890495D01*
X1019629Y890377D01*
X1019770Y890189D01*
X1019911Y890001D01*
X1020076Y889743D01*
X1020240Y889484D01*
X1020381Y889179D01*
X1020546Y888850D01*
X1020687Y888474D01*
X1020828Y888098D01*
X1020922Y887675D01*
X1021016Y887253D01*
X1021063Y886783D01*
X1021086Y886289D01*
Y886266D01*
Y886172D01*
Y886031D01*
X1021063Y885843D01*
X1021039Y885608D01*
X1020992Y885349D01*
X1020945Y885044D01*
X1020875Y884738D01*
X1020781Y884386D01*
X1020663Y884034D01*
X1020522Y883658D01*
X1020358Y883282D01*
X1020146Y882906D01*
X1019911Y882553D01*
X1019653Y882201D01*
X1019348Y881849D01*
X1019324Y881825D01*
X1019277Y881778D01*
X1019183Y881684D01*
X1019042Y881567D01*
X1018878Y881449D01*
X1018666Y881308D01*
X1018431Y881144D01*
X1018173Y880979D01*
X1017867Y880815D01*
X1017538Y880650D01*
X1017186Y880509D01*
X1016786Y880392D01*
X1016387Y880275D01*
X1015941Y880181D01*
X1015494Y880134D01*
X1015001Y880110D01*
X1014836D01*
X1014719Y880134D01*
X1014578D01*
X1014414Y880157D01*
X1014014Y880204D01*
X1013521Y880298D01*
X1013004Y880415D01*
X1012463Y880603D01*
X1011900Y880838D01*
X1011876D01*
X1011829Y880862D01*
X1011759Y880909D01*
X1011665Y880979D01*
X1011406Y881144D01*
X1011077Y881379D01*
X1010725Y881684D01*
X1010349Y882060D01*
X1009996Y882483D01*
X1009668Y882976D01*
Y883000D01*
X1009644Y883047D01*
X1009597Y883117D01*
X1009550Y883235D01*
X1009503Y883376D01*
X1009433Y883540D01*
X1009362Y883728D01*
X1009292Y883940D01*
X1009221Y884175D01*
X1009151Y884433D01*
X1009033Y885021D01*
X1008939Y885702D01*
X1008916Y886430D01*
Y886454D01*
Y886501D01*
Y886595D01*
X1008939Y886689D01*
Y886830D01*
X1008963Y886994D01*
X1009010Y887393D01*
X1009104Y887840D01*
X1009245Y888333D01*
X1009409Y888874D01*
X1009668Y889414D01*
Y889437D01*
X1009715Y889484D01*
X1009738Y889555D01*
X1009809Y889649D01*
X1009996Y889907D01*
X1010231Y890236D01*
X1010537Y890589D01*
X1010913Y890965D01*
X1011336Y891317D01*
X1011829Y891646D01*
X1011853D01*
X1011900Y891669D01*
X1011970Y891717D01*
X1012087Y891764D01*
X1012205Y891834D01*
X1012370Y891881D01*
X1012557Y891952D01*
X1012745Y892046D01*
X1013215Y892186D01*
X1013756Y892304D01*
X1014343Y892398D01*
X1014977Y892421D01*
X1015236D01*
X1015424Y892398D01*
D02*
G37*
G36*
X1085702Y649098D02*
X1081013D01*
Y653434D01*
X1085702D01*
Y649098D01*
D02*
G37*
G36*
X1057533Y647088D02*
X1057921Y647018D01*
X1058414Y646912D01*
X1058943Y646736D01*
X1059472Y646524D01*
X1060036Y646207D01*
X1058555Y642153D01*
X1058520Y642188D01*
X1058344Y642259D01*
X1058132Y642400D01*
X1057850Y642541D01*
X1057498Y642682D01*
X1057145Y642823D01*
X1056757Y642893D01*
X1056369Y642928D01*
X1056228D01*
X1056017Y642893D01*
X1055806Y642858D01*
X1055559Y642787D01*
X1055277Y642682D01*
X1054995Y642541D01*
X1054713Y642364D01*
X1054677Y642329D01*
X1054607Y642259D01*
X1054466Y642117D01*
X1054325Y641906D01*
X1054148Y641659D01*
X1053972Y641307D01*
X1053796Y640884D01*
X1053655Y640390D01*
Y640320D01*
X1053620Y640214D01*
X1053584Y640108D01*
Y639932D01*
X1053549Y639720D01*
X1053514Y639438D01*
X1053479Y639121D01*
X1053443Y638768D01*
X1053408Y638310D01*
X1053373Y637852D01*
Y637287D01*
X1053338Y636688D01*
X1053302Y636018D01*
Y635278D01*
Y634467D01*
Y629038D01*
X1048613D01*
Y646736D01*
X1052950D01*
Y644233D01*
X1052985Y644268D01*
X1053126Y644480D01*
X1053338Y644797D01*
X1053620Y645185D01*
X1053902Y645573D01*
X1054254Y645960D01*
X1054572Y646313D01*
X1054924Y646560D01*
X1054959Y646595D01*
X1055065Y646665D01*
X1055277Y646736D01*
X1055523Y646842D01*
X1055806Y646947D01*
X1056158Y647053D01*
X1056511Y647088D01*
X1056934Y647124D01*
X1057216D01*
X1057533Y647088D01*
D02*
G37*
G36*
X1122015D02*
X1122402Y647053D01*
X1122826Y646983D01*
X1123284Y646877D01*
X1123777Y646736D01*
X1124271Y646560D01*
X1124342Y646524D01*
X1124483Y646454D01*
X1124729Y646348D01*
X1125011Y646172D01*
X1125329Y645960D01*
X1125646Y645714D01*
X1125963Y645432D01*
X1126245Y645114D01*
X1126281Y645079D01*
X1126351Y644973D01*
X1126457Y644797D01*
X1126598Y644550D01*
X1126774Y644268D01*
X1126915Y643915D01*
X1127056Y643563D01*
X1127162Y643140D01*
Y643105D01*
X1127197Y642928D01*
X1127268Y642682D01*
X1127303Y642329D01*
X1127374Y641906D01*
X1127409Y641342D01*
X1127444Y640742D01*
Y640002D01*
Y629038D01*
X1122755D01*
Y638028D01*
Y638063D01*
Y638169D01*
Y638310D01*
Y638486D01*
Y638733D01*
Y638980D01*
X1122720Y639579D01*
X1122685Y640179D01*
X1122614Y640813D01*
X1122544Y641342D01*
X1122508Y641553D01*
X1122438Y641730D01*
Y641765D01*
X1122367Y641871D01*
X1122297Y642012D01*
X1122191Y642223D01*
X1121874Y642646D01*
X1121697Y642858D01*
X1121451Y643034D01*
X1121415Y643069D01*
X1121345Y643105D01*
X1121204Y643175D01*
X1120992Y643281D01*
X1120745Y643387D01*
X1120499Y643457D01*
X1120182Y643492D01*
X1119829Y643528D01*
X1119617D01*
X1119406Y643492D01*
X1119124Y643457D01*
X1118771Y643351D01*
X1118419Y643246D01*
X1118031Y643069D01*
X1117643Y642858D01*
X1117608Y642823D01*
X1117502Y642752D01*
X1117326Y642576D01*
X1117114Y642400D01*
X1116903Y642117D01*
X1116691Y641835D01*
X1116480Y641448D01*
X1116339Y641060D01*
Y641025D01*
X1116268Y640848D01*
X1116233Y640566D01*
X1116162Y640143D01*
X1116127Y639896D01*
X1116092Y639579D01*
X1116057Y639262D01*
Y638874D01*
X1116021Y638486D01*
X1115986Y638028D01*
Y637534D01*
Y637006D01*
Y629038D01*
X1111297D01*
Y646736D01*
X1115633D01*
Y644127D01*
X1115669Y644162D01*
X1115739Y644268D01*
X1115880Y644409D01*
X1116057Y644585D01*
X1116268Y644832D01*
X1116550Y645079D01*
X1116868Y645361D01*
X1117220Y645643D01*
X1117608Y645890D01*
X1118066Y646172D01*
X1118524Y646419D01*
X1119053Y646665D01*
X1119617Y646842D01*
X1120182Y646983D01*
X1120816Y647088D01*
X1121451Y647124D01*
X1121697D01*
X1122015Y647088D01*
D02*
G37*
G36*
X1069379D02*
X1069731Y647053D01*
X1070119Y647018D01*
X1070542Y646983D01*
X1071423Y646842D01*
X1072305Y646630D01*
X1073151Y646313D01*
X1073539Y646137D01*
X1073891Y645925D01*
X1073927D01*
X1073962Y645854D01*
X1074173Y645714D01*
X1074491Y645432D01*
X1074843Y645044D01*
X1075266Y644585D01*
X1075654Y643986D01*
X1076042Y643281D01*
X1076324Y642470D01*
X1071917Y641659D01*
Y641694D01*
X1071847Y641835D01*
X1071776Y642012D01*
X1071670Y642223D01*
X1071529Y642505D01*
X1071318Y642752D01*
X1071106Y642999D01*
X1070824Y643210D01*
X1070789Y643246D01*
X1070683Y643316D01*
X1070507Y643387D01*
X1070260Y643492D01*
X1069943Y643598D01*
X1069555Y643704D01*
X1069097Y643739D01*
X1068568Y643774D01*
X1068251D01*
X1067933Y643739D01*
X1067545Y643704D01*
X1067087Y643633D01*
X1066664Y643563D01*
X1066276Y643422D01*
X1065924Y643246D01*
X1065888D01*
X1065853Y643175D01*
X1065677Y642999D01*
X1065465Y642682D01*
X1065430Y642505D01*
X1065395Y642294D01*
Y642259D01*
Y642223D01*
X1065465Y642012D01*
X1065606Y641730D01*
X1065712Y641589D01*
X1065853Y641448D01*
X1065888Y641412D01*
X1066030Y641377D01*
X1066100Y641307D01*
X1066241Y641271D01*
X1066417Y641201D01*
X1066629Y641095D01*
X1066911Y641025D01*
X1067193Y640919D01*
X1067545Y640813D01*
X1067969Y640707D01*
X1068427Y640566D01*
X1068956Y640425D01*
X1069555Y640284D01*
X1070225Y640108D01*
X1070260D01*
X1070401Y640073D01*
X1070577Y640037D01*
X1070824Y639967D01*
X1071142Y639861D01*
X1071494Y639791D01*
X1072270Y639544D01*
X1073151Y639227D01*
X1073997Y638874D01*
X1074420Y638662D01*
X1074808Y638486D01*
X1075125Y638239D01*
X1075443Y638028D01*
X1075513Y637957D01*
X1075689Y637816D01*
X1075901Y637534D01*
X1076183Y637146D01*
X1076465Y636653D01*
X1076676Y636054D01*
X1076853Y635349D01*
X1076923Y634573D01*
Y634538D01*
Y634467D01*
Y634326D01*
X1076888Y634150D01*
X1076853Y633974D01*
X1076818Y633727D01*
X1076676Y633127D01*
X1076430Y632493D01*
X1076254Y632140D01*
X1076077Y631788D01*
X1075830Y631435D01*
X1075548Y631083D01*
X1075231Y630730D01*
X1074878Y630378D01*
X1074843Y630342D01*
X1074773Y630307D01*
X1074667Y630237D01*
X1074491Y630095D01*
X1074279Y629990D01*
X1074032Y629849D01*
X1073715Y629672D01*
X1073363Y629531D01*
X1072975Y629355D01*
X1072516Y629214D01*
X1072023Y629038D01*
X1071494Y628932D01*
X1070895Y628826D01*
X1070260Y628721D01*
X1069590Y628685D01*
X1068885Y628650D01*
X1068533D01*
X1068286Y628685D01*
X1067969D01*
X1067616Y628721D01*
X1067228Y628756D01*
X1066805Y628826D01*
X1065888Y629003D01*
X1064937Y629249D01*
X1063985Y629602D01*
X1063562Y629849D01*
X1063139Y630095D01*
X1063103Y630131D01*
X1063033Y630166D01*
X1062927Y630237D01*
X1062821Y630378D01*
X1062433Y630695D01*
X1062010Y631153D01*
X1061552Y631717D01*
X1061129Y632387D01*
X1060741Y633198D01*
X1060424Y634079D01*
X1065113Y634784D01*
Y634714D01*
X1065183Y634573D01*
X1065254Y634326D01*
X1065360Y634009D01*
X1065536Y633656D01*
X1065747Y633339D01*
X1065994Y632986D01*
X1066311Y632704D01*
X1066347Y632669D01*
X1066488Y632599D01*
X1066699Y632493D01*
X1066981Y632387D01*
X1067334Y632246D01*
X1067792Y632140D01*
X1068286Y632070D01*
X1068885Y632034D01*
X1069167D01*
X1069520Y632070D01*
X1069908Y632105D01*
X1070331Y632175D01*
X1070789Y632317D01*
X1071212Y632458D01*
X1071600Y632669D01*
X1071635Y632704D01*
X1071706Y632775D01*
X1071811Y632881D01*
X1071917Y633022D01*
X1072023Y633198D01*
X1072129Y633410D01*
X1072199Y633656D01*
X1072234Y633938D01*
Y633974D01*
Y634044D01*
X1072199Y634256D01*
X1072093Y634538D01*
X1071882Y634820D01*
X1071811Y634890D01*
X1071706Y634925D01*
X1071564Y635031D01*
X1071353Y635102D01*
X1071071Y635207D01*
X1070754Y635313D01*
X1070331Y635419D01*
X1070260D01*
X1070084Y635490D01*
X1069802Y635560D01*
X1069414Y635630D01*
X1068956Y635736D01*
X1068462Y635877D01*
X1067898Y636018D01*
X1067299Y636195D01*
X1066065Y636547D01*
X1065465Y636723D01*
X1064901Y636935D01*
X1064372Y637111D01*
X1063879Y637323D01*
X1063456Y637534D01*
X1063139Y637711D01*
X1063103Y637746D01*
X1063033Y637781D01*
X1062962Y637852D01*
X1062821Y637993D01*
X1062469Y638310D01*
X1062116Y638768D01*
X1061728Y639332D01*
X1061376Y640002D01*
X1061235Y640390D01*
X1061164Y640813D01*
X1061094Y641236D01*
X1061059Y641694D01*
Y641730D01*
Y641800D01*
Y641906D01*
X1061094Y642082D01*
X1061129Y642259D01*
X1061164Y642505D01*
X1061270Y643034D01*
X1061481Y643633D01*
X1061834Y644268D01*
X1062010Y644621D01*
X1062257Y644938D01*
X1062539Y645255D01*
X1062857Y645537D01*
X1062892Y645573D01*
X1062927Y645608D01*
X1063033Y645678D01*
X1063209Y645784D01*
X1063385Y645890D01*
X1063632Y646031D01*
X1063914Y646172D01*
X1064231Y646348D01*
X1064619Y646489D01*
X1065042Y646630D01*
X1065501Y646771D01*
X1065994Y646877D01*
X1066558Y646983D01*
X1067158Y647053D01*
X1067792Y647124D01*
X1069097D01*
X1069379Y647088D01*
D02*
G37*
G36*
X1018717Y629038D02*
X1013393D01*
X1004650Y653434D01*
X1009974D01*
X1016179Y635384D01*
X1022137Y653434D01*
X1027390D01*
X1018717Y629038D01*
D02*
G37*
G36*
X1177753Y653540D02*
X1178071Y653505D01*
X1178423Y653470D01*
X1178811Y653399D01*
X1179234Y653329D01*
X1180151Y653082D01*
X1181067Y652729D01*
X1181561Y652518D01*
X1181984Y652271D01*
X1182442Y651954D01*
X1182830Y651601D01*
X1182865Y651566D01*
X1182936Y651531D01*
X1183006Y651390D01*
X1183147Y651249D01*
X1183324Y651072D01*
X1183500Y650826D01*
X1183676Y650579D01*
X1183888Y650261D01*
X1184240Y649556D01*
X1184593Y648745D01*
X1184734Y648287D01*
X1184804Y647794D01*
X1184875Y647265D01*
X1184910Y646736D01*
Y646665D01*
Y646454D01*
X1184875Y646137D01*
X1184839Y645749D01*
X1184769Y645255D01*
X1184663Y644726D01*
X1184522Y644162D01*
X1184311Y643598D01*
X1184275Y643528D01*
X1184205Y643351D01*
X1184064Y643034D01*
X1183852Y642646D01*
X1183606Y642188D01*
X1183288Y641659D01*
X1182900Y641095D01*
X1182442Y640496D01*
X1182407Y640461D01*
X1182266Y640284D01*
X1182054Y640037D01*
X1181737Y639685D01*
X1181314Y639262D01*
X1180785Y638698D01*
X1180151Y638098D01*
X1179375Y637358D01*
X1179340Y637323D01*
X1179269Y637287D01*
X1179163Y637182D01*
X1179022Y637041D01*
X1178635Y636688D01*
X1178176Y636265D01*
X1177718Y635807D01*
X1177260Y635349D01*
X1176837Y634961D01*
X1176695Y634784D01*
X1176554Y634643D01*
X1176519Y634608D01*
X1176449Y634538D01*
X1176343Y634397D01*
X1176202Y634220D01*
X1175885Y633833D01*
X1175603Y633374D01*
X1184910D01*
Y629038D01*
X1168516D01*
Y629073D01*
Y629144D01*
X1168552Y629285D01*
X1168587Y629461D01*
X1168622Y629672D01*
X1168657Y629919D01*
X1168798Y630554D01*
X1169010Y631259D01*
X1169292Y632034D01*
X1169644Y632881D01*
X1170103Y633691D01*
Y633727D01*
X1170173Y633797D01*
X1170244Y633938D01*
X1170385Y634079D01*
X1170526Y634326D01*
X1170737Y634573D01*
X1170984Y634890D01*
X1171266Y635243D01*
X1171583Y635666D01*
X1171971Y636089D01*
X1172394Y636582D01*
X1172888Y637111D01*
X1173417Y637640D01*
X1174016Y638239D01*
X1174651Y638874D01*
X1175356Y639544D01*
X1175391Y639579D01*
X1175497Y639685D01*
X1175638Y639826D01*
X1175849Y640037D01*
X1176132Y640249D01*
X1176413Y640531D01*
X1177048Y641166D01*
X1177683Y641835D01*
X1178317Y642505D01*
X1178599Y642787D01*
X1178881Y643105D01*
X1179093Y643351D01*
X1179234Y643563D01*
X1179269Y643633D01*
X1179375Y643810D01*
X1179551Y644092D01*
X1179727Y644480D01*
X1179904Y644903D01*
X1180080Y645396D01*
X1180186Y645890D01*
X1180221Y646419D01*
Y646454D01*
Y646489D01*
Y646665D01*
X1180186Y646983D01*
X1180115Y647335D01*
X1180010Y647723D01*
X1179868Y648111D01*
X1179657Y648499D01*
X1179375Y648851D01*
X1179340Y648886D01*
X1179234Y648992D01*
X1179022Y649133D01*
X1178776Y649274D01*
X1178423Y649415D01*
X1178035Y649556D01*
X1177577Y649662D01*
X1177048Y649697D01*
X1176801D01*
X1176519Y649662D01*
X1176202Y649592D01*
X1175814Y649486D01*
X1175426Y649309D01*
X1175039Y649098D01*
X1174686Y648816D01*
X1174651Y648781D01*
X1174545Y648640D01*
X1174404Y648428D01*
X1174263Y648111D01*
X1174087Y647723D01*
X1173946Y647194D01*
X1173805Y646595D01*
X1173734Y645890D01*
X1169080Y646348D01*
Y646383D01*
X1169116Y646524D01*
Y646701D01*
X1169186Y646983D01*
X1169221Y647300D01*
X1169327Y647653D01*
X1169433Y648040D01*
X1169539Y648499D01*
X1169891Y649380D01*
X1170314Y650297D01*
X1170596Y650755D01*
X1170914Y651178D01*
X1171266Y651531D01*
X1171654Y651883D01*
X1171689Y651918D01*
X1171760Y651954D01*
X1171866Y652024D01*
X1172042Y652165D01*
X1172253Y652271D01*
X1172535Y652412D01*
X1172818Y652588D01*
X1173170Y652729D01*
X1173558Y652906D01*
X1173981Y653047D01*
X1174898Y653329D01*
X1175990Y653505D01*
X1176554Y653540D01*
X1177154Y653575D01*
X1177506D01*
X1177753Y653540D01*
D02*
G37*
G36*
X1165308Y629038D02*
X1160619D01*
Y633727D01*
X1165308D01*
Y629038D01*
D02*
G37*
G36*
X1156671Y649733D02*
X1156635Y649697D01*
X1156565Y649627D01*
X1156459Y649521D01*
X1156318Y649380D01*
X1156142Y649168D01*
X1155930Y648922D01*
X1155683Y648640D01*
X1155401Y648287D01*
X1155119Y647899D01*
X1154802Y647476D01*
X1154449Y647018D01*
X1154097Y646524D01*
X1153744Y645960D01*
X1153392Y645396D01*
X1153004Y644762D01*
X1152616Y644092D01*
X1152581Y644056D01*
X1152511Y643915D01*
X1152405Y643739D01*
X1152264Y643457D01*
X1152123Y643140D01*
X1151911Y642717D01*
X1151700Y642259D01*
X1151453Y641765D01*
X1151206Y641201D01*
X1150959Y640602D01*
X1150677Y639967D01*
X1150430Y639297D01*
X1149937Y637852D01*
X1149479Y636336D01*
Y636300D01*
X1149443Y636159D01*
X1149373Y635948D01*
X1149302Y635630D01*
X1149232Y635278D01*
X1149161Y634890D01*
X1149055Y634397D01*
X1148950Y633903D01*
X1148844Y633339D01*
X1148773Y632775D01*
X1148597Y631541D01*
X1148491Y630272D01*
X1148456Y629038D01*
X1143943D01*
Y629108D01*
Y629249D01*
X1143979Y629531D01*
Y629919D01*
X1144014Y630378D01*
X1144084Y630906D01*
X1144155Y631541D01*
X1144261Y632211D01*
X1144367Y632951D01*
X1144508Y633762D01*
X1144684Y634608D01*
X1144860Y635525D01*
X1145107Y636441D01*
X1145354Y637393D01*
X1145671Y638345D01*
X1146023Y639332D01*
X1146059Y639403D01*
X1146129Y639579D01*
X1146235Y639861D01*
X1146376Y640214D01*
X1146588Y640672D01*
X1146834Y641236D01*
X1147116Y641835D01*
X1147434Y642505D01*
X1147786Y643210D01*
X1148174Y643951D01*
X1148597Y644762D01*
X1149091Y645537D01*
X1150113Y647194D01*
X1151276Y648781D01*
X1140665D01*
Y653117D01*
X1156671D01*
Y649733D01*
D02*
G37*
G36*
X1085702Y629038D02*
X1081013D01*
Y646736D01*
X1085702D01*
Y629038D01*
D02*
G37*
G36*
X1099205Y647088D02*
X1099557Y647053D01*
X1099945Y646983D01*
X1100403Y646912D01*
X1100862Y646806D01*
X1101390Y646665D01*
X1101919Y646489D01*
X1102448Y646278D01*
X1103012Y646031D01*
X1103576Y645714D01*
X1104105Y645361D01*
X1104634Y644973D01*
X1105127Y644515D01*
X1105163Y644480D01*
X1105233Y644409D01*
X1105374Y644233D01*
X1105515Y644056D01*
X1105727Y643774D01*
X1105938Y643492D01*
X1106185Y643105D01*
X1106432Y642717D01*
X1106644Y642259D01*
X1106890Y641765D01*
X1107102Y641201D01*
X1107313Y640637D01*
X1107454Y640002D01*
X1107595Y639368D01*
X1107666Y638662D01*
X1107701Y637922D01*
Y637887D01*
Y637746D01*
Y637534D01*
X1107666Y637252D01*
X1107631Y636900D01*
X1107560Y636512D01*
X1107490Y636054D01*
X1107384Y635595D01*
X1107243Y635066D01*
X1107066Y634538D01*
X1106855Y633974D01*
X1106608Y633410D01*
X1106291Y632845D01*
X1105938Y632317D01*
X1105551Y631788D01*
X1105092Y631259D01*
X1105057Y631224D01*
X1104986Y631153D01*
X1104845Y631012D01*
X1104634Y630836D01*
X1104387Y630659D01*
X1104070Y630448D01*
X1103717Y630201D01*
X1103329Y629954D01*
X1102871Y629708D01*
X1102378Y629461D01*
X1101849Y629249D01*
X1101249Y629073D01*
X1100650Y628897D01*
X1099980Y628756D01*
X1099310Y628685D01*
X1098570Y628650D01*
X1098323D01*
X1098147Y628685D01*
X1097935D01*
X1097689Y628721D01*
X1097089Y628791D01*
X1096349Y628932D01*
X1095573Y629108D01*
X1094762Y629390D01*
X1093916Y629743D01*
X1093881D01*
X1093811Y629778D01*
X1093705Y629849D01*
X1093564Y629954D01*
X1093176Y630201D01*
X1092682Y630554D01*
X1092154Y631012D01*
X1091590Y631576D01*
X1091061Y632211D01*
X1090567Y632951D01*
Y632986D01*
X1090532Y633057D01*
X1090461Y633163D01*
X1090391Y633339D01*
X1090320Y633550D01*
X1090214Y633797D01*
X1090109Y634079D01*
X1090003Y634397D01*
X1089897Y634749D01*
X1089791Y635137D01*
X1089615Y636018D01*
X1089474Y637041D01*
X1089439Y638134D01*
Y638169D01*
Y638239D01*
Y638380D01*
X1089474Y638521D01*
Y638733D01*
X1089509Y638980D01*
X1089580Y639579D01*
X1089721Y640249D01*
X1089932Y640989D01*
X1090179Y641800D01*
X1090567Y642611D01*
Y642646D01*
X1090638Y642717D01*
X1090673Y642823D01*
X1090779Y642964D01*
X1091061Y643351D01*
X1091413Y643845D01*
X1091871Y644374D01*
X1092436Y644938D01*
X1093070Y645467D01*
X1093811Y645960D01*
X1093846D01*
X1093916Y645996D01*
X1094022Y646066D01*
X1094198Y646137D01*
X1094375Y646242D01*
X1094621Y646313D01*
X1094903Y646419D01*
X1095185Y646560D01*
X1095891Y646771D01*
X1096702Y646947D01*
X1097583Y647088D01*
X1098535Y647124D01*
X1098923D01*
X1099205Y647088D01*
D02*
G37*
G36*
X1037226D02*
X1037543Y647053D01*
X1037931Y646983D01*
X1038354Y646912D01*
X1038812Y646806D01*
X1039306Y646665D01*
X1039800Y646489D01*
X1040328Y646278D01*
X1040857Y645996D01*
X1041351Y645714D01*
X1041844Y645361D01*
X1042338Y644938D01*
X1042761Y644480D01*
X1042796Y644444D01*
X1042867Y644374D01*
X1042973Y644197D01*
X1043114Y643986D01*
X1043290Y643704D01*
X1043466Y643387D01*
X1043678Y642964D01*
X1043889Y642505D01*
X1044101Y641976D01*
X1044312Y641377D01*
X1044489Y640742D01*
X1044665Y640002D01*
X1044806Y639227D01*
X1044912Y638380D01*
X1044982Y637499D01*
Y636512D01*
X1033277D01*
Y636477D01*
Y636406D01*
Y636300D01*
X1033313Y636159D01*
X1033348Y635807D01*
X1033418Y635313D01*
X1033559Y634820D01*
X1033771Y634256D01*
X1034018Y633727D01*
X1034370Y633268D01*
X1034406Y633233D01*
X1034582Y633092D01*
X1034793Y632916D01*
X1035111Y632704D01*
X1035499Y632493D01*
X1035992Y632317D01*
X1036521Y632175D01*
X1037085Y632140D01*
X1037261D01*
X1037473Y632175D01*
X1037719Y632211D01*
X1038002Y632281D01*
X1038319Y632387D01*
X1038636Y632528D01*
X1038918Y632740D01*
X1038953Y632775D01*
X1039059Y632845D01*
X1039200Y632986D01*
X1039341Y633198D01*
X1039553Y633480D01*
X1039729Y633797D01*
X1039905Y634220D01*
X1040082Y634679D01*
X1044735Y633903D01*
Y633868D01*
X1044700Y633797D01*
X1044630Y633656D01*
X1044559Y633480D01*
X1044453Y633268D01*
X1044348Y633022D01*
X1044030Y632458D01*
X1043642Y631823D01*
X1043149Y631153D01*
X1042550Y630554D01*
X1041880Y629990D01*
X1041844D01*
X1041809Y629919D01*
X1041668Y629884D01*
X1041527Y629778D01*
X1041351Y629672D01*
X1041104Y629567D01*
X1040857Y629461D01*
X1040540Y629320D01*
X1039835Y629073D01*
X1039024Y628862D01*
X1038072Y628721D01*
X1037050Y628650D01*
X1036838D01*
X1036627Y628685D01*
X1036309D01*
X1035921Y628756D01*
X1035463Y628826D01*
X1034970Y628897D01*
X1034476Y629038D01*
X1033912Y629179D01*
X1033348Y629390D01*
X1032784Y629637D01*
X1032220Y629919D01*
X1031656Y630272D01*
X1031127Y630659D01*
X1030668Y631118D01*
X1030210Y631647D01*
X1030175Y631682D01*
X1030140Y631753D01*
X1030069Y631894D01*
X1029928Y632070D01*
X1029822Y632317D01*
X1029681Y632599D01*
X1029505Y632916D01*
X1029364Y633304D01*
X1029188Y633727D01*
X1029047Y634185D01*
X1028870Y634679D01*
X1028765Y635243D01*
X1028659Y635807D01*
X1028553Y636406D01*
X1028518Y637076D01*
X1028483Y637746D01*
Y637781D01*
Y637922D01*
Y638169D01*
X1028518Y638486D01*
X1028553Y638839D01*
X1028588Y639262D01*
X1028659Y639720D01*
X1028765Y640249D01*
X1029047Y641342D01*
X1029223Y641906D01*
X1029435Y642505D01*
X1029717Y643069D01*
X1030034Y643598D01*
X1030387Y644127D01*
X1030774Y644621D01*
X1030809Y644656D01*
X1030880Y644726D01*
X1031021Y644867D01*
X1031197Y645008D01*
X1031409Y645185D01*
X1031691Y645396D01*
X1032008Y645643D01*
X1032361Y645890D01*
X1032749Y646101D01*
X1033207Y646348D01*
X1033665Y646560D01*
X1034194Y646736D01*
X1034723Y646877D01*
X1035322Y647018D01*
X1035921Y647088D01*
X1036556Y647124D01*
X1036944D01*
X1037226Y647088D01*
D02*
G37*
G36*
X456831Y651388D02*
X457219Y651353D01*
X457642Y651282D01*
X458135Y651212D01*
X458664Y651106D01*
X459228Y650965D01*
X459828Y650789D01*
X460427Y650577D01*
X461062Y650295D01*
X461661Y650013D01*
X462225Y649660D01*
X462825Y649237D01*
X463353Y648779D01*
X463389D01*
X463424Y648709D01*
X463530Y648603D01*
X463635Y648497D01*
X463776Y648321D01*
X463917Y648109D01*
X464305Y647616D01*
X464693Y646981D01*
X465116Y646206D01*
X465504Y645324D01*
X465856Y644302D01*
X460991Y643138D01*
Y643174D01*
X460956Y643209D01*
Y643315D01*
X460885Y643456D01*
X460780Y643773D01*
X460603Y644196D01*
X460357Y644689D01*
X460039Y645183D01*
X459616Y645677D01*
X459158Y646100D01*
X459087Y646135D01*
X458911Y646276D01*
X458629Y646452D01*
X458241Y646664D01*
X457748Y646875D01*
X457184Y647052D01*
X456549Y647193D01*
X455844Y647228D01*
X455597D01*
X455386Y647193D01*
X455174Y647157D01*
X454892Y647122D01*
X454293Y646981D01*
X453588Y646734D01*
X452847Y646382D01*
X452459Y646170D01*
X452107Y645923D01*
X451754Y645606D01*
X451437Y645254D01*
Y645218D01*
X451367Y645148D01*
X451296Y645042D01*
X451190Y644866D01*
X451049Y644654D01*
X450908Y644407D01*
X450767Y644090D01*
X450626Y643738D01*
X450450Y643315D01*
X450309Y642856D01*
X450168Y642327D01*
X450027Y641763D01*
X449921Y641129D01*
X449851Y640459D01*
X449815Y639719D01*
X449780Y638908D01*
Y638872D01*
Y638696D01*
Y638449D01*
X449815Y638167D01*
Y637780D01*
X449886Y637321D01*
X449921Y636863D01*
X449992Y636334D01*
X450203Y635241D01*
X450485Y634148D01*
X450661Y633619D01*
X450908Y633126D01*
X451155Y632668D01*
X451437Y632280D01*
X451472Y632244D01*
X451508Y632209D01*
X451613Y632103D01*
X451754Y631962D01*
X452107Y631680D01*
X452601Y631328D01*
X453200Y630940D01*
X453940Y630658D01*
X454786Y630411D01*
X455245Y630376D01*
X455738Y630341D01*
X455914D01*
X456055Y630376D01*
X456443Y630411D01*
X456902Y630482D01*
X457395Y630658D01*
X457959Y630869D01*
X458523Y631152D01*
X459087Y631575D01*
X459158Y631645D01*
X459334Y631821D01*
X459581Y632103D01*
X459863Y632526D01*
X460216Y633091D01*
X460533Y633760D01*
X460850Y634571D01*
X461132Y635523D01*
X465927Y634042D01*
Y634007D01*
X465892Y633866D01*
X465821Y633655D01*
X465715Y633373D01*
X465574Y633055D01*
X465433Y632668D01*
X465257Y632244D01*
X465046Y631786D01*
X464552Y630834D01*
X463917Y629847D01*
X463142Y628895D01*
X462719Y628472D01*
X462260Y628084D01*
X462225Y628049D01*
X462155Y628014D01*
X462014Y627908D01*
X461802Y627767D01*
X461555Y627626D01*
X461238Y627485D01*
X460885Y627309D01*
X460498Y627132D01*
X460039Y626921D01*
X459546Y626745D01*
X459017Y626604D01*
X458453Y626463D01*
X457854Y626321D01*
X457184Y626216D01*
X456514Y626180D01*
X455773Y626145D01*
X455562D01*
X455315Y626180D01*
X454963Y626216D01*
X454575Y626251D01*
X454081Y626321D01*
X453552Y626427D01*
X452953Y626568D01*
X452354Y626745D01*
X451719Y626956D01*
X451049Y627238D01*
X450379Y627556D01*
X449710Y627908D01*
X449040Y628366D01*
X448405Y628860D01*
X447806Y629459D01*
X447771Y629495D01*
X447665Y629600D01*
X447524Y629812D01*
X447312Y630059D01*
X447101Y630411D01*
X446819Y630799D01*
X446537Y631292D01*
X446255Y631857D01*
X445973Y632456D01*
X445690Y633126D01*
X445408Y633901D01*
X445197Y634712D01*
X444985Y635558D01*
X444844Y636510D01*
X444739Y637497D01*
X444703Y638555D01*
Y638590D01*
Y638626D01*
Y638837D01*
X444739Y639154D01*
Y639577D01*
X444809Y640071D01*
X444880Y640670D01*
X444950Y641305D01*
X445091Y642045D01*
X445267Y642786D01*
X445479Y643561D01*
X445726Y644337D01*
X446043Y645148D01*
X446396Y645923D01*
X446819Y646664D01*
X447277Y647369D01*
X447841Y648039D01*
X447876Y648074D01*
X447982Y648180D01*
X448158Y648356D01*
X448405Y648568D01*
X448722Y648814D01*
X449110Y649096D01*
X449533Y649414D01*
X450062Y649731D01*
X450626Y650048D01*
X451226Y650366D01*
X451931Y650648D01*
X452636Y650894D01*
X453447Y651106D01*
X454258Y651282D01*
X455174Y651388D01*
X456091Y651423D01*
X456514D01*
X456831Y651388D01*
D02*
G37*
G36*
X510419Y638097D02*
Y638061D01*
Y637920D01*
Y637674D01*
Y637392D01*
Y637039D01*
X510384Y636616D01*
Y636158D01*
Y635699D01*
X510313Y634677D01*
X510243Y633619D01*
X510207Y633161D01*
X510137Y632703D01*
X510066Y632280D01*
X509996Y631892D01*
Y631857D01*
X509961Y631821D01*
Y631716D01*
X509925Y631610D01*
X509820Y631257D01*
X509679Y630834D01*
X509467Y630341D01*
X509220Y629847D01*
X508903Y629318D01*
X508515Y628825D01*
X508480Y628754D01*
X508339Y628613D01*
X508092Y628402D01*
X507775Y628120D01*
X507352Y627802D01*
X506858Y627485D01*
X506294Y627132D01*
X505659Y626850D01*
X505624D01*
X505589Y626815D01*
X505483Y626780D01*
X505342Y626745D01*
X505166Y626674D01*
X504954Y626604D01*
X504672Y626533D01*
X504390Y626498D01*
X503721Y626357D01*
X502910Y626216D01*
X501993Y626145D01*
X500971Y626110D01*
X500406D01*
X500089Y626145D01*
X499772D01*
X499384Y626180D01*
X498996Y626216D01*
X498150Y626286D01*
X497269Y626427D01*
X496387Y626639D01*
X496000Y626745D01*
X495647Y626886D01*
X495612D01*
X495577Y626921D01*
X495365Y627027D01*
X495013Y627203D01*
X494625Y627450D01*
X494166Y627767D01*
X493673Y628120D01*
X493214Y628543D01*
X492791Y629001D01*
X492756Y629071D01*
X492615Y629212D01*
X492439Y629495D01*
X492227Y629847D01*
X492016Y630235D01*
X491769Y630693D01*
X491593Y631187D01*
X491416Y631716D01*
Y631751D01*
X491381Y631821D01*
Y631927D01*
X491346Y632103D01*
X491311Y632315D01*
X491275Y632597D01*
X491240Y632914D01*
X491205Y633267D01*
X491134Y633690D01*
X491099Y634148D01*
X491064Y634642D01*
X491029Y635206D01*
X490993Y635805D01*
Y636475D01*
X490958Y637180D01*
Y637920D01*
Y650965D01*
X495894D01*
Y637709D01*
Y637674D01*
Y637568D01*
Y637427D01*
Y637215D01*
Y636933D01*
Y636651D01*
X495929Y636017D01*
Y635312D01*
X495964Y634642D01*
X496000Y634324D01*
Y634042D01*
X496035Y633831D01*
X496070Y633619D01*
Y633549D01*
X496141Y633373D01*
X496246Y633091D01*
X496387Y632738D01*
X496564Y632350D01*
X496846Y631962D01*
X497163Y631539D01*
X497551Y631187D01*
X497621Y631152D01*
X497762Y631046D01*
X498044Y630905D01*
X498397Y630764D01*
X498890Y630587D01*
X499455Y630446D01*
X500089Y630341D01*
X500830Y630305D01*
X501182D01*
X501535Y630341D01*
X501993Y630411D01*
X502522Y630517D01*
X503015Y630658D01*
X503544Y630869D01*
X503967Y631152D01*
X504002Y631187D01*
X504144Y631292D01*
X504320Y631469D01*
X504531Y631716D01*
X504743Y632033D01*
X504954Y632385D01*
X505131Y632773D01*
X505237Y633232D01*
Y633302D01*
X505272Y633478D01*
X505307Y633796D01*
X505378Y634219D01*
Y634501D01*
X505413Y634818D01*
Y635171D01*
X505448Y635523D01*
Y635946D01*
X505483Y636404D01*
Y636898D01*
Y637427D01*
Y650965D01*
X510419D01*
Y638097D01*
D02*
G37*
G36*
X588756Y651071D02*
X589038D01*
X589355Y651035D01*
X589708Y650965D01*
X590131Y650859D01*
X590554Y650753D01*
X591048Y650577D01*
X591541Y650401D01*
X592035Y650154D01*
X592564Y649872D01*
X593057Y649555D01*
X593551Y649167D01*
X594044Y648709D01*
X594503Y648215D01*
X594538Y648180D01*
X594608Y648074D01*
X594714Y647898D01*
X594891Y647651D01*
X595067Y647334D01*
X595278Y646946D01*
X595490Y646488D01*
X595701Y645959D01*
X595913Y645324D01*
X596160Y644619D01*
X596336Y643843D01*
X596512Y642997D01*
X596688Y642045D01*
X596794Y641023D01*
X596865Y639930D01*
X596900Y638731D01*
Y638696D01*
Y638661D01*
Y638555D01*
Y638449D01*
Y638097D01*
X596865Y637639D01*
X596829Y637074D01*
X596759Y636440D01*
X596688Y635770D01*
X596583Y635030D01*
X596442Y634219D01*
X596301Y633443D01*
X596089Y632632D01*
X595842Y631821D01*
X595560Y631081D01*
X595208Y630341D01*
X594855Y629671D01*
X594397Y629071D01*
X594362Y629036D01*
X594291Y628930D01*
X594150Y628789D01*
X593939Y628613D01*
X593692Y628402D01*
X593410Y628120D01*
X593057Y627873D01*
X592669Y627591D01*
X592246Y627309D01*
X591753Y627062D01*
X591224Y626815D01*
X590660Y626568D01*
X590025Y626392D01*
X589391Y626251D01*
X588721Y626145D01*
X587980Y626110D01*
X587698D01*
X587522Y626145D01*
X587275D01*
X586993Y626180D01*
X586323Y626286D01*
X585583Y626498D01*
X584843Y626745D01*
X584067Y627132D01*
X583715Y627344D01*
X583362Y627626D01*
X583327Y627661D01*
X583292Y627696D01*
X583186Y627802D01*
X583080Y627908D01*
X582939Y628084D01*
X582763Y628261D01*
X582622Y628507D01*
X582410Y628754D01*
X582234Y629071D01*
X582022Y629389D01*
X581846Y629776D01*
X581670Y630200D01*
X581493Y630623D01*
X581353Y631116D01*
X581211Y631610D01*
X581106Y632174D01*
X585618Y632703D01*
Y632632D01*
X585654Y632456D01*
X585689Y632209D01*
X585795Y631927D01*
X585900Y631575D01*
X586041Y631222D01*
X586218Y630905D01*
X586465Y630623D01*
X586500Y630587D01*
X586605Y630517D01*
X586746Y630411D01*
X586958Y630305D01*
X587240Y630200D01*
X587522Y630094D01*
X587910Y630023D01*
X588298Y629988D01*
X588368D01*
X588545Y630023D01*
X588791Y630059D01*
X589144Y630164D01*
X589532Y630305D01*
X589920Y630552D01*
X590342Y630869D01*
X590730Y631292D01*
X590766Y631363D01*
X590836Y631433D01*
X590907Y631575D01*
X590977Y631716D01*
X591083Y631927D01*
X591153Y632174D01*
X591294Y632491D01*
X591400Y632844D01*
X591506Y633232D01*
X591612Y633690D01*
X591717Y634183D01*
X591823Y634748D01*
X591894Y635382D01*
X591964Y636087D01*
X592035Y636828D01*
X592000Y636792D01*
X591964Y636757D01*
X591858Y636651D01*
X591717Y636510D01*
X591541Y636369D01*
X591330Y636193D01*
X590836Y635805D01*
X590201Y635417D01*
X589426Y635100D01*
X589003Y634959D01*
X588580Y634888D01*
X588121Y634818D01*
X587628Y634783D01*
X587346D01*
X587134Y634818D01*
X586888Y634853D01*
X586605Y634888D01*
X585936Y635065D01*
X585160Y635312D01*
X584772Y635523D01*
X584349Y635735D01*
X583926Y635981D01*
X583503Y636264D01*
X583080Y636616D01*
X582692Y637004D01*
X582657Y637039D01*
X582586Y637110D01*
X582516Y637251D01*
X582375Y637392D01*
X582199Y637639D01*
X582022Y637885D01*
X581846Y638203D01*
X581670Y638555D01*
X581458Y638943D01*
X581282Y639401D01*
X581106Y639860D01*
X580929Y640388D01*
X580788Y640917D01*
X580718Y641516D01*
X580647Y642151D01*
X580612Y642786D01*
Y642821D01*
Y642962D01*
Y643138D01*
X580647Y643420D01*
X580683Y643738D01*
X580718Y644090D01*
X580788Y644513D01*
X580894Y644936D01*
X581141Y645888D01*
X581317Y646417D01*
X581529Y646911D01*
X581776Y647404D01*
X582093Y647898D01*
X582410Y648356D01*
X582798Y648814D01*
X582833Y648850D01*
X582904Y648920D01*
X583009Y649026D01*
X583186Y649167D01*
X583433Y649343D01*
X583679Y649555D01*
X583997Y649731D01*
X584349Y649978D01*
X584702Y650189D01*
X585160Y650366D01*
X585618Y650577D01*
X586112Y650753D01*
X586641Y650894D01*
X587205Y651000D01*
X587769Y651071D01*
X588404Y651106D01*
X588580D01*
X588756Y651071D01*
D02*
G37*
G36*
X573949Y626568D02*
X569260D01*
Y644231D01*
X569225Y644196D01*
X569154Y644125D01*
X569013Y644020D01*
X568802Y643843D01*
X568555Y643632D01*
X568273Y643420D01*
X567920Y643174D01*
X567532Y642891D01*
X567109Y642609D01*
X566651Y642327D01*
X566157Y642010D01*
X565629Y641728D01*
X564501Y641199D01*
X563231Y640706D01*
Y644936D01*
X563266D01*
X563302Y644971D01*
X563408Y645007D01*
X563549Y645042D01*
X563901Y645218D01*
X564395Y645430D01*
X564994Y645712D01*
X565664Y646100D01*
X566404Y646593D01*
X567180Y647157D01*
X567215Y647193D01*
X567286Y647228D01*
X567391Y647334D01*
X567532Y647475D01*
X567920Y647827D01*
X568343Y648286D01*
X568837Y648850D01*
X569330Y649555D01*
X569789Y650295D01*
X570141Y651106D01*
X573949D01*
Y626568D01*
D02*
G37*
G36*
X532700Y651071D02*
X533018Y651035D01*
X533370Y651000D01*
X533758Y650930D01*
X534181Y650859D01*
X535098Y650612D01*
X536014Y650260D01*
X536508Y650048D01*
X536931Y649801D01*
X537389Y649484D01*
X537777Y649132D01*
X537812Y649096D01*
X537883Y649061D01*
X537953Y648920D01*
X538094Y648779D01*
X538271Y648603D01*
X538447Y648356D01*
X538623Y648109D01*
X538835Y647792D01*
X539187Y647087D01*
X539540Y646276D01*
X539681Y645818D01*
X539751Y645324D01*
X539822Y644795D01*
X539857Y644266D01*
Y644196D01*
Y643984D01*
X539822Y643667D01*
X539787Y643279D01*
X539716Y642786D01*
X539610Y642257D01*
X539469Y641693D01*
X539258Y641129D01*
X539222Y641058D01*
X539152Y640882D01*
X539011Y640565D01*
X538799Y640177D01*
X538553Y639719D01*
X538235Y639190D01*
X537848Y638626D01*
X537389Y638026D01*
X537354Y637991D01*
X537213Y637815D01*
X537001Y637568D01*
X536684Y637215D01*
X536261Y636792D01*
X535732Y636228D01*
X535098Y635629D01*
X534322Y634888D01*
X534287Y634853D01*
X534216Y634818D01*
X534110Y634712D01*
X533969Y634571D01*
X533582Y634219D01*
X533123Y633796D01*
X532665Y633337D01*
X532207Y632879D01*
X531784Y632491D01*
X531643Y632315D01*
X531502Y632174D01*
X531466Y632139D01*
X531396Y632068D01*
X531290Y631927D01*
X531149Y631751D01*
X530832Y631363D01*
X530550Y630905D01*
X539857D01*
Y626568D01*
X523463D01*
Y626604D01*
Y626674D01*
X523499Y626815D01*
X523534Y626991D01*
X523569Y627203D01*
X523604Y627450D01*
X523745Y628084D01*
X523957Y628789D01*
X524239Y629565D01*
X524592Y630411D01*
X525050Y631222D01*
Y631257D01*
X525120Y631328D01*
X525191Y631469D01*
X525332Y631610D01*
X525473Y631857D01*
X525685Y632103D01*
X525931Y632421D01*
X526213Y632773D01*
X526531Y633196D01*
X526918Y633619D01*
X527341Y634113D01*
X527835Y634642D01*
X528364Y635171D01*
X528963Y635770D01*
X529598Y636404D01*
X530303Y637074D01*
X530338Y637110D01*
X530444Y637215D01*
X530585Y637356D01*
X530797Y637568D01*
X531078Y637780D01*
X531361Y638061D01*
X531995Y638696D01*
X532630Y639366D01*
X533264Y640036D01*
X533546Y640318D01*
X533828Y640635D01*
X534040Y640882D01*
X534181Y641094D01*
X534216Y641164D01*
X534322Y641340D01*
X534498Y641622D01*
X534675Y642010D01*
X534851Y642433D01*
X535027Y642927D01*
X535133Y643420D01*
X535168Y643949D01*
Y643984D01*
Y644020D01*
Y644196D01*
X535133Y644513D01*
X535062Y644866D01*
X534957Y645254D01*
X534816Y645641D01*
X534604Y646029D01*
X534322Y646382D01*
X534287Y646417D01*
X534181Y646523D01*
X533969Y646664D01*
X533723Y646805D01*
X533370Y646946D01*
X532982Y647087D01*
X532524Y647193D01*
X531995Y647228D01*
X531748D01*
X531466Y647193D01*
X531149Y647122D01*
X530761Y647016D01*
X530373Y646840D01*
X529986Y646628D01*
X529633Y646347D01*
X529598Y646311D01*
X529492Y646170D01*
X529351Y645959D01*
X529210Y645641D01*
X529034Y645254D01*
X528893Y644725D01*
X528752Y644125D01*
X528681Y643420D01*
X524027Y643879D01*
Y643914D01*
X524063Y644055D01*
Y644231D01*
X524133Y644513D01*
X524169Y644830D01*
X524274Y645183D01*
X524380Y645571D01*
X524486Y646029D01*
X524838Y646911D01*
X525261Y647827D01*
X525544Y648286D01*
X525861Y648709D01*
X526213Y649061D01*
X526601Y649414D01*
X526636Y649449D01*
X526707Y649484D01*
X526813Y649555D01*
X526989Y649696D01*
X527201Y649801D01*
X527482Y649942D01*
X527765Y650119D01*
X528117Y650260D01*
X528505Y650436D01*
X528928Y650577D01*
X529845Y650859D01*
X530938Y651035D01*
X531502Y651071D01*
X532101Y651106D01*
X532453D01*
X532700Y651071D01*
D02*
G37*
G36*
X487820Y646840D02*
X480628D01*
Y626568D01*
X475693D01*
Y646840D01*
X468465D01*
Y650965D01*
X487820D01*
Y646840D01*
D02*
G37*
G36*
X551527Y651071D02*
X551809Y651035D01*
X552161Y650965D01*
X552514Y650894D01*
X552937Y650789D01*
X553395Y650648D01*
X553818Y650471D01*
X554277Y650295D01*
X554735Y650048D01*
X555193Y649731D01*
X555651Y649414D01*
X556074Y649026D01*
X556462Y648568D01*
X556497Y648532D01*
X556568Y648427D01*
X556674Y648250D01*
X556850Y648003D01*
X557026Y647651D01*
X557238Y647228D01*
X557449Y646769D01*
X557661Y646170D01*
X557873Y645536D01*
X558119Y644795D01*
X558296Y643984D01*
X558472Y643068D01*
X558648Y642081D01*
X558754Y641023D01*
X558824Y639860D01*
X558860Y638590D01*
Y638555D01*
Y638520D01*
Y638414D01*
Y638273D01*
Y637920D01*
X558824Y637462D01*
X558789Y636898D01*
X558719Y636228D01*
X558648Y635523D01*
X558578Y634748D01*
X558437Y633937D01*
X558260Y633091D01*
X558084Y632280D01*
X557837Y631469D01*
X557590Y630658D01*
X557238Y629918D01*
X556885Y629212D01*
X556462Y628613D01*
X556427Y628578D01*
X556357Y628507D01*
X556251Y628366D01*
X556110Y628225D01*
X555898Y628049D01*
X555651Y627837D01*
X555334Y627591D01*
X555017Y627379D01*
X554629Y627132D01*
X554241Y626886D01*
X553783Y626674D01*
X553289Y626498D01*
X552761Y626357D01*
X552161Y626216D01*
X551562Y626145D01*
X550927Y626110D01*
X550786D01*
X550575Y626145D01*
X550328D01*
X550046Y626180D01*
X549693Y626251D01*
X549305Y626321D01*
X548882Y626463D01*
X548424Y626604D01*
X547966Y626780D01*
X547472Y626991D01*
X547014Y627273D01*
X546520Y627556D01*
X546062Y627943D01*
X545604Y628331D01*
X545181Y628825D01*
X545145Y628860D01*
X545075Y628966D01*
X544969Y629142D01*
X544863Y629353D01*
X544687Y629671D01*
X544511Y630059D01*
X544299Y630552D01*
X544123Y631081D01*
X543911Y631716D01*
X543700Y632421D01*
X543524Y633232D01*
X543383Y634113D01*
X543242Y635100D01*
X543136Y636193D01*
X543065Y637356D01*
X543030Y638626D01*
Y638661D01*
Y638696D01*
Y638802D01*
Y638943D01*
Y639295D01*
X543065Y639754D01*
X543101Y640318D01*
X543171Y640988D01*
X543242Y641693D01*
X543312Y642468D01*
X543453Y643279D01*
X543594Y644090D01*
X543806Y644936D01*
X544017Y645747D01*
X544299Y646523D01*
X544617Y647263D01*
X544969Y647968D01*
X545392Y648568D01*
X545427Y648603D01*
X545498Y648673D01*
X545604Y648814D01*
X545780Y648955D01*
X545956Y649167D01*
X546203Y649378D01*
X546520Y649590D01*
X546838Y649837D01*
X547225Y650083D01*
X547613Y650295D01*
X548072Y650507D01*
X548565Y650718D01*
X549094Y650859D01*
X549693Y651000D01*
X550293Y651071D01*
X550927Y651106D01*
X551280D01*
X551527Y651071D01*
D02*
G37*
G36*
X1087439Y1003861D02*
Y1003847D01*
Y1003805D01*
Y1003749D01*
Y1003664D01*
X1087425Y1003551D01*
Y1003438D01*
X1087397Y1003171D01*
X1087369Y1002860D01*
X1087312Y1002536D01*
X1087228Y1002240D01*
X1087129Y1001958D01*
Y1001944D01*
X1087115Y1001930D01*
X1087073Y1001845D01*
X1087002Y1001733D01*
X1086904Y1001578D01*
X1086762Y1001423D01*
X1086607Y1001253D01*
X1086410Y1001084D01*
X1086184Y1000943D01*
X1086156Y1000929D01*
X1086072Y1000887D01*
X1085945Y1000831D01*
X1085762Y1000774D01*
X1085536Y1000704D01*
X1085282Y1000647D01*
X1085000Y1000605D01*
X1084690Y1000591D01*
X1084563D01*
X1084479Y1000605D01*
X1084366Y1000619D01*
X1084253Y1000633D01*
X1083957Y1000689D01*
X1083647Y1000774D01*
X1083323Y1000901D01*
X1083154Y1000986D01*
X1082999Y1001084D01*
X1082858Y1001197D01*
X1082717Y1001324D01*
X1082703Y1001338D01*
X1082689Y1001352D01*
X1082660Y1001408D01*
X1082618Y1001465D01*
X1082562Y1001535D01*
X1082505Y1001634D01*
X1082449Y1001747D01*
X1082378Y1001874D01*
X1082322Y1002015D01*
X1082266Y1002184D01*
X1082209Y1002353D01*
X1082153Y1002550D01*
X1082125Y1002762D01*
X1082082Y1003001D01*
X1082068Y1003241D01*
Y1003509D01*
X1083238Y1003678D01*
Y1003664D01*
Y1003636D01*
Y1003579D01*
X1083252Y1003495D01*
X1083266Y1003410D01*
Y1003312D01*
X1083309Y1003072D01*
X1083351Y1002818D01*
X1083436Y1002564D01*
X1083520Y1002339D01*
X1083577Y1002240D01*
X1083647Y1002156D01*
X1083661Y1002141D01*
X1083717Y1002099D01*
X1083802Y1002029D01*
X1083915Y1001958D01*
X1084070Y1001874D01*
X1084239Y1001817D01*
X1084451Y1001761D01*
X1084676Y1001747D01*
X1084761D01*
X1084845Y1001761D01*
X1084972Y1001775D01*
X1085099Y1001803D01*
X1085240Y1001831D01*
X1085381Y1001888D01*
X1085522Y1001958D01*
X1085536Y1001972D01*
X1085578Y1002001D01*
X1085635Y1002057D01*
X1085719Y1002113D01*
X1085790Y1002212D01*
X1085874Y1002311D01*
X1085945Y1002423D01*
X1086001Y1002564D01*
Y1002579D01*
X1086030Y1002635D01*
X1086043Y1002734D01*
X1086072Y1002860D01*
X1086100Y1003030D01*
X1086114Y1003241D01*
X1086142Y1003495D01*
Y1003791D01*
Y1010515D01*
X1087439D01*
Y1003861D01*
D02*
G37*
G36*
X1130689Y1000760D02*
X1129491D01*
Y1008387D01*
X1129476Y1008372D01*
X1129406Y1008316D01*
X1129321Y1008231D01*
X1129180Y1008133D01*
X1129025Y1008006D01*
X1128828Y1007865D01*
X1128602Y1007710D01*
X1128349Y1007555D01*
X1128335D01*
X1128320Y1007541D01*
X1128236Y1007484D01*
X1128095Y1007414D01*
X1127926Y1007329D01*
X1127728Y1007231D01*
X1127517Y1007132D01*
X1127306Y1007033D01*
X1127094Y1006949D01*
Y1008104D01*
X1127108D01*
X1127136Y1008133D01*
X1127193Y1008147D01*
X1127263Y1008189D01*
X1127348Y1008231D01*
X1127446Y1008288D01*
X1127686Y1008429D01*
X1127968Y1008584D01*
X1128250Y1008781D01*
X1128546Y1009007D01*
X1128842Y1009246D01*
X1128856Y1009260D01*
X1128870Y1009275D01*
X1128913Y1009317D01*
X1128969Y1009359D01*
X1129096Y1009500D01*
X1129265Y1009669D01*
X1129434Y1009867D01*
X1129617Y1010092D01*
X1129772Y1010318D01*
X1129913Y1010557D01*
X1130689D01*
Y1000760D01*
D02*
G37*
G36*
X1120835Y1010501D02*
X1121117Y1010487D01*
X1121399Y1010459D01*
X1121681Y1010416D01*
X1121920Y1010374D01*
X1121935D01*
X1121963Y1010360D01*
X1122005D01*
X1122061Y1010332D01*
X1122216Y1010290D01*
X1122414Y1010219D01*
X1122639Y1010120D01*
X1122879Y1009994D01*
X1123119Y1009853D01*
X1123344Y1009669D01*
X1123358Y1009655D01*
X1123372Y1009641D01*
X1123415Y1009599D01*
X1123471Y1009557D01*
X1123612Y1009416D01*
X1123781Y1009218D01*
X1123964Y1008979D01*
X1124162Y1008697D01*
X1124345Y1008372D01*
X1124500Y1008006D01*
Y1007992D01*
X1124514Y1007964D01*
X1124542Y1007907D01*
X1124557Y1007823D01*
X1124599Y1007724D01*
X1124627Y1007611D01*
X1124655Y1007484D01*
X1124697Y1007329D01*
X1124740Y1007174D01*
X1124768Y1006991D01*
X1124838Y1006596D01*
X1124881Y1006159D01*
X1124895Y1005680D01*
Y1005666D01*
Y1005638D01*
Y1005567D01*
Y1005497D01*
X1124881Y1005398D01*
Y1005285D01*
X1124867Y1005017D01*
X1124824Y1004707D01*
X1124782Y1004383D01*
X1124712Y1004045D01*
X1124627Y1003706D01*
Y1003692D01*
X1124613Y1003664D01*
X1124599Y1003622D01*
X1124585Y1003565D01*
X1124528Y1003410D01*
X1124444Y1003213D01*
X1124359Y1002987D01*
X1124246Y1002762D01*
X1124105Y1002522D01*
X1123964Y1002297D01*
X1123950Y1002268D01*
X1123894Y1002198D01*
X1123809Y1002099D01*
X1123697Y1001972D01*
X1123570Y1001831D01*
X1123415Y1001690D01*
X1123260Y1001535D01*
X1123076Y1001408D01*
X1123048Y1001394D01*
X1122992Y1001352D01*
X1122893Y1001296D01*
X1122752Y1001225D01*
X1122583Y1001141D01*
X1122386Y1001070D01*
X1122160Y1000986D01*
X1121906Y1000915D01*
X1121878D01*
X1121836Y1000901D01*
X1121794Y1000887D01*
X1121653Y1000873D01*
X1121455Y1000845D01*
X1121230Y1000816D01*
X1120962Y1000788D01*
X1120666Y1000774D01*
X1120341Y1000760D01*
X1116831D01*
Y1010515D01*
X1120581D01*
X1120835Y1010501D01*
D02*
G37*
G36*
X1114816Y1009359D02*
X1109050D01*
Y1006385D01*
X1114449D01*
Y1005229D01*
X1109050D01*
Y1001916D01*
X1115041D01*
Y1000760D01*
X1107753D01*
Y1010515D01*
X1114816D01*
Y1009359D01*
D02*
G37*
G36*
X1101395Y1001916D02*
X1106202D01*
Y1000760D01*
X1100098D01*
Y1010515D01*
X1101395D01*
Y1001916D01*
D02*
G37*
G36*
X1094051Y1010670D02*
X1094177D01*
X1094304Y1010656D01*
X1094474Y1010628D01*
X1094643Y1010600D01*
X1095009Y1010529D01*
X1095432Y1010416D01*
X1095841Y1010247D01*
X1096052Y1010149D01*
X1096264Y1010036D01*
X1096278Y1010022D01*
X1096306Y1010008D01*
X1096363Y1009965D01*
X1096447Y1009923D01*
X1096532Y1009853D01*
X1096645Y1009768D01*
X1096884Y1009571D01*
X1097138Y1009317D01*
X1097420Y1009007D01*
X1097688Y1008640D01*
X1097913Y1008231D01*
Y1008217D01*
X1097941Y1008175D01*
X1097970Y1008119D01*
X1097998Y1008034D01*
X1098054Y1007921D01*
X1098096Y1007794D01*
X1098153Y1007639D01*
X1098209Y1007470D01*
X1098252Y1007287D01*
X1098308Y1007090D01*
X1098364Y1006864D01*
X1098407Y1006638D01*
X1098463Y1006145D01*
X1098491Y1005609D01*
Y1005595D01*
Y1005539D01*
Y1005468D01*
X1098477Y1005356D01*
Y1005229D01*
X1098463Y1005074D01*
X1098435Y1004904D01*
X1098421Y1004721D01*
X1098350Y1004312D01*
X1098238Y1003861D01*
X1098082Y1003410D01*
X1097998Y1003185D01*
X1097885Y1002959D01*
Y1002945D01*
X1097857Y1002903D01*
X1097829Y1002846D01*
X1097772Y1002762D01*
X1097716Y1002663D01*
X1097645Y1002564D01*
X1097448Y1002297D01*
X1097208Y1002015D01*
X1096926Y1001719D01*
X1096588Y1001437D01*
X1096193Y1001183D01*
X1096179D01*
X1096151Y1001155D01*
X1096081Y1001126D01*
X1095996Y1001084D01*
X1095897Y1001042D01*
X1095785Y1001000D01*
X1095644Y1000943D01*
X1095489Y1000887D01*
X1095319Y1000831D01*
X1095136Y1000774D01*
X1094727Y1000689D01*
X1094290Y1000619D01*
X1093825Y1000591D01*
X1093684D01*
X1093599Y1000605D01*
X1093473D01*
X1093332Y1000633D01*
X1093177Y1000647D01*
X1092993Y1000675D01*
X1092613Y1000760D01*
X1092204Y1000873D01*
X1091781Y1001042D01*
X1091570Y1001141D01*
X1091358Y1001253D01*
X1091344Y1001267D01*
X1091316Y1001282D01*
X1091259Y1001324D01*
X1091175Y1001380D01*
X1091090Y1001437D01*
X1090992Y1001521D01*
X1090752Y1001733D01*
X1090484Y1001986D01*
X1090202Y1002297D01*
X1089948Y1002649D01*
X1089709Y1003058D01*
Y1003072D01*
X1089681Y1003114D01*
X1089652Y1003171D01*
X1089624Y1003255D01*
X1089582Y1003368D01*
X1089540Y1003495D01*
X1089483Y1003636D01*
X1089441Y1003791D01*
X1089385Y1003974D01*
X1089328Y1004157D01*
X1089244Y1004580D01*
X1089187Y1005017D01*
X1089159Y1005497D01*
Y1005511D01*
Y1005525D01*
Y1005609D01*
X1089173Y1005736D01*
Y1005905D01*
X1089201Y1006103D01*
X1089230Y1006342D01*
X1089272Y1006610D01*
X1089328Y1006892D01*
X1089385Y1007188D01*
X1089469Y1007498D01*
X1089582Y1007809D01*
X1089709Y1008133D01*
X1089850Y1008443D01*
X1090033Y1008753D01*
X1090230Y1009035D01*
X1090456Y1009303D01*
X1090470Y1009317D01*
X1090512Y1009359D01*
X1090597Y1009430D01*
X1090696Y1009514D01*
X1090822Y1009627D01*
X1090977Y1009740D01*
X1091161Y1009867D01*
X1091372Y1009994D01*
X1091598Y1010120D01*
X1091852Y1010247D01*
X1092133Y1010360D01*
X1092430Y1010473D01*
X1092754Y1010557D01*
X1093092Y1010628D01*
X1093445Y1010670D01*
X1093825Y1010684D01*
X1093952D01*
X1094051Y1010670D01*
D02*
G37*
%LPC*%
G36*
X997756Y934402D02*
X997709D01*
X997568Y934379D01*
X997356Y934355D01*
X997121Y934285D01*
X996816Y934191D01*
X996510Y934026D01*
X996205Y933815D01*
X995900Y933509D01*
X995876Y933462D01*
X995782Y933345D01*
X995665Y933133D01*
X995547Y932852D01*
X995406Y932476D01*
X995289Y932029D01*
X995195Y931489D01*
X995171Y930878D01*
Y930854D01*
Y930807D01*
Y930690D01*
Y930573D01*
X995195Y930408D01*
Y930244D01*
X995242Y929844D01*
X995289Y929398D01*
X995383Y928928D01*
X995524Y928505D01*
X995594Y928317D01*
X995688Y928153D01*
Y928129D01*
X995735Y928106D01*
X995829Y927965D01*
X995993Y927777D01*
X996228Y927565D01*
X996534Y927330D01*
X996886Y927142D01*
X997309Y927001D01*
X997544Y926978D01*
X997779Y926954D01*
X997826D01*
X997967Y926978D01*
X998155Y927001D01*
X998413Y927072D01*
X998695Y927166D01*
X999001Y927330D01*
X999306Y927542D01*
X999612Y927847D01*
X999635Y927894D01*
X999729Y928012D01*
X999847Y928223D01*
X999988Y928529D01*
X1000129Y928904D01*
X1000246Y929374D01*
X1000340Y929938D01*
X1000363Y930573D01*
Y930596D01*
Y930667D01*
Y930760D01*
Y930901D01*
X1000340Y931066D01*
X1000316Y931277D01*
X1000269Y931700D01*
X1000175Y932194D01*
X1000058Y932664D01*
X999870Y933133D01*
X999753Y933322D01*
X999612Y933509D01*
X999588Y933556D01*
X999471Y933650D01*
X999330Y933791D01*
X999118Y933956D01*
X998836Y934120D01*
X998531Y934261D01*
X998155Y934355D01*
X997756Y934402D01*
D02*
G37*
G36*
X1013051Y930385D02*
X1013027D01*
X1012933Y930338D01*
X1012792Y930314D01*
X1012581Y930244D01*
X1012322Y930173D01*
X1011970Y930079D01*
X1011594Y929985D01*
X1011124Y929891D01*
X1011077D01*
X1011007Y929868D01*
X1010913Y929844D01*
X1010701Y929797D01*
X1010419Y929727D01*
X1010137Y929656D01*
X1009855Y929562D01*
X1009621Y929445D01*
X1009433Y929351D01*
X1009409Y929327D01*
X1009339Y929280D01*
X1009245Y929186D01*
X1009151Y929069D01*
X1009033Y928904D01*
X1008939Y928717D01*
X1008869Y928505D01*
X1008845Y928270D01*
Y928247D01*
Y928153D01*
X1008869Y928035D01*
X1008916Y927894D01*
X1008963Y927706D01*
X1009033Y927518D01*
X1009151Y927330D01*
X1009315Y927142D01*
X1009339Y927119D01*
X1009409Y927072D01*
X1009503Y927001D01*
X1009668Y926907D01*
X1009832Y926813D01*
X1010043Y926743D01*
X1010302Y926696D01*
X1010560Y926672D01*
X1010701D01*
X1010866Y926696D01*
X1011077Y926743D01*
X1011336Y926813D01*
X1011594Y926907D01*
X1011900Y927025D01*
X1012181Y927213D01*
X1012205Y927236D01*
X1012275Y927283D01*
X1012370Y927377D01*
X1012487Y927495D01*
X1012604Y927659D01*
X1012722Y927824D01*
X1012839Y928035D01*
X1012910Y928247D01*
Y928270D01*
X1012933Y928317D01*
X1012957Y928435D01*
X1012980Y928576D01*
X1013004Y928787D01*
X1013027Y929045D01*
X1013051Y929374D01*
Y929750D01*
Y930385D01*
D02*
G37*
G36*
X940992Y937222D02*
X938783Y931183D01*
X943271D01*
X940992Y937222D01*
D02*
G37*
G36*
X1050384Y934402D02*
X1050220D01*
X1050032Y934355D01*
X1049797Y934308D01*
X1049538Y934214D01*
X1049257Y934097D01*
X1048975Y933909D01*
X1048716Y933650D01*
X1048693Y933627D01*
X1048622Y933509D01*
X1048505Y933345D01*
X1048387Y933110D01*
X1048246Y932828D01*
X1048152Y932476D01*
X1048082Y932076D01*
X1048058Y931630D01*
X1052710D01*
Y931653D01*
Y931700D01*
Y931747D01*
X1052687Y931841D01*
X1052663Y932100D01*
X1052616Y932382D01*
X1052522Y932711D01*
X1052405Y933063D01*
X1052217Y933392D01*
X1052005Y933674D01*
X1051982Y933697D01*
X1051888Y933791D01*
X1051747Y933909D01*
X1051559Y934050D01*
X1051324Y934167D01*
X1051042Y934285D01*
X1050737Y934379D01*
X1050384Y934402D01*
D02*
G37*
G36*
X970807D02*
X970642D01*
X970454Y934355D01*
X970219Y934308D01*
X969961Y934214D01*
X969679Y934097D01*
X969397Y933909D01*
X969139Y933650D01*
X969115Y933627D01*
X969045Y933509D01*
X968927Y933345D01*
X968810Y933110D01*
X968669Y932828D01*
X968575Y932476D01*
X968504Y932076D01*
X968481Y931630D01*
X973133D01*
Y931653D01*
Y931700D01*
Y931747D01*
X973109Y931841D01*
X973086Y932100D01*
X973039Y932382D01*
X972945Y932711D01*
X972827Y933063D01*
X972639Y933392D01*
X972428Y933674D01*
X972404Y933697D01*
X972310Y933791D01*
X972169Y933909D01*
X971982Y934050D01*
X971747Y934167D01*
X971465Y934285D01*
X971159Y934379D01*
X970807Y934402D01*
D02*
G37*
G36*
X991553Y914328D02*
X991388D01*
X991200Y914281D01*
X990965Y914234D01*
X990707Y914140D01*
X990425Y914023D01*
X990143Y913835D01*
X989885Y913576D01*
X989861Y913553D01*
X989791Y913435D01*
X989673Y913271D01*
X989556Y913036D01*
X989415Y912754D01*
X989321Y912402D01*
X989250Y912002D01*
X989227Y911556D01*
X993879D01*
Y911579D01*
Y911626D01*
Y911673D01*
X993855Y911767D01*
X993832Y912026D01*
X993785Y912308D01*
X993691Y912636D01*
X993574Y912989D01*
X993385Y913318D01*
X993174Y913600D01*
X993150Y913623D01*
X993057Y913717D01*
X992916Y913835D01*
X992728Y913976D01*
X992493Y914093D01*
X992211Y914211D01*
X991905Y914305D01*
X991553Y914328D01*
D02*
G37*
G36*
X1050079D02*
X1050032D01*
X1049891Y914305D01*
X1049679Y914281D01*
X1049421Y914211D01*
X1049139Y914117D01*
X1048810Y913952D01*
X1048505Y913741D01*
X1048223Y913435D01*
X1048199Y913388D01*
X1048105Y913271D01*
X1048011Y913059D01*
X1047870Y912777D01*
X1047753Y912402D01*
X1047635Y911955D01*
X1047542Y911415D01*
X1047518Y910780D01*
Y910757D01*
Y910710D01*
Y910592D01*
X1047542Y910475D01*
Y910334D01*
X1047565Y910146D01*
X1047612Y909747D01*
X1047682Y909300D01*
X1047823Y908854D01*
X1047988Y908431D01*
X1048223Y908055D01*
X1048246Y908008D01*
X1048364Y907914D01*
X1048505Y907773D01*
X1048716Y907632D01*
X1048975Y907468D01*
X1049280Y907327D01*
X1049632Y907233D01*
X1050008Y907186D01*
X1050055D01*
X1050196Y907209D01*
X1050408Y907233D01*
X1050690Y907303D01*
X1050995Y907397D01*
X1051301Y907562D01*
X1051630Y907773D01*
X1051935Y908078D01*
X1051958Y908125D01*
X1052053Y908243D01*
X1052194Y908454D01*
X1052334Y908736D01*
X1052475Y909112D01*
X1052616Y909559D01*
X1052710Y910099D01*
X1052734Y910710D01*
Y910733D01*
Y910780D01*
Y910874D01*
Y911015D01*
X1052710Y911156D01*
X1052687Y911344D01*
X1052640Y911744D01*
X1052546Y912190D01*
X1052428Y912636D01*
X1052241Y913059D01*
X1051982Y913435D01*
X1051958Y913482D01*
X1051841Y913576D01*
X1051677Y913717D01*
X1051465Y913882D01*
X1051183Y914046D01*
X1050854Y914187D01*
X1050502Y914281D01*
X1050079Y914328D01*
D02*
G37*
G36*
Y890025D02*
X1050032D01*
X1049891Y890001D01*
X1049679Y889978D01*
X1049445Y889907D01*
X1049139Y889813D01*
X1048834Y889649D01*
X1048528Y889437D01*
X1048223Y889132D01*
X1048199Y889085D01*
X1048105Y888968D01*
X1047988Y888756D01*
X1047870Y888474D01*
X1047729Y888098D01*
X1047612Y887652D01*
X1047518Y887112D01*
X1047495Y886501D01*
Y886477D01*
Y886430D01*
Y886313D01*
Y886195D01*
X1047518Y886031D01*
Y885866D01*
X1047565Y885467D01*
X1047612Y885021D01*
X1047706Y884551D01*
X1047847Y884128D01*
X1047917Y883940D01*
X1048011Y883775D01*
Y883752D01*
X1048058Y883728D01*
X1048152Y883587D01*
X1048317Y883399D01*
X1048552Y883188D01*
X1048857Y882953D01*
X1049210Y882765D01*
X1049632Y882624D01*
X1049867Y882600D01*
X1050102Y882577D01*
X1050149D01*
X1050290Y882600D01*
X1050478Y882624D01*
X1050737Y882694D01*
X1051019Y882788D01*
X1051324Y882953D01*
X1051630Y883164D01*
X1051935Y883470D01*
X1051958Y883517D01*
X1052053Y883634D01*
X1052170Y883846D01*
X1052311Y884151D01*
X1052452Y884527D01*
X1052569Y884997D01*
X1052663Y885561D01*
X1052687Y886195D01*
Y886219D01*
Y886289D01*
Y886383D01*
Y886524D01*
X1052663Y886689D01*
X1052640Y886900D01*
X1052593Y887323D01*
X1052499Y887816D01*
X1052381Y888286D01*
X1052194Y888756D01*
X1052076Y888944D01*
X1051935Y889132D01*
X1051911Y889179D01*
X1051794Y889273D01*
X1051653Y889414D01*
X1051442Y889578D01*
X1051160Y889743D01*
X1050854Y889884D01*
X1050478Y889978D01*
X1050079Y890025D01*
D02*
G37*
G36*
X1030014Y886007D02*
X1029991D01*
X1029897Y885960D01*
X1029756Y885937D01*
X1029544Y885866D01*
X1029286Y885796D01*
X1028933Y885702D01*
X1028558Y885608D01*
X1028088Y885514D01*
X1028041D01*
X1027970Y885490D01*
X1027876Y885467D01*
X1027665Y885420D01*
X1027383Y885349D01*
X1027101Y885279D01*
X1026819Y885185D01*
X1026584Y885067D01*
X1026396Y884974D01*
X1026373Y884950D01*
X1026302Y884903D01*
X1026208Y884809D01*
X1026114Y884691D01*
X1025997Y884527D01*
X1025903Y884339D01*
X1025832Y884128D01*
X1025809Y883893D01*
Y883869D01*
Y883775D01*
X1025832Y883658D01*
X1025879Y883517D01*
X1025926Y883329D01*
X1025997Y883141D01*
X1026114Y882953D01*
X1026279Y882765D01*
X1026302Y882741D01*
X1026373Y882694D01*
X1026467Y882624D01*
X1026631Y882530D01*
X1026795Y882436D01*
X1027007Y882365D01*
X1027265Y882318D01*
X1027524Y882295D01*
X1027665D01*
X1027829Y882318D01*
X1028041Y882365D01*
X1028299Y882436D01*
X1028558Y882530D01*
X1028863Y882647D01*
X1029145Y882835D01*
X1029168Y882859D01*
X1029239Y882906D01*
X1029333Y883000D01*
X1029450Y883117D01*
X1029568Y883282D01*
X1029685Y883446D01*
X1029803Y883658D01*
X1029873Y883869D01*
Y883893D01*
X1029897Y883940D01*
X1029920Y884057D01*
X1029944Y884198D01*
X1029967Y884410D01*
X1029991Y884668D01*
X1030014Y884997D01*
Y885373D01*
Y886007D01*
D02*
G37*
G36*
X999823Y893925D02*
X996557D01*
Y890166D01*
X999706D01*
X1000105Y890189D01*
X1000833D01*
X1000974Y890213D01*
X1001115D01*
X1001209Y890236D01*
X1001350Y890260D01*
X1001562Y890330D01*
X1001773Y890401D01*
X1001985Y890495D01*
X1002196Y890612D01*
X1002384Y890777D01*
X1002408Y890800D01*
X1002455Y890871D01*
X1002549Y890965D01*
X1002643Y891129D01*
X1002713Y891317D01*
X1002807Y891529D01*
X1002854Y891787D01*
X1002878Y892069D01*
Y892092D01*
Y892186D01*
X1002854Y892327D01*
X1002831Y892515D01*
X1002784Y892703D01*
X1002690Y892891D01*
X1002596Y893103D01*
X1002455Y893291D01*
X1002431Y893314D01*
X1002384Y893361D01*
X1002267Y893455D01*
X1002149Y893549D01*
X1001961Y893643D01*
X1001750Y893737D01*
X1001491Y893808D01*
X1001209Y893855D01*
X1001186D01*
X1001092Y893878D01*
X1000833D01*
X1000692Y893902D01*
X1000082D01*
X999823Y893925D01*
D02*
G37*
G36*
X999964Y887464D02*
X996557D01*
Y883117D01*
X1000175D01*
X1000528Y883141D01*
X1000904D01*
X1001280Y883164D01*
X1001585Y883188D01*
X1001726D01*
X1001820Y883211D01*
X1001844D01*
X1001938Y883235D01*
X1002079Y883282D01*
X1002243Y883329D01*
X1002431Y883423D01*
X1002643Y883540D01*
X1002831Y883681D01*
X1003018Y883846D01*
X1003042Y883869D01*
X1003089Y883940D01*
X1003159Y884057D01*
X1003253Y884222D01*
X1003347Y884410D01*
X1003418Y884644D01*
X1003465Y884927D01*
X1003488Y885232D01*
Y885255D01*
Y885349D01*
X1003465Y885490D01*
X1003441Y885655D01*
X1003394Y885866D01*
X1003324Y886054D01*
X1003230Y886266D01*
X1003112Y886477D01*
X1003089Y886501D01*
X1003042Y886571D01*
X1002971Y886665D01*
X1002854Y886759D01*
X1002713Y886900D01*
X1002525Y887018D01*
X1002314Y887135D01*
X1002079Y887229D01*
X1002055D01*
X1001938Y887276D01*
X1001750Y887299D01*
X1001632Y887323D01*
X1001468Y887346D01*
X1001303Y887370D01*
X1001092Y887393D01*
X1000857Y887417D01*
X1000575D01*
X1000293Y887440D01*
X999964Y887464D01*
D02*
G37*
G36*
X1015001Y889884D02*
X1014883D01*
X1014789Y889860D01*
X1014578Y889837D01*
X1014296Y889766D01*
X1013967Y889649D01*
X1013615Y889484D01*
X1013262Y889250D01*
X1012933Y888944D01*
X1012910Y888897D01*
X1012816Y888780D01*
X1012675Y888545D01*
X1012534Y888263D01*
X1012370Y887887D01*
X1012252Y887417D01*
X1012158Y886877D01*
X1012111Y886266D01*
Y886242D01*
Y886195D01*
Y886101D01*
X1012134Y885984D01*
Y885819D01*
X1012158Y885655D01*
X1012205Y885279D01*
X1012322Y884833D01*
X1012463Y884386D01*
X1012651Y883940D01*
X1012933Y883564D01*
X1012980Y883517D01*
X1013074Y883423D01*
X1013262Y883282D01*
X1013521Y883117D01*
X1013803Y882929D01*
X1014155Y882788D01*
X1014555Y882694D01*
X1015001Y882647D01*
X1015118D01*
X1015212Y882671D01*
X1015424Y882694D01*
X1015706Y882765D01*
X1016035Y882882D01*
X1016387Y883023D01*
X1016716Y883258D01*
X1017045Y883564D01*
X1017092Y883611D01*
X1017186Y883728D01*
X1017303Y883963D01*
X1017468Y884245D01*
X1017632Y884644D01*
X1017750Y885091D01*
X1017844Y885655D01*
X1017891Y886266D01*
Y886289D01*
Y886336D01*
Y886430D01*
X1017867Y886548D01*
Y886689D01*
X1017844Y886877D01*
X1017797Y887253D01*
X1017679Y887675D01*
X1017538Y888122D01*
X1017327Y888568D01*
X1017045Y888944D01*
X1016998Y888991D01*
X1016904Y889085D01*
X1016716Y889250D01*
X1016481Y889414D01*
X1016176Y889578D01*
X1015847Y889743D01*
X1015447Y889837D01*
X1015001Y889884D01*
D02*
G37*
G36*
X1098570Y643316D02*
X1098394D01*
X1098253Y643281D01*
X1097935Y643246D01*
X1097512Y643140D01*
X1097019Y642964D01*
X1096490Y642717D01*
X1095961Y642364D01*
X1095468Y641906D01*
X1095432Y641835D01*
X1095291Y641659D01*
X1095080Y641307D01*
X1094868Y640884D01*
X1094621Y640320D01*
X1094445Y639614D01*
X1094304Y638803D01*
X1094234Y637887D01*
Y637852D01*
Y637781D01*
Y637640D01*
X1094269Y637464D01*
Y637217D01*
X1094304Y636970D01*
X1094375Y636406D01*
X1094551Y635736D01*
X1094762Y635066D01*
X1095044Y634397D01*
X1095468Y633833D01*
X1095538Y633762D01*
X1095679Y633621D01*
X1095961Y633410D01*
X1096349Y633163D01*
X1096772Y632881D01*
X1097301Y632669D01*
X1097900Y632528D01*
X1098570Y632458D01*
X1098746D01*
X1098887Y632493D01*
X1099205Y632528D01*
X1099628Y632634D01*
X1100121Y632810D01*
X1100650Y633022D01*
X1101144Y633374D01*
X1101637Y633833D01*
X1101708Y633903D01*
X1101849Y634079D01*
X1102025Y634432D01*
X1102272Y634855D01*
X1102519Y635454D01*
X1102695Y636124D01*
X1102836Y636970D01*
X1102906Y637887D01*
Y637922D01*
Y637993D01*
Y638134D01*
X1102871Y638310D01*
Y638521D01*
X1102836Y638803D01*
X1102765Y639368D01*
X1102589Y640002D01*
X1102378Y640672D01*
X1102060Y641342D01*
X1101637Y641906D01*
X1101567Y641976D01*
X1101426Y642117D01*
X1101144Y642364D01*
X1100791Y642611D01*
X1100333Y642858D01*
X1099839Y643105D01*
X1099240Y643246D01*
X1098570Y643316D01*
D02*
G37*
G36*
X1036838Y643528D02*
X1036591D01*
X1036309Y643457D01*
X1035957Y643387D01*
X1035569Y643246D01*
X1035146Y643069D01*
X1034723Y642787D01*
X1034335Y642400D01*
X1034300Y642364D01*
X1034194Y642188D01*
X1034018Y641941D01*
X1033841Y641589D01*
X1033630Y641166D01*
X1033489Y640637D01*
X1033383Y640037D01*
X1033348Y639368D01*
X1040328D01*
Y639403D01*
Y639473D01*
Y639544D01*
X1040293Y639685D01*
X1040258Y640073D01*
X1040187Y640496D01*
X1040046Y640989D01*
X1039870Y641518D01*
X1039588Y642012D01*
X1039271Y642435D01*
X1039236Y642470D01*
X1039094Y642611D01*
X1038883Y642787D01*
X1038601Y642999D01*
X1038248Y643175D01*
X1037825Y643351D01*
X1037367Y643492D01*
X1036838Y643528D01*
D02*
G37*
G36*
X588192Y647228D02*
X587980D01*
X587734Y647157D01*
X587452Y647087D01*
X587099Y646981D01*
X586746Y646769D01*
X586394Y646523D01*
X586041Y646170D01*
X586006Y646135D01*
X585900Y645959D01*
X585759Y645712D01*
X585618Y645359D01*
X585477Y644901D01*
X585336Y644302D01*
X585230Y643597D01*
X585195Y642786D01*
Y642750D01*
Y642680D01*
Y642574D01*
Y642398D01*
X585230Y641975D01*
X585301Y641481D01*
X585407Y640882D01*
X585583Y640318D01*
X585795Y639754D01*
X586112Y639295D01*
X586147Y639260D01*
X586288Y639119D01*
X586465Y638943D01*
X586746Y638767D01*
X587099Y638555D01*
X587487Y638379D01*
X587945Y638238D01*
X588439Y638203D01*
X588509D01*
X588650Y638238D01*
X588897Y638273D01*
X589214Y638344D01*
X589567Y638449D01*
X589955Y638661D01*
X590342Y638908D01*
X590695Y639260D01*
X590730Y639295D01*
X590836Y639472D01*
X591012Y639719D01*
X591189Y640036D01*
X591330Y640494D01*
X591506Y641023D01*
X591612Y641657D01*
X591647Y642398D01*
Y642433D01*
Y642504D01*
Y642609D01*
Y642786D01*
X591576Y643174D01*
X591506Y643702D01*
X591400Y644266D01*
X591189Y644866D01*
X590942Y645430D01*
X590589Y645959D01*
X590554Y646029D01*
X590413Y646170D01*
X590201Y646347D01*
X589920Y646593D01*
X589567Y646840D01*
X589144Y647016D01*
X588685Y647157D01*
X588192Y647228D01*
D02*
G37*
G36*
X550927D02*
X550786D01*
X550610Y647193D01*
X550434Y647157D01*
X550187Y647087D01*
X549940Y646981D01*
X549658Y646840D01*
X549411Y646664D01*
X549376Y646628D01*
X549305Y646558D01*
X549200Y646417D01*
X549059Y646241D01*
X548882Y645959D01*
X548741Y645641D01*
X548565Y645218D01*
X548424Y644725D01*
Y644689D01*
X548389Y644654D01*
Y644513D01*
X548354Y644372D01*
X548318Y644161D01*
X548283Y643914D01*
X548248Y643632D01*
X548213Y643279D01*
X548142Y642856D01*
X548107Y642433D01*
X548072Y641904D01*
X548036Y641376D01*
X548001Y640741D01*
Y640106D01*
X547966Y639366D01*
Y638590D01*
Y638555D01*
Y638414D01*
Y638167D01*
Y637885D01*
Y637533D01*
X548001Y637145D01*
Y636687D01*
X548036Y636228D01*
X548072Y635241D01*
X548142Y634254D01*
X548177Y633796D01*
X548248Y633373D01*
X548318Y632985D01*
X548389Y632632D01*
X548424Y632562D01*
X548459Y632385D01*
X548565Y632103D01*
X548671Y631786D01*
X548847Y631433D01*
X549023Y631081D01*
X549235Y630764D01*
X549446Y630517D01*
X549482Y630482D01*
X549552Y630446D01*
X549693Y630341D01*
X549870Y630270D01*
X550081Y630164D01*
X550328Y630059D01*
X550610Y630023D01*
X550927Y629988D01*
X551068D01*
X551245Y630023D01*
X551421Y630059D01*
X551668Y630129D01*
X551914Y630200D01*
X552161Y630341D01*
X552408Y630517D01*
X552443Y630552D01*
X552514Y630623D01*
X552655Y630764D01*
X552796Y630975D01*
X552937Y631222D01*
X553113Y631575D01*
X553289Y631962D01*
X553430Y632456D01*
Y632491D01*
X553466Y632526D01*
Y632668D01*
X553501Y632808D01*
X553536Y633020D01*
X553571Y633267D01*
X553642Y633549D01*
X553677Y633901D01*
X553712Y634289D01*
X553783Y634748D01*
X553818Y635241D01*
X553853Y635805D01*
X553889Y636404D01*
Y637074D01*
X553924Y637815D01*
Y638590D01*
Y638626D01*
Y638767D01*
Y639013D01*
Y639295D01*
Y639648D01*
X553889Y640036D01*
Y640494D01*
X553853Y640952D01*
X553818Y641940D01*
X553748Y642891D01*
X553677Y643350D01*
X553607Y643808D01*
X553536Y644196D01*
X553466Y644513D01*
Y644548D01*
X553430Y644584D01*
X553395Y644760D01*
X553289Y645042D01*
X553184Y645395D01*
X553007Y645747D01*
X552831Y646100D01*
X552620Y646417D01*
X552408Y646664D01*
X552373Y646699D01*
X552302Y646769D01*
X552161Y646840D01*
X551985Y646946D01*
X551773Y647052D01*
X551527Y647157D01*
X551245Y647193D01*
X550927Y647228D01*
D02*
G37*
G36*
X1120384Y1009359D02*
X1118128D01*
Y1001916D01*
X1120440D01*
X1120539Y1001930D01*
X1120750Y1001944D01*
X1120990Y1001958D01*
X1121244Y1001986D01*
X1121497Y1002029D01*
X1121709Y1002085D01*
X1121737Y1002099D01*
X1121808Y1002113D01*
X1121906Y1002156D01*
X1122033Y1002212D01*
X1122174Y1002297D01*
X1122315Y1002381D01*
X1122456Y1002480D01*
X1122597Y1002593D01*
X1122611Y1002621D01*
X1122668Y1002677D01*
X1122752Y1002776D01*
X1122851Y1002917D01*
X1122964Y1003100D01*
X1123091Y1003312D01*
X1123203Y1003551D01*
X1123302Y1003819D01*
Y1003833D01*
X1123316Y1003861D01*
X1123330Y1003904D01*
X1123344Y1003960D01*
X1123358Y1004031D01*
X1123387Y1004129D01*
X1123415Y1004228D01*
X1123443Y1004341D01*
X1123485Y1004623D01*
X1123528Y1004947D01*
X1123556Y1005313D01*
X1123570Y1005708D01*
Y1005722D01*
Y1005779D01*
Y1005849D01*
X1123556Y1005962D01*
Y1006089D01*
X1123542Y1006230D01*
X1123528Y1006399D01*
X1123513Y1006568D01*
X1123443Y1006949D01*
X1123358Y1007343D01*
X1123231Y1007710D01*
X1123147Y1007893D01*
X1123062Y1008048D01*
Y1008062D01*
X1123034Y1008090D01*
X1123006Y1008133D01*
X1122978Y1008189D01*
X1122865Y1008330D01*
X1122724Y1008499D01*
X1122541Y1008682D01*
X1122329Y1008866D01*
X1122090Y1009021D01*
X1121836Y1009148D01*
X1121808Y1009162D01*
X1121737Y1009176D01*
X1121610Y1009218D01*
X1121427Y1009260D01*
X1121201Y1009289D01*
X1120919Y1009331D01*
X1120750Y1009345D01*
X1120567D01*
X1120384Y1009359D01*
D02*
G37*
G36*
X1093825Y1009571D02*
X1093698D01*
X1093599Y1009557D01*
X1093473Y1009542D01*
X1093346Y1009514D01*
X1093191Y1009486D01*
X1093022Y1009458D01*
X1092655Y1009345D01*
X1092458Y1009260D01*
X1092260Y1009176D01*
X1092049Y1009063D01*
X1091852Y1008936D01*
X1091654Y1008795D01*
X1091471Y1008626D01*
X1091457Y1008612D01*
X1091429Y1008584D01*
X1091386Y1008527D01*
X1091316Y1008443D01*
X1091245Y1008344D01*
X1091161Y1008217D01*
X1091076Y1008062D01*
X1090977Y1007879D01*
X1090893Y1007682D01*
X1090794Y1007442D01*
X1090710Y1007188D01*
X1090639Y1006906D01*
X1090569Y1006596D01*
X1090526Y1006244D01*
X1090498Y1005877D01*
X1090484Y1005482D01*
Y1005468D01*
Y1005412D01*
Y1005313D01*
X1090498Y1005186D01*
X1090512Y1005045D01*
X1090540Y1004876D01*
X1090569Y1004679D01*
X1090597Y1004482D01*
X1090710Y1004031D01*
X1090794Y1003805D01*
X1090879Y1003565D01*
X1090992Y1003340D01*
X1091118Y1003114D01*
X1091259Y1002903D01*
X1091429Y1002705D01*
X1091443Y1002691D01*
X1091471Y1002663D01*
X1091527Y1002607D01*
X1091598Y1002550D01*
X1091696Y1002466D01*
X1091809Y1002381D01*
X1091936Y1002297D01*
X1092077Y1002198D01*
X1092246Y1002099D01*
X1092430Y1002015D01*
X1092627Y1001930D01*
X1092838Y1001845D01*
X1093064Y1001789D01*
X1093289Y1001733D01*
X1093543Y1001704D01*
X1093811Y1001690D01*
X1093882D01*
X1093952Y1001704D01*
X1094051D01*
X1094177Y1001719D01*
X1094318Y1001747D01*
X1094488Y1001775D01*
X1094657Y1001817D01*
X1094854Y1001874D01*
X1095037Y1001944D01*
X1095249Y1002015D01*
X1095446Y1002113D01*
X1095644Y1002240D01*
X1095841Y1002367D01*
X1096038Y1002522D01*
X1096222Y1002705D01*
X1096236Y1002719D01*
X1096264Y1002748D01*
X1096306Y1002818D01*
X1096377Y1002903D01*
X1096447Y1003001D01*
X1096518Y1003128D01*
X1096602Y1003283D01*
X1096701Y1003453D01*
X1096786Y1003650D01*
X1096870Y1003875D01*
X1096941Y1004115D01*
X1097025Y1004369D01*
X1097082Y1004651D01*
X1097124Y1004961D01*
X1097152Y1005285D01*
X1097166Y1005623D01*
Y1005638D01*
Y1005680D01*
Y1005736D01*
Y1005821D01*
X1097152Y1005919D01*
Y1006046D01*
X1097138Y1006173D01*
X1097110Y1006328D01*
X1097067Y1006653D01*
X1096997Y1006991D01*
X1096898Y1007357D01*
X1096757Y1007696D01*
Y1007710D01*
X1096743Y1007738D01*
X1096715Y1007780D01*
X1096687Y1007837D01*
X1096588Y1008006D01*
X1096461Y1008203D01*
X1096292Y1008429D01*
X1096081Y1008654D01*
X1095841Y1008880D01*
X1095573Y1009077D01*
X1095559D01*
X1095545Y1009105D01*
X1095503Y1009119D01*
X1095432Y1009162D01*
X1095362Y1009190D01*
X1095277Y1009232D01*
X1095066Y1009331D01*
X1094812Y1009416D01*
X1094516Y1009500D01*
X1094177Y1009557D01*
X1093825Y1009571D01*
D02*
G37*
%LPD*%
D21*
X572770Y786130D02*
G03*
X572770Y786130I-91440J0D01*
G01*
X588010D02*
G03*
X588010Y786130I-106680J0D01*
G01*
X609829Y868680D02*
G03*
X609829Y868680I-14199J0D01*
G01*
Y703580D02*
G03*
X609829Y703580I-14199J0D01*
G01*
X343129Y868680D02*
G03*
X343129Y868680I-14199J0D01*
G01*
X812800Y812800D02*
G03*
X812800Y812800I-57150J0D01*
G01*
X325120Y981710D02*
G03*
X325120Y981710I-5080J0D01*
G01*
Y1134110D02*
G03*
X325120Y1134110I-5080J0D01*
G01*
X704850Y604520D02*
G03*
X819150Y604520I57150J0D01*
G01*
X711200D02*
G03*
X812800Y604520I50800J0D01*
G01*
X668020Y976630D02*
X675640D01*
X1122680Y1139190D02*
X1130300D01*
X1126490Y1135380D02*
Y1143000D01*
X913130Y1120140D02*
X963930D01*
X913130Y1043940D02*
Y1120140D01*
Y1043940D02*
X963930D01*
Y1120140D01*
X1082040Y1145540D02*
X1132840D01*
X1082040Y1018540D02*
Y1145540D01*
Y1018540D02*
X1132840D01*
Y1145540D01*
X878840Y717550D02*
Y768350D01*
Y717550D02*
X955040D01*
Y768350D01*
X878840D02*
X955040D01*
X941705Y664210D02*
X944880Y651510D01*
X906780D02*
X909955Y638810D01*
X944880Y651510D02*
X949960D01*
X901700D02*
X906780D01*
X935355Y638810D02*
X941705Y664210D01*
X929005D02*
X935355Y638810D01*
X922655D02*
X929005Y664210D01*
X916305D02*
X922655Y638810D01*
X909955D02*
X916305Y664210D01*
X906780Y680720D02*
X909955Y668020D01*
X941705Y693420D02*
X944880Y680720D01*
X901700D02*
X906780D01*
X944880D02*
X949960D01*
X909955Y668020D02*
X916305Y693420D01*
X922655Y668020D01*
X929005Y693420D01*
X935355Y668020D01*
X941705Y693420D01*
X944880Y721360D02*
Y728980D01*
X941070Y725170D02*
X948690D01*
X1031240Y812800D02*
X1132840D01*
X1031240Y736600D02*
X1132840D01*
X1031240Y793750D02*
Y812800D01*
Y736600D02*
Y755650D01*
X1132840Y831850D02*
X1247140D01*
Y704850D02*
Y844550D01*
X1132840Y717550D02*
X1247140D01*
X1132840D02*
Y831850D01*
X1266190Y825500D02*
X1291590D01*
Y723900D02*
Y825500D01*
X1266190Y723900D02*
X1291590D01*
X1256665Y844550D02*
X1266190Y835025D01*
X1257300Y704850D02*
X1266190Y713740D01*
X1247140Y704850D02*
X1257300D01*
X1266190Y713740D02*
Y723900D01*
X1247140Y844550D02*
X1256665D01*
X1266190Y825500D02*
Y835025D01*
Y723900D02*
Y825500D01*
X659130Y894080D02*
X671830Y881380D01*
X659130Y678180D02*
X671830Y690880D01*
Y881380D01*
X303530Y894080D02*
X659130D01*
X290830Y881380D02*
X303530Y894080D01*
X290830Y690880D02*
Y881380D01*
Y690880D02*
X303530Y678180D01*
X659130D01*
X582930Y817880D02*
X608330D01*
Y754380D02*
Y817880D01*
X582930Y754380D02*
X608330D01*
X745490Y1007110D02*
X802640D01*
X745490Y988060D02*
X802640D01*
Y1032510D01*
X770890D02*
X802640D01*
X770890D02*
Y1057910D01*
X802640D01*
Y1083310D01*
X770890D02*
X802640D01*
X770890D02*
Y1108710D01*
X802640D01*
Y1127760D01*
X745490D02*
X802640D01*
X567690Y969010D02*
X732790D01*
X567690D02*
Y1146810D01*
X732790D01*
Y962660D02*
X808990D01*
X732790D02*
Y1153160D01*
X808990D01*
X554990Y956310D02*
X808990D01*
X554990D02*
Y1159510D01*
X808990D01*
X313690Y1032510D02*
Y1038860D01*
X300990Y1032510D02*
X313690D01*
X300990D02*
Y1038860D01*
X313690D01*
X300990Y1083310D02*
X313690D01*
X300990Y1076960D02*
Y1083310D01*
Y1076960D02*
X313690D01*
Y1083310D01*
X339090Y1121410D02*
Y1146810D01*
X300990Y1121410D02*
X339090D01*
X300990D02*
Y1146810D01*
X339090D01*
X300990Y994410D02*
X339090D01*
X300990Y969010D02*
Y994410D01*
Y969010D02*
X339090D01*
Y994410D01*
X288290Y1019810D02*
X339090D01*
Y1096010D01*
X288290D02*
X339090D01*
X288290Y905510D02*
X808990D01*
Y1210310D01*
X288290Y905510D02*
Y1210310D01*
X808990D01*
X704850Y655320D02*
X819150D01*
X704850Y604520D02*
Y655320D01*
X819150Y604520D02*
Y655320D01*
X590550Y1055370D02*
Y1144270D01*
Y966470D02*
Y1055370D01*
Y966470D02*
X831850D01*
Y1144270D01*
X819150D02*
X831850D01*
X590550D02*
X819150D01*
X289560Y1026160D02*
Y1089660D01*
X295910Y974090D02*
Y1026160D01*
Y1089660D02*
Y1141730D01*
X576580Y974090D02*
Y988060D01*
Y1127760D02*
Y1141730D01*
X563880Y988060D02*
X576580D01*
X563880D02*
Y1127760D01*
X576580D01*
X302260Y1038860D02*
X314960D01*
X302260Y1076960D02*
X314960D01*
X289560Y1026160D02*
X327660D01*
Y1089660D01*
X289560D02*
X327660D01*
X295910Y1141730D02*
X576580D01*
X295910Y974090D02*
X576580D01*
X464402Y836922D02*
X498258D01*
X481330Y853850D02*
Y819994D01*
X402616Y795262D02*
Y783835D01*
X410234D01*
X414043Y795262D02*
X417851D01*
X415947D01*
Y783835D01*
X414043D01*
X417851D01*
X423565Y795262D02*
X431182D01*
X427373D01*
Y783835D01*
X434991Y795262D02*
Y783835D01*
Y789548D01*
X442608D01*
Y795262D01*
Y783835D01*
X446417Y795262D02*
X450226D01*
X448322D01*
Y783835D01*
X446417D01*
X450226D01*
X455939Y795262D02*
Y785740D01*
X457844Y783835D01*
X461652D01*
X463557Y785740D01*
Y795262D01*
X467365Y783835D02*
Y795262D01*
X471174Y791453D01*
X474983Y795262D01*
Y783835D01*
X490218Y795262D02*
Y783835D01*
X495931D01*
X497836Y785740D01*
Y787644D01*
X495931Y789548D01*
X490218D01*
X495931D01*
X497836Y791453D01*
Y793357D01*
X495931Y795262D01*
X490218D01*
X501645Y783835D02*
Y791453D01*
X505453Y795262D01*
X509262Y791453D01*
Y783835D01*
Y789548D01*
X501645D01*
X513071Y795262D02*
X520688D01*
X516880D01*
Y783835D01*
X524497Y795262D02*
X532115D01*
X528306D01*
Y783835D01*
X543541Y795262D02*
X535923D01*
Y783835D01*
X543541D01*
X535923Y789548D02*
X539732D01*
X547350Y783835D02*
Y795262D01*
X553063D01*
X554967Y793357D01*
Y789548D01*
X553063Y787644D01*
X547350D01*
X551158D02*
X554967Y783835D01*
X558776Y795262D02*
Y793357D01*
X562585Y789548D01*
X566394Y793357D01*
Y795262D01*
X562585Y789548D02*
Y783835D01*
X459748Y773549D02*
X457844Y775454D01*
X454035D01*
X452130Y773549D01*
Y765932D01*
X454035Y764028D01*
X457844D01*
X459748Y765932D01*
X463557Y764028D02*
Y775454D01*
X469270D01*
X471174Y773549D01*
Y769741D01*
X469270Y767836D01*
X463557D01*
X467365D02*
X471174Y764028D01*
X482601D02*
X474983D01*
X482601Y771645D01*
Y773549D01*
X480696Y775454D01*
X476888D01*
X474983Y773549D01*
X486409D02*
X488314Y775454D01*
X492122D01*
X494027Y773549D01*
Y765932D01*
X492122Y764028D01*
X488314D01*
X486409Y765932D01*
Y773549D01*
X497836D02*
X499740Y775454D01*
X503549D01*
X505453Y773549D01*
Y771645D01*
X503549Y769741D01*
X501645D01*
X503549D01*
X505453Y767836D01*
Y765932D01*
X503549Y764028D01*
X499740D01*
X497836Y765932D01*
X516880Y764028D02*
X509262D01*
X516880Y771645D01*
Y773549D01*
X514975Y775454D01*
X511166D01*
X509262Y773549D01*
X474983Y753742D02*
X476888Y755646D01*
X480696D01*
X482601Y753742D01*
Y751837D01*
X480696Y749933D01*
X478792D01*
X480696D01*
X482601Y748029D01*
Y746124D01*
X480696Y744220D01*
X476888D01*
X474983Y746124D01*
X486409Y755646D02*
Y748029D01*
X490218Y744220D01*
X494027Y748029D01*
Y755646D01*
X916940Y1022350D02*
Y1032507D01*
X922018Y1037585D01*
X927097Y1032507D01*
Y1022350D01*
Y1029967D01*
X916940D01*
X932175Y1022350D02*
Y1037585D01*
X942332Y1022350D01*
Y1037585D01*
X947410D02*
X957567D01*
X952488D01*
Y1022350D01*
X962645D02*
X967724D01*
X965184D01*
Y1037585D01*
X962645Y1035046D01*
X960120Y741675D02*
Y726440D01*
X967738D01*
X970277Y728979D01*
Y731518D01*
X967738Y734057D01*
X960120D01*
X967738D01*
X970277Y736597D01*
Y739136D01*
X967738Y741675D01*
X960120D01*
X975355D02*
Y726440D01*
X985512D01*
X990590D02*
X995668D01*
X993129D01*
Y741675D01*
X990590Y739136D01*
X909320Y619760D02*
X911859D01*
X910590D01*
Y627378D01*
X909320Y626108D01*
X920746Y619760D02*
X915668D01*
X920746Y624838D01*
Y626108D01*
X919477Y627378D01*
X916937D01*
X915668Y626108D01*
X923286D02*
X924555Y627378D01*
X927094D01*
X928364Y626108D01*
Y621030D01*
X927094Y619760D01*
X924555D01*
X923286Y621030D01*
Y626108D01*
X930903Y619760D02*
Y627378D01*
Y622299D02*
X934712Y624838D01*
X930903Y622299D02*
X934712Y619760D01*
X910221Y706206D02*
X911490Y707475D01*
X914030D01*
X915299Y706206D01*
Y704936D01*
X914030Y703667D01*
X912760D01*
X914030D01*
X915299Y702397D01*
Y701127D01*
X914030Y699858D01*
X911490D01*
X910221Y701127D01*
X917838Y706206D02*
X919108Y707475D01*
X921647D01*
X922917Y706206D01*
Y701127D01*
X921647Y699858D01*
X919108D01*
X917838Y701127D01*
Y706206D01*
X925456D02*
X926725Y707475D01*
X929265D01*
X930534Y706206D01*
Y701127D01*
X929265Y699858D01*
X926725D01*
X925456Y701127D01*
Y706206D01*
X933073Y699858D02*
Y707475D01*
Y702397D02*
X936882Y704936D01*
X933073Y702397D02*
X936882Y699858D01*
X723900Y786128D02*
X730671D01*
X727286Y789514D02*
Y782743D01*
X734057Y791207D02*
Y781050D01*
X739135D01*
X740828Y782743D01*
Y784436D01*
X739135Y786128D01*
X734057D01*
X739135D01*
X740828Y787821D01*
Y789514D01*
X739135Y791207D01*
X734057D01*
X744213D02*
Y782743D01*
X745906Y781050D01*
X749292D01*
X750985Y782743D01*
Y791207D01*
X754370D02*
X761141D01*
Y789514D01*
X754370Y782743D01*
Y781050D01*
X761141D01*
X764527Y791207D02*
X771298D01*
Y789514D01*
X764527Y782743D01*
Y781050D01*
X771298D01*
X781455Y791207D02*
X774684D01*
Y781050D01*
X781455D01*
X774684Y786128D02*
X778069D01*
X784840Y781050D02*
Y791207D01*
X789919D01*
X791611Y789514D01*
Y786128D01*
X789919Y784436D01*
X784840D01*
X788226D02*
X791611Y781050D01*
X643887Y1134110D02*
X631190D01*
X643887D02*
Y1129878D01*
X643283Y1128064D01*
X642073Y1126854D01*
X640864Y1126250D01*
X639050Y1125645D01*
X636027D01*
X634213Y1126250D01*
X633004Y1126854D01*
X631795Y1128064D01*
X631190Y1129878D01*
Y1134110D01*
X643887Y1114943D02*
Y1122803D01*
X631190D01*
Y1114943D01*
X637841Y1122803D02*
Y1117966D01*
X643887Y1112827D02*
X631190Y1107990D01*
X643887Y1103153D02*
X631190Y1107990D01*
X643887Y1101520D02*
X631190D01*
X643887Y1093055D02*
X635422Y1101520D01*
X638446Y1098497D02*
X631190Y1093055D01*
X643887Y1090214D02*
X631190D01*
X643887Y1083321D02*
X631190D01*
X643887Y1087553D02*
Y1079088D01*
Y1067600D02*
X631190Y1062763D01*
X643887Y1057926D02*
X631190Y1062763D01*
X641469Y1056294D02*
X642073Y1055085D01*
X643887Y1053271D01*
X631190D01*
X636632Y1037006D02*
Y1026123D01*
X643887Y1012398D02*
X631190D01*
X643887D02*
Y1008165D01*
X643283Y1006351D01*
X642073Y1005142D01*
X640864Y1004537D01*
X639050Y1003933D01*
X636027D01*
X634213Y1004537D01*
X633004Y1005142D01*
X631795Y1006351D01*
X631190Y1008165D01*
Y1012398D01*
X643887Y997463D02*
X643283Y998672D01*
X642073Y999882D01*
X640864Y1000486D01*
X639050Y1001091D01*
X636027D01*
X634213Y1000486D01*
X633004Y999882D01*
X631795Y998672D01*
X631190Y997463D01*
Y995044D01*
X631795Y993835D01*
X633004Y992626D01*
X634213Y992021D01*
X636027Y991417D01*
X639050D01*
X640864Y992021D01*
X642073Y992626D01*
X643283Y993835D01*
X643887Y995044D01*
Y997463D01*
Y988454D02*
X631190D01*
X643887Y981561D02*
X631190D01*
X643887Y985794D02*
Y977329D01*
X694685Y1092990D02*
Y1108710D01*
X669290D01*
Y1092990D01*
X682592Y1108710D02*
Y1099036D01*
X691057Y1071827D02*
X693475Y1074246D01*
X694685Y1077874D01*
Y1082711D01*
X693475Y1086339D01*
X691057Y1088757D01*
X688638D01*
X686220Y1087548D01*
X685010Y1086339D01*
X683801Y1083920D01*
X681383Y1076665D01*
X680173Y1074246D01*
X678964Y1073037D01*
X676546Y1071827D01*
X672918D01*
X670499Y1074246D01*
X669290Y1077874D01*
Y1082711D01*
X670499Y1086339D01*
X672918Y1088757D01*
X681383Y1066144D02*
Y1055260D01*
X682592Y1051633D01*
X683801Y1050424D01*
X686220Y1049214D01*
X689847D01*
X692266Y1050424D01*
X693475Y1051633D01*
X694685Y1055260D01*
Y1066144D01*
X669290D01*
X694685Y1041112D02*
Y1027810D01*
X685010Y1035066D01*
Y1031438D01*
X683801Y1029019D01*
X682592Y1027810D01*
X678964Y1026601D01*
X676546D01*
X672918Y1027810D01*
X670499Y1030229D01*
X669290Y1033857D01*
Y1037484D01*
X670499Y1041112D01*
X671709Y1042321D01*
X674127Y1043531D01*
X688638Y1019708D02*
X689847D01*
X692266Y1018499D01*
X693475Y1017290D01*
X694685Y1014871D01*
Y1010034D01*
X693475Y1007616D01*
X692266Y1006406D01*
X689847Y1005197D01*
X687429D01*
X685010Y1006406D01*
X681383Y1008825D01*
X669290Y1020917D01*
Y1003988D01*
X623568Y1126490D02*
Y1116333D01*
X628646Y1121412D02*
X618489D01*
X636266Y1012193D02*
X638805Y1014733D01*
Y1019811D01*
X636266Y1022350D01*
X626109D01*
X623570Y1019811D01*
Y1014733D01*
X626109Y1012193D01*
X631188D01*
Y1017272D01*
X623570Y1007115D02*
X638805D01*
X623570Y996958D01*
X638805D01*
Y991880D02*
X623570D01*
Y984262D01*
X626109Y981723D01*
X636266D01*
X638805Y984262D01*
Y991880D01*
X760726Y1101093D02*
X763265Y1103633D01*
Y1108711D01*
X760726Y1111250D01*
X750569D01*
X748030Y1108711D01*
Y1103633D01*
X750569Y1101093D01*
X755648D01*
Y1106172D01*
X748030Y1096015D02*
X763265D01*
X748030Y1085858D01*
X763265D01*
Y1080780D02*
X748030D01*
Y1073162D01*
X750569Y1070623D01*
X760726D01*
X763265Y1073162D01*
Y1080780D01*
X760725Y1027433D02*
Y1037590D01*
X753108D01*
X755647Y1032512D01*
Y1029973D01*
X753108Y1027433D01*
X748029D01*
X745490Y1029973D01*
Y1035051D01*
X748029Y1037590D01*
X760725Y1022355D02*
X750568D01*
X745490Y1017277D01*
X750568Y1012198D01*
X760725D01*
X347131Y1060024D02*
X345438Y1061717D01*
X342053D01*
X340360Y1060024D01*
Y1053253D01*
X342053Y1051560D01*
X345438D01*
X347131Y1053253D01*
X350517Y1061717D02*
Y1051560D01*
Y1056638D01*
X352210Y1058331D01*
X355595D01*
X357288Y1056638D01*
Y1051560D01*
X362366Y1058331D02*
X365752D01*
X367445Y1056638D01*
Y1051560D01*
X362366D01*
X360673Y1053253D01*
X362366Y1054946D01*
X367445D01*
X370830Y1058331D02*
Y1051560D01*
Y1054946D01*
X372523Y1056638D01*
X374216Y1058331D01*
X375909D01*
X384372Y1048174D02*
X386065D01*
X387758Y1049867D01*
Y1058331D01*
X382680D01*
X380987Y1056638D01*
Y1053253D01*
X382680Y1051560D01*
X387758D01*
X391144D02*
X394529D01*
X392836D01*
Y1058331D01*
X391144D01*
X399608Y1051560D02*
Y1058331D01*
X404686D01*
X406379Y1056638D01*
Y1051560D01*
X413150Y1048174D02*
X414843D01*
X416535Y1049867D01*
Y1058331D01*
X411457D01*
X409764Y1056638D01*
Y1053253D01*
X411457Y1051560D01*
X416535D01*
X436849Y1060024D02*
X435156Y1061717D01*
X431771D01*
X430078Y1060024D01*
Y1053253D01*
X431771Y1051560D01*
X435156D01*
X436849Y1053253D01*
X440234Y1051560D02*
X443620D01*
X441927D01*
Y1058331D01*
X440234D01*
X448698D02*
Y1051560D01*
Y1054946D01*
X450391Y1056638D01*
X452084Y1058331D01*
X453777D01*
X465626D02*
X460548D01*
X458855Y1056638D01*
Y1053253D01*
X460548Y1051560D01*
X465626D01*
X469012Y1058331D02*
Y1053253D01*
X470705Y1051560D01*
X475783D01*
Y1058331D01*
X479169Y1051560D02*
X482554D01*
X480861D01*
Y1058331D01*
X479169D01*
X489325Y1060024D02*
Y1058331D01*
X487632D01*
X491018D01*
X489325D01*
Y1053253D01*
X491018Y1051560D01*
X511331D02*
Y1061717D01*
X506253Y1056638D01*
X513024D01*
X516410Y1051560D02*
Y1053253D01*
X518103D01*
Y1051560D01*
X516410D01*
X531645D02*
X524874D01*
X531645Y1058331D01*
Y1060024D01*
X529952Y1061717D01*
X526567D01*
X524874Y1060024D01*
X535031Y1061717D02*
Y1054946D01*
X538416Y1051560D01*
X541802Y1054946D01*
Y1061717D01*
%TF.MD5,8014b9abf0ea2c2defbccc82a6667957*%
M02*
