%TF.GenerationSoftware,Altium Limited,Altium Designer,18.1.6 (161)*%
G04 Layer_Physical_Order=2*
G04 Layer_Color=16711680*
%FSLAX44Y44*%
%MOMM*%
%TF.FileFunction,Copper,L2,Bot,Signal*%
%TF.Part,Single*%
G01*
G75*
%TA.AperFunction,Conductor*%
%ADD10C,0.7620*%
%TA.AperFunction,ComponentPad*%
%ADD11C,2.0000*%
%ADD12R,2.0000X2.0000*%
%ADD13O,2.0000X3.0000*%
%ADD14R,2.0000X3.0000*%
%ADD15R,3.8100X6.3500*%
%ADD16O,3.0000X2.0000*%
%ADD17R,2.0000X2.0000*%
%ADD18R,3.0000X2.0000*%
%ADD19O,2.0000X3.0000*%
%TA.AperFunction,ViaPad*%
%ADD20C,2.0000*%
G36*
X592598Y1221771D02*
X585844Y1215016D01*
X584215Y1212894D01*
X583191Y1210422D01*
X582842Y1207770D01*
X582842Y1207770D01*
Y1202822D01*
X582808Y1202669D01*
X582775Y1201415D01*
X582761Y1201260D01*
X476192D01*
X475989Y1202802D01*
X474965Y1205274D01*
X473336Y1207396D01*
X473336Y1207396D01*
X466986Y1213746D01*
X464864Y1215375D01*
X462392Y1216398D01*
X459740Y1216748D01*
X459740Y1216748D01*
X360680D01*
X360680Y1216748D01*
X358028Y1216398D01*
X355556Y1215375D01*
X353434Y1213746D01*
X329304Y1189616D01*
X327675Y1187494D01*
X326651Y1185022D01*
X326302Y1182370D01*
X326302Y1182370D01*
Y1141088D01*
X325154Y1140545D01*
X324087Y1141420D01*
X321247Y1142939D01*
X318165Y1143874D01*
X314960Y1144189D01*
X311755Y1143874D01*
X308673Y1142939D01*
X305833Y1141420D01*
X303343Y1139377D01*
X301300Y1136888D01*
X299781Y1134047D01*
X298846Y1130965D01*
X298531Y1127760D01*
X298846Y1124555D01*
X299781Y1121473D01*
X301300Y1118633D01*
X303343Y1116143D01*
X305833Y1114100D01*
X308673Y1112581D01*
X311755Y1111646D01*
X314960Y1111331D01*
X318165Y1111646D01*
X321247Y1112581D01*
X324087Y1114100D01*
X325154Y1114975D01*
X326302Y1114432D01*
Y1001388D01*
X325154Y1000845D01*
X324087Y1001720D01*
X321247Y1003239D01*
X318165Y1004174D01*
X314960Y1004489D01*
X311755Y1004174D01*
X308673Y1003239D01*
X305833Y1001720D01*
X303343Y999677D01*
X301300Y997188D01*
X299781Y994347D01*
X298846Y991265D01*
X298531Y988060D01*
X298846Y984855D01*
X299781Y981773D01*
X301300Y978932D01*
X303343Y976443D01*
X305833Y974400D01*
X308673Y972881D01*
X311755Y971946D01*
X314960Y971631D01*
X318165Y971946D01*
X321247Y972881D01*
X324087Y974400D01*
X325154Y975275D01*
X326302Y974732D01*
Y899160D01*
X326302Y899160D01*
X326651Y896508D01*
X327675Y894036D01*
X329304Y891914D01*
X400424Y820794D01*
X402546Y819165D01*
X405018Y818141D01*
X407670Y817792D01*
X407670Y817792D01*
X415503D01*
X416156Y816703D01*
X415351Y815197D01*
X414417Y812115D01*
X414101Y808910D01*
Y798910D01*
X414417Y795705D01*
X415351Y792623D01*
X416870Y789782D01*
X418913Y787293D01*
X421403Y785250D01*
X424243Y783732D01*
X427325Y782797D01*
X430530Y782481D01*
X433735Y782797D01*
X436817Y783732D01*
X439658Y785250D01*
X442147Y787293D01*
X444190Y789782D01*
X445709Y792623D01*
X446643Y795705D01*
X446959Y798910D01*
Y808910D01*
X446643Y812115D01*
X445709Y815197D01*
X444904Y816703D01*
X445557Y817792D01*
X588010D01*
X588010Y817792D01*
X590662Y818141D01*
X593134Y819165D01*
X595256Y820794D01*
X623579Y849117D01*
X624752Y848631D01*
Y775970D01*
X624752Y775970D01*
X625102Y773318D01*
X626125Y770846D01*
X627754Y768724D01*
X636644Y759834D01*
X636644Y759834D01*
X638766Y758205D01*
X641033Y757266D01*
X642513Y755463D01*
X643059Y755015D01*
Y753745D01*
X642513Y753297D01*
X640470Y750807D01*
X638951Y747967D01*
X638017Y744885D01*
X637701Y741680D01*
X638017Y738475D01*
X638951Y735393D01*
X640470Y732552D01*
X642513Y730063D01*
X645003Y728020D01*
X647843Y726501D01*
X650925Y725566D01*
X654130Y725251D01*
X664130D01*
X667335Y725566D01*
X670417Y726501D01*
X673258Y728020D01*
X674200Y728793D01*
X674412Y728894D01*
X674665Y729174D01*
X674845Y729323D01*
X675119Y729505D01*
X675181Y729598D01*
X675747Y730063D01*
X676609Y731113D01*
X678658Y731298D01*
X679009Y731269D01*
X680057Y731119D01*
X681041Y730915D01*
X681965Y730660D01*
X682836Y730354D01*
X683659Y729999D01*
X684442Y729594D01*
X685189Y729136D01*
X686095Y728489D01*
X686463Y728322D01*
X686833Y728020D01*
X689673Y726501D01*
X692755Y725566D01*
X695960Y725251D01*
X699165Y725566D01*
X702247Y726501D01*
X705088Y728020D01*
X707577Y730063D01*
X709620Y732552D01*
X711139Y735393D01*
X712074Y738475D01*
X712389Y741680D01*
X712074Y744885D01*
X711139Y747967D01*
X709620Y750807D01*
X707577Y753297D01*
X706365Y754292D01*
X706819Y755562D01*
X745490D01*
X745490Y755562D01*
X748142Y755911D01*
X750614Y756935D01*
X752736Y758564D01*
X773056Y778884D01*
X774685Y781006D01*
X775708Y783478D01*
X776058Y786130D01*
X776058Y786130D01*
Y847925D01*
X778945Y850812D01*
X798395D01*
X808902Y840305D01*
Y753110D01*
X808902Y753110D01*
X809251Y750458D01*
X810275Y747986D01*
X811904Y745864D01*
X862704Y695064D01*
X864826Y693435D01*
X867298Y692411D01*
X869950Y692062D01*
X950602D01*
X951145Y690914D01*
X950270Y689847D01*
X948752Y687007D01*
X947816Y683925D01*
X947501Y680720D01*
X947816Y677515D01*
X948752Y674433D01*
X950270Y671592D01*
X950572Y671224D01*
X950739Y670855D01*
X951386Y669949D01*
X951844Y669202D01*
X952249Y668419D01*
X952604Y667596D01*
X952910Y666725D01*
X953078Y666115D01*
X952910Y665505D01*
X952604Y664634D01*
X952249Y663811D01*
X951844Y663028D01*
X951386Y662281D01*
X950739Y661375D01*
X950572Y661006D01*
X950270Y660638D01*
X948752Y657797D01*
X947816Y654715D01*
X947501Y651510D01*
X947816Y648305D01*
X948752Y645223D01*
X950270Y642383D01*
X952087Y640168D01*
X951686Y638898D01*
X899974D01*
X899573Y640168D01*
X901390Y642383D01*
X902908Y645223D01*
X903844Y648305D01*
X904159Y651510D01*
X903844Y654715D01*
X902908Y657797D01*
X901390Y660638D01*
X899347Y663127D01*
X896858Y665170D01*
X894017Y666689D01*
X890935Y667624D01*
X887730Y667939D01*
X884525Y667624D01*
X881443Y666689D01*
X878603Y665170D01*
X878234Y664868D01*
X877865Y664701D01*
X876959Y664054D01*
X876211Y663596D01*
X875429Y663191D01*
X874606Y662836D01*
X873735Y662530D01*
X872811Y662275D01*
X872490Y662208D01*
X872169Y662275D01*
X871245Y662530D01*
X870374Y662836D01*
X869551Y663191D01*
X868768Y663596D01*
X868021Y664054D01*
X867115Y664701D01*
X866747Y664868D01*
X866377Y665170D01*
X863537Y666689D01*
X860455Y667624D01*
X857250Y667939D01*
X854045Y667624D01*
X850963Y666689D01*
X848122Y665170D01*
X845633Y663127D01*
X843590Y660638D01*
X842072Y657797D01*
X841136Y654715D01*
X840821Y651510D01*
X841136Y648305D01*
X842072Y645223D01*
X843590Y642383D01*
X845407Y640168D01*
X845006Y638898D01*
X784434D01*
X784025Y640100D01*
X784486Y640454D01*
X793376Y649344D01*
X793376Y649344D01*
X795005Y651466D01*
X796029Y653938D01*
X796281Y655857D01*
X796413Y656453D01*
X796437Y657580D01*
X796496Y658448D01*
X796585Y659184D01*
X796696Y659781D01*
X796814Y660235D01*
X796922Y660544D01*
X796999Y660712D01*
X797004Y660720D01*
X797187Y660900D01*
X797199Y660919D01*
X797218Y660931D01*
X797392Y661191D01*
X797747Y661483D01*
X799790Y663972D01*
X801309Y666813D01*
X802243Y669895D01*
X802559Y673100D01*
X802243Y676305D01*
X801309Y679387D01*
X799790Y682227D01*
X797747Y684717D01*
X795257Y686760D01*
X792417Y688279D01*
X789335Y689213D01*
X786130Y689529D01*
X782925Y689213D01*
X779843Y688279D01*
X777002Y686760D01*
X774513Y684717D01*
X774358Y684528D01*
X772816Y684619D01*
X772411Y685401D01*
X772056Y686224D01*
X771750Y687095D01*
X771495Y688019D01*
X771291Y689003D01*
X771141Y690051D01*
X771048Y691165D01*
X771012Y692519D01*
X770978Y692671D01*
Y697979D01*
X771012Y698131D01*
X771048Y699485D01*
X771141Y700599D01*
X771291Y701647D01*
X771495Y702631D01*
X771750Y703555D01*
X772056Y704426D01*
X772411Y705249D01*
X772816Y706031D01*
X773274Y706779D01*
X773921Y707685D01*
X774088Y708054D01*
X774390Y708422D01*
X775909Y711263D01*
X776843Y714345D01*
X777159Y717550D01*
X776843Y720755D01*
X775909Y723837D01*
X774390Y726677D01*
X772347Y729167D01*
X769857Y731210D01*
X767017Y732729D01*
X763935Y733663D01*
X760730Y733979D01*
X757525Y733663D01*
X754443Y732729D01*
X751602Y731210D01*
X749113Y729167D01*
X747070Y726677D01*
X745552Y723837D01*
X744616Y720755D01*
X744301Y717550D01*
X744616Y714345D01*
X745552Y711263D01*
X747070Y708422D01*
X747372Y708054D01*
X747539Y707685D01*
X748186Y706779D01*
X748644Y706031D01*
X749049Y705249D01*
X749404Y704426D01*
X749710Y703555D01*
X749965Y702631D01*
X750169Y701647D01*
X750319Y700600D01*
X750412Y699485D01*
X750448Y698131D01*
X750482Y697979D01*
Y692671D01*
X750448Y692519D01*
X750412Y691165D01*
X750319Y690051D01*
X750169Y689003D01*
X749965Y688019D01*
X749710Y687095D01*
X749404Y686224D01*
X749049Y685401D01*
X748644Y684619D01*
X747102Y684528D01*
X746947Y684717D01*
X745572Y685846D01*
X745229Y688452D01*
X744205Y690924D01*
X742576Y693046D01*
X734956Y700666D01*
X732834Y702295D01*
X730362Y703318D01*
X727710Y703668D01*
X727710Y703668D01*
X619760D01*
X617108Y703318D01*
X614636Y702295D01*
X612514Y700666D01*
X612514Y700666D01*
X585035Y673188D01*
X486845D01*
X459366Y700666D01*
X457244Y702295D01*
X454772Y703318D01*
X452120Y703668D01*
X452120Y703668D01*
X312420D01*
X309768Y703318D01*
X307296Y702295D01*
X305174Y700666D01*
X294609Y690101D01*
X293436Y690587D01*
X293436Y1204586D01*
X311793Y1222944D01*
X592113D01*
X592598Y1221771D01*
D02*
G37*
G36*
X622491Y1194849D02*
X614490D01*
X614526Y1194889D01*
X614558Y1195010D01*
X614587Y1195212D01*
X614611Y1195494D01*
X614672Y1197429D01*
X614680Y1198880D01*
X622300D01*
X622491Y1194849D01*
D02*
G37*
G36*
X596938Y1201046D02*
X597052Y1199745D01*
X597243Y1198598D01*
X597510Y1197603D01*
X597853Y1196762D01*
X598272Y1196073D01*
X598767Y1195538D01*
X599338Y1195155D01*
X599986Y1194926D01*
X600710Y1194849D01*
X585470D01*
X586194Y1194926D01*
X586842Y1195155D01*
X587413Y1195538D01*
X587908Y1196073D01*
X588327Y1196762D01*
X588670Y1197603D01*
X588937Y1198598D01*
X589128Y1199745D01*
X589242Y1201046D01*
X589280Y1202499D01*
X596900D01*
X596938Y1201046D01*
D02*
G37*
G36*
X469915Y1199143D02*
X470031Y1197447D01*
X470134Y1196757D01*
X470265Y1196174D01*
X470426Y1195697D01*
X470616Y1195326D01*
X470835Y1195061D01*
X471083Y1194902D01*
X471361Y1194849D01*
X460820D01*
X461097Y1194902D01*
X461345Y1195061D01*
X461564Y1195326D01*
X461754Y1195697D01*
X461915Y1196174D01*
X462046Y1196757D01*
X462149Y1197447D01*
X462222Y1198242D01*
X462280Y1200150D01*
X469900D01*
X469915Y1199143D01*
D02*
G37*
G36*
X379951Y1177290D02*
X379874Y1178014D01*
X379645Y1178662D01*
X379262Y1179233D01*
X378727Y1179728D01*
X378038Y1180147D01*
X377197Y1180490D01*
X376202Y1180757D01*
X375055Y1180948D01*
X373754Y1181062D01*
X372300Y1181100D01*
Y1188720D01*
X373754Y1188758D01*
X375055Y1188872D01*
X376202Y1189063D01*
X377197Y1189330D01*
X378038Y1189672D01*
X378727Y1190092D01*
X379262Y1190587D01*
X379645Y1191158D01*
X379874Y1191806D01*
X379951Y1192530D01*
Y1177290D01*
D02*
G37*
G36*
X393700Y1174940D02*
X397510D01*
X396786Y1174864D01*
X396138Y1174636D01*
X395567Y1174255D01*
X395072Y1173721D01*
X394652Y1173036D01*
X394310Y1172197D01*
X394043Y1171207D01*
X394002Y1170962D01*
X394070Y1170486D01*
X394358Y1169098D01*
X394729Y1167758D01*
X395181Y1166469D01*
X395716Y1165228D01*
X396333Y1164036D01*
X397032Y1162893D01*
X397814Y1161800D01*
X381966D01*
X382748Y1162893D01*
X383447Y1164036D01*
X384064Y1165228D01*
X384599Y1166469D01*
X385051Y1167758D01*
X385422Y1169098D01*
X385710Y1170486D01*
X385778Y1170962D01*
X385737Y1171207D01*
X385470Y1172197D01*
X385127Y1173036D01*
X384708Y1173721D01*
X384213Y1174255D01*
X383642Y1174636D01*
X382994Y1174864D01*
X382270Y1174940D01*
X386080D01*
X386080Y1174946D01*
X393700D01*
X393700Y1174940D01*
D02*
G37*
G36*
X1216594Y1199506D02*
Y1156677D01*
X1215421Y1156191D01*
X1149842Y1221771D01*
X1150328Y1222944D01*
X1193156D01*
X1216594Y1199506D01*
D02*
G37*
G36*
X424340Y1168560D02*
X507405D01*
X508015Y1167086D01*
X509644Y1164964D01*
X517264Y1157344D01*
X519386Y1155715D01*
X521858Y1154691D01*
X524510Y1154342D01*
X620031D01*
X620517Y1153169D01*
X611162Y1143815D01*
X611023Y1143726D01*
X609771Y1142523D01*
X608921Y1141782D01*
X608865Y1141793D01*
X608780Y1141818D01*
X608445Y1141981D01*
X608192Y1141996D01*
X606455Y1142523D01*
X603250Y1142839D01*
X600045Y1142523D01*
X596963Y1141589D01*
X594123Y1140070D01*
X591633Y1138027D01*
X589590Y1135537D01*
X588072Y1132697D01*
X587136Y1129615D01*
X586821Y1126410D01*
Y1116410D01*
X587136Y1113205D01*
X588072Y1110123D01*
X588785Y1108787D01*
X587784Y1107966D01*
X585708Y1109670D01*
X582867Y1111189D01*
X579785Y1112123D01*
X576580Y1112439D01*
X573375Y1112123D01*
X570293Y1111189D01*
X567453Y1109670D01*
X567084Y1109368D01*
X566715Y1109201D01*
X565809Y1108554D01*
X565061Y1108096D01*
X564279Y1107691D01*
X563456Y1107336D01*
X562585Y1107030D01*
X561661Y1106775D01*
X560991Y1106636D01*
X560177Y1107627D01*
X559610Y1108092D01*
X559549Y1108185D01*
X559275Y1108367D01*
X559095Y1108515D01*
X558842Y1108796D01*
X558630Y1108897D01*
X557687Y1109670D01*
X554847Y1111189D01*
X554645Y1111250D01*
Y1112520D01*
X554847Y1112581D01*
X557687Y1114100D01*
X560177Y1116143D01*
X562220Y1118633D01*
X563739Y1121473D01*
X564673Y1124555D01*
X564989Y1127760D01*
X564673Y1130965D01*
X563739Y1134047D01*
X562220Y1136888D01*
X560177Y1139377D01*
X557687Y1141420D01*
X554847Y1142939D01*
X551765Y1143874D01*
X548560Y1144189D01*
X538560D01*
X535355Y1143874D01*
X532273Y1142939D01*
X529432Y1141420D01*
X528490Y1140647D01*
X528278Y1140546D01*
X528025Y1140266D01*
X527845Y1140117D01*
X527571Y1139934D01*
X527509Y1139842D01*
X526943Y1139377D01*
X526081Y1138327D01*
X523314Y1138077D01*
X521554Y1138043D01*
X521392Y1138008D01*
X497091D01*
X496939Y1138042D01*
X495585Y1138078D01*
X494471Y1138171D01*
X493423Y1138321D01*
X492439Y1138525D01*
X491515Y1138780D01*
X490644Y1139086D01*
X489821Y1139441D01*
X489039Y1139846D01*
X488291Y1140304D01*
X487385Y1140951D01*
X487016Y1141118D01*
X486647Y1141420D01*
X483807Y1142939D01*
X480725Y1143874D01*
X477520Y1144189D01*
X474315Y1143874D01*
X471233Y1142939D01*
X468392Y1141420D01*
X465903Y1139377D01*
X463860Y1136888D01*
X462341Y1134047D01*
X461407Y1130965D01*
X461091Y1127760D01*
X461407Y1124555D01*
X462341Y1121473D01*
X463860Y1118633D01*
X465903Y1116143D01*
X468392Y1114100D01*
X471233Y1112581D01*
X474315Y1111646D01*
X477520Y1111331D01*
X480725Y1111646D01*
X483807Y1112581D01*
X486647Y1114100D01*
X487016Y1114402D01*
X487385Y1114569D01*
X488291Y1115216D01*
X489039Y1115674D01*
X489821Y1116079D01*
X490644Y1116434D01*
X491515Y1116740D01*
X492439Y1116995D01*
X493423Y1117199D01*
X494470Y1117349D01*
X495585Y1117442D01*
X496939Y1117478D01*
X497091Y1117512D01*
X521392D01*
X521554Y1117477D01*
X523399Y1117442D01*
X524854Y1117349D01*
X526011Y1117209D01*
X526078Y1117196D01*
X526943Y1116143D01*
X527509Y1115678D01*
X527571Y1115585D01*
X527845Y1115403D01*
X528025Y1115255D01*
X528278Y1114974D01*
X528490Y1114873D01*
X529432Y1114100D01*
X532273Y1112581D01*
X532476Y1112520D01*
Y1111250D01*
X532273Y1111189D01*
X529432Y1109670D01*
X526943Y1107627D01*
X524900Y1105137D01*
X523382Y1102297D01*
X522447Y1099215D01*
X522131Y1096010D01*
X522447Y1092805D01*
X523382Y1089723D01*
X524900Y1086882D01*
X526943Y1084393D01*
X529432Y1082350D01*
X532273Y1080832D01*
X535355Y1079896D01*
X538560Y1079581D01*
X548560D01*
X551765Y1079896D01*
X554847Y1080832D01*
X557687Y1082350D01*
X558630Y1083123D01*
X558842Y1083224D01*
X559095Y1083504D01*
X559275Y1083653D01*
X559549Y1083836D01*
X559610Y1083928D01*
X560177Y1084393D01*
X560991Y1085384D01*
X561661Y1085245D01*
X562585Y1084990D01*
X563456Y1084684D01*
X564279Y1084329D01*
X565061Y1083924D01*
X565809Y1083466D01*
X566715Y1082819D01*
X567084Y1082652D01*
X567453Y1082350D01*
X570293Y1080832D01*
X573375Y1079896D01*
X576580Y1079581D01*
X579785Y1079896D01*
X582867Y1080832D01*
X585708Y1082350D01*
X588197Y1084393D01*
X590240Y1086882D01*
X591758Y1089723D01*
X592693Y1092805D01*
X593009Y1096010D01*
X592693Y1099215D01*
X591758Y1102297D01*
X591045Y1103633D01*
X592046Y1104454D01*
X594123Y1102750D01*
X596963Y1101232D01*
X600045Y1100297D01*
X603250Y1099981D01*
X606455Y1100297D01*
X609537Y1101232D01*
X612378Y1102750D01*
X613444Y1103625D01*
X614592Y1103082D01*
Y1044629D01*
X600021Y1030058D01*
X565728D01*
X565566Y1030093D01*
X563721Y1030128D01*
X562266Y1030221D01*
X561109Y1030361D01*
X561042Y1030374D01*
X560177Y1031427D01*
X559610Y1031892D01*
X559549Y1031984D01*
X559275Y1032167D01*
X559095Y1032315D01*
X558842Y1032596D01*
X558630Y1032697D01*
X557687Y1033470D01*
X554847Y1034988D01*
X551765Y1035923D01*
X548560Y1036239D01*
X538560D01*
X535355Y1035923D01*
X532273Y1034988D01*
X529432Y1033470D01*
X526943Y1031427D01*
X524900Y1028938D01*
X523382Y1026097D01*
X522447Y1023015D01*
X522131Y1019810D01*
X522311Y1017977D01*
X521092Y1017400D01*
X423806Y1114686D01*
X421684Y1116315D01*
X419212Y1117338D01*
X416560Y1117688D01*
X416560Y1117688D01*
X381000D01*
X378348Y1117338D01*
X375876Y1116315D01*
X373754Y1114686D01*
X373754Y1114686D01*
X363211Y1104143D01*
X362038Y1104630D01*
Y1169235D01*
X367465Y1174662D01*
X371978D01*
X372131Y1174628D01*
X373385Y1174595D01*
X373540Y1174581D01*
Y1168560D01*
X377068D01*
X377841Y1167290D01*
X377804Y1167218D01*
X377346Y1166471D01*
X376699Y1165565D01*
X376532Y1165197D01*
X376230Y1164827D01*
X374711Y1161987D01*
X373777Y1158905D01*
X373461Y1155700D01*
X373777Y1152495D01*
X374711Y1149413D01*
X376230Y1146572D01*
X378273Y1144083D01*
X380762Y1142040D01*
X383603Y1140521D01*
X386685Y1139586D01*
X389890Y1139271D01*
X393095Y1139586D01*
X396177Y1140521D01*
X399017Y1142040D01*
X401507Y1144083D01*
X403550Y1146572D01*
X405069Y1149413D01*
X406003Y1152495D01*
X406319Y1155700D01*
X406003Y1158905D01*
X405069Y1161987D01*
X403550Y1164827D01*
X403248Y1165196D01*
X403081Y1165565D01*
X402434Y1166471D01*
X401976Y1167218D01*
X401939Y1167290D01*
X402711Y1168560D01*
X406240D01*
Y1196252D01*
X424340D01*
Y1168560D01*
D02*
G37*
G36*
X618656Y1131428D02*
X617338Y1130056D01*
X615219Y1127509D01*
X614418Y1126333D01*
X613790Y1125223D01*
X613335Y1124178D01*
X613052Y1123198D01*
X612941Y1122284D01*
X613003Y1121435D01*
X613237Y1120651D01*
X606803Y1135719D01*
X607179Y1135075D01*
X607665Y1134649D01*
X608261Y1134439D01*
X608967Y1134447D01*
X609782Y1134672D01*
X610708Y1135115D01*
X611743Y1135775D01*
X612888Y1136651D01*
X614144Y1137745D01*
X615509Y1139057D01*
X618656Y1131428D01*
D02*
G37*
G36*
X532149Y1120164D02*
X532045Y1120883D01*
X531730Y1121527D01*
X531207Y1122095D01*
X530474Y1122587D01*
X529531Y1123003D01*
X528380Y1123344D01*
X527018Y1123609D01*
X525447Y1123799D01*
X523667Y1123912D01*
X521678Y1123950D01*
Y1131570D01*
X523667Y1131608D01*
X527018Y1131911D01*
X528380Y1132176D01*
X529531Y1132517D01*
X530474Y1132933D01*
X531207Y1133425D01*
X531730Y1133993D01*
X532045Y1134637D01*
X532149Y1135356D01*
Y1120164D01*
D02*
G37*
G36*
X484713Y1134902D02*
X485856Y1134203D01*
X487048Y1133586D01*
X488288Y1133051D01*
X489579Y1132598D01*
X490918Y1132228D01*
X492306Y1131940D01*
X493743Y1131735D01*
X495230Y1131611D01*
X496766Y1131570D01*
Y1123950D01*
X495230Y1123909D01*
X493743Y1123785D01*
X492306Y1123580D01*
X490918Y1123292D01*
X489579Y1122922D01*
X488288Y1122469D01*
X487048Y1121934D01*
X485856Y1121317D01*
X484713Y1120618D01*
X483620Y1119836D01*
Y1135684D01*
X484713Y1134902D01*
D02*
G37*
G36*
X570480Y1088086D02*
X569387Y1088868D01*
X568244Y1089567D01*
X567052Y1090184D01*
X565812Y1090719D01*
X564521Y1091171D01*
X563182Y1091542D01*
X561794Y1091830D01*
X561013Y1091942D01*
X560102Y1091859D01*
X558741Y1091594D01*
X557589Y1091253D01*
X556646Y1090837D01*
X555913Y1090345D01*
X555390Y1089777D01*
X555075Y1089133D01*
X554971Y1088414D01*
Y1103606D01*
X555075Y1102887D01*
X555390Y1102243D01*
X555913Y1101675D01*
X556646Y1101183D01*
X557589Y1100767D01*
X558741Y1100426D01*
X560102Y1100161D01*
X560909Y1100064D01*
X561794Y1100190D01*
X563182Y1100478D01*
X564521Y1100848D01*
X565812Y1101301D01*
X567052Y1101836D01*
X568244Y1102453D01*
X569387Y1103152D01*
X570480Y1103934D01*
Y1088086D01*
D02*
G37*
G36*
X897436Y1106991D02*
X898589Y1106286D01*
X899785Y1105663D01*
X901022Y1105124D01*
X902301Y1104667D01*
X903621Y1104294D01*
X904983Y1104004D01*
X906387Y1103796D01*
X907833Y1103671D01*
X909320Y1103630D01*
Y1096010D01*
X907833Y1095968D01*
X906387Y1095844D01*
X904983Y1095637D01*
X903621Y1095346D01*
X902301Y1094973D01*
X901022Y1094516D01*
X899785Y1093977D01*
X898589Y1093354D01*
X897436Y1092649D01*
X896324Y1091861D01*
Y1107779D01*
X897436Y1106991D01*
D02*
G37*
G36*
X932430Y1086816D02*
X931337Y1087598D01*
X930194Y1088297D01*
X929002Y1088914D01*
X927762Y1089449D01*
X926471Y1089902D01*
X925132Y1090272D01*
X923744Y1090560D01*
X922307Y1090765D01*
X920820Y1090889D01*
X919284Y1090930D01*
Y1098550D01*
X920820Y1098591D01*
X922307Y1098715D01*
X923744Y1098920D01*
X925132Y1099208D01*
X926471Y1099578D01*
X927762Y1100031D01*
X929002Y1100566D01*
X930194Y1101183D01*
X931337Y1101882D01*
X932430Y1102664D01*
Y1086816D01*
D02*
G37*
G36*
X397083Y1090452D02*
X398226Y1089753D01*
X399418Y1089136D01*
X400658Y1088601D01*
X401949Y1088148D01*
X403288Y1087778D01*
X404676Y1087490D01*
X406113Y1087285D01*
X407600Y1087161D01*
X409136Y1087120D01*
Y1079500D01*
X407600Y1079459D01*
X406113Y1079335D01*
X404676Y1079130D01*
X403288Y1078842D01*
X401949Y1078472D01*
X400658Y1078019D01*
X399418Y1077484D01*
X398226Y1076867D01*
X397083Y1076168D01*
X395990Y1075386D01*
Y1091234D01*
X397083Y1090452D01*
D02*
G37*
G36*
X1114723Y1076366D02*
X1115756Y1075691D01*
X1116822Y1075095D01*
X1117922Y1074579D01*
X1119055Y1074143D01*
X1120221Y1073785D01*
X1121421Y1073507D01*
X1122654Y1073309D01*
X1123920Y1073190D01*
X1125220Y1073150D01*
Y1065530D01*
X1123920Y1065490D01*
X1122654Y1065371D01*
X1121421Y1065173D01*
X1120221Y1064895D01*
X1119055Y1064538D01*
X1117922Y1064101D01*
X1116822Y1063585D01*
X1115756Y1062989D01*
X1114723Y1062314D01*
X1113723Y1061560D01*
Y1077120D01*
X1114723Y1076366D01*
D02*
G37*
G36*
X932430Y1061416D02*
X931337Y1062198D01*
X930194Y1062897D01*
X929002Y1063514D01*
X927762Y1064049D01*
X926471Y1064501D01*
X925132Y1064872D01*
X923744Y1065160D01*
X922307Y1065365D01*
X920820Y1065489D01*
X919284Y1065530D01*
Y1073150D01*
X920820Y1073191D01*
X922307Y1073315D01*
X923744Y1073520D01*
X925132Y1073808D01*
X926471Y1074178D01*
X927762Y1074631D01*
X929002Y1075166D01*
X930194Y1075783D01*
X931337Y1076482D01*
X932430Y1077264D01*
Y1061416D01*
D02*
G37*
G36*
X897463Y1070132D02*
X898606Y1069433D01*
X899798Y1068816D01*
X901039Y1068281D01*
X902328Y1067829D01*
X903668Y1067458D01*
X905056Y1067170D01*
X906493Y1066965D01*
X907980Y1066841D01*
X909516Y1066800D01*
Y1059180D01*
X907980Y1059139D01*
X906493Y1059015D01*
X905056Y1058810D01*
X903668Y1058522D01*
X902328Y1058151D01*
X901039Y1057699D01*
X899798Y1057164D01*
X898606Y1056547D01*
X897463Y1055848D01*
X896370Y1055066D01*
Y1070914D01*
X897463Y1070132D01*
D02*
G37*
G36*
X730162Y1122245D02*
Y1078230D01*
X730162Y1078230D01*
X730511Y1075578D01*
X731535Y1073106D01*
X733164Y1070984D01*
X762374Y1041774D01*
X762374Y1041774D01*
X764496Y1040145D01*
X766180Y1039448D01*
X766797Y1037997D01*
X766779Y1037875D01*
X765872Y1036177D01*
X765604Y1035295D01*
X765534Y1035284D01*
X764591Y1035206D01*
X763251Y1035172D01*
X763097Y1035138D01*
X743367D01*
X740714Y1034789D01*
X738243Y1033765D01*
X736120Y1032136D01*
X731502Y1027518D01*
X726961D01*
X726809Y1027552D01*
X725455Y1027588D01*
X724341Y1027681D01*
X723293Y1027831D01*
X722309Y1028035D01*
X721385Y1028290D01*
X720514Y1028596D01*
X719691Y1028951D01*
X718908Y1029356D01*
X718161Y1029814D01*
X717255Y1030461D01*
X716887Y1030628D01*
X716517Y1030930D01*
X713677Y1032449D01*
X710595Y1033383D01*
X707390Y1033699D01*
X704185Y1033383D01*
X701103Y1032449D01*
X698262Y1030930D01*
X697894Y1030628D01*
X697525Y1030461D01*
X696619Y1029814D01*
X695872Y1029356D01*
X695089Y1028951D01*
X694266Y1028596D01*
X693395Y1028290D01*
X692471Y1028035D01*
X691487Y1027831D01*
X691065Y1027770D01*
X690649Y1027821D01*
X690582Y1027834D01*
X689717Y1028887D01*
X689399Y1029148D01*
X689217Y1030164D01*
X689295Y1030604D01*
X689379Y1030776D01*
X689717Y1031053D01*
X691760Y1033542D01*
X693279Y1036383D01*
X694213Y1039465D01*
X694529Y1042670D01*
X694213Y1045875D01*
X693279Y1048957D01*
X691760Y1051797D01*
X689717Y1054287D01*
X689171Y1054735D01*
Y1056005D01*
X689717Y1056453D01*
X691760Y1058942D01*
X693279Y1061783D01*
X694213Y1064865D01*
X694529Y1068070D01*
X694213Y1071275D01*
X693279Y1074357D01*
X691760Y1077197D01*
X689717Y1079687D01*
X689171Y1080135D01*
Y1081405D01*
X689717Y1081853D01*
X691760Y1084342D01*
X693279Y1087183D01*
X694213Y1090265D01*
X694529Y1093470D01*
X694213Y1096675D01*
X693279Y1099757D01*
X691760Y1102598D01*
X689717Y1105087D01*
X689171Y1105535D01*
Y1106805D01*
X689717Y1107253D01*
X691760Y1109743D01*
X693279Y1112583D01*
X694213Y1115665D01*
X694529Y1118870D01*
X694213Y1122075D01*
X693279Y1125157D01*
X692468Y1126673D01*
X693121Y1127762D01*
X724645D01*
X730162Y1122245D01*
D02*
G37*
G36*
X1113437Y1035843D02*
X1112978Y1035251D01*
X1112573Y1034574D01*
X1112222Y1033811D01*
X1111925Y1032962D01*
X1111682Y1032027D01*
X1111493Y1031006D01*
X1111358Y1029900D01*
X1111277Y1028708D01*
X1111250Y1027430D01*
X1103630D01*
X1103603Y1028708D01*
X1103387Y1031006D01*
X1103198Y1032027D01*
X1102955Y1032962D01*
X1102658Y1033811D01*
X1102307Y1034574D01*
X1101902Y1035251D01*
X1101443Y1035843D01*
X1100930Y1036349D01*
X1113950D01*
X1113437Y1035843D01*
D02*
G37*
G36*
X880470Y1042676D02*
X881609Y1041712D01*
X882771Y1040841D01*
X883956Y1040063D01*
X885165Y1039378D01*
X886397Y1038786D01*
X887652Y1038287D01*
X888931Y1037880D01*
X890234Y1037567D01*
X891560Y1037346D01*
X880353Y1026140D01*
X880133Y1027466D01*
X879820Y1028769D01*
X879413Y1030048D01*
X878914Y1031303D01*
X878322Y1032535D01*
X877637Y1033744D01*
X876859Y1034929D01*
X875988Y1036091D01*
X875024Y1037230D01*
X873967Y1038345D01*
X879355Y1043733D01*
X880470Y1042676D01*
D02*
G37*
G36*
X701290Y1009346D02*
X700197Y1010128D01*
X699054Y1010827D01*
X697862Y1011444D01*
X696621Y1011979D01*
X695331Y1012431D01*
X693992Y1012802D01*
X692604Y1013090D01*
X691331Y1013272D01*
X689642Y1013119D01*
X688280Y1012854D01*
X687129Y1012513D01*
X686186Y1012097D01*
X685453Y1011605D01*
X684930Y1011037D01*
X684615Y1010393D01*
X684511Y1009674D01*
Y1024866D01*
X684615Y1024147D01*
X684930Y1023503D01*
X685453Y1022935D01*
X686186Y1022443D01*
X687129Y1022027D01*
X688280Y1021686D01*
X689642Y1021421D01*
X691129Y1021242D01*
X691167Y1021245D01*
X692604Y1021450D01*
X693992Y1021738D01*
X695331Y1022109D01*
X696621Y1022561D01*
X697862Y1023096D01*
X699054Y1023713D01*
X700197Y1024412D01*
X701290Y1025194D01*
Y1009346D01*
D02*
G37*
G36*
X771456Y1017279D02*
X771375Y1018001D01*
X771134Y1018647D01*
X770732Y1019217D01*
X770169Y1019712D01*
X769445Y1020130D01*
X768560Y1020472D01*
X767514Y1020738D01*
X766308Y1020928D01*
X764940Y1021042D01*
X763412Y1021080D01*
Y1028700D01*
X764940Y1028738D01*
X766308Y1028852D01*
X767514Y1029042D01*
X768560Y1029308D01*
X769445Y1029650D01*
X770169Y1030068D01*
X770732Y1030563D01*
X771134Y1031133D01*
X771375Y1031779D01*
X771456Y1032501D01*
Y1017279D01*
D02*
G37*
G36*
X555075Y1026687D02*
X555390Y1026043D01*
X555913Y1025475D01*
X556646Y1024983D01*
X557589Y1024567D01*
X558741Y1024226D01*
X560102Y1023961D01*
X561673Y1023772D01*
X563453Y1023658D01*
X565442Y1023620D01*
Y1016000D01*
X563453Y1015962D01*
X560102Y1015659D01*
X558741Y1015394D01*
X557589Y1015053D01*
X556646Y1014637D01*
X555913Y1014145D01*
X555390Y1013577D01*
X555075Y1012933D01*
X554971Y1012214D01*
Y1027406D01*
X555075Y1026687D01*
D02*
G37*
G36*
X714583Y1024412D02*
X715726Y1023713D01*
X716918Y1023096D01*
X718158Y1022561D01*
X719448Y1022109D01*
X720788Y1021738D01*
X722176Y1021450D01*
X723613Y1021245D01*
X725100Y1021121D01*
X726636Y1021080D01*
Y1013460D01*
X725100Y1013419D01*
X723613Y1013295D01*
X722176Y1013090D01*
X720788Y1012802D01*
X719448Y1012431D01*
X718158Y1011979D01*
X716918Y1011444D01*
X715726Y1010827D01*
X714583Y1010128D01*
X713490Y1009346D01*
Y1025194D01*
X714583Y1024412D01*
D02*
G37*
G36*
X589459Y1008292D02*
X588072Y1005697D01*
X587804Y1004815D01*
X587734Y1004804D01*
X586791Y1004726D01*
X585451Y1004692D01*
X585297Y1004658D01*
X580390D01*
X577738Y1004308D01*
X575266Y1003285D01*
X573144Y1001656D01*
X573144Y1001656D01*
X569795Y998308D01*
X565728D01*
X565566Y998343D01*
X563721Y998378D01*
X562266Y998471D01*
X561109Y998611D01*
X561042Y998624D01*
X560177Y999677D01*
X559610Y1000142D01*
X559549Y1000235D01*
X559275Y1000417D01*
X559095Y1000565D01*
X558842Y1000846D01*
X558630Y1000947D01*
X557687Y1001720D01*
X554847Y1003239D01*
X554645Y1003300D01*
Y1004570D01*
X554847Y1004632D01*
X557687Y1006150D01*
X558630Y1006923D01*
X558842Y1007024D01*
X559095Y1007305D01*
X559275Y1007453D01*
X559549Y1007635D01*
X559610Y1007728D01*
X560177Y1008193D01*
X561039Y1009243D01*
X563806Y1009493D01*
X565566Y1009527D01*
X565728Y1009562D01*
X588989D01*
X589459Y1008292D01*
D02*
G37*
G36*
X398302Y1010077D02*
X397603Y1008934D01*
X396986Y1007742D01*
X396451Y1006501D01*
X395998Y1005211D01*
X395628Y1003872D01*
X395340Y1002484D01*
X395135Y1001047D01*
X395011Y999560D01*
X394970Y998024D01*
X387350D01*
X387309Y999560D01*
X387185Y1001047D01*
X386980Y1002484D01*
X386692Y1003872D01*
X386321Y1005211D01*
X385869Y1006501D01*
X385334Y1007742D01*
X384717Y1008934D01*
X384018Y1010077D01*
X383236Y1011170D01*
X399084D01*
X398302Y1010077D01*
D02*
G37*
G36*
X651851Y1120703D02*
X651671Y1118870D01*
X651987Y1115665D01*
X652922Y1112583D01*
X654440Y1109743D01*
X656483Y1107253D01*
X657029Y1106805D01*
Y1105535D01*
X656483Y1105087D01*
X654440Y1102598D01*
X652922Y1099757D01*
X651987Y1096675D01*
X651671Y1093470D01*
X651987Y1090265D01*
X652922Y1087183D01*
X654440Y1084342D01*
X656483Y1081853D01*
X657029Y1081405D01*
Y1080135D01*
X656483Y1079687D01*
X654440Y1077197D01*
X652922Y1074357D01*
X651987Y1071275D01*
X651671Y1068070D01*
X651987Y1064865D01*
X652922Y1061783D01*
X654440Y1058942D01*
X656483Y1056453D01*
X657029Y1056005D01*
Y1054735D01*
X656483Y1054287D01*
X654440Y1051797D01*
X652922Y1048957D01*
X651987Y1045875D01*
X651671Y1042670D01*
X651987Y1039465D01*
X652922Y1036383D01*
X654440Y1033542D01*
X656483Y1031053D01*
X657029Y1030605D01*
Y1029335D01*
X656483Y1028887D01*
X655003Y1027084D01*
X652736Y1026145D01*
X650614Y1024516D01*
X620853Y994755D01*
X619679Y995241D01*
Y999410D01*
X619364Y1002615D01*
X618428Y1005697D01*
X616910Y1008538D01*
X614867Y1011027D01*
X613167Y1012422D01*
X613043Y1014095D01*
X632086Y1033138D01*
X633715Y1035260D01*
X634739Y1037732D01*
X635088Y1040384D01*
X635088Y1040384D01*
Y1105735D01*
X650632Y1121280D01*
X651851Y1120703D01*
D02*
G37*
G36*
X593656Y986799D02*
X593575Y987521D01*
X593334Y988167D01*
X592932Y988737D01*
X592369Y989232D01*
X591645Y989650D01*
X590760Y989992D01*
X589715Y990258D01*
X588508Y990448D01*
X587141Y990562D01*
X585612Y990600D01*
Y998220D01*
X587141Y998258D01*
X588508Y998372D01*
X589715Y998562D01*
X590760Y998828D01*
X591645Y999170D01*
X592369Y999588D01*
X592932Y1000083D01*
X593334Y1000653D01*
X593575Y1001299D01*
X593656Y1002021D01*
Y986799D01*
D02*
G37*
G36*
X528974Y1000468D02*
X531412Y998459D01*
X532484Y997762D01*
X533459Y997270D01*
X534336Y996982D01*
X535115Y996900D01*
X535797Y997022D01*
X536382Y997349D01*
X536868Y997880D01*
X528735Y986106D01*
X528607Y986950D01*
X528387Y987811D01*
X528076Y988688D01*
X527673Y989581D01*
X527179Y990490D01*
X526593Y991416D01*
X525915Y992357D01*
X525147Y993314D01*
X523334Y995278D01*
X527609Y1001779D01*
X528974Y1000468D01*
D02*
G37*
G36*
X555075Y994937D02*
X555390Y994293D01*
X555913Y993725D01*
X556646Y993233D01*
X557589Y992817D01*
X558741Y992476D01*
X560102Y992211D01*
X561673Y992021D01*
X563453Y991908D01*
X565442Y991870D01*
Y984250D01*
X563453Y984212D01*
X560102Y983909D01*
X558741Y983644D01*
X557589Y983303D01*
X556646Y982887D01*
X555913Y982395D01*
X555390Y981827D01*
X555075Y981183D01*
X554971Y980464D01*
Y995656D01*
X555075Y994937D01*
D02*
G37*
G36*
X454233Y978692D02*
X455376Y977993D01*
X456568Y977376D01*
X457808Y976841D01*
X459099Y976388D01*
X460438Y976018D01*
X461826Y975730D01*
X463263Y975525D01*
X464750Y975401D01*
X466286Y975360D01*
Y967740D01*
X464750Y967699D01*
X463263Y967575D01*
X461826Y967370D01*
X460438Y967082D01*
X459099Y966712D01*
X457808Y966259D01*
X456568Y965724D01*
X455376Y965107D01*
X454233Y964408D01*
X453140Y963626D01*
Y979474D01*
X454233Y978692D01*
D02*
G37*
G36*
X904600Y976636D02*
X905739Y975672D01*
X906901Y974801D01*
X908086Y974023D01*
X909295Y973338D01*
X910527Y972746D01*
X911782Y972247D01*
X913061Y971840D01*
X914364Y971527D01*
X915690Y971307D01*
X904483Y960100D01*
X904263Y961426D01*
X903950Y962729D01*
X903543Y964008D01*
X903044Y965263D01*
X902452Y966495D01*
X901767Y967704D01*
X900989Y968889D01*
X900118Y970051D01*
X899154Y971190D01*
X898097Y972305D01*
X903485Y977693D01*
X904600Y976636D01*
D02*
G37*
G36*
X717037Y956319D02*
X712844Y952126D01*
X711215Y950004D01*
X710191Y947532D01*
X710156Y947260D01*
X656072D01*
X655586Y948433D01*
X664645Y957492D01*
X716551D01*
X717037Y956319D01*
D02*
G37*
G36*
X378616Y1006499D02*
X379074Y1005751D01*
X379479Y1004969D01*
X379834Y1004146D01*
X380140Y1003275D01*
X380395Y1002351D01*
X380599Y1001367D01*
X380749Y1000320D01*
X380842Y999205D01*
X380878Y997851D01*
X380912Y997699D01*
Y948822D01*
X380878Y948669D01*
X380845Y947415D01*
X380831Y947260D01*
X377278D01*
Y1006188D01*
X378548Y1006595D01*
X378616Y1006499D01*
D02*
G37*
G36*
X724090Y940849D02*
X716089D01*
X716126Y940889D01*
X716158Y941010D01*
X716187Y941212D01*
X716211Y941494D01*
X716272Y943429D01*
X716280Y944880D01*
X723900D01*
X724090Y940849D01*
D02*
G37*
G36*
X647738Y947046D02*
X647852Y945745D01*
X648043Y944598D01*
X648310Y943603D01*
X648652Y942762D01*
X649072Y942073D01*
X649567Y941538D01*
X650138Y941155D01*
X650786Y940926D01*
X651510Y940849D01*
X636270D01*
X636994Y940926D01*
X637642Y941155D01*
X638213Y941538D01*
X638708Y942073D01*
X639128Y942762D01*
X639470Y943603D01*
X639737Y944598D01*
X639928Y945745D01*
X640042Y947046D01*
X640080Y948500D01*
X647700D01*
X647738Y947046D01*
D02*
G37*
G36*
X395008D02*
X395122Y945745D01*
X395313Y944598D01*
X395580Y943603D01*
X395923Y942762D01*
X396342Y942073D01*
X396837Y941538D01*
X397408Y941155D01*
X398056Y940926D01*
X398780Y940849D01*
X383540D01*
X384264Y940926D01*
X384912Y941155D01*
X385483Y941538D01*
X385978Y942073D01*
X386398Y942762D01*
X386740Y943603D01*
X387007Y944598D01*
X387198Y945745D01*
X387312Y947046D01*
X387350Y948500D01*
X394970D01*
X395008Y947046D01*
D02*
G37*
G36*
X755506Y937806D02*
X755735Y937158D01*
X756118Y936587D01*
X756653Y936092D01*
X757342Y935673D01*
X758183Y935330D01*
X759178Y935063D01*
X760325Y934872D01*
X761626Y934758D01*
X763080Y934720D01*
Y927100D01*
X761626Y927062D01*
X760325Y926948D01*
X759178Y926757D01*
X758183Y926490D01*
X757342Y926148D01*
X756653Y925728D01*
X756118Y925233D01*
X755735Y924662D01*
X755506Y924014D01*
X755429Y923290D01*
Y938530D01*
X755506Y937806D01*
D02*
G37*
G36*
X777490Y922986D02*
X776397Y923768D01*
X775254Y924467D01*
X774062Y925084D01*
X772822Y925619D01*
X771532Y926071D01*
X770192Y926442D01*
X768804Y926730D01*
X767367Y926935D01*
X765880Y927059D01*
X764344Y927100D01*
Y934720D01*
X765880Y934761D01*
X767367Y934885D01*
X768804Y935090D01*
X770192Y935378D01*
X771532Y935749D01*
X772822Y936201D01*
X774062Y936736D01*
X775254Y937353D01*
X776397Y938052D01*
X777490Y938834D01*
Y922986D01*
D02*
G37*
G36*
X819907Y922011D02*
X819420Y920838D01*
X797949D01*
X797424Y922108D01*
X798768Y924623D01*
X799704Y927705D01*
X800019Y930910D01*
X799704Y934115D01*
X798768Y937197D01*
X797250Y940038D01*
X796375Y941104D01*
X796918Y942252D01*
X799665D01*
X819907Y922011D01*
D02*
G37*
G36*
X647854Y920900D02*
X647822Y920780D01*
X647793Y920580D01*
X647769Y920300D01*
X647708Y918380D01*
X647700Y916940D01*
X640080D01*
X639889Y920940D01*
X647890D01*
X647854Y920900D01*
D02*
G37*
G36*
X625386Y920864D02*
X624738Y920636D01*
X624167Y920255D01*
X623672Y919721D01*
X623252Y919035D01*
X622910Y918197D01*
X622643Y917207D01*
X622452Y916064D01*
X622338Y914768D01*
X622300Y913320D01*
X614680D01*
X614642Y914768D01*
X614528Y916064D01*
X614337Y917207D01*
X614070Y918197D01*
X613727Y919035D01*
X613308Y919721D01*
X612813Y920255D01*
X612242Y920636D01*
X611594Y920864D01*
X610870Y920940D01*
X626110D01*
X625386Y920864D01*
D02*
G37*
G36*
X495300Y920940D02*
X499110D01*
X498386Y920864D01*
X497738Y920636D01*
X497167Y920255D01*
X496672Y919721D01*
X496253Y919035D01*
X495910Y918197D01*
X495643Y917207D01*
X495602Y916962D01*
X495670Y916486D01*
X495958Y915098D01*
X496329Y913758D01*
X496781Y912468D01*
X497316Y911228D01*
X497933Y910036D01*
X498632Y908893D01*
X499414Y907800D01*
X483566D01*
X484348Y908893D01*
X485047Y910036D01*
X485664Y911228D01*
X486199Y912468D01*
X486651Y913758D01*
X487022Y915098D01*
X487310Y916486D01*
X487378Y916962D01*
X487337Y917207D01*
X487070Y918197D01*
X486727Y919035D01*
X486308Y919721D01*
X485813Y920255D01*
X485242Y920636D01*
X484594Y920864D01*
X483870Y920940D01*
X487680D01*
X487680Y920946D01*
X495300D01*
X495300Y920940D01*
D02*
G37*
G36*
X447586Y920864D02*
X446938Y920636D01*
X446367Y920255D01*
X445872Y919721D01*
X445452Y919035D01*
X445110Y918197D01*
X444843Y917207D01*
X444704Y916375D01*
X444870Y915216D01*
X445158Y913828D01*
X445528Y912488D01*
X445981Y911199D01*
X446516Y909958D01*
X447133Y908766D01*
X447832Y907623D01*
X448614Y906530D01*
X432766D01*
X433548Y907623D01*
X434247Y908766D01*
X434864Y909958D01*
X435399Y911199D01*
X435852Y912488D01*
X436222Y913828D01*
X436510Y915216D01*
X436676Y916375D01*
X436537Y917207D01*
X436270Y918197D01*
X435928Y919035D01*
X435508Y919721D01*
X435013Y920255D01*
X434442Y920636D01*
X433794Y920864D01*
X433070Y920940D01*
X448310D01*
X447586Y920864D01*
D02*
G37*
G36*
X599112Y920875D02*
X598647Y920679D01*
X598238Y920352D01*
X597883Y919894D01*
X597583Y919305D01*
X597337Y918586D01*
X597146Y917736D01*
X597009Y916755D01*
X596927Y915643D01*
X596900Y914400D01*
X593090D01*
X595784Y911706D01*
X595007Y910889D01*
X594330Y910092D01*
X593754Y909316D01*
X593278Y908562D01*
X592903Y907828D01*
X592629Y907115D01*
X592455Y906423D01*
X592382Y905752D01*
X592410Y905102D01*
X592538Y904473D01*
X582129Y911668D01*
X582767Y911767D01*
X583448Y911964D01*
X584170Y912261D01*
X584934Y912655D01*
X585740Y913149D01*
X586588Y913740D01*
X588408Y915220D01*
X589220Y915960D01*
X589034Y917736D01*
X588843Y918586D01*
X588597Y919305D01*
X588297Y919894D01*
X587942Y920352D01*
X587533Y920679D01*
X587068Y920875D01*
X586549Y920940D01*
X599631D01*
X599112Y920875D01*
D02*
G37*
G36*
X573712D02*
X573247Y920679D01*
X572838Y920352D01*
X572483Y919894D01*
X572183Y919305D01*
X571937Y918586D01*
X571746Y917736D01*
X571609Y916755D01*
X571527Y915643D01*
X571500Y914400D01*
X567690D01*
X570384Y911706D01*
X569508Y910771D01*
X568705Y909792D01*
X567975Y908769D01*
X567318Y907700D01*
X566733Y906587D01*
X566220Y905429D01*
X565781Y904227D01*
X565414Y902979D01*
X565120Y901687D01*
X564899Y900351D01*
X553641Y911609D01*
X554977Y911830D01*
X556269Y912124D01*
X557517Y912491D01*
X558719Y912930D01*
X559877Y913443D01*
X560990Y914027D01*
X562059Y914685D01*
X563082Y915415D01*
X563814Y916015D01*
X563634Y917736D01*
X563443Y918586D01*
X563197Y919305D01*
X562897Y919894D01*
X562542Y920352D01*
X562132Y920679D01*
X561668Y920875D01*
X561149Y920940D01*
X574230D01*
X573712Y920875D01*
D02*
G37*
G36*
X543302Y913721D02*
X543351Y913290D01*
X541330Y910827D01*
X539812Y907987D01*
X538876Y904905D01*
X538561Y901700D01*
X538876Y898495D01*
X539812Y895413D01*
X541330Y892572D01*
X543147Y890358D01*
X542746Y889088D01*
X503734D01*
X503333Y890358D01*
X505150Y892572D01*
X506669Y895413D01*
X507603Y898495D01*
X507919Y901700D01*
X507603Y904905D01*
X506669Y907987D01*
X505150Y910827D01*
X504848Y911196D01*
X504681Y911565D01*
X504034Y912471D01*
X503576Y913219D01*
X503539Y913290D01*
X504311Y914560D01*
X543002D01*
X543302Y913721D01*
D02*
G37*
G36*
X479441Y913290D02*
X479404Y913219D01*
X478946Y912471D01*
X478299Y911565D01*
X478132Y911197D01*
X477830Y910827D01*
X476311Y907987D01*
X475377Y904905D01*
X475061Y901700D01*
X475377Y898495D01*
X476311Y895413D01*
X477830Y892572D01*
X479647Y890358D01*
X479246Y889088D01*
X454018D01*
X453475Y890236D01*
X454350Y891302D01*
X455868Y894143D01*
X456804Y897225D01*
X457119Y900430D01*
X456804Y903635D01*
X455868Y906717D01*
X454350Y909557D01*
X454048Y909926D01*
X453881Y910295D01*
X453234Y911201D01*
X452776Y911948D01*
X452371Y912731D01*
X452130Y913290D01*
X452409Y913952D01*
X453009Y914560D01*
X478669D01*
X479441Y913290D01*
D02*
G37*
G36*
X1125132Y1043809D02*
Y1022785D01*
X974879Y872532D01*
X974759Y872458D01*
X973836Y871599D01*
X973077Y870991D01*
X972313Y870472D01*
X971538Y870032D01*
X970744Y869664D01*
X969923Y869363D01*
X969063Y869126D01*
X968156Y868953D01*
X967190Y868846D01*
X965930Y868800D01*
X965792Y868768D01*
X902135D01*
X897448Y873455D01*
X898287Y874411D01*
X899116Y873775D01*
X901588Y872751D01*
X904240Y872402D01*
X962660D01*
X962660Y872402D01*
X965312Y872751D01*
X967784Y873775D01*
X969906Y875404D01*
X1114686Y1020184D01*
X1114686Y1020184D01*
X1116315Y1022306D01*
X1117338Y1024778D01*
X1117591Y1026697D01*
X1117723Y1027293D01*
X1117747Y1028420D01*
X1117806Y1029288D01*
X1117896Y1030024D01*
X1118006Y1030621D01*
X1118124Y1031075D01*
X1118232Y1031384D01*
X1118309Y1031552D01*
X1118314Y1031560D01*
X1118496Y1031740D01*
X1118509Y1031758D01*
X1118528Y1031771D01*
X1118702Y1032031D01*
X1119057Y1032323D01*
X1121100Y1034812D01*
X1122618Y1037653D01*
X1123553Y1040735D01*
X1123862Y1043871D01*
X1125132Y1043809D01*
D02*
G37*
G36*
X984558Y862330D02*
X983534Y861230D01*
X982618Y860086D01*
X981810Y858896D01*
X981110Y857662D01*
X980517Y856384D01*
X980032Y855061D01*
X979655Y853693D01*
X979386Y852281D01*
X979224Y850824D01*
X979170Y849322D01*
X971550Y847090D01*
X971474Y848538D01*
X971245Y849833D01*
X970864Y850976D01*
X970331Y851967D01*
X969645Y852805D01*
X968807Y853491D01*
X967816Y854024D01*
X966673Y854405D01*
X965378Y854634D01*
X963930Y854710D01*
X966162Y862330D01*
X967663Y862384D01*
X969121Y862545D01*
X970533Y862815D01*
X971901Y863192D01*
X973224Y863677D01*
X974502Y864270D01*
X975736Y864970D01*
X976926Y865778D01*
X978070Y866694D01*
X979170Y867718D01*
X984558Y862330D01*
D02*
G37*
G36*
X1153072Y1124785D02*
Y1012625D01*
X986781Y846333D01*
X985608Y846820D01*
Y848952D01*
X985640Y849090D01*
X985686Y850350D01*
X985793Y851316D01*
X985966Y852224D01*
X986203Y853083D01*
X986504Y853904D01*
X986872Y854698D01*
X987312Y855473D01*
X987831Y856237D01*
X988438Y856996D01*
X989297Y857919D01*
X989372Y858039D01*
X1142626Y1011294D01*
X1142626Y1011294D01*
X1144255Y1013416D01*
X1145278Y1015888D01*
X1145628Y1018540D01*
Y1059180D01*
X1145278Y1061832D01*
X1144255Y1064304D01*
X1142626Y1066426D01*
X1142626Y1066426D01*
X1132466Y1076586D01*
X1130344Y1078215D01*
X1127872Y1079239D01*
X1126020Y1079482D01*
X1125418Y1079621D01*
X1124323Y1079655D01*
X1123473Y1079735D01*
X1122668Y1079864D01*
X1121902Y1080042D01*
X1121170Y1080266D01*
X1120464Y1080538D01*
X1119779Y1080859D01*
X1119108Y1081234D01*
X1118447Y1081666D01*
X1117622Y1082289D01*
X1117167Y1082508D01*
X1116568Y1083000D01*
X1113727Y1084519D01*
X1110645Y1085453D01*
X1107440Y1085769D01*
X1104235Y1085453D01*
X1101153Y1084519D01*
X1098313Y1083000D01*
X1095823Y1080957D01*
X1093780Y1078467D01*
X1092262Y1075627D01*
X1091327Y1072545D01*
X1091011Y1069340D01*
X1091327Y1066135D01*
X1092262Y1063053D01*
X1093780Y1060212D01*
X1095823Y1057723D01*
X1096368Y1057275D01*
Y1056005D01*
X1095823Y1055557D01*
X1093780Y1053067D01*
X1092262Y1050227D01*
X1091327Y1047145D01*
X1091011Y1043940D01*
X1091327Y1040735D01*
X1092262Y1037653D01*
X1093780Y1034812D01*
X1095823Y1032323D01*
X1096006Y1032173D01*
X1096213Y1031149D01*
X1096029Y1030512D01*
X958415Y892898D01*
X908485D01*
X826396Y974986D01*
X824274Y976615D01*
X821802Y977638D01*
X819150Y977988D01*
X819150Y977988D01*
X660400D01*
X660400Y977988D01*
X657748Y977638D01*
X655276Y976615D01*
X653154Y974986D01*
X636644Y958476D01*
X635015Y956354D01*
X633992Y953882D01*
X633642Y951230D01*
X633642Y951230D01*
Y948822D01*
X633608Y948669D01*
X633575Y947415D01*
X633561Y947260D01*
X524947D01*
X524136Y948316D01*
X524136Y948316D01*
X493656Y978796D01*
X491534Y980425D01*
X489062Y981449D01*
X486410Y981798D01*
X486410Y981798D01*
X466611D01*
X466459Y981832D01*
X465105Y981868D01*
X463991Y981961D01*
X462943Y982111D01*
X461959Y982315D01*
X461035Y982570D01*
X460164Y982876D01*
X459341Y983231D01*
X458559Y983636D01*
X457811Y984094D01*
X456905Y984741D01*
X456536Y984908D01*
X456167Y985210D01*
X453327Y986729D01*
X450245Y987663D01*
X447040Y987979D01*
X443835Y987663D01*
X440753Y986729D01*
X437912Y985210D01*
X435423Y983167D01*
X433380Y980677D01*
X431861Y977837D01*
X430927Y974755D01*
X430611Y971550D01*
X430927Y968345D01*
X431861Y965263D01*
X433380Y962422D01*
X435423Y959933D01*
X437912Y957890D01*
X440753Y956372D01*
X443835Y955436D01*
X447040Y955121D01*
X450245Y955436D01*
X453327Y956372D01*
X456167Y957890D01*
X456536Y958192D01*
X456905Y958359D01*
X457811Y959006D01*
X458559Y959464D01*
X459341Y959869D01*
X460164Y960224D01*
X461035Y960530D01*
X461959Y960785D01*
X462943Y960989D01*
X463991Y961139D01*
X465105Y961232D01*
X466459Y961268D01*
X466611Y961302D01*
X482165D01*
X495034Y948433D01*
X494548Y947260D01*
X424340D01*
Y914560D01*
X428371D01*
X428972Y913952D01*
X429250Y913290D01*
X429009Y912731D01*
X428604Y911948D01*
X428146Y911201D01*
X427499Y910295D01*
X427332Y909927D01*
X427030Y909557D01*
X425512Y906717D01*
X424576Y903635D01*
X424261Y900430D01*
X424576Y897225D01*
X425512Y894143D01*
X427030Y891302D01*
X427905Y890236D01*
X427362Y889088D01*
X406835D01*
X382536Y913387D01*
X383022Y914560D01*
X406240D01*
Y947260D01*
X401489D01*
X401475Y947415D01*
X401442Y948669D01*
X401408Y948822D01*
Y997699D01*
X401442Y997851D01*
X401478Y999205D01*
X401571Y1000319D01*
X401721Y1001367D01*
X401925Y1002351D01*
X402180Y1003275D01*
X402486Y1004146D01*
X402841Y1004969D01*
X403246Y1005751D01*
X403704Y1006499D01*
X404351Y1007405D01*
X404518Y1007774D01*
X404820Y1008142D01*
X406339Y1010983D01*
X407273Y1014065D01*
X407589Y1017270D01*
X407273Y1020475D01*
X406339Y1023557D01*
X404820Y1026397D01*
X402777Y1028887D01*
X400288Y1030930D01*
X397447Y1032449D01*
X394365Y1033383D01*
X391160Y1033699D01*
X387955Y1033383D01*
X384873Y1032449D01*
X382033Y1030930D01*
X379543Y1028887D01*
X378548Y1027675D01*
X377278Y1028129D01*
Y1071066D01*
X378548Y1071467D01*
X380762Y1069650D01*
X383603Y1068131D01*
X386685Y1067197D01*
X389890Y1066881D01*
X393095Y1067197D01*
X396177Y1068131D01*
X399017Y1069650D01*
X399386Y1069952D01*
X399755Y1070119D01*
X400661Y1070766D01*
X401409Y1071224D01*
X402191Y1071629D01*
X403014Y1071984D01*
X403885Y1072290D01*
X404809Y1072545D01*
X405793Y1072749D01*
X406841Y1072899D01*
X407955Y1072992D01*
X409309Y1073028D01*
X409461Y1073062D01*
X413585D01*
X527424Y959224D01*
X527424Y959224D01*
X529546Y957595D01*
X532018Y956572D01*
X534670Y956222D01*
X607060D01*
X607060Y956222D01*
X609712Y956572D01*
X612184Y957595D01*
X614306Y959224D01*
X658819Y1003736D01*
X658972Y1003610D01*
X661813Y1002092D01*
X664895Y1001156D01*
X668100Y1000841D01*
X678100D01*
X681305Y1001156D01*
X684387Y1002092D01*
X687227Y1003610D01*
X688170Y1004383D01*
X688382Y1004484D01*
X688635Y1004764D01*
X688815Y1004913D01*
X689089Y1005096D01*
X689150Y1005188D01*
X689717Y1005653D01*
X690579Y1006703D01*
X691162Y1006756D01*
X691487Y1006709D01*
X692471Y1006505D01*
X693395Y1006250D01*
X694266Y1005944D01*
X695089Y1005589D01*
X695872Y1005184D01*
X696619Y1004726D01*
X697525Y1004079D01*
X697894Y1003912D01*
X698262Y1003610D01*
X701103Y1002092D01*
X704185Y1001156D01*
X707390Y1000841D01*
X710595Y1001156D01*
X713677Y1002092D01*
X716517Y1003610D01*
X716886Y1003912D01*
X717255Y1004079D01*
X718161Y1004726D01*
X718908Y1005184D01*
X719691Y1005589D01*
X720514Y1005944D01*
X721385Y1006250D01*
X722309Y1006505D01*
X723293Y1006709D01*
X724341Y1006859D01*
X725455Y1006952D01*
X726809Y1006988D01*
X726961Y1007022D01*
X735746D01*
X735747Y1007022D01*
X738399Y1007372D01*
X740870Y1008395D01*
X742993Y1010024D01*
X747611Y1014642D01*
X763097D01*
X763251Y1014608D01*
X764591Y1014574D01*
X765534Y1014496D01*
X765604Y1014485D01*
X765872Y1013603D01*
X767390Y1010762D01*
X769433Y1008273D01*
X771923Y1006230D01*
X774763Y1004712D01*
X777845Y1003777D01*
X781050Y1003461D01*
X784255Y1003777D01*
X787337Y1004712D01*
X790178Y1006230D01*
X792667Y1008273D01*
X794710Y1010762D01*
X796228Y1013603D01*
X797163Y1016685D01*
X797479Y1019890D01*
Y1029890D01*
X797163Y1033095D01*
X796228Y1036177D01*
X795424Y1037683D01*
X796077Y1038772D01*
X822525D01*
X893315Y967982D01*
X893398Y967851D01*
X894330Y966868D01*
X895053Y966014D01*
X895687Y965168D01*
X896238Y964328D01*
X896711Y963493D01*
X897111Y962662D01*
X897442Y961829D01*
X897709Y960989D01*
X897914Y960136D01*
X898097Y959038D01*
X898240Y958660D01*
X898287Y958185D01*
X899221Y955103D01*
X900740Y952262D01*
X902783Y949773D01*
X905273Y947730D01*
X908113Y946211D01*
X911195Y945276D01*
X914400Y944961D01*
X917605Y945276D01*
X920687Y946211D01*
X923528Y947730D01*
X926017Y949773D01*
X928060Y952262D01*
X929578Y955103D01*
X930514Y958185D01*
X930829Y961390D01*
X930514Y964595D01*
X929578Y967677D01*
X928060Y970518D01*
X926017Y973007D01*
X923528Y975050D01*
X920687Y976569D01*
X917605Y977504D01*
X917130Y977550D01*
X916751Y977693D01*
X915654Y977876D01*
X914801Y978081D01*
X913961Y978348D01*
X913128Y978679D01*
X912297Y979079D01*
X911462Y979552D01*
X910622Y980103D01*
X909776Y980737D01*
X908923Y981460D01*
X907939Y982392D01*
X907808Y982475D01*
X834016Y1056266D01*
X833556Y1056620D01*
X833964Y1057822D01*
X845385D01*
X869185Y1034022D01*
X869268Y1033891D01*
X870200Y1032908D01*
X870923Y1032054D01*
X871557Y1031208D01*
X872109Y1030368D01*
X872581Y1029533D01*
X872981Y1028702D01*
X873312Y1027869D01*
X873579Y1027029D01*
X873784Y1026176D01*
X873967Y1025078D01*
X874110Y1024700D01*
X874156Y1024225D01*
X875091Y1021143D01*
X876610Y1018303D01*
X878653Y1015813D01*
X881143Y1013770D01*
X883983Y1012252D01*
X887065Y1011317D01*
X890270Y1011001D01*
X893475Y1011317D01*
X896557Y1012252D01*
X899398Y1013770D01*
X901887Y1015813D01*
X903930Y1018303D01*
X905449Y1021143D01*
X906384Y1024225D01*
X906699Y1027430D01*
X906384Y1030635D01*
X905449Y1033717D01*
X903930Y1036557D01*
X901887Y1039047D01*
X899398Y1041090D01*
X896557Y1042608D01*
X893475Y1043543D01*
X893000Y1043590D01*
X892622Y1043733D01*
X891524Y1043916D01*
X890671Y1044121D01*
X889831Y1044388D01*
X888998Y1044719D01*
X888167Y1045118D01*
X887332Y1045592D01*
X887799Y1046804D01*
X890270Y1046561D01*
X893475Y1046877D01*
X896557Y1047812D01*
X899398Y1049330D01*
X899766Y1049632D01*
X900135Y1049799D01*
X901041Y1050446D01*
X901788Y1050904D01*
X902571Y1051309D01*
X903394Y1051664D01*
X904265Y1051970D01*
X905189Y1052225D01*
X906173Y1052429D01*
X907221Y1052579D01*
X908335Y1052672D01*
X909689Y1052708D01*
X909841Y1052742D01*
X910590D01*
X910590Y1052742D01*
X913242Y1053092D01*
X915714Y1054115D01*
X917836Y1055744D01*
X921064Y1058972D01*
X921579Y1058929D01*
X922627Y1058779D01*
X923611Y1058575D01*
X924535Y1058320D01*
X925406Y1058014D01*
X926229Y1057659D01*
X927011Y1057254D01*
X927759Y1056796D01*
X928665Y1056149D01*
X929034Y1055982D01*
X929402Y1055680D01*
X932243Y1054162D01*
X935325Y1053226D01*
X938530Y1052911D01*
X941735Y1053226D01*
X944817Y1054162D01*
X947657Y1055680D01*
X950147Y1057723D01*
X952190Y1060212D01*
X953708Y1063053D01*
X954643Y1066135D01*
X954959Y1069340D01*
X954643Y1072545D01*
X953708Y1075627D01*
X952190Y1078467D01*
X950147Y1080957D01*
X949602Y1081405D01*
Y1082675D01*
X950147Y1083123D01*
X952190Y1085612D01*
X953708Y1088453D01*
X954643Y1091535D01*
X954959Y1094740D01*
X954643Y1097945D01*
X953708Y1101027D01*
X952190Y1103867D01*
X950147Y1106357D01*
X947657Y1108400D01*
X944817Y1109919D01*
X941735Y1110854D01*
X938530Y1111169D01*
X935325Y1110854D01*
X932243Y1109919D01*
X929402Y1108400D01*
X929034Y1108098D01*
X928665Y1107931D01*
X927759Y1107284D01*
X927011Y1106826D01*
X926229Y1106421D01*
X925406Y1106066D01*
X924535Y1105760D01*
X923611Y1105505D01*
X922627Y1105301D01*
X921580Y1105151D01*
X920465Y1105058D01*
X919111Y1105022D01*
X918959Y1104988D01*
X918645D01*
X916566Y1107066D01*
X914444Y1108695D01*
X911972Y1109718D01*
X910102Y1109965D01*
X909501Y1110102D01*
X908201Y1110138D01*
X907139Y1110230D01*
X906133Y1110378D01*
X905179Y1110582D01*
X904272Y1110838D01*
X903407Y1111147D01*
X902577Y1111509D01*
X901777Y1111926D01*
X901001Y1112400D01*
X900068Y1113061D01*
X899717Y1113218D01*
X899398Y1113480D01*
X896557Y1114998D01*
X893475Y1115934D01*
X890270Y1116249D01*
X887065Y1115934D01*
X883983Y1114998D01*
X881143Y1113480D01*
X878653Y1111437D01*
X876610Y1108948D01*
X875091Y1106107D01*
X874156Y1103025D01*
X873841Y1099820D01*
X874156Y1096615D01*
X875091Y1093533D01*
X876610Y1090693D01*
X878653Y1088203D01*
X881143Y1086160D01*
X883983Y1084641D01*
X887065Y1083707D01*
X890270Y1083391D01*
X893475Y1083707D01*
X896557Y1084641D01*
X899398Y1086160D01*
X899717Y1086422D01*
X900068Y1086579D01*
X901001Y1087240D01*
X901777Y1087715D01*
X902577Y1088131D01*
X903407Y1088493D01*
X904272Y1088802D01*
X905179Y1089058D01*
X905517Y1089130D01*
X907154Y1087494D01*
X907154Y1087494D01*
X909276Y1085865D01*
X911748Y1084842D01*
X914400Y1084492D01*
X914400Y1084492D01*
X918959D01*
X919111Y1084458D01*
X920465Y1084422D01*
X921579Y1084329D01*
X922627Y1084179D01*
X923611Y1083975D01*
X924535Y1083720D01*
X925406Y1083414D01*
X926229Y1083059D01*
X926781Y1082774D01*
X926951Y1082040D01*
X926781Y1081306D01*
X926229Y1081021D01*
X925406Y1080666D01*
X924535Y1080360D01*
X923611Y1080105D01*
X922627Y1079901D01*
X921580Y1079751D01*
X920465Y1079658D01*
X919111Y1079622D01*
X918959Y1079588D01*
X916940D01*
X914288Y1079239D01*
X911816Y1078215D01*
X909694Y1076586D01*
X909694Y1076586D01*
X906598Y1073490D01*
X906173Y1073551D01*
X905189Y1073755D01*
X904265Y1074010D01*
X903394Y1074316D01*
X902571Y1074671D01*
X901788Y1075076D01*
X901041Y1075534D01*
X900135Y1076181D01*
X899766Y1076348D01*
X899398Y1076650D01*
X896557Y1078168D01*
X893475Y1079103D01*
X890270Y1079419D01*
X887065Y1079103D01*
X883983Y1078168D01*
X881143Y1076650D01*
X878653Y1074607D01*
X876610Y1072117D01*
X875091Y1069277D01*
X874156Y1066195D01*
X873841Y1062990D01*
X874151Y1059837D01*
X874078Y1059755D01*
X872930Y1059262D01*
X856876Y1075316D01*
X854754Y1076945D01*
X852282Y1077969D01*
X849630Y1078318D01*
X849630Y1078318D01*
X777675D01*
X767168Y1088825D01*
Y1133257D01*
X766818Y1135909D01*
X765795Y1138380D01*
X764166Y1140503D01*
X764166Y1140503D01*
X751500Y1153169D01*
X751986Y1154342D01*
X1123515D01*
X1153072Y1124785D01*
D02*
G37*
G36*
X424430Y842976D02*
X423337Y843758D01*
X422194Y844457D01*
X421002Y845074D01*
X419762Y845609D01*
X418471Y846061D01*
X417132Y846432D01*
X415744Y846720D01*
X414307Y846925D01*
X412820Y847049D01*
X411284Y847090D01*
Y854710D01*
X412820Y854751D01*
X414307Y854875D01*
X415744Y855080D01*
X417132Y855368D01*
X418471Y855739D01*
X419762Y856191D01*
X421002Y856726D01*
X422194Y857343D01*
X423337Y858042D01*
X424430Y858824D01*
Y842976D01*
D02*
G37*
G36*
X1216594Y971842D02*
Y842076D01*
X1131570D01*
X1129581Y841814D01*
X1127848Y841096D01*
X1126912Y841435D01*
X1126578Y841600D01*
Y883485D01*
X1215421Y972328D01*
X1216594Y971842D01*
D02*
G37*
G36*
X612897Y867419D02*
X583765Y838288D01*
X442774D01*
X442373Y839558D01*
X444190Y841773D01*
X445709Y844613D01*
X446643Y847695D01*
X446959Y850900D01*
X446643Y854105D01*
X445709Y857187D01*
X444190Y860027D01*
X442147Y862517D01*
X439658Y864560D01*
X436817Y866078D01*
X433735Y867013D01*
X430599Y867322D01*
X430662Y868592D01*
X612411D01*
X612897Y867419D01*
D02*
G37*
G36*
X1179742Y1129865D02*
Y1001195D01*
X1003291Y824743D01*
X1002118Y825229D01*
Y832685D01*
X1170566Y1001134D01*
X1170566Y1001134D01*
X1172195Y1003256D01*
X1173219Y1005728D01*
X1173568Y1008380D01*
X1173568Y1008380D01*
Y1129030D01*
X1173568Y1129030D01*
X1173219Y1131682D01*
X1172195Y1134154D01*
X1170566Y1136276D01*
X1135006Y1171836D01*
X1132884Y1173465D01*
X1130412Y1174489D01*
X1127760Y1174838D01*
X1127760Y1174838D01*
X761840D01*
Y1196252D01*
X1113355D01*
X1179742Y1129865D01*
D02*
G37*
G36*
X721398Y828936D02*
X721512Y827635D01*
X721703Y826488D01*
X721970Y825493D01*
X722312Y824652D01*
X722732Y823963D01*
X723227Y823428D01*
X723798Y823045D01*
X724446Y822816D01*
X725170Y822739D01*
X709930D01*
X710654Y822816D01*
X711302Y823045D01*
X711873Y823428D01*
X712368Y823963D01*
X712787Y824652D01*
X713130Y825493D01*
X713397Y826488D01*
X713588Y827635D01*
X713702Y828936D01*
X713740Y830389D01*
X721360D01*
X721398Y828936D01*
D02*
G37*
G36*
X707302Y856815D02*
Y830712D01*
X707268Y830559D01*
X707235Y829305D01*
X707221Y829150D01*
X701200D01*
Y804841D01*
X699930Y804162D01*
X699858Y804210D01*
Y855980D01*
X699509Y858632D01*
X698485Y861104D01*
X696856Y863226D01*
X696856Y863226D01*
X691393Y868689D01*
X691879Y869862D01*
X694255D01*
X707302Y856815D01*
D02*
G37*
G36*
X752597Y882659D02*
X739514Y869576D01*
X737885Y867454D01*
X736861Y864982D01*
X736512Y862330D01*
X736512Y862330D01*
Y797995D01*
X735170Y796652D01*
X733900Y797178D01*
Y829150D01*
X727879D01*
X727865Y829305D01*
X727832Y830559D01*
X727798Y830712D01*
Y861060D01*
X727449Y863712D01*
X726425Y866184D01*
X724796Y868306D01*
X710443Y882659D01*
X710929Y883832D01*
X752111D01*
X752597Y882659D01*
D02*
G37*
G36*
X895238Y848622D02*
X897890Y848272D01*
X963480D01*
X963590Y848244D01*
X964642Y848189D01*
X964971Y848131D01*
X965029Y847803D01*
X965085Y846750D01*
X965112Y846640D01*
Y794750D01*
X963939Y794263D01*
X950856Y807346D01*
X948734Y808975D01*
X946262Y809998D01*
X943610Y810348D01*
X943610Y810348D01*
X900865D01*
X891628Y819585D01*
Y849084D01*
X891950Y849243D01*
X892898Y849591D01*
X895238Y848622D01*
D02*
G37*
G36*
X672676Y797995D02*
X673107Y797634D01*
X675688Y795206D01*
X682136Y788832D01*
X678132Y782059D01*
X676765Y783373D01*
X674413Y785294D01*
X673429Y785902D01*
X672572Y786274D01*
X671843Y786411D01*
X671241Y786313D01*
X670767Y785979D01*
X670421Y785410D01*
X670202Y784606D01*
X672459Y798046D01*
X672460Y798132D01*
X672676Y797995D01*
D02*
G37*
G36*
X1205142Y1137485D02*
Y991035D01*
X1109084Y894976D01*
X1107455Y892854D01*
X1106432Y890382D01*
X1106082Y887730D01*
X1106082Y887730D01*
Y812800D01*
X1056640D01*
Y736600D01*
X1106082D01*
Y720525D01*
X1007945Y622388D01*
X997950D01*
X997463Y623561D01*
X1015626Y641724D01*
X1017255Y643846D01*
X1018279Y646318D01*
X1018628Y648970D01*
X1018628Y648970D01*
Y762456D01*
X1019898Y762857D01*
X1022113Y761040D01*
X1024953Y759521D01*
X1028035Y758587D01*
X1031240Y758271D01*
X1034445Y758587D01*
X1037527Y759521D01*
X1040368Y761040D01*
X1042857Y763083D01*
X1044900Y765573D01*
X1046419Y768413D01*
X1047354Y771495D01*
X1047669Y774700D01*
X1047354Y777905D01*
X1046419Y780987D01*
X1044900Y783828D01*
X1042857Y786317D01*
X1040368Y788360D01*
X1037527Y789878D01*
X1034445Y790814D01*
X1031240Y791129D01*
X1028035Y790814D01*
X1024953Y789878D01*
X1022113Y788360D01*
X1019898Y786543D01*
X1018628Y786944D01*
Y811095D01*
X1197236Y989704D01*
X1198865Y991826D01*
X1199889Y994298D01*
X1200238Y996950D01*
X1200238Y996950D01*
Y1134110D01*
X1200238Y1134110D01*
X1199889Y1136762D01*
X1198865Y1139234D01*
X1197236Y1141356D01*
X1197236Y1141356D01*
X1127003Y1211589D01*
X1127489Y1212762D01*
X1129865D01*
X1205142Y1137485D01*
D02*
G37*
G36*
X871481Y812688D02*
X872505Y810216D01*
X874134Y808094D01*
X889374Y792854D01*
X891496Y791225D01*
X893968Y790201D01*
X896620Y789852D01*
X920690D01*
X920999Y788620D01*
X920512Y788360D01*
X918023Y786317D01*
X915980Y783828D01*
X914462Y780987D01*
X913527Y777905D01*
X913211Y774700D01*
X913527Y771495D01*
X914462Y768413D01*
X915980Y765573D01*
X916282Y765204D01*
X916449Y764835D01*
X917096Y763929D01*
X917554Y763182D01*
X917959Y762399D01*
X918314Y761576D01*
X918620Y760705D01*
X918875Y759781D01*
X919073Y758825D01*
X918875Y757869D01*
X918620Y756945D01*
X918314Y756074D01*
X917959Y755251D01*
X917554Y754469D01*
X916012Y754378D01*
X915857Y754567D01*
X913367Y756610D01*
X910527Y758129D01*
X907445Y759063D01*
X904240Y759379D01*
X901035Y759063D01*
X897953Y758129D01*
X895113Y756610D01*
X894744Y756308D01*
X894375Y756141D01*
X893469Y755494D01*
X892721Y755036D01*
X891939Y754631D01*
X891116Y754276D01*
X890245Y753970D01*
X889321Y753715D01*
X888337Y753511D01*
X887290Y753361D01*
X886175Y753268D01*
X884821Y753232D01*
X884669Y753198D01*
X881815D01*
X870038Y764975D01*
Y813925D01*
X871308Y814008D01*
X871481Y812688D01*
D02*
G37*
G36*
X936782Y767507D02*
X936083Y766364D01*
X935466Y765172D01*
X934931Y763932D01*
X934479Y762642D01*
X934108Y761302D01*
X933820Y759914D01*
X933664Y758825D01*
X933820Y757736D01*
X934108Y756348D01*
X934479Y755008D01*
X934931Y753718D01*
X935466Y752478D01*
X936083Y751286D01*
X936782Y750143D01*
X937564Y749050D01*
X921716D01*
X922498Y750143D01*
X923197Y751286D01*
X923814Y752478D01*
X924349Y753718D01*
X924801Y755008D01*
X925172Y756348D01*
X925460Y757736D01*
X925616Y758825D01*
X925460Y759914D01*
X925172Y761302D01*
X924801Y762642D01*
X924349Y763932D01*
X923814Y765172D01*
X923197Y766364D01*
X922498Y767507D01*
X921716Y768600D01*
X937564D01*
X936782Y767507D01*
D02*
G37*
G36*
X689860Y733756D02*
X688767Y734538D01*
X687624Y735237D01*
X686432Y735854D01*
X685191Y736389D01*
X683902Y736842D01*
X682562Y737212D01*
X681174Y737500D01*
X679737Y737705D01*
X678634Y737797D01*
X675672Y737529D01*
X674311Y737264D01*
X673159Y736923D01*
X672216Y736507D01*
X671483Y736015D01*
X670960Y735447D01*
X670645Y734803D01*
X670541Y734084D01*
Y749276D01*
X670645Y748557D01*
X670960Y747913D01*
X671483Y747345D01*
X672216Y746853D01*
X673159Y746437D01*
X674311Y746096D01*
X675672Y745831D01*
X677243Y745641D01*
X678564Y745557D01*
X679737Y745655D01*
X681174Y745860D01*
X682562Y746148D01*
X683902Y746518D01*
X685191Y746971D01*
X686432Y747506D01*
X687624Y748123D01*
X688767Y748822D01*
X689860Y749604D01*
Y733756D01*
D02*
G37*
G36*
X898140Y735026D02*
X897047Y735808D01*
X895904Y736507D01*
X894712Y737124D01*
X893472Y737659D01*
X892181Y738111D01*
X890842Y738482D01*
X889454Y738770D01*
X888017Y738975D01*
X886530Y739099D01*
X884994Y739140D01*
Y746760D01*
X886530Y746801D01*
X888017Y746925D01*
X889454Y747130D01*
X890842Y747418D01*
X892181Y747788D01*
X893472Y748241D01*
X894712Y748776D01*
X895904Y749393D01*
X897047Y750092D01*
X898140Y750874D01*
Y735026D01*
D02*
G37*
G36*
X948602Y780615D02*
Y734495D01*
X944445Y730338D01*
X941884D01*
X941483Y731608D01*
X943300Y733822D01*
X944818Y736663D01*
X945753Y739745D01*
X946069Y742950D01*
X945753Y746155D01*
X944818Y749237D01*
X943300Y752077D01*
X942998Y752446D01*
X942831Y752815D01*
X942184Y753721D01*
X941726Y754469D01*
X941321Y755251D01*
X940966Y756074D01*
X940660Y756945D01*
X940405Y757869D01*
X940207Y758825D01*
X940405Y759781D01*
X940660Y760705D01*
X940966Y761576D01*
X941321Y762399D01*
X941726Y763182D01*
X942184Y763929D01*
X942831Y764835D01*
X942998Y765203D01*
X943300Y765573D01*
X944818Y768413D01*
X945753Y771495D01*
X946069Y774700D01*
X945753Y777905D01*
X944818Y780987D01*
X943300Y783828D01*
X941956Y785465D01*
X942898Y786319D01*
X948602Y780615D01*
D02*
G37*
G36*
X767872Y710357D02*
X767173Y709214D01*
X766556Y708022D01*
X766021Y706781D01*
X765568Y705491D01*
X765198Y704152D01*
X764910Y702764D01*
X764705Y701327D01*
X764581Y699840D01*
X764540Y698304D01*
X756920D01*
X756879Y699840D01*
X756755Y701327D01*
X756550Y702764D01*
X756262Y704152D01*
X755891Y705491D01*
X755439Y706781D01*
X754904Y708022D01*
X754287Y709214D01*
X753588Y710357D01*
X752806Y711450D01*
X768654D01*
X767872Y710357D01*
D02*
G37*
G36*
X980233Y691635D02*
X979176Y690520D01*
X978212Y689381D01*
X977341Y688219D01*
X976563Y687034D01*
X975878Y685825D01*
X975286Y684593D01*
X974787Y683338D01*
X974380Y682059D01*
X974067Y680756D01*
X973847Y679430D01*
X962640Y690637D01*
X963966Y690857D01*
X965269Y691170D01*
X966548Y691577D01*
X967803Y692076D01*
X969035Y692668D01*
X970244Y693353D01*
X971429Y694131D01*
X972591Y695002D01*
X973730Y695966D01*
X974845Y697023D01*
X980233Y691635D01*
D02*
G37*
G36*
X764581Y690810D02*
X764705Y689323D01*
X764910Y687886D01*
X765198Y686498D01*
X765568Y685158D01*
X766021Y683868D01*
X766556Y682628D01*
X767173Y681436D01*
X767872Y680293D01*
X768654Y679200D01*
X752806D01*
X753588Y680293D01*
X754287Y681436D01*
X754904Y682628D01*
X755439Y683868D01*
X755891Y685158D01*
X756262Y686498D01*
X756550Y687886D01*
X756755Y689323D01*
X756879Y690810D01*
X756920Y692346D01*
X764540D01*
X764581Y690810D01*
D02*
G37*
G36*
X721496Y681902D02*
X720152Y679387D01*
X719217Y676305D01*
X718901Y673100D01*
X719217Y669895D01*
X720152Y666813D01*
X721670Y663972D01*
X723713Y661483D01*
X726202Y659440D01*
X726689Y659180D01*
X726380Y657948D01*
X712905D01*
X688853Y681999D01*
X689340Y683172D01*
X720971D01*
X721496Y681902D01*
D02*
G37*
G36*
X971072Y673527D02*
X970373Y672384D01*
X969756Y671192D01*
X969221Y669951D01*
X968768Y668661D01*
X968398Y667322D01*
X968148Y666115D01*
X968398Y664908D01*
X968768Y663568D01*
X969221Y662279D01*
X969756Y661038D01*
X970373Y659846D01*
X971072Y658703D01*
X971854Y657610D01*
X956006D01*
X956788Y658703D01*
X957487Y659846D01*
X958104Y661038D01*
X958639Y662279D01*
X959091Y663568D01*
X959462Y664908D01*
X959712Y666115D01*
X959462Y667322D01*
X959091Y668661D01*
X958639Y669951D01*
X958104Y671192D01*
X957487Y672384D01*
X956788Y673527D01*
X956006Y674620D01*
X971854D01*
X971072Y673527D01*
D02*
G37*
G36*
X792127Y665003D02*
X791668Y664411D01*
X791263Y663734D01*
X790912Y662971D01*
X790615Y662122D01*
X790372Y661187D01*
X790183Y660166D01*
X790048Y659060D01*
X789967Y657868D01*
X789940Y656590D01*
X782320D01*
X782293Y657868D01*
X782077Y660166D01*
X781888Y661187D01*
X781645Y662122D01*
X781348Y662971D01*
X780997Y663734D01*
X780592Y664411D01*
X780133Y665003D01*
X779620Y665509D01*
X792640D01*
X792127Y665003D01*
D02*
G37*
G36*
X881630Y643586D02*
X880537Y644368D01*
X879394Y645067D01*
X878202Y645684D01*
X876962Y646219D01*
X875671Y646672D01*
X874332Y647042D01*
X872944Y647330D01*
X872490Y647395D01*
X872036Y647330D01*
X870648Y647042D01*
X869308Y646672D01*
X868018Y646219D01*
X866778Y645684D01*
X865586Y645067D01*
X864443Y644368D01*
X863350Y643586D01*
Y659434D01*
X864443Y658652D01*
X865586Y657953D01*
X866778Y657336D01*
X868018Y656801D01*
X869308Y656348D01*
X870648Y655978D01*
X872036Y655690D01*
X872490Y655625D01*
X872944Y655690D01*
X874332Y655978D01*
X875671Y656348D01*
X876962Y656801D01*
X878202Y657336D01*
X879394Y657953D01*
X880537Y658652D01*
X881630Y659434D01*
Y643586D01*
D02*
G37*
G36*
X998132Y698771D02*
Y653215D01*
X983815Y638898D01*
X976174D01*
X975773Y640168D01*
X977590Y642383D01*
X979109Y645223D01*
X980043Y648305D01*
X980359Y651510D01*
X980043Y654715D01*
X979109Y657797D01*
X977590Y660638D01*
X977288Y661006D01*
X977121Y661375D01*
X976474Y662281D01*
X976016Y663028D01*
X975611Y663811D01*
X975256Y664634D01*
X974950Y665505D01*
X974782Y666115D01*
X974950Y666725D01*
X975256Y667596D01*
X975611Y668419D01*
X976016Y669202D01*
X976474Y669949D01*
X977121Y670855D01*
X977288Y671224D01*
X977590Y671592D01*
X979109Y674433D01*
X980043Y677515D01*
X980090Y677990D01*
X980233Y678368D01*
X980416Y679466D01*
X980621Y680319D01*
X980888Y681159D01*
X981219Y681992D01*
X981619Y682823D01*
X982092Y683658D01*
X982643Y684498D01*
X983278Y685344D01*
X984000Y686198D01*
X984932Y687181D01*
X985015Y687312D01*
X996959Y699257D01*
X998132Y698771D01*
D02*
G37*
G36*
X701414Y640454D02*
X701414Y640454D01*
X701874Y640100D01*
X701466Y638898D01*
X674835D01*
X674183Y639987D01*
X674308Y640223D01*
X675244Y643305D01*
X675559Y646510D01*
Y656510D01*
X675244Y659715D01*
X674308Y662797D01*
X672921Y665392D01*
X673391Y666662D01*
X675205D01*
X701414Y640454D01*
D02*
G37*
G36*
X465480Y640168D02*
X464954Y638898D01*
X370035D01*
X369383Y639987D01*
X369509Y640223D01*
X370443Y643305D01*
X370759Y646510D01*
Y656510D01*
X370443Y659715D01*
X369509Y662797D01*
X368704Y664303D01*
X369357Y665392D01*
X440255D01*
X465480Y640168D01*
D02*
G37*
G36*
X1125699Y710145D02*
X1126135Y709575D01*
X1127727Y708354D01*
X1129581Y707586D01*
X1131570Y707324D01*
X1216594D01*
Y629294D01*
X1198236Y610936D01*
X1027138D01*
X1026652Y612109D01*
X1123576Y709034D01*
X1123576Y709034D01*
X1124428Y710145D01*
X1125699D01*
D02*
G37*
%LPC*%
G36*
X379730Y825339D02*
X376525Y825023D01*
X373443Y824089D01*
X370602Y822570D01*
X368113Y820527D01*
X367665Y819981D01*
X366395D01*
X365947Y820527D01*
X363457Y822570D01*
X360617Y824089D01*
X357535Y825023D01*
X354330Y825339D01*
X351125Y825023D01*
X348043Y824089D01*
X346369Y823194D01*
X345280Y823847D01*
Y825260D01*
X312580D01*
Y782560D01*
X345280D01*
Y783973D01*
X346369Y784626D01*
X348043Y783732D01*
X351125Y782797D01*
X354330Y782481D01*
X357535Y782797D01*
X360617Y783732D01*
X363457Y785250D01*
X365947Y787293D01*
X366395Y787839D01*
X367665D01*
X368113Y787293D01*
X370602Y785250D01*
X373443Y783732D01*
X376525Y782797D01*
X379730Y782481D01*
X382935Y782797D01*
X386017Y783732D01*
X388857Y785250D01*
X391347Y787293D01*
X393390Y789782D01*
X394908Y792623D01*
X395844Y795705D01*
X396159Y798910D01*
Y808910D01*
X395844Y812115D01*
X394908Y815197D01*
X393390Y818037D01*
X391347Y820527D01*
X388857Y822570D01*
X386017Y824089D01*
X382935Y825023D01*
X379730Y825339D01*
D02*
G37*
G36*
X1066800Y1136569D02*
X1063595Y1136254D01*
X1060513Y1135319D01*
X1057673Y1133800D01*
X1055183Y1131757D01*
X1053140Y1129268D01*
X1051621Y1126427D01*
X1050686Y1123345D01*
X1050371Y1120140D01*
X1050686Y1116935D01*
X1051621Y1113853D01*
X1053140Y1111012D01*
X1055183Y1108523D01*
X1057673Y1106480D01*
X1060513Y1104961D01*
X1063595Y1104026D01*
X1066800Y1103711D01*
X1070005Y1104026D01*
X1073087Y1104961D01*
X1075928Y1106480D01*
X1076296Y1106782D01*
X1076665Y1106949D01*
X1077571Y1107596D01*
X1078318Y1108054D01*
X1079101Y1108459D01*
X1079924Y1108814D01*
X1080795Y1109120D01*
X1081719Y1109375D01*
X1082703Y1109579D01*
X1083751Y1109729D01*
X1084865Y1109822D01*
X1086219Y1109858D01*
X1086371Y1109892D01*
X1089528D01*
X1089681Y1109858D01*
X1090935Y1109825D01*
X1091090Y1109811D01*
Y1103790D01*
X1123790D01*
Y1136490D01*
X1091090D01*
Y1130469D01*
X1090935Y1130455D01*
X1089681Y1130422D01*
X1089528Y1130388D01*
X1086371D01*
X1086219Y1130422D01*
X1084865Y1130458D01*
X1083751Y1130551D01*
X1082703Y1130701D01*
X1081719Y1130905D01*
X1080795Y1131160D01*
X1079924Y1131466D01*
X1079101Y1131821D01*
X1078318Y1132226D01*
X1077571Y1132684D01*
X1076665Y1133331D01*
X1076296Y1133498D01*
X1075928Y1133800D01*
X1073087Y1135319D01*
X1070005Y1136254D01*
X1066800Y1136569D01*
D02*
G37*
%LPD*%
G36*
X1097501Y1112520D02*
X1097424Y1113244D01*
X1097195Y1113892D01*
X1096812Y1114463D01*
X1096277Y1114958D01*
X1095588Y1115378D01*
X1094747Y1115720D01*
X1093752Y1115987D01*
X1092605Y1116178D01*
X1091304Y1116292D01*
X1089850Y1116330D01*
Y1123950D01*
X1091304Y1123988D01*
X1092605Y1124102D01*
X1093752Y1124293D01*
X1094747Y1124560D01*
X1095588Y1124902D01*
X1096277Y1125322D01*
X1096812Y1125817D01*
X1097195Y1126388D01*
X1097424Y1127036D01*
X1097501Y1127760D01*
Y1112520D01*
D02*
G37*
G36*
X1073993Y1127282D02*
X1075136Y1126583D01*
X1076328Y1125966D01*
X1077569Y1125431D01*
X1078858Y1124978D01*
X1080198Y1124608D01*
X1081586Y1124320D01*
X1083023Y1124115D01*
X1084510Y1123991D01*
X1086046Y1123950D01*
Y1116330D01*
X1084510Y1116289D01*
X1083023Y1116165D01*
X1081586Y1115960D01*
X1080198Y1115672D01*
X1078858Y1115302D01*
X1077569Y1114849D01*
X1076328Y1114314D01*
X1075136Y1113697D01*
X1073993Y1112998D01*
X1072900Y1112216D01*
Y1128064D01*
X1073993Y1127282D01*
D02*
G37*
%LPC*%
G36*
X939800Y845739D02*
X936595Y845424D01*
X933513Y844489D01*
X930673Y842970D01*
X928183Y840927D01*
X927735Y840381D01*
X926465D01*
X926017Y840927D01*
X923528Y842970D01*
X920687Y844489D01*
X917605Y845424D01*
X914400Y845739D01*
X911195Y845424D01*
X908113Y844489D01*
X905273Y842970D01*
X902783Y840927D01*
X900740Y838438D01*
X899221Y835597D01*
X898287Y832515D01*
X897971Y829310D01*
X898287Y826105D01*
X899221Y823023D01*
X900740Y820182D01*
X902783Y817693D01*
X905273Y815650D01*
X908113Y814131D01*
X911195Y813196D01*
X914400Y812881D01*
X917605Y813196D01*
X920687Y814131D01*
X923528Y815650D01*
X926017Y817693D01*
X926465Y818239D01*
X927735D01*
X928183Y817693D01*
X930673Y815650D01*
X933513Y814131D01*
X936595Y813196D01*
X939800Y812881D01*
X943005Y813196D01*
X946087Y814131D01*
X948928Y815650D01*
X951417Y817693D01*
X953460Y820182D01*
X954978Y823023D01*
X955913Y826105D01*
X956229Y829310D01*
X955913Y832515D01*
X954978Y835597D01*
X953460Y838438D01*
X951417Y840927D01*
X948928Y842970D01*
X946087Y844489D01*
X943005Y845424D01*
X939800Y845739D01*
D02*
G37*
%LPD*%
D10*
X293370Y629920D02*
X311743Y612140D01*
X293370Y629920D02*
Y674370D01*
X311743Y612140D02*
X1012190D01*
X769620Y1049020D02*
X826770D01*
X740410Y1078230D02*
X769620Y1049020D01*
X740410Y1078230D02*
Y1126490D01*
X1008380Y815340D02*
X1189990Y996950D01*
X1008380Y648970D02*
Y815340D01*
X988060Y628650D02*
X1008380Y648970D01*
X991870Y836930D02*
X1163320Y1008380D01*
X991870Y708660D02*
Y836930D01*
X963930Y680720D02*
X991870Y708660D01*
X618490Y878840D02*
X633730Y894080D01*
X402590Y878840D02*
X618490D01*
X367030Y914400D02*
X402590Y878840D01*
X407670Y828040D02*
X588010D01*
X640080Y880110D01*
X717550Y812800D02*
Y861060D01*
X698500Y880110D02*
X717550Y861060D01*
X640080Y880110D02*
X698500D01*
X459740Y1206500D02*
X466090Y1200150D01*
X360680Y1206500D02*
X459740D01*
X336550Y1182370D02*
X360680Y1206500D01*
X735330Y673100D02*
Y685800D01*
X727710Y693420D02*
X735330Y685800D01*
X619760Y693420D02*
X727710D01*
X643890Y767080D02*
X659130D01*
X635000Y775970D02*
X643890Y767080D01*
X635000Y775970D02*
Y854710D01*
X646430Y866140D01*
X673100Y1017270D02*
X707390D01*
X735747D01*
X336550Y899160D02*
X407670Y828040D01*
X486410Y971550D02*
X516890Y941070D01*
X447040Y971550D02*
X486410D01*
X391160Y932180D02*
Y1017270D01*
X389890Y930910D02*
X391160Y932180D01*
X477520Y1127760D02*
X543560D01*
X381000Y1107440D02*
X416560D01*
X389890Y1083310D02*
X417830D01*
X293370Y674370D02*
X312420Y693420D01*
X314960Y628650D02*
X988060D01*
X1134110Y1223010D02*
X1215390Y1141730D01*
X608330Y1223010D02*
X1134110D01*
X593090Y1207770D02*
X608330Y1223010D01*
X593090Y1184910D02*
Y1207770D01*
X482600Y662940D02*
X589280D01*
X452120Y693420D02*
X482600Y662940D01*
X312420Y693420D02*
X452120D01*
X589280Y662940D02*
X619760Y693420D01*
X444500Y675640D02*
X473710Y646430D01*
X316230Y675640D02*
X444500D01*
X307340Y666750D02*
X316230Y675640D01*
X307340Y636270D02*
Y666750D01*
X1066800Y1120140D02*
X1107440D01*
X534670Y966470D02*
X607060D01*
X417830Y1083310D02*
X534670Y966470D01*
X516890Y930910D02*
Y941070D01*
X535940Y988060D02*
X543560D01*
X416560Y1107440D02*
X535940Y988060D01*
X407670Y850900D02*
X430530D01*
X351790Y906780D02*
X407670Y850900D01*
X336550Y899160D02*
Y1182370D01*
X351790Y906780D02*
Y1173480D01*
X1116330Y716280D02*
Y887730D01*
X1012190Y612140D02*
X1116330Y716280D01*
Y887730D02*
X1215390Y986790D01*
Y1141730D01*
X1189990Y996950D02*
Y1134110D01*
X1117600Y1206500D02*
X1189990Y1134110D01*
X626110Y1206500D02*
X1117600D01*
X1163320Y1008380D02*
Y1129030D01*
X1127760Y1164590D02*
X1163320Y1129030D01*
X524510Y1164590D02*
X1127760D01*
X1125220Y1069340D02*
X1135380Y1059180D01*
Y1018540D02*
Y1059180D01*
X975360Y858520D02*
X1135380Y1018540D01*
X1107440Y1027430D02*
Y1043940D01*
X962660Y882650D02*
X1107440Y1027430D01*
Y1069340D02*
X1125220D01*
X914400Y1094740D02*
X938530D01*
X909320Y1099820D02*
X914400Y1094740D01*
X890270Y1099820D02*
X909320D01*
X916940Y1069340D02*
X938530D01*
X910590Y1062990D02*
X916940Y1069340D01*
X890270Y1062990D02*
X910590D01*
X896620Y800100D02*
X943610D01*
X881380Y815340D02*
X896620Y800100D01*
X881380Y815340D02*
Y852170D01*
X473710Y646430D02*
X598170D01*
X628650Y676910D01*
X762000Y877570D02*
X810260D01*
X746760Y862330D02*
X762000Y877570D01*
X746760Y793750D02*
Y862330D01*
X689610Y798830D02*
Y855980D01*
X679450Y866140D02*
X689610Y855980D01*
X646430Y866140D02*
X679450D01*
X765810Y786130D02*
Y852170D01*
X745490Y765810D02*
X765810Y786130D01*
X699770Y765810D02*
X745490D01*
X765810Y852170D02*
X774700Y861060D01*
X904240Y882650D02*
X962660D01*
X819150Y967740D02*
X904240Y882650D01*
X822960Y910590D02*
X881380Y852170D01*
X660400Y967740D02*
X819150D01*
X948690Y720090D02*
X958850Y730250D01*
X876300Y720090D02*
X948690D01*
X839470Y756920D02*
X876300Y720090D01*
X929640Y742950D02*
Y774700D01*
X877570Y742950D02*
X904240D01*
X859790Y760730D02*
X877570Y742950D01*
X869950Y702310D02*
X957580D01*
X819150Y753110D02*
X869950Y702310D01*
X819150Y753110D02*
Y844550D01*
X958850Y730250D02*
Y784860D01*
X943610Y800100D02*
X958850Y784860D01*
X673100Y792480D02*
X699770Y765810D01*
X774700Y861060D02*
X802640D01*
X819150Y844550D01*
X810260Y877570D02*
X839470Y848360D01*
Y756920D02*
Y848360D01*
X859790Y760730D02*
Y850900D01*
X816610Y894080D02*
X859790Y850900D01*
X633730Y894080D02*
X816610D01*
X650240Y910590D02*
X822960D01*
X706120Y782320D02*
X735330D01*
X689610Y798830D02*
X706120Y782320D01*
X659130Y792480D02*
X673100D01*
X735330Y782320D02*
X746760Y793750D01*
X618490Y1198880D02*
X626110Y1206500D01*
X618490Y1184910D02*
Y1198880D01*
X466090Y1184910D02*
Y1200150D01*
X743367Y1024890D02*
X781050D01*
X735747Y1017270D02*
X743367Y1024890D01*
X849630Y1068070D02*
X890270Y1027430D01*
X773430Y1068070D02*
X849630D01*
X826770Y1049020D02*
X914400Y961390D01*
X643890Y916940D02*
X650240Y910590D01*
X643890Y916940D02*
Y930910D01*
X857250Y651510D02*
X887730D01*
X760730Y673100D02*
Y717550D01*
X307340Y636270D02*
X314960Y628650D01*
X618490Y909320D02*
Y930910D01*
X610870Y901700D02*
X618490Y909320D01*
X593090Y914400D02*
Y930910D01*
X582930Y904240D02*
X593090Y914400D01*
X582930Y901700D02*
Y904240D01*
X554990Y901700D02*
X567690Y914400D01*
Y930910D01*
X679450Y676910D02*
X708660Y647700D01*
X628650Y676910D02*
X679450D01*
X786130Y656590D02*
Y673100D01*
X777240Y647700D02*
X786130Y656590D01*
X708660Y647700D02*
X777240D01*
X643890Y951230D02*
X660400Y967740D01*
X643890Y930910D02*
Y951230D01*
X803910Y952500D02*
X897890Y858520D01*
X727710Y952500D02*
X803910D01*
X720090Y944880D02*
X727710Y952500D01*
X720090Y930910D02*
Y944880D01*
X897890Y858520D02*
X975360D01*
Y720090D02*
Y858520D01*
X957580Y702310D02*
X975360Y720090D01*
X728890Y1138010D02*
X740410Y1126490D01*
X652870Y1138010D02*
X728890D01*
X739557Y1150620D02*
X756920Y1133257D01*
Y1084580D02*
Y1133257D01*
Y1084580D02*
X773430Y1068070D01*
X632460Y1150620D02*
X739557D01*
X607060Y966470D02*
X657860Y1017270D01*
X574040Y988060D02*
X580390Y994410D01*
X543560Y988060D02*
X574040D01*
X580390Y994410D02*
X603250D01*
X544830Y1097280D02*
X546100Y1096010D01*
X576580D01*
X543560D02*
X544830Y1097280D01*
X367030Y914400D02*
Y1093470D01*
X659130Y741680D02*
X695960D01*
X491490Y901700D02*
Y930910D01*
X440690Y900430D02*
Y930910D01*
X745490D02*
X783590D01*
X389890Y1155700D02*
Y1184910D01*
X367030Y1093470D02*
X381000Y1107440D01*
X363220Y1184910D02*
X389890D01*
X351790Y1173480D02*
X363220Y1184910D01*
X963930Y651510D02*
Y680720D01*
X603250Y1121410D02*
X632460Y1150620D01*
X516890Y1172210D02*
Y1184910D01*
Y1172210D02*
X524510Y1164590D01*
X624840Y1109980D02*
X652870Y1138010D01*
X624840Y1040384D02*
Y1109980D01*
X604266Y1019810D02*
X624840Y1040384D01*
X543560Y1019810D02*
X604266D01*
X657860Y1017270D02*
X673100D01*
D11*
X938530Y1094740D02*
D03*
Y1069340D02*
D03*
X1107440Y1043940D02*
D03*
Y1069340D02*
D03*
Y1094740D02*
D03*
X904240Y742950D02*
D03*
X929640D02*
D03*
X963930Y651510D02*
D03*
X887730D02*
D03*
Y680720D02*
D03*
X963930D02*
D03*
X415290Y900430D02*
D03*
X440690D02*
D03*
X1031240Y774700D02*
D03*
X914400Y829310D02*
D03*
X939800D02*
D03*
X793750Y812800D02*
D03*
X811530Y673100D02*
D03*
X786130D02*
D03*
X760730D02*
D03*
X735330D02*
D03*
X314960Y1127760D02*
D03*
Y988060D02*
D03*
D12*
X1107440Y1120140D02*
D03*
X745490Y1184910D02*
D03*
X720090D02*
D03*
X694690D02*
D03*
X669290D02*
D03*
X643890D02*
D03*
X618490D02*
D03*
X593090D02*
D03*
X567690D02*
D03*
X542290D02*
D03*
X516890D02*
D03*
X491490D02*
D03*
X466090D02*
D03*
X440690D02*
D03*
X415290D02*
D03*
X389890D02*
D03*
X745490Y930910D02*
D03*
X720090D02*
D03*
X694690D02*
D03*
X669290D02*
D03*
X643890D02*
D03*
X618490D02*
D03*
X593090D02*
D03*
X567690D02*
D03*
X542290D02*
D03*
X516890D02*
D03*
X491490D02*
D03*
X466090D02*
D03*
X440690D02*
D03*
X415290D02*
D03*
X389890D02*
D03*
D13*
X659130Y651510D02*
D03*
X633730D02*
D03*
X379730D02*
D03*
X354330D02*
D03*
Y803910D02*
D03*
X379730D02*
D03*
X405130D02*
D03*
X430530D02*
D03*
D14*
X328930Y651510D02*
D03*
Y803910D02*
D03*
D15*
X1082040Y774700D02*
D03*
D16*
X659130Y843280D02*
D03*
Y817880D02*
D03*
Y792480D02*
D03*
Y767080D02*
D03*
Y741680D02*
D03*
Y716280D02*
D03*
X673100Y1118870D02*
D03*
Y1093470D02*
D03*
Y1068070D02*
D03*
Y1042670D02*
D03*
Y1017270D02*
D03*
X543560Y1019810D02*
D03*
Y1096010D02*
D03*
Y1127760D02*
D03*
Y988060D02*
D03*
D17*
X717550Y812800D02*
D03*
D18*
X673100Y991870D02*
D03*
D19*
X603250Y1121410D02*
D03*
Y994410D02*
D03*
X781050Y1093470D02*
D03*
Y1024890D02*
D03*
D20*
X456167Y722630D02*
D03*
X316230Y721360D02*
D03*
X347980Y843280D02*
D03*
X522447Y901700D02*
D03*
X514350Y854105D02*
D03*
X603250Y740410D02*
D03*
X543147D02*
D03*
X822960Y708422D02*
D03*
X1130300Y683925D02*
D03*
X1167042Y864870D02*
D03*
X1037590Y690805D02*
D03*
X1191260Y1197610D02*
D03*
X1019810Y1021080D02*
D03*
X713740Y1104576D02*
D03*
X721360Y1045874D02*
D03*
X431800Y1148924D02*
D03*
X311150Y1195070D02*
D03*
X353060Y748030D02*
D03*
X967975Y962660D02*
D03*
X999490Y1084061D02*
D03*
X1197610Y900430D02*
D03*
X1181100Y667596D02*
D03*
X707390Y1017270D02*
D03*
X447040Y971550D02*
D03*
X391160Y1017270D02*
D03*
X477520Y1127760D02*
D03*
X430530Y850900D02*
D03*
X1066800Y1120140D02*
D03*
X890270Y1062990D02*
D03*
Y1099820D02*
D03*
X914400Y961390D02*
D03*
X857250Y651510D02*
D03*
X760730Y717550D02*
D03*
X554990Y901700D02*
D03*
X582930D02*
D03*
X610870D02*
D03*
X890270Y1027430D02*
D03*
X576580Y1096010D02*
D03*
X695960Y741680D02*
D03*
X491490Y901700D02*
D03*
X783590Y930910D02*
D03*
X389890Y1155700D02*
D03*
Y1083310D02*
D03*
X929640Y774700D02*
D03*
%TF.MD5,9756d97512a62132fc8e191acde2f45d*%
M02*
