%TF.GenerationSoftware,Altium Limited,Altium Designer,18.1.6 (161)*%
G04 Layer_Color=255*
%FSLAX44Y44*%
%MOMM*%
%TF.FileFunction,Pads,Bot*%
%TF.Part,Single*%
G01*
G75*
%TA.AperFunction,ComponentPad*%
%ADD11C,2.0000*%
%ADD12R,2.0000X2.0000*%
%ADD13O,2.0000X3.0000*%
%ADD14R,2.0000X3.0000*%
%ADD15R,3.8100X6.3500*%
%ADD16O,3.0000X2.0000*%
%ADD17R,2.0000X2.0000*%
%ADD18R,3.0000X2.0000*%
%ADD19O,2.0000X3.0000*%
D11*
X938530Y1094740D02*
D03*
Y1069340D02*
D03*
X1107440Y1043940D02*
D03*
Y1069340D02*
D03*
Y1094740D02*
D03*
X904240Y742950D02*
D03*
X929640D02*
D03*
X963930Y651510D02*
D03*
X887730D02*
D03*
Y680720D02*
D03*
X963930D02*
D03*
X415290Y900430D02*
D03*
X440690D02*
D03*
X1031240Y774700D02*
D03*
X914400Y829310D02*
D03*
X939800D02*
D03*
X793750Y812800D02*
D03*
X811530Y673100D02*
D03*
X786130D02*
D03*
X760730D02*
D03*
X735330D02*
D03*
X314960Y1127760D02*
D03*
Y988060D02*
D03*
D12*
X1107440Y1120140D02*
D03*
X745490Y1184910D02*
D03*
X720090D02*
D03*
X694690D02*
D03*
X669290D02*
D03*
X643890D02*
D03*
X618490D02*
D03*
X593090D02*
D03*
X567690D02*
D03*
X542290D02*
D03*
X516890D02*
D03*
X491490D02*
D03*
X466090D02*
D03*
X440690D02*
D03*
X415290D02*
D03*
X389890D02*
D03*
X745490Y930910D02*
D03*
X720090D02*
D03*
X694690D02*
D03*
X669290D02*
D03*
X643890D02*
D03*
X618490D02*
D03*
X593090D02*
D03*
X567690D02*
D03*
X542290D02*
D03*
X516890D02*
D03*
X491490D02*
D03*
X466090D02*
D03*
X440690D02*
D03*
X415290D02*
D03*
X389890D02*
D03*
D13*
X659130Y651510D02*
D03*
X633730D02*
D03*
X379730D02*
D03*
X354330D02*
D03*
Y803910D02*
D03*
X379730D02*
D03*
X405130D02*
D03*
X430530D02*
D03*
D14*
X328930Y651510D02*
D03*
Y803910D02*
D03*
D15*
X1082040Y774700D02*
D03*
D16*
X659130Y843280D02*
D03*
Y817880D02*
D03*
Y792480D02*
D03*
Y767080D02*
D03*
Y741680D02*
D03*
Y716280D02*
D03*
X673100Y1118870D02*
D03*
Y1093470D02*
D03*
Y1068070D02*
D03*
Y1042670D02*
D03*
Y1017270D02*
D03*
X543560Y1019810D02*
D03*
Y1096010D02*
D03*
Y1127760D02*
D03*
Y988060D02*
D03*
D17*
X717550Y812800D02*
D03*
D18*
X673100Y991870D02*
D03*
D19*
X603250Y1121410D02*
D03*
Y994410D02*
D03*
X781050Y1093470D02*
D03*
Y1024890D02*
D03*
%TF.MD5,1db9e8caf2996519b1807de782900601*%
M02*
