M48
;Layer_Color=9474304
;FILE_FORMAT=4:4
METRIC
;TYPE=PLATED
T1F00S00C1.0000
T2F00S00C1.5000
%
T01
X00811530Y00673100
X00822960Y00708422
X00857250Y00651510
X00887730
Y00680720
X00963930
Y00651510
X01037590Y00690805
X01031240Y00774700
X01082040
X01130300Y00683925
X01181100Y00667596
X00929640Y00742950
X00904240
X00929640Y00774700
X00760730Y00717550
Y00673100
X00786130
X00735330
X00695960Y00741680
X00603250Y00740410
X00543147
X00456167Y00722630
X00353060Y00748030
X00316230Y00721360
X00347980Y00843280
X00389890Y00930910
X00391160Y01017270
X00389890Y01083310
Y01155700
Y01184910
X00415290
X00440690
X00466090
X00491490
X00516890
X00542290
X00567690
X00593090
X00618490
X00643890
X00669290
X00694690
X00720090
X00745490
X00713740Y01104576
X00721360Y01045874
X00707390Y01017270
X00720090Y00930910
X00745490
X00783590
X00694690
X00669290
X00643890
X00618490
X00593090
X00567690
X00542290
X00516890
X00491490
X00466090
X00440690
X00415290
Y00900430
X00440690
X00491490Y00901700
X00522447
X00554990
X00582930
X00610870
X00514350Y00854105
X00430530Y00850900
X00447040Y00971550
X00477520Y01127760
X00431800Y01148924
X00576580Y01096010
X00717550Y00812800
X00793750
X00914400Y00829310
X00939800
X00914400Y00961390
X00967975Y00962660
X01019810Y01021080
X00999490Y01084061
X00938530Y01094740
Y01069340
X00890270Y01062990
Y01027430
Y01099820
X01066800Y01120140
X01107440
Y01094740
Y01069340
Y01043940
X01167042Y00864870
X01197610Y00900430
X01191260Y01197610
X00311150Y01195070
T02
X00633730Y00651510
X00659130
Y00716280
Y00741680
Y00767080
Y00792480
X00379730Y00651510
X00354330
X00328930
Y00803910
X00354330
X00379730
X00314960Y00988060
Y01127760
X00543560
Y01096010
Y01019810
Y00988060
X00603250Y00994410
X00673100Y00991870
Y01017270
Y01042670
Y01068070
Y01093470
Y01118870
X00603250Y01121410
X00781050Y01093470
Y01024890
X00659130Y00843280
Y00817880
X00430530Y00803910
X00405130
M30
