%TF.GenerationSoftware,Altium Limited,Altium Designer,18.1.6 (161)*%
G04 Layer_Color=16711935*
%FSLAX44Y44*%
%MOMM*%
%TF.FileFunction,Soldermask,Bot*%
%TF.Part,Single*%
G01*
G75*
%TA.AperFunction,ComponentPad*%
%ADD23C,2.2032*%
%ADD24R,2.2032X2.2032*%
%ADD25O,2.2032X3.2032*%
%ADD26R,2.2032X3.2032*%
%ADD27R,4.0132X6.5532*%
%ADD28O,3.2032X2.2032*%
%ADD29R,2.2032X2.2032*%
%ADD30R,3.2032X2.2032*%
%ADD31O,2.2032X3.2032*%
%TA.AperFunction,ViaPad*%
%ADD32C,2.2032*%
D23*
X938530Y1094740D02*
D03*
Y1069340D02*
D03*
X1107440Y1043940D02*
D03*
Y1069340D02*
D03*
Y1094740D02*
D03*
X904240Y742950D02*
D03*
X929640D02*
D03*
X963930Y651510D02*
D03*
X887730D02*
D03*
Y680720D02*
D03*
X963930D02*
D03*
X415290Y900430D02*
D03*
X440690D02*
D03*
X1031240Y774700D02*
D03*
X914400Y829310D02*
D03*
X939800D02*
D03*
X793750Y812800D02*
D03*
X811530Y673100D02*
D03*
X786130D02*
D03*
X760730D02*
D03*
X735330D02*
D03*
X314960Y1127760D02*
D03*
Y988060D02*
D03*
D24*
X1107440Y1120140D02*
D03*
X745490Y1184910D02*
D03*
X720090D02*
D03*
X694690D02*
D03*
X669290D02*
D03*
X643890D02*
D03*
X618490D02*
D03*
X593090D02*
D03*
X567690D02*
D03*
X542290D02*
D03*
X516890D02*
D03*
X491490D02*
D03*
X466090D02*
D03*
X440690D02*
D03*
X415290D02*
D03*
X389890D02*
D03*
X745490Y930910D02*
D03*
X720090D02*
D03*
X694690D02*
D03*
X669290D02*
D03*
X643890D02*
D03*
X618490D02*
D03*
X593090D02*
D03*
X567690D02*
D03*
X542290D02*
D03*
X516890D02*
D03*
X491490D02*
D03*
X466090D02*
D03*
X440690D02*
D03*
X415290D02*
D03*
X389890D02*
D03*
D25*
X659130Y651510D02*
D03*
X633730D02*
D03*
X379730D02*
D03*
X354330D02*
D03*
Y803910D02*
D03*
X379730D02*
D03*
X405130D02*
D03*
X430530D02*
D03*
D26*
X328930Y651510D02*
D03*
Y803910D02*
D03*
D27*
X1082040Y774700D02*
D03*
D28*
X659130Y843280D02*
D03*
Y817880D02*
D03*
Y792480D02*
D03*
Y767080D02*
D03*
Y741680D02*
D03*
Y716280D02*
D03*
X673100Y1118870D02*
D03*
Y1093470D02*
D03*
Y1068070D02*
D03*
Y1042670D02*
D03*
Y1017270D02*
D03*
X543560Y1019810D02*
D03*
Y1096010D02*
D03*
Y1127760D02*
D03*
Y988060D02*
D03*
D29*
X717550Y812800D02*
D03*
D30*
X673100Y991870D02*
D03*
D31*
X603250Y1121410D02*
D03*
Y994410D02*
D03*
X781050Y1093470D02*
D03*
Y1024890D02*
D03*
D32*
X456167Y722630D02*
D03*
X316230Y721360D02*
D03*
X347980Y843280D02*
D03*
X522447Y901700D02*
D03*
X514350Y854105D02*
D03*
X603250Y740410D02*
D03*
X543147D02*
D03*
X822960Y708422D02*
D03*
X1130300Y683925D02*
D03*
X1167042Y864870D02*
D03*
X1037590Y690805D02*
D03*
X1191260Y1197610D02*
D03*
X1019810Y1021080D02*
D03*
X713740Y1104576D02*
D03*
X721360Y1045874D02*
D03*
X431800Y1148924D02*
D03*
X311150Y1195070D02*
D03*
X353060Y748030D02*
D03*
X967975Y962660D02*
D03*
X999490Y1084061D02*
D03*
X1197610Y900430D02*
D03*
X1181100Y667596D02*
D03*
X707390Y1017270D02*
D03*
X447040Y971550D02*
D03*
X391160Y1017270D02*
D03*
X477520Y1127760D02*
D03*
X430530Y850900D02*
D03*
X1066800Y1120140D02*
D03*
X890270Y1062990D02*
D03*
Y1099820D02*
D03*
X914400Y961390D02*
D03*
X857250Y651510D02*
D03*
X760730Y717550D02*
D03*
X554990Y901700D02*
D03*
X582930D02*
D03*
X610870D02*
D03*
X890270Y1027430D02*
D03*
X576580Y1096010D02*
D03*
X695960Y741680D02*
D03*
X491490Y901700D02*
D03*
X783590Y930910D02*
D03*
X389890Y1155700D02*
D03*
Y1083310D02*
D03*
X929640Y774700D02*
D03*
%TF.MD5,3cc6c7204cde72fe6ef0e14f4f11453c*%
M02*
